<svg xmlns="http://www.w3.org/2000/svg" xmlns:xlink="http://www.w3.org/1999/xlink" width="882.852" height="729.933" viewBox="0 0 882.852 729.933"><defs><style>.a{fill:#c9dbff;}.b{fill:url(#a);}.c{fill:url(#b);}.d{fill:url(#c);}.e{fill:#bad0ff;}.f{fill:#d1e0ff;}.g{fill:url(#d);}.h{fill:#4a70c9;}.i{fill:#a6c3ff;}.j{fill:#223763;}.k{fill:#214aad;}.l{fill:url(#f);}.m{fill:#471312;}.aa,.ah,.aj,.al,.am,.an,.at,.av,.bu,.bx,.n,.q,.t,.v{mix-blend-mode:overlay;}.aa,.ab,.ac,.ah,.aj,.al,.am,.an,.at,.av,.bu,.bx,.n,.q,.t,.v{isolation:isolate;}.n{fill:url(#g);}.o{fill:#163173;}.p{fill:#285ee0;}.q{fill:url(#h);}.r{fill:#18357d;}.s{fill:#5c9dad;}.t{fill:url(#i);}.u{fill:#296473;}.v{fill:url(#j);}.w{fill:url(#k);}.x{fill:#fff;}.ac,.y{fill:#fcbc19;}.ab,.z{fill:#ff5787;}.aa{fill:url(#l);}.ab,.ac{mix-blend-mode:hard-light;}.ad,.ae,.ak,.au,.br,.bz{fill:none;stroke-linecap:round;stroke-linejoin:round;}.ad{stroke:#fff;stroke-width:0.47px;}.ae{stroke:#cfa028;}.ae,.au{stroke-width:3.661px;}.af{fill:#b02a51;}.ag{fill:#d95757;}.ah{opacity:0.51;fill:url(#n);}.ai{fill:#d97e7e;}.aj{fill:url(#o);}.ak{stroke:#18357d;stroke-width:0.521px;}.al{fill:url(#p);}.am{fill:url(#q);}.ao{fill:url(#r);}.ap{fill:url(#s);}.aq{fill:url(#t);}.ar{fill:url(#u);}.as{fill:#3c72e8;}.at{fill:url(#v);}.au{stroke:#285ee0;}.av{fill:url(#w);}.aw{fill:#859fd6;}.ax{fill:url(#x);}.ay{fill:url(#y);}.az{fill:url(#z);}.ba{fill:url(#aa);}.bb{fill:url(#ab);}.bc{fill:url(#ac);}.bd{fill:url(#ad);}.be{fill:url(#ae);}.bf{fill:url(#af);}.bg{fill:url(#ag);}.bh{fill:#ff9191;}.bi{fill:url(#ah);}.bj{fill:url(#ai);}.bk{fill:#b6b878;}.bl{fill:url(#aj);}.bm{fill:#d6d6d6;}.bn{fill:url(#ak);}.bo{fill:url(#al);}.bp{fill:url(#ao);}.bq{fill:url(#ap);}.br{stroke:#d95757;stroke-width:0.261px;}.bs{fill:#2f5563;}.bt{fill:#3d6f82;}.bu{fill:url(#aq);}.bv{fill:url(#ar);}.bw{fill:url(#as);}.bx{fill:url(#at);}.by{fill:url(#au);}.bz{stroke:#9e4724;stroke-width:0.841px;}.ca{fill:#0c1b40;}</style><linearGradient id="a" x1="0.561" y1="0.887" x2="0.279" y2="-0.098" gradientUnits="objectBoundingBox"><stop offset="0" stop-color="#fff" stop-opacity="0"/><stop offset="0.085" stop-color="#fafcff" stop-opacity="0.035"/><stop offset="0.224" stop-color="#f0f4ff" stop-opacity="0.133"/><stop offset="0.401" stop-color="#dee8ff" stop-opacity="0.29"/><stop offset="0.609" stop-color="#c5d7ff" stop-opacity="0.514"/><stop offset="0.839" stop-color="#a6c2ff" stop-opacity="0.788"/><stop offset="1" stop-color="#8fb2ff"/></linearGradient><linearGradient id="b" x1="0.733" y1="-0.129" x2="0.497" y2="0.682" gradientUnits="objectBoundingBox"><stop offset="0" stop-color="#b7ebcf"/><stop offset="0.126" stop-color="#b0e6ce"/><stop offset="0.298" stop-color="#9fdacb"/><stop offset="0.498" stop-color="#82c6c7"/><stop offset="0.715" stop-color="#5aabc1"/><stop offset="0.841" stop-color="#4099bd"/></linearGradient><linearGradient id="c" x1="0.776" y1="-0.169" x2="0.427" y2="0.907" xlink:href="#b"/><linearGradient id="d" x1="0.959" y1="0.176" x2="-0.107" y2="0.929" gradientUnits="objectBoundingBox"><stop offset="0" stop-color="#4a70c9"/><stop offset="1" stop-color="#163173"/></linearGradient><linearGradient id="f" x1="0.187" y1="0.866" x2="0.605" y2="0.27" gradientUnits="objectBoundingBox"><stop offset="0" stop-opacity="0"/><stop offset="1"/></linearGradient><linearGradient id="g" x1="0.092" y1="0.849" x2="1.239" y2="-0.237" xlink:href="#f"/><linearGradient id="h" x1="0.5" y1="1.152" x2="0.5" y2="0.36" xlink:href="#f"/><linearGradient id="i" x1="0.226" y1="0.98" x2="0.87" y2="-0.214" xlink:href="#f"/><linearGradient id="j" x1="0.5" y1="1.152" x2="0.5" y2="0.36" xlink:href="#f"/><linearGradient id="k" x1="0" y1="0.5" x2="1" y2="0.5" xlink:href="#d"/><linearGradient id="l" x1="-0.156" y1="0.5" x2="0.595" y2="0.5" xlink:href="#f"/><linearGradient id="n" x1="1.077" y1="1.283" x2="-0.127" y2="-0.233" xlink:href="#f"/><linearGradient id="o" x1="0.51" y1="0.921" x2="0.48" y2="-0.281" xlink:href="#f"/><linearGradient id="p" x1="0.84" y1="0.951" x2="-0.438" y2="-0.182" xlink:href="#f"/><linearGradient id="q" x1="0.613" y1="0.927" x2="-0.104" y2="-0.286" xlink:href="#f"/><linearGradient id="r" x1="-4.142" y1="1.273" x2="5.388" y2="-0.314" xlink:href="#f"/><linearGradient id="s" x1="-4.344" y1="1.84" x2="5.186" y2="-0.796" xlink:href="#f"/><linearGradient id="t" x1="-4.142" y1="1.273" x2="5.388" y2="-0.314" xlink:href="#f"/><linearGradient id="u" x1="-4.344" y1="1.84" x2="5.186" y2="-0.796" xlink:href="#f"/><linearGradient id="v" x1="0.5" y1="-0.089" x2="0.5" y2="1.157" xlink:href="#f"/><linearGradient id="w" x1="0.423" y1="1.374" x2="0.613" y2="-0.457" xlink:href="#f"/><linearGradient id="x" x1="0.624" y1="0.5" x2="-0.481" y2="0.5" gradientUnits="objectBoundingBox"><stop offset="0" stop-color="#fff"/><stop offset="1" stop-color="#8fb2ff"/></linearGradient><linearGradient id="y" x1="0.711" y1="0.5" x2="-0.336" y2="0.5" xlink:href="#x"/><linearGradient id="z" x1="0.5" y1="-0.251" x2="0.5" y2="0.491" xlink:href="#x"/><linearGradient id="aa" x1="0.5" y1="-0.11" x2="0.5" y2="1.461" gradientUnits="objectBoundingBox"><stop offset="0.161" stop-color="#d95757"/><stop offset="1" stop-color="#471312"/></linearGradient><linearGradient id="ab" x1="4.204" y1="0.5" x2="3.099" y2="0.5" xlink:href="#x"/><linearGradient id="ac" x1="1.798" y1="0.5" x2="0.751" y2="0.5" xlink:href="#x"/><linearGradient id="ad" x1="1.587" y1="-0.251" x2="1.587" y2="1.178" xlink:href="#x"/><linearGradient id="ae" x1="1.672" y1="-0.11" x2="1.672" y2="1.461" gradientUnits="objectBoundingBox"><stop offset="0.301" stop-color="#cfa028"/><stop offset="0.949" stop-color="#cf6728"/></linearGradient><linearGradient id="af" x1="0.47" y1="0.5" x2="-0.425" y2="0.5" xlink:href="#x"/><linearGradient id="ag" x1="0.5" y1="-0.23" x2="0.5" y2="1.793" xlink:href="#x"/><linearGradient id="ah" x1="0.3" y1="0.249" x2="1.272" y2="1.47" xlink:href="#x"/><linearGradient id="ai" x1="0.3" y1="0.249" x2="1.272" y2="1.47" gradientUnits="objectBoundingBox"><stop offset="0" stop-color="#ffffb6"/><stop offset="1" stop-color="#8fb2bb"/></linearGradient><linearGradient id="aj" y1="0.5" x2="1" y2="0.5" gradientUnits="objectBoundingBox"><stop offset="0" stop-color="#fff" stop-opacity="0"/><stop offset="0.488" stop-color="#fff"/><stop offset="1" stop-color="#fff" stop-opacity="0"/></linearGradient><linearGradient id="ak" x1="0.233" y1="0.5" x2="1.233" y2="0.5" xlink:href="#x"/><linearGradient id="al" y1="0.5" x2="1" y2="0.5" gradientUnits="objectBoundingBox"><stop offset="0" stop-color="#ababab"/><stop offset="1" stop-color="#8fb2ff"/></linearGradient><linearGradient id="ao" x1="-0.163" y1="0.5" x2="1.163" y2="0.5" xlink:href="#ae"/><linearGradient id="ap" x1="0.818" y1="1.008" x2="0.468" y2="0.502" gradientUnits="objectBoundingBox"><stop offset="0" stop-color="#295dd9"/><stop offset="0.899" stop-color="#214aad"/></linearGradient><linearGradient id="aq" x1="1.033" y1="0.856" x2="-1.03" y2="-0.85" xlink:href="#f"/><linearGradient id="ar" x1="0" y1="0.5" x2="1" y2="0.5" xlink:href="#ae"/><linearGradient id="as" x1="0.32" y1="0.062" x2="0.754" y2="1.092" xlink:href="#ae"/><linearGradient id="at" x1="1.174" y1="1.113" x2="-0.039" y2="-0.352" xlink:href="#f"/><linearGradient id="au" x1="0.986" y1="-0.209" x2="0.204" y2="0.902" xlink:href="#ae"/></defs><g transform="translate(-125.979 -34.816)"><path class="a" d="M328.918,403.54c-39.1,22.177-39.2,58.752-.215,81.279s102.969,22.525,142.187,0,39.314-59.1.213-81.279S368.018,381.364,328.918,403.54Z" transform="translate(129.653 263.037)"/><path class="a" d="M401.392,351.042c-39.1,22.177-39.2,58.752-.215,81.279s102.969,22.525,142.187,0,39.314-59.1.213-81.279S440.492,328.866,401.392,351.042Z" transform="translate(183.796 223.817)"/><path class="a" d="M498.641,324.237c-39.1,22.177-39.2,58.752-.215,81.279s102.969,22.525,142.187,0,39.314-59.1.213-81.279S537.742,302.059,498.641,324.237Z" transform="translate(256.448 203.791)"/><path class="a" d="M223.317,369.843c-39.1,22.177-39.2,58.752-.213,81.279s102.967,22.527,142.185,0,39.314-59.1.213-81.279S262.418,347.667,223.317,369.843Z" transform="translate(50.762 237.863)"/><path class="b" d="M128.2,692.78,807.837,300.388s-8.589-66.209-104.807-59.86-118.322-83.574-205.322-35.036-104.962-157.4-173.194-115.6c-71.71,43.927-32,148.735-113.923,143.052S124.068,471.059,128.2,692.78Z" transform="translate(0.883 36.934)"/><path class="c" d="M451.376,262.851,761.531,441.919S778,365.686,745.757,373.544c1.93-47.641,6.842-123.036-27.137-88.129C705.6,212.368,687.852,153.2,666.552,144.327s-43.257,7.556-47.808,27.3c0,0-45.308-62.811-84.588,9.378-36.231-9.378-45.34,44.407-45.34,44.407S451.636,235.443,451.376,262.851Z" transform="translate(243.093 79.967)"/><path class="d" d="M127.492,518.54l258.618-148.5s-10.378-81.971-31.893-74.36-24.269-54.671-61.976-53.52-19.52,68.2-51.36,94.536-56.034,7.416-69.675,55.183S117.771,468.148,127.492,518.54Z" transform="translate(0 154.886)"/><g transform="translate(142.014 324.527)"><path class="e" d="M345.9,364.745,137.744,489.407l-2.587-1.989v-164.1L345.9,200.643Z" transform="translate(-135.157 -200.643)"/><g transform="translate(2.587 1.989)"><path class="f" d="M347.384,365.883,136.638,488.557v-164.1L347.384,201.781Z" transform="translate(-136.638 -201.781)"/><g transform="translate(15.993 60.874)"><path class="g" d="M240.847,262.325l-80.488,46.851V294.15L240.847,247.3Z" transform="translate(-134.91 -228.651)"/><ellipse class="h" cx="20.218" cy="11.386" rx="20.218" ry="11.386" transform="translate(0 78.852) rotate(-53.114)"/><g transform="translate(6.07)"><path class="i" d="M315.887,239.046,149.266,336.035v-2.421l166.621-96.989Z" transform="translate(-149.266 -236.625)"/><path class="i" d="M315.887,243.331,149.266,340.32V337.9l166.621-96.989Z" transform="translate(-149.266 -233.423)"/><path class="i" d="M315.887,247.617,149.266,344.606v-2.421L315.887,245.2Z" transform="translate(-149.266 -230.221)"/></g></g><g transform="translate(15.993 129.309)"><path class="g" d="M240.847,301.5l-80.488,46.851V333.321l80.488-46.851Z" transform="translate(-134.909 -267.822)"/><ellipse class="h" cx="20.218" cy="11.386" rx="20.218" ry="11.386" transform="translate(0 78.852) rotate(-53.114)"/><g transform="translate(6.07)"><path class="i" d="M315.887,278.217,149.266,375.206v-2.421L315.887,275.8Z" transform="translate(-149.266 -275.796)"/><path class="i" d="M315.887,282.5,149.266,379.491V377.07l166.621-96.989Z" transform="translate(-149.266 -272.594)"/><path class="i" d="M315.887,286.788,149.266,383.777v-2.421l166.621-96.989Z" transform="translate(-149.266 -269.393)"/></g></g></g></g><g transform="translate(320.948 461.822)"><path class="j" d="M254.1,383.366l1.6,10.421,11.2,12.348-.886.591a5.92,5.92,0,0,1-5.395.617c-4.315-1.639-12.334-4.7-15.441-6.01-4.345-1.829-6.632-4.8-5.716-6.859s4.116-13.491,4.116-13.491Z" transform="translate(-236.313 -203.212)"/><path class="j" d="M278.745,369.927l1.6,10.421,11.2,12.348-.887.59a5.916,5.916,0,0,1-5.393.617c-4.317-1.639-12.334-4.7-15.442-6.01-4.343-1.829-6.63-4.8-5.715-6.859s4.114-13.491,4.114-13.491Z" transform="translate(-217.903 -213.252)"/><path class="k" d="M237.577,312.148l4.45,140.929s7.823,7.706,14.6,2.493c4.584-16.494,33.421-169.254,33.421-169.254Z" transform="translate(-237.577 -273.935)"/><path class="k" d="M264.767,285.936V434.893s7.823,7.7,14.6,2.493c4.586-16.5,24.821-158.157,24.821-158.157Z" transform="translate(-217.264 -279.229)"/><path class="l" d="M303.695,405.8c4.595-27.041,11.407-72.746,15.97-103.937L264.216,293.6,237.577,306.71l1.644,52.045c7.088,5.566,19.1,14.408,31.414,23.33,5.166-26.452,10.633-55.012,14.445-75.024V392.5C292.218,397.624,298.766,402.294,303.695,405.8Z" transform="translate(-237.577 -268.497)"/></g><g transform="translate(438.664 532.363)"><path class="k" d="M338.747,415.766l1.635,11.211s-3.008,4.034-9.41,2.509-13.6-5-20.275-7.926-6.277-8.725,1.359-7.563,19.35.547,19.35.547Z" transform="translate(-304.183 -249.204)"/><path class="m" d="M304.956,348.069l19.185,116.222s12.151,7.565,17.139,4.644,1.09-4.357,0-12.977,1.829-15.806-1.045-22.99,3.526-74.14,3.526-74.14Z" transform="translate(-304.956 -298.342)"/><path class="n" d="M319.958,365.5c5.853,4.263,13.983,16.169,19.05,24.138,1.214-16.782,2.68-32.123,2.68-32.123l-19.9-5.517L307.73,349.83A36.215,36.215,0,0,0,319.958,365.5Z" transform="translate(-302.884 -297.027)"/><path class="k" d="M373.793,395.435l1.637,11.209s-3.008,4.034-9.41,2.509-13.6-5-20.275-7.926-6.277-8.725,1.359-7.563,19.351.549,19.351.549Z" transform="translate(-278 -264.393)"/><path class="m" d="M339.776,328.032l19.186,116.222s12.149,7.565,17.137,4.645,1.09-4.359,0-12.979,1.829-15.806-1.045-22.99,3.526-74.14,3.526-74.14Z" transform="translate(-278.943 -313.311)"/><path class="o" d="M350.967,454.288c-18.423-10.636-18.423-28.04,0-38.677s48.567-10.634,66.99,0,18.423,28.04,0,38.677S369.39,464.925,350.967,454.288Z" transform="translate(-280.905 -253.842)"/><path class="p" d="M360.616,361.471V469.782h0a3.133,3.133,0,0,0,1.843,2.58,9.925,9.925,0,0,0,8.942,0,3.134,3.134,0,0,0,1.843-2.58V361.471Z" transform="translate(-263.374 -288.33)"/><path class="q" d="M360.616,435.657a21.393,21.393,0,0,0,12.63,0V361.471h-12.63Z" transform="translate(-263.374 -288.33)"/><path class="o" d="M465.812,373.954H450.576l-46.8-27.022c-5.012-2.895-13.217-2.895-18.229,0l-46.8,27.022H323.5v11.889h0c0,1.908,1.253,3.816,3.76,5.262l58.28,33.649c5.012,2.893,13.217,2.893,18.229,0l58.28-33.649c2.507-1.447,3.76-3.354,3.76-5.262h0Z" transform="translate(-291.1 -300.813)"/><path class="k" d="M327.263,384.3c-5.012-2.895-5.012-7.631,0-10.526l58.28-33.649c5.012-2.895,13.217-2.895,18.229,0l58.28,33.65c5.012,2.893,5.012,7.629,0,10.524l-58.28,33.647c-5.012,2.895-13.217,2.895-18.229,0Z" transform="translate(-291.1 -305.897)"/><path class="m" d="M471.621,336.392s8.047,31.419-7.105,51.152c-19.448,25.329-53.352,35.516-75.3,28.657s-84.258-46.869-84.258-46.869l84.4-49.727S456.411,329.571,471.621,336.392Z" transform="translate(-304.956 -319.606)"/></g><g transform="translate(573.553 445.354)"><path class="r" d="M419.827,361.307l2,18.245s-3,7.041-10.266,4.537-28.517-12.768-26.9-16.272,15.636-2.11,15.636-2.11l8.512-5.4Z" transform="translate(-380.364 -202.191)"/><path class="s" d="M427.524,303.033s-4.4,88.989-2.593,111.452c0,0-14.794,8.594-19.06-1.751s-23.706-122.206-23.706-122.206Z" transform="translate(-382.165 -254.319)"/><path class="t" d="M426.126,334.88c.716-18.073,1.4-31.847,1.4-31.847l-45.359-12.5S395.75,319.41,426.126,334.88Z" transform="translate(-382.165 -254.319)"/><path class="r" d="M452.666,341.461l2,18.245s-3,7.042-10.264,4.539-28.519-12.769-26.9-16.274,15.636-2.109,15.636-2.109l8.512-5.4Z" transform="translate(-355.832 -217.017)"/><path class="u" d="M460.362,283.188s-4.4,88.989-2.591,111.453c0,0-14.8,8.594-19.062-1.751S415,270.684,415,270.684Z" transform="translate(-357.632 -269.145)"/><path class="o" d="M435.7,398.75c-18.421-10.636-18.423-28.04,0-38.677s48.567-10.636,66.989,0,18.423,28.041,0,38.677S454.125,409.386,435.7,398.75Z" transform="translate(-352.491 -208.325)"/><path class="p" d="M445.352,305.932v108.31h0a3.139,3.139,0,0,0,1.843,2.582,9.925,9.925,0,0,0,8.942,0,3.138,3.138,0,0,0,1.845-2.582V305.932Z" transform="translate(-334.96 -242.812)"/><path class="v" d="M445.352,380.118a21.379,21.379,0,0,0,12.63,0V305.932h-12.63Z" transform="translate(-334.96 -242.812)"/><path class="o" d="M550.547,318.416H535.311l-46.8-27.024c-5.014-2.895-13.217-2.895-18.231,0l-46.8,27.024H408.238V330.3h0c0,1.908,1.254,3.816,3.76,5.264l58.28,33.647c5.014,2.895,13.217,2.895,18.231,0l58.279-33.647c2.507-1.448,3.76-3.356,3.76-5.264h0Z" transform="translate(-362.687 -255.296)"/><path class="k" d="M412,328.761c-5.012-2.893-5.012-7.629,0-10.524l58.28-33.649c5.014-2.895,13.217-2.895,18.231,0l58.279,33.649c5.014,2.895,5.014,7.631,0,10.524L488.509,362.41c-5.014,2.895-13.217,2.895-18.231,0Z" transform="translate(-362.687 -260.379)"/><path class="s" d="M532.2,298.652s3.2,24.532-9.252,37.134-39.713,27.41-68.19,12.034-62.51-30.093-62.51-30.093l90.1-47.924Z" transform="translate(-374.634 -269.803)"/></g><g transform="translate(157.681 214.771)"><path class="w" d="M301.744,164.943l-28.353,6.165v-18.46l2.4-10.876-5.543-3.484c-1.693-.8-3.927-.61-6.379.795L153.648,202.236c-5.238,3-9.523,10.4-9.523,16.431v73.169c0,3.188,1.2,5.372,3.1,6.293l0,0,4.708,3.05,2.046-4.017L263.867,234.2c5.238-3,9.523-10.4,9.523-16.431v-26.5l33.469-23.058Z" transform="translate(-144.125 -137.82)"/><path class="h" d="M304.671,166.817l-28.353,6.165v-26.5c0-6.036-4.286-8.52-9.523-5.519L156.577,204.11c-5.238,3-9.523,10.4-9.523,16.431V293.71c0,6.036,4.286,8.52,9.523,5.519l110.217-63.151c5.238-3,9.523-10.4,9.523-16.431v-26.5Z" transform="translate(-141.937 -136.427)"/><g transform="translate(19.254 29.109)"><ellipse class="x" cx="47.836" cy="27.177" rx="47.836" ry="27.177" transform="translate(0 76.4) rotate(-52.993)"/><path class="y" d="M184.048,203.467l25-40.272c-5.353-2.089-12.292-1.611-20.018,1.745Z" transform="translate(-133.553 -148.909)"/><path class="z" d="M218.042,195.382a47.2,47.2,0,0,0,2.062-13.11c0-10.2-4.251-16.954-11.057-19.613l-25,40.272Z" transform="translate(-133.553 -148.372)"/><path class="s" d="M211.66,196.285a70.464,70.464,0,0,0,6.382-14.9l-33.994,7.551Z" transform="translate(-133.553 -134.381)"/><path class="f" d="M223.467,193.056l-27.612-7.346L168.244,224.7c6.614,4.085,16.524,3.421,27.611-2.932S216.853,204.722,223.467,193.056Z" transform="translate(-145.36 -131.152)"/></g></g><g transform="translate(664.25 122.577)"><path class="f" d="M546.567,175.217,434.079,240.7V153.1L546.567,87.625Z" transform="translate(-434.079 -83.126)"/><ellipse class="aa" cx="30.117" cy="16.961" rx="30.117" ry="16.961" transform="translate(27.529 49.604) rotate(-53.114)"/><path class="s" d="M546.567,144.716,434.079,210.195V193.93l112.489-65.479Z" transform="translate(-434.079 -52.625)"/><g transform="translate(9.84 73.36)"><path class="x" d="M481.226,128.806l-41.515,24.166v-1.766l41.515-24.166Z" transform="translate(-439.711 -127.04)"/><path class="x" d="M481.226,132.108l-41.515,24.166v-1.766l41.515-24.166Z" transform="translate(-439.711 -124.573)"/><path class="x" d="M481.226,135.411l-41.515,24.166V157.81l41.515-24.166Z" transform="translate(-439.711 -122.106)"/><path class="x" d="M481.226,138.713l-41.515,24.166v-1.766l41.515-24.166Z" transform="translate(-439.711 -119.639)"/><path class="x" d="M481.226,142.015l-41.515,24.166v-1.766l41.515-24.166Z" transform="translate(-439.711 -117.171)"/></g><g transform="translate(62.595 43.116)"><path class="x" d="M511.422,111.5l-41.515,24.166v-1.766l41.515-24.166Z" transform="translate(-469.907 -109.729)"/><path class="x" d="M511.422,114.8l-41.515,24.166V137.2l41.515-24.166Z" transform="translate(-469.907 -107.262)"/><path class="x" d="M511.422,118.1l-41.515,24.166V140.5l41.515-24.166Z" transform="translate(-469.907 -104.795)"/><path class="x" d="M511.422,121.4l-41.515,24.166V143.8l41.515-24.166Z" transform="translate(-469.907 -102.328)"/><path class="x" d="M511.422,124.7,469.907,148.87V147.1l41.515-24.166Z" transform="translate(-469.907 -99.86)"/></g><ellipse class="y" cx="30.117" cy="16.961" rx="30.117" ry="16.961" transform="matrix(0.6, -0.8, 0.8, 0.6, 29.108, 48.177)"/></g><g transform="translate(398.698 34.816)"><path class="w" d="M480.115,197.838,285.642,314.149l-3.562-2.508V148.619l198.034-113.8,3.562,2.508Z" transform="translate(-282.08 -34.816)"/><g transform="translate(3.562 2.508)"><path class="h" d="M482.153,199.274l-198.034,113.8V150.055l198.034-113.8Z" transform="translate(-284.119 -36.252)"/><path class="ab" d="M294.5,214.959s6.843-9.971,18.643-7.325c11.541,2.587,36.112-58.322,58.052-66.927,12.12-4.754,22.8,2.837,34.662-7.2C423.631,118.472,428.575,70.282,452,58.6v85L294.5,234.11Z" transform="translate(-276.364 -19.558)"/><path class="ac" d="M294.5,216.068a80.987,80.987,0,0,1,15.17-16.854c9.66-8.094,16.27-6.808,26.948-15.486s16.272-22.067,29.237-31.8,24.47-10.842,37.4-30.563S433.406,79.713,452,69.024v66.785L294.5,226.321Z" transform="translate(-276.364 -11.769)"/><path class="x" d="M301.831,164.021a7.58,7.58,0,0,1-3.665,5.772c-2.025,1.164-3.665.465-3.665-1.558a7.576,7.576,0,0,1,3.665-5.772C300.189,161.3,301.831,162,301.831,164.021Z" transform="translate(-276.364 57.616)"/><path class="f" d="M352.863,147.524,300.709,177.5v-3.814l52.154-29.971Z" transform="translate(-271.725 44.028)"/><path class="y" d="M301.831,172.059a7.58,7.58,0,0,1-3.665,5.772c-2.025,1.162-3.665.465-3.665-1.56a7.573,7.573,0,0,1,3.665-5.771C300.189,169.337,301.831,170.034,301.831,172.059Z" transform="translate(-276.364 63.621)"/><path class="f" d="M352.863,155.562l-52.154,29.971V181.72l52.154-29.971Z" transform="translate(-271.725 50.032)"/><path class="z" d="M355.923,132.936a7.576,7.576,0,0,1-3.665,5.772c-2.025,1.164-3.665.465-3.665-1.558a7.576,7.576,0,0,1,3.665-5.772C354.282,130.214,355.923,130.913,355.923,132.936Z" transform="translate(-235.953 34.393)"/><path class="f" d="M406.955,116.44,354.8,146.411V142.6l52.154-29.971Z" transform="translate(-231.315 20.805)"/><path class="s" d="M355.923,140.974a7.576,7.576,0,0,1-3.665,5.772c-2.025,1.164-3.665.465-3.665-1.56a7.575,7.575,0,0,1,3.665-5.771C354.282,138.252,355.923,138.949,355.923,140.974Z" transform="translate(-235.953 40.398)"/><path class="f" d="M406.955,124.477,354.8,154.449v-3.814l52.154-29.971Z" transform="translate(-231.315 26.81)"/><line class="ad" y2="48.136" transform="translate(49.637 148.315)"/><line class="ad" y2="59.323" transform="translate(81.138 119.026)"/><line class="ad" y2="66.785" transform="translate(112.639 93.461)"/><line class="ad" y2="77.467" transform="translate(144.14 64.677)"/><path class="ad" d="M452,50.779V149.44L294.5,239.952V211.026" transform="translate(-276.364 -25.399)"/></g></g><g transform="translate(464.393 294.444)"><path class="o" d="M379.609,183.812l0,.014a3.345,3.345,0,0,0-3.58.267l-51.425,30a11.006,11.006,0,0,0-4.918,8.562v40.8a3.339,3.339,0,0,0,1.585,3.23l-.007.014,5.121,2.64,4.205-6.552,45.439-26.508a11,11,0,0,0,4.918-8.562V199.483l3.947-12.935Z" transform="translate(-319.683 -183.424)"/><path class="ae" d="M330.385,348.744V216.974a6.72,6.72,0,0,1,3.36-5.819l21.236-12.261a3.094,3.094,0,0,1,4.64,2.678V331.865" transform="translate(-311.688 -172.179)"/><path class="k" d="M384.018,229.318a11.009,11.009,0,0,1-4.918,8.564l-51.427,30c-2.7,1.578-4.918.307-4.918-2.825v-40.8a11,11,0,0,1,4.918-8.562l51.427-30c2.7-1.578,4.918-.307,4.918,2.825Z" transform="translate(-317.388 -182.236)"/></g><g transform="translate(557.85 234.584)"><path class="o" d="M433.1,149.549l0,.014a3.343,3.343,0,0,0-3.578.267l-51.427,30a11.006,11.006,0,0,0-4.918,8.562v40.8a3.339,3.339,0,0,0,1.585,3.23l-.007.014,5.121,2.642,4.205-6.553,45.441-26.508a11.006,11.006,0,0,0,4.918-8.562V165.22l3.945-12.935Z" transform="translate(-373.177 -149.161)"/><path class="ae" d="M383.879,314.48V182.711a6.72,6.72,0,0,1,3.36-5.82l21.236-12.261a3.094,3.094,0,0,1,4.64,2.678V297.6" transform="translate(-365.182 -137.916)"/><path class="k" d="M437.512,195.057a11.006,11.006,0,0,1-4.918,8.562l-51.427,30c-2.7,1.578-4.918.307-4.918-2.825v-40.8a11,11,0,0,1,4.918-8.562l51.427-30c2.7-1.578,4.918-.306,4.918,2.825Z" transform="translate(-370.882 -147.973)"/></g><g transform="translate(563.409 161.612)"><path class="af" d="M386.622,200.963s-13.3,20.116-9.619,39.3,69.9,48.329,69.9,48.329l52.477-54.185-41.24-23.178-8.362-18.744Z" transform="translate(-376.358 -43.822)"/><path class="ag" d="M416.736,134.368c14.918.346,17.161,7.815,21.6,14.674s22.56,57.175,22.56,57.175l-17.249,7.832L418.088,168.4Z" transform="translate(-346.194 -87.24)"/><path class="m" d="M451.07,136.924A154.947,154.947,0,0,1,461.6,163.677c4.541,15.545-3.686,36.933-5.816,52.588s-4.422,30.371-13.056,37.41-44.009,17.635-57.269.973-.229-18.1,0-31.211-.018-34.522,2.849-47.828,12.544-22.777,23.945-29.359S441,129.607,451.07,136.924Z" transform="translate(-374.003 -87.24)"/><path class="ah" d="M399.2,249.764c15.524,2.235,34.789-4.455,40.857-9.4,8.634-7.039,10.928-21.753,13.056-37.41.5-3.674,1.34-7.671,2.268-11.828-10.215,5.026-19.855,3.339-24.316-2.6-6.368-8.482-23.989-35.4-23.989-35.4l-17.624-.936a36.877,36.877,0,0,0-3.814,10.107c-1.689,7.841-2.3,18.489-2.556,28.6Z" transform="translate(-371.335 -73.926)"/><path class="af" d="M421.469,110.812c-4.422-2.439-12.652-6.859-16.159,1.219s-2.287,14.785-5.03,19.817-12.317,19.646-1.067,24.083,24.085,2.437,24.085,2.437,17.986,6.557,22.712-1.674-3.658-17.715-3.353-22.577,2.4-17.97-5.488-21.477A28.106,28.106,0,0,0,421.469,110.812Z" transform="translate(-363.278 -107.392)"/><path class="ai" d="M416.263,114.76s-1.674,8.416,7.177,16.919c0,0,3.34-3.2,4.941-1.827s-3.2,6.172-3.887,9.6-3.459,23.323-2.072,27.9,1.012,9-1.888,8.959-14.263-12.834-19.819-13.76c3.43-10.061,5.03-14.176,5.03-14.176s-3.2-5.716-1.6-11.662.542-10.975,1.871-15.091S416.263,114.76,416.263,114.76Z" transform="translate(-358.163 -101.888)"/><path class="ag" d="M404.124,135.564c2.858,2.972,10.862.914,14.406-3.66-3.029,4.231-6.487,10.821-15.648,7.011Z" transform="translate(-356.543 -89.081)"/></g><g transform="translate(302.685 202.706)"><path class="ai" d="M325.72,180.352a85.449,85.449,0,0,0,3.8-12.906c.877-5.264,5.557-11.407,7.311-15.063s4.534-4.242,4.1-3.071-4.513,6.361-2.4,7.24,7.156-5.631,7.156-5.631,4.553-6.167,5.184-5.266-3.356,7.02-3.356,7.02l-2.925,5.119s5.089-8.044,6.347-6.288-4.446,9.011-7.077,11.452c0,0,5.832-5.895,7.011-5.018s-8.914,10.676-10.814,12.724-7.652,15.063-7.652,15.063Z" transform="translate(-153.465 -119.969)"/><path class="ag" d="M328.566,160.926c-1.195,4.378-2.846,8.693-2.846,8.693L332.4,175s5.751-13.016,7.652-15.063C336.365,162.956,331.919,162.243,328.566,160.926Z" transform="translate(-153.465 -109.236)"/><path class="k" d="M320.109,251.308l5.031,48.78L238.219,338.3s-1.223-40.619-1.49-49.627c-.334-11.3,7.47-30.048,7.47-30.048Z" transform="translate(-219.955 -40.972)"/><path class="aj" d="M320.109,251.308l-75.91,7.318s-7.8,18.75-7.47,30.048c.058,1.946.161,5.37.285,9.537,25,12.394,60.026-4.525,60.026-4.525l3.781-19.207s1,1.523,6.639,8.536c6.387-3.922,11.775-12.525,14.188-16.814Z" transform="translate(-219.955 -40.972)"/><path class="k" d="M279.179,161.354c12.06-1.789,52.795,45.8,52.795,45.8l28.369-43.659,12.955,6.943s-24.616,72.119-40.852,74.752-49.323-34.015-49.323-34.015Z" transform="translate(-188.234 -108.211)"/><path class="ak" d="M311.851,187.546s-4.3,6.382-5.736,11.207" transform="translate(-168.111 -88.607)"/><path class="al" d="M326.074,200.469c-11.73-13.028-37.677-40.483-46.895-39.115l3.943,49.816s5.145,5.694,12.371,12.432a9.526,9.526,0,0,0,14.541-1.986A184.923,184.923,0,0,1,326.074,200.469Z" transform="translate(-188.234 -108.211)"/><path class="k" d="M266.582,179.216s-31.5,16.361-38.318,26.033,19.158,117.723,19.158,117.723l-6.01,20.865s30.5,18.465,55.59,9.712l7.313-23.692,9.653,11.992s11.992-7.332,16.087-18.877l-3.031-20.9s26.33-95.828-1.847-137.005a8.749,8.749,0,0,0-10.042-3.257L293.2,169.272Z" transform="translate(-227.123 -108.191)"/><path class="r" d="M248.453,178.019s.147,25.595,1.682,38.539a210.654,210.654,0,0,1,23.692,15.8L269.87,248.98s18.416,6.167,21.826,25.264c0,0,11.529-30.7,14.38-42.55-4.827-6.581-8.776-11.188-8.776-11.188l5.7-32.906-23.694-22.123Z" transform="translate(-211.189 -105.094)"/><path class="am" d="M288.874,331.425c-6.2-29.262-18.073-103.1-46.131-138.008-5.556,0-10.545,3.253-15.013,8.748C231.9,236.316,246.969,299,246.969,299l-6.01,20.865S265.645,334.8,288.874,331.425Z" transform="translate(-226.67 -84.221)"/><path class="k" d="M276.933,154.855s5.084-3.162,6.183-7.322-3.091-7.9-3.091-7.9,1.19-6.875-2.467-8.044-10.149,2.077-10.149,2.077-2.137-4.048-7.256-2.332-7.75,12.247-7.75,12.247-6.621,2.357-8.629,11.27,3.948,12.277,3.948,12.277,2.088,10.657,11.428,8.765S276.933,154.855,276.933,154.855Z" transform="translate(-214.993 -130.914)"/><path class="ai" d="M273.815,188.375v-21.5s3.29-1.974,3.29-4.827-1.644-8.335-1.644-8.335l1.644-3.291a8.522,8.522,0,0,1-3.29-3.124c-1.536-2.36-4.607-6.967-4.607-6.967l-3.73-1.536s-1.3,6.553-5.346,10.311a25.487,25.487,0,0,1-1.31,5.336s1.462,6.95,0,8.045a96.039,96.039,0,0,1-4.189-10.465s-4.291-.283-2.975,4.981,4.389,6.581,4.389,6.581l-2.853,5.7-1.786,24.351S268.331,205.924,273.815,188.375Z" transform="translate(-208.982 -125.027)"/><path class="ag" d="M268.97,154.868s-6.033,3.73-11.078,0c.218,3.181,6.361,5.046,11.078,4.717Z" transform="translate(-204.137 -113.02)"/><path class="s" d="M248.453,180.2s.461-7.643,2.339-9.944,8.232,3.071,15.671,0,8.461-8.482,11.386-7.605,2.926,9.214,2.926,9.214,21.644,38.369,10.53,87.605C291.305,259.471,279.5,211.014,248.453,180.2Z" transform="translate(-211.189 -107.276)"/><path class="ak" d="M273.552,229.3s-.3,27.7-1.826,46.876" transform="translate(-193.802 -57.412)"/></g><g transform="translate(284.932 277.43)"><g transform="translate(1.927 236.823)"><g transform="translate(0.001)"><path class="h" d="M295.593,354.218V516.994h0a1.96,1.96,0,0,0,1.155,1.616,6.2,6.2,0,0,0,5.6,0,1.96,1.96,0,0,0,1.155-1.616V354.218Z" transform="translate(-160.146 -275.638)"/><path class="h" d="M218.065,309.24V472.016h0a1.963,1.963,0,0,0,1.153,1.616,6.217,6.217,0,0,0,5.6,0,1.963,1.963,0,0,0,1.153-1.616V309.24Z" transform="translate(-218.065 -309.24)"/></g><g class="an" transform="translate(0 0)"><path class="ao" d="M295.593,419.85,303.5,426.1V354.218h-7.905Z" transform="translate(-160.146 -275.639)"/><path class="ap" d="M218.065,346.3l7.905,6.254V309.24h-7.905Z" transform="translate(-218.065 -309.24)"/></g></g><g transform="translate(401.478 5.297)"><g transform="translate(0.001)"><path class="h" d="M524.291,221.7V384.473h0a1.96,1.96,0,0,0,1.155,1.614,6.2,6.2,0,0,0,5.6,0,1.96,1.96,0,0,0,1.155-1.614V221.7Z" transform="translate(-388.844 -143.115)"/><path class="h" d="M446.763,176.717V339.493h0a1.961,1.961,0,0,0,1.153,1.616,6.207,6.207,0,0,0,5.6,0,1.961,1.961,0,0,0,1.153-1.616V176.717Z" transform="translate(-446.763 -176.717)"/></g><g class="an" transform="translate(0 0.001)"><path class="aq" d="M524.291,287.327l7.905,6.254V221.7h-7.905Z" transform="translate(-388.844 -143.116)"/><path class="ar" d="M446.763,213.774l7.905,6.254v-43.31h-7.905Z" transform="translate(-446.763 -176.717)"/></g></g><path class="as" d="M358.28,492.752,764,258.239v-6.4L622.988,177.349,216.962,405.368v6.4Z" transform="translate(-216.962 -170.948)"/><path class="i" d="M358.28,489.089,764,254.575l-141.017-80.89L216.962,408.1Z" transform="translate(-216.962 -173.685)"/></g><g transform="translate(781.563 292.256)"><path class="o" d="M528.691,365.465c-18.421-10.636-18.421-28.04,0-38.675s48.568-10.636,66.99,0,18.423,28.04,0,38.675S547.114,376.1,528.691,365.465Z" transform="translate(-491.032 -80.091)"/><path class="p" d="M538.341,272.648V380.959h0a3.136,3.136,0,0,0,1.845,2.58,9.911,9.911,0,0,0,8.94,0,3.136,3.136,0,0,0,1.845-2.58V272.648Z" transform="translate(-473.501 -114.579)"/><path class="at" d="M538.341,280.217v62.767h0a3.136,3.136,0,0,0,1.845,2.58,9.911,9.911,0,0,0,8.94,0,3.136,3.136,0,0,0,1.845-2.58V280.217Z" transform="translate(-473.501 -108.925)"/><path class="o" d="M643.535,285.131H628.3l-46.8-27.022c-5.014-2.895-13.216-2.895-18.229,0l-46.8,27.022H501.228V297.02h0c0,1.908,1.253,3.816,3.76,5.262l58.28,33.649c5.012,2.895,13.215,2.895,18.229,0l58.279-33.649c2.507-1.447,3.761-3.354,3.76-5.262h0Z" transform="translate(-501.227 -127.063)"/><path class="au" d="M583.35,341.37V209.6a6.721,6.721,0,0,0-3.361-5.821l-21.236-12.259a3.092,3.092,0,0,0-4.638,2.678V324.492" transform="translate(-461.718 -175.499)"/><g transform="translate(76.881)"><path class="o" d="M551.329,182.56l0,.012a3.35,3.35,0,0,1,3.578.267l51.427,30a11,11,0,0,1,4.918,8.562v40.8a3.338,3.338,0,0,1-1.586,3.23l.009.016-5.122,2.64-4.205-6.552-45.44-26.508a11.006,11.006,0,0,1-4.918-8.562V198.231L546.046,185.3Z" transform="translate(-544.626 -182.171)"/><path class="k" d="M545.233,228.066a11,11,0,0,0,4.918,8.562l51.425,30c2.706,1.578,4.918.306,4.918-2.825V223a11,11,0,0,0-4.918-8.562l-51.425-30c-2.706-1.578-4.918-.307-4.918,2.825Z" transform="translate(-545.233 -180.983)"/></g><path class="k" d="M504.988,295.479c-5.014-2.895-5.014-7.631,0-10.524l58.282-33.65c5.012-2.893,13.215-2.893,18.229,0l58.279,33.65c5.014,2.893,5.014,7.629,0,10.524L581.5,329.127c-5.014,2.893-13.216,2.893-18.231,0Z" transform="translate(-501.227 -132.146)"/></g><g transform="translate(741.805 260.209)"><path class="af" d="M609.418,249.648s13.4,36.98-2.725,52.971c-11.754,11.656-32.31,25.855-42.592,32.7a11.655,11.655,0,0,1-12.521.243l-44.262-26.914a14.15,14.15,0,0,1-.587-23.005l43.5-29.758,15.458-19.953Z" transform="translate(-461.56 -109.964)"/><path class="av" d="M533.054,247.249c12.579,11.064,40.506,33.313,57.685,29.463a99.685,99.685,0,0,0-5.187-27.064l-43.727-13.72Z" transform="translate(-437.693 -109.964)"/><path class="o" d="M512.473,267.177c7.909,4.6,23.793,14.043,30.865,17.935s-.985,24.024-.985,24.024l-35.67-21.69Z" transform="translate(-457.394 -86.619)"/><path class="ai" d="M561.291,284.145l-27.616-16.11-.047-.028-.079-.045v.005a11.508,11.508,0,0,0-2.818-1.211c-15.544-4.38-14.081,15.028-18.03,28.357s-18.743,97.093-21.241,103.935c-.075.066-.159.138-.236.206-2.252,1.988-5.21,4.376-7.715,6.625l-.061.056c-.314.281-.617.561-.914.837-.059.056-.12.112-.18.166-.273.257-.531.508-.784.758-.068.068-.143.138-.21.2-.232.231-.444.454-.653.678-.077.08-.161.164-.234.245-.19.206-.358.405-.526.6-.073.087-.157.178-.225.262-.156.192-.283.372-.412.552-.059.082-.131.169-.185.25-.115.175-.2.335-.287.5-.042.077-.1.159-.133.232a2.786,2.786,0,0,0-.148.435,2.154,2.154,0,0,0-.072.211,1.369,1.369,0,0,0,0,.4,1.441,1.441,0,0,0,0,.152.948.948,0,0,0,.246.445,1.774,1.774,0,0,0,.388.3c.047.028.108.049.161.073a2.582,2.582,0,0,0,.337.147c.073.024.157.042.236.061a3.655,3.655,0,0,0,.367.086c.093.016.192.026.29.037.133.016.264.031.407.04.107.005.222.005.334.009.147,0,.294,0,.449,0,.121,0,.246-.012.374-.019.157-.011.318-.023.482-.038.136-.014.274-.03.414-.049.168-.021.336-.044.509-.072.148-.023.3-.049.449-.075.176-.033.356-.068.536-.1.157-.033.314-.066.477-.1.18-.04.363-.086.549-.131s.341-.086.515-.133.362-.1.545-.154.367-.1.552-.162.353-.112.529-.169c.2-.065.4-.129.6-.2.157-.054.315-.114.472-.169.225-.08.449-.161.676-.246.112-.042.225-.089.339-.133a42.2,42.2,0,0,0,4.013-1.81l.119-.059c.3-.159.6-.323.9-.487l.191-.1c.286-.161.568-.327.849-.494l.211-.126c.273-.166.538-.334.8-.5l.222-.143c.26-.171.512-.346.762-.521l.208-.147q.369-.267.723-.538c.063-.051.126-.1.189-.148.234-.185.461-.37.681-.559.056-.047.11-.094.164-.143.22-.19.431-.384.636-.578.045-.045.089-.089.135-.133.2-.2.4-.4.589-.606.031-.037.061-.072.094-.107.19-.215.372-.428.54-.645l.045-.058a5.765,5.765,0,0,0,1.445-4.406v-.005h0a4.308,4.308,0,0,0-.669-1.675c1.254-4.666,24.747-52.305,30.175-71.064a240.718,240.718,0,0,0,6.413-26.562,9.306,9.306,0,0,1,4.817-6.681Z" transform="translate(-478.471 -87.404)"/><path class="ag" d="M519.623,297.9a9.315,9.315,0,0,1,4.19-4.553l17.318-9.2-27.616-16.11-.047-.028-.079-.045v.005a11.509,11.509,0,0,0-2.818-1.211,13.866,13.866,0,0,0-5.115-.58C526.423,266.517,519.625,297.9,519.623,297.9Z" transform="translate(-458.311 -87.404)"/><path class="j" d="M493.491,343.537a7.432,7.432,0,0,0-2.247-1.216c-5.285,4.665-14.485,11.55-12.5,13.61,3.358,3.478,25.843-5.7,24.5-13.531l-4.371,1.8A5.336,5.336,0,0,1,493.491,343.537Z" transform="translate(-478.47 -30.482)"/><path class="ai" d="M601.462,189.541s-11.988-.727-21.391,10.4S545.8,255.365,545.8,255.365l-46.835,18.2a26.058,26.058,0,0,0-13.321,4.31c-6.268,4.31-2.154,7.09,0,6.288s10.271-5.225,10.972-3.014-3.033,2.916-.929,3.15,7.208-4.16,7.208-4.16,45.441-8.337,54.844-11.08,34.48-46.823,34.48-46.823Z" transform="translate(-475.6 -144.626)"/><path class="ag" d="M562.784,189.541s-11.988-.727-21.391,10.4a115.422,115.422,0,0,0-7.306,10.241c1.941,18.466,1.452,40.8,1.452,40.8h0c9.155-13.2,18-28.748,18-28.748Z" transform="translate(-436.922 -144.626)"/><path class="k" d="M581.952,173.252a9.425,9.425,0,1,1-9.425-9.424A9.425,9.425,0,0,1,581.952,173.252Z" transform="translate(-415.244 -163.828)"/><path class="af" d="M592.922,198.8s5.792,2.444,15.259,9.857c0,0-13.882,47.27-17.212,57.066s1.567,17.436-4.506,23.313-47.249-8.816-52.7-15.084,8.424-23.068,8.62-29.95-3.634-15.3-1.426-24.709c1.747-7.436,13.751-22.1,18.7-27.911a5.232,5.232,0,0,1,5.269-1.686C571.594,191.363,587.019,195.43,592.922,198.8Z" transform="translate(-438.11 -144.622)"/><path class="ai" d="M579.847,199.025s11.562,6.04,13.639,22.469,4.52,46.219,4.52,46.219l43.112-15.081a22.484,22.484,0,0,1,10.241-8.763c2.313-.985.945,2.306-2.7,4.411,5.371-.213,12.879-5.218,12.879-2.895S658.5,256.112,643.3,258.794c0,0-43.995,38.617-57.293,31.7-10.589-5.509-13.293-53.579-13.293-53.579s-2.837,4.525-4.764,0C563.945,227.507,564.885,203.973,579.847,199.025Z" transform="translate(-413.139 -137.533)"/><path class="m" d="M584.339,199.257s-9.116,7.455-13.854,12.336-13.3,5.087-13.5-2.161c-6.209,2.566-10.938.052-10.6-4.294s4.137-9.4,11.349-15.048C563.465,190.667,581.451,196.1,584.339,199.257Z" transform="translate(-427.748 -144.209)"/><path class="ag" d="M567.951,230.151c1.927,4.525,4.764,0,4.764,0,.2-6.483-2.414-16.454-5.594-22.074C565.089,216.15,565.821,225.149,567.951,230.151Z" transform="translate(-413.139 -130.771)"/><path class="ai" d="M550.917,175.885s1.459,16.078,1.875,20.245,5.163,4.352,5.163,4.352v5.072l-2.573-.88s-10.3,11.262-.945,16.251c5.858,3.125,21.068-9.167,25.027-8.751-4.167-1.875-7.422-6.251-6.6-16.952,0,0,8.087-12.977,2.594-20.516S550.917,175.885,550.917,175.885Z" transform="translate(-424.651 -157.995)"/><path class="ag" d="M554.772,189.563s3.555,1.475,9.988-3.311c0,0-3.428,6.228-9.988,5.966Z" transform="translate(-421.468 -147.076)"/><path class="k" d="M568.854,182.874s-16.043,1.305-21.414-4.284,3.512-10.633,11.459-8.949c10.963-6.31,22.355-1.89,24.667,7.561s-7.186,21.711-7.186,21.711l-1.626-4.279s4.512-5.75,1.621-7.42-4.991,4.27-4.991,4.27S567.935,186.3,568.854,182.874Z" transform="translate(-428.169 -161.687)"/><path class="ai" d="M548.162,276.679c17.275,4.867,7.441,41.075,2.013,59.834s-28.923,66.4-30.175,71.064c5.372,8.117-20.235,18.936-23.835,15.206-2.016-2.089,7.486-9.148,12.729-13.812,2.5-6.842,17.293-90.606,21.241-103.935S532.62,272.3,548.162,276.679Z" transform="translate(-465.459 -79.992)"/><path class="j" d="M510.907,353.464a7.451,7.451,0,0,0-2.245-1.218c-5.285,4.666-14.485,11.552-12.5,13.611,3.356,3.478,25.841-5.7,24.5-13.531l-4.369,1.794A5.335,5.335,0,0,1,510.907,353.464Z" transform="translate(-465.458 -23.067)"/></g><g transform="translate(764.693 321.597)"><path class="aw" d="M495.42,221.572c-5.131-2.961-5.131-7.809,0-10.772s13.528-2.961,18.659,0,5.131,7.811,0,10.772S500.551,224.535,495.42,221.572Z" transform="translate(-491.571 -191.785)"/><g transform="translate(19.392 8.201)"><path class="ax" d="M509.009,217.586h-6.338V203.66h7.588A6.347,6.347,0,0,1,516.6,210,7.6,7.6,0,0,1,509.009,217.586Zm-3.973-2.364h3.973A5.23,5.23,0,0,0,514.235,210a3.98,3.98,0,0,0-3.976-3.975h-5.222Z" transform="translate(-502.671 -203.66)"/></g><path class="ay" d="M514.549,210.037v-7.5H492.926v7.5a21.2,21.2,0,0,0,1.42,7.626l.879,2.273.009.026.051.131.016,0c.6,1.555,2.432,2.982,5.706,3.665a13.374,13.374,0,0,0,5.461,0c3.274-.683,5.1-2.11,5.706-3.665l.016,0,.051-.129.009-.028.879-2.273A21.164,21.164,0,0,0,514.549,210.037Z" transform="translate(-490.559 -196.297)"/><path class="az" d="M496.083,209.627c-4.21-2.43-4.21-6.406,0-8.837a16.971,16.971,0,0,1,15.308,0c4.21,2.43,4.21,6.407,0,8.837A16.971,16.971,0,0,1,496.083,209.627Z" transform="translate(-490.56 -198.966)"/><path class="ba" d="M510.534,201.933a15.824,15.824,0,0,0-14.263,0c-2.235,1.289-3.15,3.045-2.839,4.738a7.3,7.3,0,0,0,2.317,2.007,16.976,16.976,0,0,0,15.308,0,7.28,7.28,0,0,0,2.317-2.006C513.686,204.98,512.769,203.223,510.534,201.933Z" transform="translate(-490.225 -198.018)"/></g><g transform="translate(593.564 358.323)"><path class="aw" d="M420.112,242.595c5.131-2.963,5.131-7.809,0-10.772s-13.527-2.963-18.659,0-5.131,7.811,0,10.772S414.981,245.558,420.112,242.595Z" transform="translate(-390.641 -212.807)"/><g transform="translate(0 8.201)"><path class="bb" d="M393.619,231.02a6.347,6.347,0,0,1,6.34-6.338h7.588v13.926h-6.338A7.6,7.6,0,0,1,393.619,231.02Zm11.562-3.975h-5.222a3.98,3.98,0,0,0-3.976,3.975,5.23,5.23,0,0,0,5.226,5.224h3.973Z" transform="translate(-393.619 -224.682)"/></g><path class="bc" d="M398.959,231.059v-7.5h21.624v7.5a21.2,21.2,0,0,1-1.42,7.626l-.879,2.273-.009.026-.051.131-.016,0c-.6,1.555-2.432,2.98-5.706,3.665a13.376,13.376,0,0,1-5.461,0c-3.274-.685-5.1-2.11-5.706-3.665l-.016,0-.051-.131-.011-.026-.877-2.273A21.17,21.17,0,0,1,398.959,231.059Z" transform="translate(-389.63 -217.318)"/><path class="bd" d="M417.425,230.649c4.21-2.43,4.21-6.408,0-8.838a16.982,16.982,0,0,0-15.308,0c-4.21,2.43-4.21,6.408,0,8.838A16.982,16.982,0,0,0,417.425,230.649Z" transform="translate(-389.629 -219.988)"/><path class="be" d="M402.305,222.956a15.813,15.813,0,0,1,14.263,0c2.235,1.289,3.15,3.045,2.839,4.738a7.3,7.3,0,0,1-2.317,2.007,16.982,16.982,0,0,1-15.308,0,7.282,7.282,0,0,1-2.317-2.007C399.154,226,400.071,224.245,402.305,222.956Z" transform="translate(-389.295 -219.04)"/></g><g transform="translate(377.974 518.537)"><path class="aw" d="M273.878,336.77c-4.88-2.816-4.88-7.425,0-10.243s12.864-2.816,17.743,0,4.88,7.427,0,10.245S278.757,339.588,273.878,336.77Z" transform="translate(-270.218 -302.187)"/><g transform="translate(1.719)"><path class="bf" d="M271.2,315.265l2.217,22.186c0,1.274.837,2.547,2.511,3.513a13.5,13.5,0,0,0,12.17,0c1.674-.966,2.511-2.24,2.511-3.513h0l2.215-22.186Z" transform="translate(-271.202 -309.023)"/><path class="bg" d="M274.36,322.353c-2.341-1.35-3.381-3.18-3.118-4.956a5.7,5.7,0,0,1,3.117-3.88,16.975,16.975,0,0,1,15.31,0c4.21,2.43,4.21,6.407,0,8.837A16.971,16.971,0,0,1,274.36,322.353Z" transform="translate(-271.202 -311.692)"/><path class="bh" d="M288.811,314.659a15.824,15.824,0,0,0-14.263,0c-2.235,1.289-3.152,3.045-2.839,4.74a7.3,7.3,0,0,0,2.317,2.006,16.971,16.971,0,0,0,15.308,0,7.271,7.271,0,0,0,2.315-2.006C291.961,317.706,291.046,315.95,288.811,314.659Z" transform="translate(-270.867 -310.744)"/></g></g><path class="ai" d="M262.858,289.048s3.807,11.1,6.192,12.125,7.642,2.166,11.187,3.2,5.482,1.829,4.742,2.629-7.142,0-7.142,0a28.905,28.905,0,0,1,5.6,3.774,7.919,7.919,0,0,1,2.745,6.172c-.206,1.008-3.658-5.6-7.2-6.973,2.173,3.087,5.6,8.575,4.972,10.175s-5.43-8-7.6-8.8c2.8,3.819,5.575,7.6,4.345,8.983s-3.887-6.241-7.088-7.5c2.858,4.23,3.887,8,2.858,8.459s-3.887-6.974-6.289-8-12.918-3.524-12.689-8.451c-2.287-5.156-6.288-14.073-6.288-14.073Z" transform="translate(93.547 189.928)"/><g transform="translate(401.797 483.163)"><path class="aw" d="M283.982,322.009l60.88,35.149,51.211-29.64-60.88-35.149Z" transform="translate(-283.758 -290.754)"/><path class="bi" d="M283.854,321.084l60.88,35.149,51.211-29.64-60.88-35.149Z" transform="translate(-283.854 -291.445)"/><g transform="translate(18.215 10.939)"><path class="i" d="M294.28,322.542,337.3,297.706l.9.523-43.017,24.836-.9-.523" transform="translate(-294.28 -297.706)"/><path class="i" d="M296.33,323.734,339.347,298.9l.892.518-43.017,24.836-.892-.518" transform="translate(-292.747 -296.815)"/><path class="i" d="M298.377,324.923l43.017-24.836.892.518-43.017,24.836-.892-.518" transform="translate(-291.219 -295.927)"/><path class="i" d="M300.423,326.112l43.017-24.836.892.518L301.314,326.63l-.892-.518" transform="translate(-289.69 -295.039)"/><path class="i" d="M302.469,327.3l43.017-24.836.892.518-43.017,24.836-.892-.518" transform="translate(-288.161 -294.15)"/><path class="i" d="M304.515,328.49l43.017-24.836.9.523-43.017,24.836-.9-.523" transform="translate(-286.633 -293.262)"/></g><g transform="translate(11.68 17.204)"><path class="i" d="M290.539,315.046l23.739-13.754,2.354,1.376-23.739,13.754-2.355-1.376" transform="translate(-290.539 -301.292)"/></g><g transform="translate(65.102 27.776)"><path class="i" d="M321.117,321.1l23.739-13.754,2.354,1.376-23.739,13.754-2.354-1.377" transform="translate(-321.117 -307.343)"/></g></g><g transform="translate(574.911 390.525)"><path class="aw" d="M383.07,268.984l60.88,35.149,51.211-29.64-60.88-35.149Z" transform="translate(-382.847 -237.728)"/><path class="bj" d="M382.943,268.059l60.88,35.149,51.211-29.64-60.88-35.149Z" transform="translate(-382.943 -238.42)"/><g transform="translate(18.215 10.939)"><path class="bk" d="M393.368,269.517l43.017-24.836.9.523L394.268,270.04l-.9-.523" transform="translate(-393.368 -244.681)"/><path class="bk" d="M395.419,270.708l43.017-24.836.892.518-43.017,24.836-.892-.518" transform="translate(-391.836 -243.79)"/><path class="bk" d="M397.465,271.9l43.017-24.836.892.518-43.017,24.836-.892-.518" transform="translate(-390.308 -242.902)"/><path class="bk" d="M399.512,273.087l43.017-24.836.892.518L400.4,273.6l-.892-.518" transform="translate(-388.779 -242.014)"/><path class="bk" d="M401.558,274.276l43.017-24.836.892.518-43.017,24.836-.892-.518" transform="translate(-387.25 -241.125)"/><path class="bk" d="M403.6,275.465l43.017-24.836.9.523L404.5,275.988l-.9-.523" transform="translate(-385.722 -240.237)"/></g><g transform="translate(11.68 17.204)"><path class="bk" d="M389.628,262.021l23.739-13.754,2.354,1.376L391.982,263.4l-2.354-1.376" transform="translate(-389.628 -248.267)"/></g><g transform="translate(65.102 27.775)"><path class="bk" d="M420.206,268.072l23.739-13.754,2.355,1.377-23.739,13.754-2.355-1.376" transform="translate(-420.206 -254.318)"/></g></g><path class="bl" d="M499.114,231.075s3.169-15.339,13.169-19.27c1.965-10.774,5.645-21.262,16.138-23.559,11.4-15.872,22.791-26.414,36.36-20.977,9.908,3.969,10.645,16.567.914,23.315-11.422,7.919-27.579,7.09-27.579,7.09s-4.939,13.164-16.66,16.919c-1.438,3.933-15.591,8.741-15.591,8.741S502.24,229.838,499.114,231.075Z" transform="translate(278.757 97.872)"/><g transform="translate(427.843 363.693)"><path class="aw" d="M298.762,289.024l51.451,29.705,78.795-45.021v-3.544l-52.892-25.9L298.762,285.48Z" transform="translate(-298.762 -207.224)"/><path class="bm" d="M298.762,287.8l51.451,29.705,78.795-45.021V268.94l-52.892-25.9-77.353,41.219Z" transform="translate(-298.762 -208.138)"/><path class="bn" d="M298.762,285.771l51.451,29.705,78.795-45.021-52.892-29.447Z" transform="translate(-298.762 -209.654)"/><path class="bo" d="M311.343,285.059l31.848,18.666,65.1-37.2-33.039-18.453Z" transform="translate(-289.364 -204.374)"/><g transform="translate(48.619)"><path class="bm" d="M406.025,282.491l-77.242,46.781-2.192-1.372V268.47l79.434-45.409,2.192,1.372Z" transform="translate(-326.591 -223.061)"/></g><path class="x" d="M407.28,283.276l-79.434,45.409V269.255l79.434-45.409Z" transform="translate(-277.035 -222.475)"/><ellipse class="i" cx="12.543" cy="7.135" rx="12.543" ry="7.135" transform="translate(77.279 59.509) rotate(-52.976)"/></g><g transform="translate(621.879 283.137)"><path class="aw" d="M409.826,231.373l42.449,24.508,65.008-37.144v-2.924l-43.638-21.371-63.818,34.007Z" transform="translate(-409.826 -163.885)"/><path class="bm" d="M409.826,230.363l42.449,24.508,65.008-37.144V214.8l-43.638-21.371-63.818,34.007Z" transform="translate(-409.826 -164.64)"/><path class="bn" d="M409.826,228.689,452.275,253.2l65.008-37.144-43.638-24.295Z" transform="translate(-409.826 -165.89)"/><path class="bo" d="M420.206,228.1l26.275,15.4,53.71-30.689-27.258-15.224Z" transform="translate(-402.072 -161.534)"/><g transform="translate(40.112)"><path class="bm" d="M498.322,225.983l-63.727,38.6-1.809-1.132V214.415l65.536-37.464,1.809,1.132Z" transform="translate(-432.786 -176.952)"/></g><path class="x" d="M499.357,226.631l-65.536,37.464V215.063L499.357,177.6Z" transform="translate(-391.9 -176.468)"/><path class="i" d="M463.72,201.737c0,4.31-3.5,9.8-7.806,12.266s-7.8.968-7.8-3.342,3.494-9.8,7.8-12.268S463.72,197.427,463.72,201.737Z" transform="translate(-381.226 -161.82)"/></g><g transform="translate(913.063 243.913)"><ellipse class="bp" cx="23.727" cy="41.711" rx="23.727" ry="41.711" transform="matrix(0.798, -0.602, 0.602, 0.798, 2.643, 28.575)"/><path class="y" d="M620.472,166.964c-17.375-9.932-31.459-3.9-31.459,13.475A44.02,44.02,0,0,0,592,195.47L576.5,206.137l19.291-2.359c5.762,10.589,14.667,20.378,24.684,26.1,17.373,9.932,31.458,3.9,31.458-13.475S637.844,176.9,620.472,166.964Z" transform="translate(-576.496 -148.763)"/><g transform="translate(29.361 32.13)"><path class="x" d="M605.553,184.926q0,3.575-1.609,4.6t-4.581-.688a11.658,11.658,0,0,1-4.429-4.581,13.08,13.08,0,0,1-1.632-6.41q0-3.575,1.591-4.579t4.469.655a12.024,12.024,0,0,1,4.516,4.607A12.8,12.8,0,0,1,605.553,184.926Zm-7.36-4.186a10.3,10.3,0,0,0,.309,2.876,2.238,2.238,0,0,0,.926,1.363.571.571,0,0,0,.917-.281,6.957,6.957,0,0,0,.3-2.54,10.518,10.518,0,0,0-.3-2.87,2.21,2.21,0,0,0-.917-1.359.581.581,0,0,0-.935.306A6.983,6.983,0,0,0,598.192,180.74Zm19.2,3.943L604.22,200.826l-4.825-2.787L612.57,181.9Zm6.223,20.133q0,3.559-1.618,4.583t-4.572-.683A11.643,11.643,0,0,1,613,204.135a13.028,13.028,0,0,1-1.634-6.394q0-3.572,1.592-4.579t4.469.655a12.049,12.049,0,0,1,4.516,4.607A12.806,12.806,0,0,1,623.619,204.816Zm-7.36-4.186a10.3,10.3,0,0,0,.309,2.876,2.242,2.242,0,0,0,.926,1.365q.7.4.966-.393a8.118,8.118,0,0,0,.269-2.42,11.828,11.828,0,0,0-.269-2.731,2.237,2.237,0,0,0-.966-1.508.579.579,0,0,0-.935.3A6.992,6.992,0,0,0,616.259,200.63Z" transform="translate(-593.302 -172.892)"/></g></g><path class="bq" d="M235.944,184.778s-14.868,6.8-15.61,37.2,51.8,153.518,51.8,153.518,12.172,2.5,17.373-5.531c0,0-25.525-119.718-29.251-137.479S246.016,190.6,235.944,184.778Z" transform="translate(70.484 112.032)"/><g transform="translate(577.542 233.921)"><path class="ai" d="M412.866,167.935s10.061,38.643,17.149,49.618c15.32-23.552,25.539-50.82,25.539-50.82s-1.53-8.629.985-14.345,4.932-2.14,5.54-1.789-2.254,7.135-1.2,9.791a18.546,18.546,0,0,1,1.282,10.519c-.138,11.889-14.382,73.875-31.76,78.747s-32.4-37.361-41.089-59.54-4.574-35.588,3.2-39.517S409.91,157.217,412.866,167.935Z" transform="translate(-384.448 -148.489)"/><g transform="translate(39.007)"><path class="br" d="M413.335,188.313a24.112,24.112,0,0,0-6.56,11.153" transform="translate(-406.775 -119.248)"/><path class="ai" d="M427.818,149.466s2.388-2.257,5.619,1.426,4.42,14.974,4.42,14.974S455.8,199.1,458.741,207.633s-9.076,22.347-18.208,10.926c-4.822-6.029-9.939-51.937-9.939-51.937S424.944,154.253,427.818,149.466Z" transform="translate(-391.664 -148.781)"/><g transform="translate(35.825 1.392)"><path class="br" d="M430.185,165.569s.114-6.069-2.018-8.657c1.295-3.349,3.634-5.561,2.773-6.089s-3.381,3.316-3.381,3.316a4.727,4.727,0,0,1,.762-4.562" transform="translate(-427.281 -149.578)"/><path class="br" d="M428.578,152.189a6.015,6.015,0,0,1,3.035,3.435" transform="translate(-426.312 -147.627)"/><path class="br" d="M429.3,151a6.513,6.513,0,0,1,2.467,2.774" transform="translate(-425.776 -148.515)"/></g></g></g><g transform="translate(573.672 292.538)"><path class="m" d="M471.551,228.068s.861-2.71,4.312-7.6,3.793-11.836,1.476-14.322c-.171-6.69-6.689-11.407-12.949-12.179s-4.2-13.807-11.92-11.321-11.008,17.1-3.7,29.69,11.753,21.082,11.753,21.082Z" transform="translate(-335.575 -182.333)"/><path class="ai" d="M429.187,261.105l-11.356,15.212-33.154-14.44-2.444,6.3s29.973,36.021,41.037,36.664,32.067-24.623,32.067-24.623Z" transform="translate(-382.233 -123.485)"/><path class="ag" d="M411.361,261.105,406.1,268.16c2.268,6.6,8.075,19.89,19.261,24.863a159.02,159.02,0,0,0,12.154-12.8Z" transform="translate(-364.406 -123.485)"/><path class="bs" d="M477.07,214.38c13.054-4.149,30.233,6.006,31.147,20.29s-14.183,39.382-14.183,39.382Z" transform="translate(-311.383 -159.091)"/><path class="ai" d="M452.718,223.812,449.6,251.365s15.6,2.935,25.133-9.763a3.62,3.62,0,0,0,.618-2.858l-4.011-20.86s-1.808,1.745-4.7-2.713c0,0,2.255-4.628.369-6.344s-3.292,1.96-4.09,4.2-.627,4.466-1.913,4.037-1.288-8.676-1.288-8.676-7.374-7.277-7.633-12.422l-6.26,10.977,1.237.858s-3.124,9.874-1.752,12.018S452.718,223.812,452.718,223.812Z" transform="translate(-335.367 -172.149)"/><path class="ag" d="M461.9,208.825c-4.728.975-11.106,2.787-15.841,2.8A28.066,28.066,0,0,0,451.9,214.2S458.389,212.941,461.9,208.825Z" transform="translate(-334.548 -162.541)"/><path class="bt" d="M542.7,232.082c-1.889-12.864-17.839-19.553-24.02-18.009a114.557,114.557,0,0,0-22.149,8.611l-2.469-4.5c-12.446,9.948-29.37,13.379-29.37,13.379l-2.313,7.827c-10.18,4.911-27.569,14.813-27.569,14.813-7.427,4.163-7.385,57.445-9.092,63.637s-5.316,17.324-4.116,26.929,13.723,20.24,35.163,21.269,49.571-14.408,59-23.671,11.492-30.874,13.208-41.337S544.59,244.948,542.7,232.082Z" transform="translate(-352.997 -158.784)"/><path class="bu" d="M435.594,335.345c-6.008-14.714,8.19-32.979,12.988-44.245,7.243-17.015,8.859-43.025,8.859-43.025l-28.893,6.59c-1.462,16.061-1.873,34.162-2.825,37.616-1.705,6.19-5.316,17.324-4.116,26.929C422.33,324.993,427.185,331.136,435.594,335.345Z" transform="translate(-352.997 -133.219)"/><path class="bt" d="M445.271,237.386c9.153-3.615,27.553,1.934,22.3,24.833s-30.4,43.7-30.4,43.7-26.211-7.47-29.795-26.48c0,0,9.448-9.181,15.621-19.239S435.32,241.319,445.271,237.386Z" transform="translate(-363.454 -141.961)"/><g transform="translate(115.434 85.584)"><path class="k" d="M508.232,231.71l0,.012a3.349,3.349,0,0,0-3.58.267l-51.425,30a11.009,11.009,0,0,0-4.918,8.564v40.8a3.339,3.339,0,0,0,1.585,3.23l-.007.014L455,317.239l4.205-6.553,45.44-26.507a11,11,0,0,0,4.918-8.564V247.379l3.947-12.934Z" transform="translate(-448.306 -231.32)"/><path class="o" d="M512.641,277.215a11.006,11.006,0,0,1-4.918,8.562l-51.427,30c-2.7,1.578-4.918.306-4.918-2.825v-40.8a11.006,11.006,0,0,1,4.918-8.562l51.427-30c2.7-1.579,4.918-.307,4.918,2.825Z" transform="translate(-446.011 -230.132)"/><path class="au" d="M461.462,395.651V263.882a6.72,6.72,0,0,1,3.36-5.819L486.057,245.8a3.094,3.094,0,0,1,4.64,2.68V378.773" transform="translate(-438.478 -220.814)"/></g></g><g transform="translate(411.453 361.349)"><g transform="translate(0)"><path class="ai" d="M315.266,314.2s-8.1-5.4-8.545-7.479-4.976-7.748-6.728-7.871,1.492,1.513,1.55,3.989-4.4.617-6.55-.613-3.084-3.98-3.51-3.868c-1.38.363.059,3.187,3.2,5.729-2.42.285-3.837-2.624-5.011-2.413-1.027,1.2.877,3.728,2.58,7.2s8.355,4.715,8.355,4.715l7.369,7.776Z" transform="translate(-289.381 -164.471)"/><path class="ag" d="M302.108,317.268,309.4,310.1s-5.73-3.824-7.809-6.275a58.077,58.077,0,0,0-4.355,8.3Z" transform="translate(-283.515 -160.379)"/><path class="bv" d="M383.667,254.463c15.718-1.513,42.192,4.8,25.832,47.426Z" transform="translate(-218.943 -197.406)"/><path class="ai" d="M361.852,233.858s-10.526,21.313-8.157,22.759S362.772,261,362.772,261l7.235,25.874,23.944-9.473L383.164,261l-1.448-21.092Z" transform="translate(-241.594 -212.651)"/><path class="ag" d="M355.046,248.131c2.858,1.413,6.457,2.989,6.457,2.989s5.481-1.623,8.463-4.034C364.941,249.114,358.254,248.566,355.046,248.131Z" transform="translate(-240.325 -202.769)"/><path class="bw" d="M339.428,293.143s31.835-22.387,53.937-31.6a123.812,123.812,0,0,1,21.6-6.662A22.885,22.885,0,0,1,442,272.152a436.948,436.948,0,0,1,7.905,44.431c4.473,36.309,1.606,65.208-3.657,74.68s-38.5,30-62.793,29.469-36.119-4.862-35.35-20.6-10.788-27.085-10.261-49.122S333.639,299.7,339.428,293.143Z" transform="translate(-254.165 -197.321)"/><path class="bx" d="M337.33,322.694c-.528,22.037,11.031,33.379,10.261,49.122-.035.72-.014,1.389,0,2.062,10.145-.687,9.52-19.04,14.578-35.521,5.716-18.629,6.289-46.081,6.289-46.081l-31.243,18.666C337.354,314.97,337.419,318.938,337.33,322.694Z" transform="translate(-253.645 -169.009)"/><path class="by" d="M336.109,346.425S359.9,292.3,365.753,281.52c4.694-8.653,18.646-10.308,26.087-4.191s12.189,18.746,3.632,39.795-33.027,54.993-48.025,61.834-31.573-4.8-48.151-36.6c0,0-2.762-11.546,9.078-12.993Z" transform="translate(-282.182 -182.909)"/><path class="bz" d="M320.3,316.163a14.984,14.984,0,0,0,1.518,8.7" transform="translate(-266.373 -151.164)"/><path class="bz" d="M352.739,276.287s12.815,12.837,3.756,35.85" transform="translate(-242.048 -180.954)"/><path class="ca" d="M367.421,247.442s-1.754,8.6,2.631,13.683c3.859-5.439,6.164-4.883,6.316-1.228.243,5.888-3.01,5.812-3.01,5.812s3.948,4.382,9.149,4.361c1.578-7.016,8.068-12.278,8.068-15.963s-4.385-6.665-4.385-6.665,5.271-7.591,1.5-11.162-8.686-4.8-12.9-6.027c-5.262-8.07-9.581-11.5-16.718-5.484S353.563,244.637,367.421,247.442Z" transform="translate(-240.937 -221.72)"/></g><g transform="translate(129.615 113.804)"><path class="k" d="M423.5,287.248l0,.012a3.347,3.347,0,0,0-3.578.269l-51.425,30a11,11,0,0,0-4.918,8.562v40.8a3.339,3.339,0,0,0,1.585,3.23l-.009.014,5.122,2.64,4.205-6.551,45.44-26.508a11.006,11.006,0,0,0,4.918-8.562V302.919l3.947-12.935Z" transform="translate(-363.571 -286.86)"/><path class="o" d="M427.9,332.754a11,11,0,0,1-4.918,8.562l-51.425,30c-2.7,1.578-4.918.308-4.918-2.825v-40.8a11.009,11.009,0,0,1,4.918-8.562l51.425-30c2.706-1.578,4.918-.307,4.918,2.825Z" transform="translate(-361.276 -285.672)"/><path class="au" d="M376.727,451.19V319.423a6.718,6.718,0,0,1,3.36-5.819l21.236-12.261a3.092,3.092,0,0,1,4.638,2.678V434.312" transform="translate(-353.743 -276.353)"/></g></g><path class="y" d="M555.675,130.775c-8.6,5.666-12.016,10.257-16.236,21.8-4.221-11.541-7.64-16.132-16.237-21.8,8.6-5.666,12.016-10.257,16.237-21.8C543.658,120.518,547.079,125.109,555.675,130.775Z" transform="translate(296.752 55.403)"/><path class="y" d="M443.158,95.153c-4.3,2.832-6.008,5.129-8.119,10.9-2.109-5.769-3.819-8.066-8.117-10.9,4.3-2.832,6.008-5.129,8.117-10.9C437.149,90.024,438.86,92.321,443.158,95.153Z" transform="translate(224.825 36.934)"/><path class="y" d="M587.407,313.9c-4.3,2.834-6.008,5.129-8.119,10.9-2.111-5.769-3.821-8.064-8.119-10.9,4.3-2.832,6.008-5.129,8.119-10.9C581.4,308.771,583.11,311.068,587.407,313.9Z" transform="translate(332.588 200.353)"/><path class="y" d="M184.48,398.172c-4.3,2.834-6.008,5.129-8.117,10.9-2.11-5.771-3.821-8.066-8.119-10.9,4.3-2.832,6.008-5.129,8.119-10.9C178.471,393.043,180.182,395.34,184.48,398.172Z" transform="translate(31.575 263.31)"/><path class="y" d="M212.837,135.117c-6.957,4.584-9.726,8.3-13.141,17.642-3.414-9.34-6.183-13.058-13.14-17.642,6.957-4.586,9.726-8.3,13.14-17.642C203.111,126.815,205.88,130.531,212.837,135.117Z" transform="translate(45.255 61.752)"/></g></svg>