<svg xmlns="http://www.w3.org/2000/svg" xmlns:xlink="http://www.w3.org/1999/xlink" width="1279.389" height="869.16" viewBox="0 0 1279.389 869.16">
  <defs>
    <linearGradient id="linear-gradient" y1="0.5" x2="1" y2="0.5" gradientUnits="objectBoundingBox">
      <stop offset="0" stop-color="#dae3fe"/>
      <stop offset="1" stop-color="#e9effd"/>
    </linearGradient>
    <linearGradient id="linear-gradient-2" x1="1.439" y1="-0.581" x2="-0.064" y2="1.149" gradientUnits="objectBoundingBox">
      <stop offset="0" stop-color="#fe7062"/>
      <stop offset="1" stop-color="#ff928e"/>
    </linearGradient>
    <linearGradient id="linear-gradient-3" x1="1.239" y1="-0.271" x2="-0.242" y2="1.272" xlink:href="#linear-gradient-2"/>
    <linearGradient id="linear-gradient-4" x1="1.243" y1="-0.152" x2="-0.259" y2="1.166" xlink:href="#linear-gradient-2"/>
    <linearGradient id="linear-gradient-5" x1="0.824" y1="0.288" x2="-0.676" y2="1.271" xlink:href="#linear-gradient-2"/>
    <linearGradient id="linear-gradient-6" x1="0.7" y1="0.348" x2="-0.801" y2="1.49" xlink:href="#linear-gradient-2"/>
    <linearGradient id="linear-gradient-7" x1="0.499" y1="0.441" x2="0.518" y2="0.939" gradientUnits="objectBoundingBox">
      <stop offset="0" stop-color="#4042e2"/>
      <stop offset="1" stop-color="#4f52ff"/>
    </linearGradient>
    <linearGradient id="linear-gradient-8" x1="0.475" y1="0.185" x2="0.551" y2="1.273" xlink:href="#linear-gradient-7"/>
    <linearGradient id="linear-gradient-9" x1="0.387" y1="1.084" x2="0.565" y2="0.172" xlink:href="#linear-gradient-7"/>
    <linearGradient id="linear-gradient-10" x1="0.541" y1="0.849" x2="0.626" y2="1.561" xlink:href="#linear-gradient-7"/>
    <linearGradient id="linear-gradient-11" x1="0.515" y1="4.474" x2="0.531" y2="8.118" gradientUnits="objectBoundingBox">
      <stop offset="0" stop-color="#09005d"/>
      <stop offset="1" stop-color="#1a0f91"/>
    </linearGradient>
    <linearGradient id="linear-gradient-12" x1="0.604" y1="1.164" x2="0.341" y2="-0.58" gradientUnits="objectBoundingBox">
      <stop offset="0" stop-color="#ff928e"/>
      <stop offset="1" stop-color="#feb3b1"/>
    </linearGradient>
    <linearGradient id="linear-gradient-13" x1="0.523" y1="3.704" x2="0.55" y2="7.135" xlink:href="#linear-gradient-11"/>
    <linearGradient id="linear-gradient-14" x1="0.661" y1="1.13" x2="0.376" y2="-0.791" xlink:href="#linear-gradient-12"/>
    <linearGradient id="linear-gradient-15" x1="0" y1="0.5" x2="1" y2="0.5" xlink:href="#linear-gradient-7"/>
    <linearGradient id="linear-gradient-16" x1="-4.758" y1="2.369" x2="-3.377" y2="1.878" xlink:href="#linear-gradient-7"/>
    <linearGradient id="linear-gradient-17" x1="0.747" y1="0.161" x2="0.154" y2="1.632" xlink:href="#linear-gradient-11"/>
    <linearGradient id="linear-gradient-19" x1="0" y1="0.5" x2="1" y2="0.5" xlink:href="#linear-gradient-12"/>
    <linearGradient id="linear-gradient-21" x1="0.668" y1="0.262" x2="0.253" y2="1.286" xlink:href="#linear-gradient-12"/>
    <linearGradient id="linear-gradient-22" x1="1.216" y1="0.492" x2="-0.053" y2="0.506" xlink:href="#linear-gradient-12"/>
    <linearGradient id="linear-gradient-23" x1="0" y1="0.5" x2="1" y2="0.5" xlink:href="#linear-gradient-11"/>
    <linearGradient id="linear-gradient-24" x1="0.185" y1="1.276" x2="-0.864" y2="4.226" xlink:href="#linear-gradient-12"/>
    <linearGradient id="linear-gradient-26" x1="-0.281" y1="0.954" x2="1.881" y2="-0.303" xlink:href="#linear-gradient-11"/>
    <linearGradient id="linear-gradient-27" x1="0.509" y1="0.127" x2="0.756" y2="-20.761" xlink:href="#linear-gradient-11"/>
    <linearGradient id="linear-gradient-28" x1="0.34" y1="4.039" x2="0.537" y2="-0.315" xlink:href="#linear-gradient-11"/>
    <linearGradient id="linear-gradient-29" x1="0.434" y1="0.469" x2="0.261" y2="1.17" gradientUnits="objectBoundingBox">
      <stop offset="0" stop-color="#ff928e"/>
      <stop offset="0.477" stop-color="#ffa29f"/>
      <stop offset="1" stop-color="#feb3b1"/>
    </linearGradient>
    <linearGradient id="linear-gradient-30" x1="0.532" y1="0.006" x2="0.327" y2="3.202" xlink:href="#linear-gradient-11"/>
    <linearGradient id="linear-gradient-32" y1="0.5" x2="1" y2="0.5" gradientUnits="objectBoundingBox">
      <stop offset="0" stop-color="#e1473d"/>
      <stop offset="1" stop-color="#e9605a"/>
    </linearGradient>
    <linearGradient id="linear-gradient-33" x1="0.554" y1="-2.158" x2="0.395" y2="6.275" xlink:href="#linear-gradient-11"/>
    <linearGradient id="linear-gradient-34" x1="0.984" y1="0.116" x2="0.443" y2="0.59" xlink:href="#linear-gradient-11"/>
    <linearGradient id="linear-gradient-35" x1="0.5" y1="0.813" x2="0.5" y2="1.857" xlink:href="#linear-gradient-12"/>
    <linearGradient id="linear-gradient-36" x1="1.076" y1="0.622" x2="0.303" y2="0.473" xlink:href="#linear-gradient-12"/>
    <linearGradient id="linear-gradient-37" x1="1.274" y1="-0.084" x2="0.205" y2="0.706" xlink:href="#linear-gradient-11"/>
    <linearGradient id="linear-gradient-38" x1="1.067" y1="0.616" x2="-1.746" y2="0.138" xlink:href="#linear-gradient-12"/>
    <linearGradient id="linear-gradient-39" x1="-1.537" y1="0.5" x2="-0.537" y2="0.5" xlink:href="#linear-gradient-12"/>
    <linearGradient id="linear-gradient-40" x1="0.55" y1="9.582" x2="-0.19" y2="12.019" xlink:href="#linear-gradient-11"/>
    <linearGradient id="linear-gradient-41" x1="0.733" y1="0.134" x2="0.333" y2="0.8" xlink:href="#linear-gradient-11"/>
    <linearGradient id="linear-gradient-42" x1="1.343" y1="-0.281" x2="-0.634" y2="1.551" xlink:href="#linear-gradient-7"/>
    <linearGradient id="linear-gradient-43" x1="0" y1="0.5" x2="1" y2="0.5" xlink:href="#linear-gradient-2"/>
    <linearGradient id="linear-gradient-44" x1="0.509" y1="4.298" x2="0.505" y2="2.583" gradientUnits="objectBoundingBox">
      <stop offset="0" stop-color="#a22b25"/>
      <stop offset="1" stop-color="#c0423c"/>
    </linearGradient>
    <linearGradient id="linear-gradient-45" x1="0.855" y1="-0.353" x2="0.145" y2="1.353" xlink:href="#linear-gradient-11"/>
    <linearGradient id="linear-gradient-46" x1="1.297" y1="-0.28" x2="0.11" y2="0.881" xlink:href="#linear-gradient-11"/>
    <linearGradient id="linear-gradient-47" x1="1.297" y1="-0.28" x2="0.11" y2="0.881" xlink:href="#linear-gradient-11"/>
    <linearGradient id="linear-gradient-51" x1="-2.013" y1="4.449" x2="-1.876" y2="1.688" xlink:href="#linear-gradient-32"/>
    <linearGradient id="linear-gradient-52" x1="-4.179" y1="0.5" x2="-3.179" y2="0.5" xlink:href="#linear-gradient-7"/>
    <linearGradient id="linear-gradient-53" x1="-3.403" y1="-6.693" x2="-3.676" y2="0.843" xlink:href="#linear-gradient-11"/>
    <linearGradient id="linear-gradient-54" x1="-15.446" y1="0.5" x2="-14.446" y2="0.5" xlink:href="#linear-gradient-12"/>
    <linearGradient id="linear-gradient-55" x1="-5.176" y1="0.5" x2="-4.176" y2="0.5" xlink:href="#linear-gradient-7"/>
    <linearGradient id="linear-gradient-56" x1="-4.009" y1="-1.867" x2="-4.319" y2="1.1" xlink:href="#linear-gradient-11"/>
    <linearGradient id="linear-gradient-57" x1="0.494" y1="0.283" x2="0.4" y2="0.677" xlink:href="#linear-gradient-11"/>
    <linearGradient id="linear-gradient-58" x1="-12.937" y1="0.5" x2="-11.937" y2="0.5" xlink:href="#linear-gradient-12"/>
    <linearGradient id="linear-gradient-59" x1="0.588" y1="-0.321" x2="0.537" y2="0.165" xlink:href="#linear-gradient-11"/>
    <linearGradient id="linear-gradient-60" x1="0.649" y1="0.511" x2="1.262" y2="0.062" xlink:href="#linear-gradient-12"/>
    <linearGradient id="linear-gradient-61" x1="0.56" y1="0.621" x2="0.225" y2="1.728" xlink:href="#linear-gradient-11"/>
    <linearGradient id="linear-gradient-62" x1="1.426" y1="-0.089" x2="-3.419" y2="2.995" xlink:href="#linear-gradient-7"/>
    <linearGradient id="linear-gradient-63" x1="-5.601" y1="0.5" x2="-4.601" y2="0.5" gradientUnits="objectBoundingBox">
      <stop offset="0" stop-color="#f9b776"/>
      <stop offset="1" stop-color="#f47960"/>
    </linearGradient>
    <linearGradient id="linear-gradient-64" x1="0.555" y1="-12.089" x2="0.521" y2="-4.132" xlink:href="#linear-gradient-11"/>
    <linearGradient id="linear-gradient-65" x1="1.025" y1="0.182" x2="0.105" y2="0.668" xlink:href="#linear-gradient-12"/>
    <linearGradient id="linear-gradient-66" x1="2.974" y1="-29.304" x2="3.638" y2="-28.009" xlink:href="#linear-gradient-11"/>
    <linearGradient id="linear-gradient-67" x1="4.047" y1="-0.743" x2="-0.197" y2="0.726" xlink:href="#linear-gradient-12"/>
    <linearGradient id="linear-gradient-68" x1="-0.184" y1="1.294" x2="0.486" y2="0.516" xlink:href="#linear-gradient-32"/>
    <linearGradient id="linear-gradient-69" x1="0.878" y1="-0.071" x2="-1.173" y2="3.028" xlink:href="#linear-gradient-12"/>
    <linearGradient id="linear-gradient-70" x1="1.304" y1="-0.302" x2="-1.589" y2="2.559" xlink:href="#linear-gradient-32"/>
    <linearGradient id="linear-gradient-76" x1="1.304" y1="-0.302" x2="-1.589" y2="2.559" xlink:href="#linear-gradient-32"/>
    <linearGradient id="linear-gradient-80" x1="-40.412" y1="50.636" x2="-41.057" y2="52.319" xlink:href="#linear-gradient-32"/>
    <linearGradient id="linear-gradient-81" x1="-25.801" y1="44.901" x2="-25.458" y2="43.305" xlink:href="#linear-gradient-7"/>
    <linearGradient id="linear-gradient-82" x1="-24.23" y1="47.481" x2="-24.767" y2="45.411" xlink:href="#linear-gradient-7"/>
    <linearGradient id="linear-gradient-83" x1="0.342" y1="0.629" x2="0.919" y2="0.267" xlink:href="#linear-gradient-7"/>
    <linearGradient id="linear-gradient-84" x1="-44.549" y1="24.932" x2="-45.756" y2="26.401" xlink:href="#linear-gradient-11"/>
    <linearGradient id="linear-gradient-85" x1="-62.023" y1="40.359" x2="-60.949" y2="40.359" xlink:href="#linear-gradient-11"/>
    <linearGradient id="linear-gradient-86" x1="-91.956" y1="62.635" x2="-90.883" y2="62.635" xlink:href="#linear-gradient-11"/>
  </defs>
  <g id="Group_11145" data-name="Group 11145" transform="translate(-164.299 -95.154)">
    <path id="Path_7589" data-name="Path 7589" d="M460.1,155.754c-71.806,45.39-122.557,10.34-165.958,58.414-135.4,149.974,36.18,206.816-43.52,229.82-86.551,24.981-32.708,135.214,15.994,167.074s84.921,51.026,15.726,83.593-81.284,68.582-52.271,127.184,83.98,77.07,312.414,80.545,670.824-3.893,791.507-37.238S1366.7,746,1417.437,681.906s60.719-101.723-16.987-163.9S1367.011,391.5,1390.34,346.122s41.277-127.674-52.367-151.148-202.526,70.189-249.623,22.607-26.364-110.688-129.219-94.8S821.693,261.638,732,254.873,612.318,59.534,460.1,155.754Z" transform="translate(-16.378 -10.164)" fill="url(#linear-gradient)"/>
    <g id="Group_11099" data-name="Group 11099" transform="translate(164.299 671.496)" opacity="0.81">
      <path id="Path_7590" data-name="Path 7590" d="M524.774,1332.6s-11.935-137.2-192.717-185.1c-120.637-31.969-154.671-68.352-163.95-83.424a2.049,2.049,0,0,0-3.8,1.038c-.272,25.484,7.776,105.7,111.715,168.868C401.287,1310.1,475.489,1278.635,524.774,1332.6Z" transform="translate(-164.299 -1063.079)" fill="#bdd0fb"/>
    </g>
    <g id="Group_11100" data-name="Group 11100" transform="translate(933.685 184.554)" opacity="0.81">
      <path id="Path_7591" data-name="Path 7591" d="M1552.833,975.167s-301.622-312.2,162.159-729.871c0,0,27.584,179.474-84.67,358.668S1505.7,890.14,1552.833,975.167Z" transform="translate(-1456.428 -245.296)" fill="#bdd0fb"/>
      <path id="Path_7592" data-name="Path 7592" d="M1670.2,532.2a443.976,443.976,0,0,0-42,55.977c-6.328,9.8-12.368,19.79-18.026,29.986q-8.555,15.253-16.114,31.025a526.647,526.647,0,0,0-43.487,132.3c-2.133,11.435-3.887,22.943-5.146,34.509-1.281,11.562-2.236,23.164-2.7,34.792-.33,5.811-.335,11.632-.476,17.449.058,5.819-.024,11.641.224,17.458.272,11.639,1.058,23.264,2.126,34.865,4.47,46.406,15.307,92.161,30.922,136.284a.683.683,0,0,1-1.277.486,550.53,550.53,0,0,1-22.219-66.827,496.943,496.943,0,0,1-12.982-69.359,478.975,478.975,0,0,1,4.744-140.908q3.145-17.413,7.646-34.545,4.478-17.117,10.1-33.9c3.736-11.186,7.982-22.194,12.516-33.072,4.556-10.87,9.437-21.6,14.75-32.116q7.942-15.785,16.895-31.019c5.99-10.135,12.355-20.041,19-29.747q10.03-14.517,21.1-28.261a310.43,310.43,0,0,1,23.437-26.34.683.683,0,0,1,.99.939Z" transform="translate(-1488.592 -360.897)" fill="#dce5fe"/>
    </g>
    <g id="Group_11101" data-name="Group 11101" transform="translate(412.754 247.095)" opacity="0.88">
      <path id="Path_7593" data-name="Path 7593" d="M621.812,355.083c-5.8-9.2-20.057-4.016-18.61,6.764,7.457,55.563,16.317,152.547-1.158,215.932-25.694,93.2-71.882,367.342,188.618,436.744C790.662,1014.524,765.851,583.564,621.812,355.083Z" transform="translate(-581.561 -350.329)" fill="#bdd0fb"/>
      <path id="Path_7594" data-name="Path 7594" d="M682.676,550.545a112.867,112.867,0,0,1,7.124,16.821c2,5.75,3.617,11.618,5.131,17.517a290.225,290.225,0,0,1,6.2,35.979l.863,9.1c.278,3.034.377,6.075.574,9.116.436,6.083.5,12.17.592,18.263.008,1.522.064,3.047.033,4.569l-.11,4.564-.222,9.133c-.02,3.05-.318,6.079-.469,9.12l-.557,9.119c-.861,12.194-2.584,24.26-4.273,36.229l-5.254,35.743c-3.4,23.727-5.786,47.476-5.832,71.184a290.835,290.835,0,0,0,8.3,70.246c1.6,5.681,2.968,11.437,4.951,17.006.95,2.8,1.792,5.633,2.828,8.4l3.215,8.266c.547,1.374,1.047,2.767,1.626,4.128l1.8,4.057,3.6,8.122c1.3,2.661,2.677,5.288,4.011,7.937,1.379,2.624,2.6,5.337,4.148,7.872l4.449,7.72c.75,1.283,1.465,2.586,2.244,3.852l2.423,3.745,4.815,7.518,1.2,1.883,1.292,1.822,2.591,3.643,5.184,7.292c1.746,2.419,3.664,4.711,5.489,7.074l5.543,7.046c1.883,2.32,3.87,4.558,5.8,6.843,15.519,18.237,32.638,35.163,50.493,51.362a.683.683,0,0,1,.055.965.692.692,0,0,1-.923.09,448.573,448.573,0,0,1-54.193-48.315c-2.08-2.214-4.238-4.36-6.256-6.634l-5.948-6.921c-1.961-2.326-4.015-4.58-5.9-6.97l-5.616-7.216-2.809-3.612-1.4-1.808-1.314-1.874-5.246-7.511-2.607-3.77c-.84-1.276-1.619-2.593-2.431-3.889l-4.827-7.807a268.555,268.555,0,0,1-28.8-67.576,283.424,283.424,0,0,1-9.4-72.958c-.254-24.552,2.614-48.9,6.171-72.866,3.594-23.975,8.432-47.586,10.969-71.233l.871-8.911c.256-2.973.66-5.941.785-8.922l.542-8.937.272-4.471c.085-1.49.083-2.981.129-4.472.141-5.964.433-11.937.29-17.9-.043-2.983.012-5.975-.111-8.956l-.4-8.946a313.309,313.309,0,0,0-3.822-35.617c-1.031-5.885-2.167-11.767-3.688-17.551a123.218,123.218,0,0,0-5.414-17.067l-.018-.046a.682.682,0,0,1,1.23-.584Z" transform="translate(-619.302 -431.184)" fill="#dce5fe"/>
    </g>
    <rect id="Rectangle_179" data-name="Rectangle 179" width="103.796" height="376.944" rx="17.609" transform="translate(449.6 564.291)" fill="url(#linear-gradient-2)"/>
    <path id="Path_7595" data-name="Path 7595" d="M1181.622,807.346H1099c-5.791,0-10.586,5.572-10.586,12.059v397.487c0,6.488,4.8,12.468,10.586,12.468h82.624c5.791,0,11.952-5.98,11.952-12.468V819.4C1193.574,812.918,1187.412,807.346,1181.622,807.346Z" transform="translate(-373.859 -288.125)" fill="url(#linear-gradient-3)"/>
    <rect id="Rectangle_180" data-name="Rectangle 180" width="103.796" height="494.398" rx="17.609" transform="translate(579.345 446.837)" fill="url(#linear-gradient-4)"/>
    <rect id="Rectangle_181" data-name="Rectangle 181" width="103.796" height="662.384" rx="17.609" transform="translate(1028.673 278.851)" fill="url(#linear-gradient-5)"/>
    <rect id="Rectangle_182" data-name="Rectangle 182" width="103.796" height="570.879" rx="17.609" transform="translate(874.345 370.356)" fill="url(#linear-gradient-6)"/>
    <g id="Group_11102" data-name="Group 11102" transform="translate(293.831 488.05)" opacity="0.8">
      <path id="Path_7596" data-name="Path 7596" d="M630.924,1201.872s-116.993,40.505-204.4-87.491c-82.1-120.232-32.771-270.562,3.454-356.447a4.807,4.807,0,0,1,9.182,1.159c10.868,72.31,61.42,355.066,198.012,442.554Z" transform="translate(-381.839 -754.995)" fill="#91b3fa"/>
      <path id="Path_7597" data-name="Path 7597" d="M650.9,1325.988c-14.911-2.087-29.248-6.752-43.181-12.345a222.171,222.171,0,0,1-74.363-50.385,245.438,245.438,0,0,1-28.28-35.385,286.212,286.212,0,0,1-21.005-40.131l-4.065-10.569-1.98-5.3-1.676-5.4-3.346-10.8c-.959-3.644-1.825-7.311-2.694-10.976a322.764,322.764,0,0,1-8.046-89.364.684.684,0,0,1,1.364-.039l0,.017q1.167,11.133,2.085,22.212l1.445,11.034c.484,3.673.832,7.359,1.427,11.01.656,3.644,1.255,7.291,1.858,10.935.623,3.641,1.126,7.3,2.011,10.889,1.644,7.194,2.872,14.474,4.984,21.537l2.839,10.668,3.368,10.5,1.682,5.249,1.979,5.141,3.9,10.3a282.041,282.041,0,0,0,20.169,39.062,238.292,238.292,0,0,0,26.89,34.728,223.281,223.281,0,0,0,32.974,29.117,241.73,241.73,0,0,0,38.014,22.461,201.887,201.887,0,0,0,41.837,14.491l.045.01a.682.682,0,0,1-.238,1.342Z" transform="translate(-414.222 -876.231)" fill="#fff"/>
    </g>
    <g id="Group_11103" data-name="Group 11103" transform="translate(306.633 236.114)">
      <path id="Path_7598" data-name="Path 7598" d="M1480.913,965.175l191-365.921h-39.133a8.547,8.547,0,0,1-6.608-13.968l203.571-248.112c8.823-10.753,26.251-3.933,25.432,9.953l-14.31,242.622a24.244,24.244,0,0,1-26.958,22.659l-27.284-3.122L1597.114,1019.7a30.175,30.175,0,0,1-27.4,17.525h-65.683Z" transform="translate(-839.281 -331.887)" fill="url(#linear-gradient-7)"/>
      <path id="Path_7599" data-name="Path 7599" d="M1215.7,929.32l134.844,299.539a49.451,49.451,0,0,0,45.092,29.151h69.515a25.382,25.382,0,0,0,22.2-13.069l2.472-4.456h0a19.876,19.876,0,0,1-17.7-10.84L1292.453,877.62Z" transform="translate(-731.987 -552.669)" fill="url(#linear-gradient-8)"/>
      <path id="Path_7600" data-name="Path 7600" d="M1128.459,889.537h0a29.49,29.49,0,0,0-42.825,6.8L887.376,1194.21a85.646,85.646,0,0,1-71.3,38.191h-27.9l-22.7-65.4S949.791,884.389,997.3,841.639c0,0,47.308-42.638,93.954-10.4a77.843,77.843,0,0,1,27.4,34.52Z" transform="translate(-549.846 -529.029)" fill="url(#linear-gradient-9)"/>
      <path id="Path_7601" data-name="Path 7601" d="M403.338,1075.335s33.187-41.482,97.5-47.935c0,0,30.544,10.406,91.395,119.443s101.242,158.76,148.639,131.6l-3.924,6.515a71.479,71.479,0,0,1-61.231,34.6H649.5a89.678,89.678,0,0,1-72.809-37.3C529.33,1216.418,432.431,1085.556,403.338,1075.335Z" transform="translate(-403.338 -613.264)" fill="url(#linear-gradient-10)"/>
      <path id="Path_7602" data-name="Path 7602" d="M2069.5,475.75a1.93,1.93,0,0,1-.233-.014,2.047,2.047,0,0,1-1.8-2.266l1.342-11.847a2.049,2.049,0,0,1,4.071.461l-1.343,11.847A2.047,2.047,0,0,1,2069.5,475.75Z" transform="translate(-1076.569 -383.637)" fill="#91b3fa"/>
      <path id="Path_7603" data-name="Path 7603" d="M1784.1,585.171a2.049,2.049,0,0,1-1.622-3.3l168.1-218.421a7.207,7.207,0,0,1,12.873,5.207l-2.966,26.181a2.048,2.048,0,1,1-4.07-.461l2.966-26.181a3.11,3.11,0,0,0-5.556-2.246l-168.1,218.421A2.042,2.042,0,0,1,1784.1,585.171Z" transform="translate(-961.112 -343.515)" fill="#91b3fa"/>
      <path id="Path_7604" data-name="Path 7604" d="M1143.652,1027.923a2.049,2.049,0,0,1-1.7-3.195l86.937-128.865a15.481,15.481,0,0,1,26.826,2.035,2.049,2.049,0,0,1-3.7,1.752,11.383,11.383,0,0,0-19.725-1.5l-86.937,128.865A2.046,2.046,0,0,1,1143.652,1027.923Z" transform="translate(-702.011 -557.288)" fill="#91b3fa"/>
      <path id="Path_7605" data-name="Path 7605" d="M1105.711,1170.127a2.049,2.049,0,0,1-1.7-3.194l5.575-8.263a2.049,2.049,0,0,1,3.4,2.292l-5.574,8.262A2.049,2.049,0,0,1,1105.711,1170.127Z" transform="translate(-686.662 -666.005)" fill="#91b3fa"/>
    </g>
    <g id="Group_11104" data-name="Group 11104" transform="translate(1049.488 471.129)" opacity="0.81">
      <path id="Path_7606" data-name="Path 7606" d="M2015.3,727.07c-75.865,33.636-277.386,150.027-364.39,463.764,0,0,117.369,1.967,205.426-186.258,75.305-160.969,118.615-226,164.729-268.815C2025.437,731.7,2020.753,724.653,2015.3,727.07Z" transform="translate(-1650.911 -726.578)" fill="#91b3fa"/>
      <path id="Path_7607" data-name="Path 7607" d="M1675.34,1214.469c3.317-9.417,6.977-18.686,10.771-27.908s7.769-18.366,11.9-27.443c4.11-9.086,8.337-18.122,12.761-27.059q3.262-6.734,6.656-13.4c2.237-4.459,4.55-8.877,6.886-13.285,9.252-17.679,19.084-35.055,29.308-52.2,10.284-17.11,21.117-33.888,32.3-50.427a854.452,854.452,0,0,1,73.884-94.218l10.217-10.956c3.425-3.633,7-7.122,10.5-10.688l5.269-5.321,5.427-5.162c3.656-3.4,7.241-6.873,10.951-10.211a556.807,556.807,0,0,1,46.491-37.647.683.683,0,0,1,.831,1.083l-.011.009c-15.446,12.52-30.457,25.518-44.678,39.36-14.071,13.987-27.866,28.239-40.819,43.259a953.9,953.9,0,0,0-72.054,94.557q-16.606,24.681-31.953,50.186c-10.251,16.984-20.1,34.21-29.712,51.575-19.132,34.776-37.157,70.211-53.648,106.393l-.006.013a.683.683,0,0,1-1.266-.511Z" transform="translate(-1660.779 -767.777)" fill="#dce5fe"/>
    </g>
    <g id="Group_11105" data-name="Group 11105" transform="translate(1049.488 733.696)" opacity="0.81">
      <path id="Path_7608" data-name="Path 7608" d="M1650.911,1372.118s33.5-131.354,216.746-149.018c122.28-11.787,161.147-41.692,172.568-54.849a2.017,2.017,0,0,1,3.526,1.615c-3.8,24.8-24.431,101.423-135.474,146.183C1774.446,1369.992,1707.4,1327.576,1650.911,1372.118Z" transform="translate(-1650.911 -1167.541)" fill="#bdd0fb"/>
      <path id="Path_7609" data-name="Path 7609" d="M1666.97,1384.256a276.454,276.454,0,0,1,36.846-29.829c6.531-4.479,13.194-8.791,20.066-12.763,6.844-4.016,13.821-7.833,20.964-11.332,7.126-3.535,14.441-6.7,21.81-9.738,7.414-2.936,14.949-5.589,22.609-7.869,1.917-.566,3.82-1.176,5.748-1.7l5.8-1.529c3.848-1.1,7.8-1.814,11.7-2.688q5.9-1.124,11.841-2.067l5.963-.79,2.981-.394,3-.271,6-.529c2-.207,4.01-.2,6.014-.316l6.019-.236,6.028.059c4.019-.033,8.03.324,12.04.564l5.885.411,5.786.429c3.858.2,7.721.372,11.581.458,3.857-.007,7.723.12,11.574-.024a198.1,198.1,0,0,0,23.035-1.709,146.046,146.046,0,0,0,44.177-12.436,107.125,107.125,0,0,0,10.085-5.55,90.065,90.065,0,0,0,9.408-6.66,79.925,79.925,0,0,0,8.442-7.884,49.8,49.8,0,0,0,6.929-9.2l.027-.05a.682.682,0,0,1,1.22.607,51.373,51.373,0,0,1-6.255,10.255,74.992,74.992,0,0,1-8.058,8.9,97.536,97.536,0,0,1-19.411,14.17,125.672,125.672,0,0,1-22.068,9.615,151.08,151.08,0,0,1-23.342,5.788,206.3,206.3,0,0,1-23.849,2.675c-7.983.545-15.973.418-23.944.19l-5.97-.307-5.875-.276c-3.833-.139-7.658-.4-11.5-.277l-5.751.029-5.749.271c-1.915.122-3.835.129-5.745.344l-5.734.55a259.008,259.008,0,0,0-45.205,9.12,338.777,338.777,0,0,0-43.481,16.1c-3.543,1.573-7.054,3.229-10.573,4.869-3.487,1.707-6.989,3.391-10.427,5.207-6.888,3.6-13.765,7.264-20.48,11.225s-13.412,7.979-19.936,12.286c-6.562,4.243-13.043,8.668-19.323,13.329l-.02.015a.684.684,0,0,1-.887-1.037Z" transform="translate(-1657.326 -1205.051)" fill="#dce5fe"/>
    </g>
    <g id="Group_11117" data-name="Group 11117" transform="translate(310.654 598.766)">
      <g id="Group_11109" data-name="Group 11109" transform="translate(0 0)">
        <g id="Group_11106" data-name="Group 11106" transform="translate(0 161.359)">
          <path id="Path_7610" data-name="Path 7610" d="M567.082,1498.744a89.6,89.6,0,0,0-1.078,9.388,4.044,4.044,0,0,0,3.644,4.268c7.539.731,24.7,2.081,35.656.5a1.839,1.839,0,0,0,1.01-3.164c-4.518-4.209-15.429-12.4-33.388-14.187Z" transform="translate(-473.165 -1326.669)" fill="url(#linear-gradient-11)"/>
          <path id="Path_7611" data-name="Path 7611" d="M561.526,1481.923l3.811,9.342a3.113,3.113,0,0,0,3.2,1.933,16.98,16.98,0,0,0,3.114-.6,4.092,4.092,0,0,0,2.721-5.087l-2.877-9.622Z" transform="translate(-471.356 -1319.523)" fill="url(#linear-gradient-12)"/>
          <path id="Path_7612" data-name="Path 7612" d="M443.847,1513.412s7.632,6.386,10.607,14.578a3.483,3.483,0,0,1-3.308,4.627H435.439a3.7,3.7,0,0,1-3.661-4.332C432.779,1522.628,435.664,1513.435,443.847,1513.412Z" transform="translate(-418.843 -1333.895)" fill="url(#linear-gradient-13)"/>
          <path id="Path_7613" data-name="Path 7613" d="M436.207,1498.663s1.542,6.824,2.727,11.334a1.442,1.442,0,0,0,1.885.982,13.152,13.152,0,0,1,5.717-1.037,1.112,1.112,0,0,0,1.226-1.109l.148-11.334Z" transform="translate(-420.657 -1327.457)" fill="url(#linear-gradient-14)"/>
          <path id="Path_7614" data-name="Path 7614" d="M466.235,1229.583l46.425,141.63s-8.9,5.831-13.147,5.589l-55.142-113.823s-9.65,70.134-4.974,120.484l-15.795,1.205S397.921,1256,417.373,1211.926Z" transform="translate(-410.092 -1211.926)" fill="url(#linear-gradient-15)"/>
          <path id="Path_7615" data-name="Path 7615" d="M467.856,1285.285a.441.441,0,0,1-.057,0,.45.45,0,0,1-.39-.5l1.8-14.3a.45.45,0,0,1,.892.113l-1.8,14.3A.45.45,0,0,1,467.856,1285.285Z" transform="translate(-433.279 -1235.456)" fill="url(#linear-gradient-16)"/>
        </g>
        <path id="Path_7616" data-name="Path 7616" d="M476.286,1032.277s-37.613,3.34-32.292,30.14c0,0-20.792,39.127-30.512,85.219a2.71,2.71,0,0,0,2.2,3.221l62.638,10.725a3.372,3.372,0,0,0,3.834-2.479l14.966-57.842,5.832,26.893,18.531-4.829-15.6-79.023S503.706,1032.772,476.286,1032.277Z" transform="translate(-411.44 -977.888)" fill="url(#linear-gradient-17)"/>
        <path id="Path_7617" data-name="Path 7617" d="M554.2,1126.864a.437.437,0,0,1-.1-.011.467.467,0,0,1-.357-.555l5.221-23.975a.467.467,0,0,1,.912.2l-5.221,23.975A.467.467,0,0,1,554.2,1126.864Z" transform="translate(-468.204 -1006.078)" fill="url(#linear-gradient-15)"/>
        <path id="Path_7618" data-name="Path 7618" d="M525.243,1235.571a8.944,8.944,0,0,0-6.468-.841l-4.358,1.085a1.579,1.579,0,0,1-1.951-1.356l-4.51-40.141c-5.639,2.678-13.775,2.358-16.457,2.161l10.38,47.324H538.2Z" transform="translate(-443.026 -1043.443)" fill="url(#linear-gradient-19)"/>
        <path id="Path_7619" data-name="Path 7619" d="M651,1098.826l-1.1-3.649a7.218,7.218,0,0,0-4.219-4.616l-19.857-7.985s-.3-2.547,4.2-4.277,3.445-6.765,3.445-6.765-6.142,2.8-15.133,7.245a21.043,21.043,0,0,0-9.556,10.4l-45,54.852,5.283,3.63a14.1,14.1,0,0,0,20.449-5.018l24.375-46.742A90.847,90.847,0,0,0,651,1098.826Z" transform="translate(-472.268 -993.77)" fill="url(#linear-gradient-19)"/>
        <g id="Group_11108" data-name="Group 11108" transform="translate(65.463)">
          <path id="Path_7620" data-name="Path 7620" d="M531.6,989.044l-11.569,32.378s10.245,8.009,17.72,5.3l5.829-18.56S539.129,985.479,531.6,989.044Z" transform="translate(-520.032 -960.244)" fill="url(#linear-gradient-21)"/>
          <g id="Group_11107" data-name="Group 11107" transform="translate(8.218)">
            <path id="Path_7621" data-name="Path 7621" d="M577.923,965.4c0,.5-11.144,31.547-11.144,31.547l-17.593-6.74,6.19-31S577.923,957.045,577.923,965.4Z" transform="translate(-540.044 -948.226)" fill="url(#linear-gradient-22)"/>
            <path id="Path_7622" data-name="Path 7622" d="M553.3,959.469l-4.537,16.061a2.28,2.28,0,0,0-.088.628c0,1.31.323,5.817,4.914,5.2,4.166-.557,7.977-1,10.4.139a2.329,2.329,0,0,1,1.2,2.9,100.637,100.637,0,0,1-6.337,14.3,2.324,2.324,0,0,1-2.99.957c-3.3-1.5-10.184-4.868-15.084-8.873a2.331,2.331,0,0,1-.825-2.238c.771-4.109,3.068-16.606,3.169-20.187.1-3.361-3.677-5.927-5.337-6.892a2.289,2.289,0,0,1-1.08-1.449c-.521-2.164-.963-7.06,5.282-8.14a2.334,2.334,0,0,0,1.894-2.777c-.528-2.588-.36-6.4,4.555-7.8,4.995-1.425,8.137,1.58,9.735,3.886a2.334,2.334,0,0,0,2.891.772,1.845,1.845,0,0,1,2.067.37,2.3,2.3,0,0,0,3.359-.511c1.456-2.144,4.1-4.284,8.581-2.834,7.949,2.572,7.568,11.736,4.655,16.718s-11.372,1.7-15.376-1.6c-3.045-2.51-7.681-1.009-9.728-.145A2.31,2.31,0,0,0,553.3,959.469Z" transform="translate(-534.886 -940.935)" fill="url(#linear-gradient-23)"/>
            <path id="Path_7623" data-name="Path 7623" d="M540.481,987.809s4.7-8.9,1.593-11.693-8.38-2.337-8.238,4.621C534.012,989.393,540.481,987.809,540.481,987.809Z" transform="translate(-533.833 -954.52)" fill="url(#linear-gradient-24)"/>
          </g>
        </g>
        <path id="Path_7624" data-name="Path 7624" d="M484.966,1155.017a45.008,45.008,0,0,1-4.6-.217l-.334-.037-13.7-63.856a.466.466,0,1,1,.912-.2L480.8,1153.9c2.038.179,12.922.9,18.668-3.169l-11.864-55.478,2.476-4.667a.466.466,0,0,1,.824.437l-2.318,4.367,11.919,55.733-.238.179C496.12,1154.427,489.432,1155.017,484.966,1155.017Z" transform="translate(-432.843 -1001.379)" fill="url(#linear-gradient-15)"/>
      </g>
      <g id="Group_11110" data-name="Group 11110" transform="translate(67.149 216.129)">
        <path id="Path_7625" data-name="Path 7625" d="M525.561,1453.328a2.5,2.5,0,0,1-1.065-.24,3.051,3.051,0,0,1-1.412-3.867l56.567-143.53a2.618,2.618,0,0,1,3.543-1.54,3.05,3.05,0,0,1,1.412,3.867L528.04,1451.546A2.7,2.7,0,0,1,525.561,1453.328Z" transform="translate(-522.864 -1303.909)" fill="#7d97f4"/>
        <path id="Path_7626" data-name="Path 7626" d="M594.148,1453.328a2.7,2.7,0,0,1-2.479-1.782L535.1,1308.017a3.05,3.05,0,0,1,1.411-3.867,2.618,2.618,0,0,1,3.544,1.54l56.567,143.53a3.051,3.051,0,0,1-1.412,3.867A2.493,2.493,0,0,1,594.148,1453.328Z" transform="translate(-527.726 -1303.909)" fill="#7d97f4"/>
        <path id="Path_7627" data-name="Path 7627" d="M929.939,1453.328a2.5,2.5,0,0,1-1.065-.24,3.05,3.05,0,0,1-1.411-3.867l56.567-143.53a2.618,2.618,0,0,1,3.543-1.54,3.05,3.05,0,0,1,1.412,3.867l-56.567,143.529A2.7,2.7,0,0,1,929.939,1453.328Z" transform="translate(-686.46 -1303.909)" fill="#7d97f4"/>
        <path id="Path_7628" data-name="Path 7628" d="M998.526,1453.328a2.7,2.7,0,0,1-2.479-1.782l-56.567-143.529a3.05,3.05,0,0,1,1.412-3.867,2.617,2.617,0,0,1,3.543,1.54L1001,1449.22a3.051,3.051,0,0,1-1.412,3.867A2.5,2.5,0,0,1,998.526,1453.328Z" transform="translate(-691.321 -1303.909)" fill="#7d97f4"/>
      </g>
      <g id="Group_11111" data-name="Group 11111" transform="translate(240.37 252.623)">
        <rect id="Rectangle_183" data-name="Rectangle 183" width="6.688" height="72.328" transform="translate(32.324 16.206)" fill="url(#linear-gradient-26)"/>
        <path id="Path_7629" data-name="Path 7629" d="M883.068,1513.268H824.49v-.314a4.039,4.039,0,0,1,4.039-4.039h50.185a4.353,4.353,0,0,1,4.353,4.353Z" transform="translate(-818.111 -1423.34)" fill="url(#linear-gradient-27)"/>
        <rect id="Rectangle_184" data-name="Rectangle 184" width="73.651" height="20.888" rx="10.444" fill="url(#linear-gradient-28)"/>
      </g>
      <g id="Group_11112" data-name="Group 11112" transform="translate(140.286 207.019)">
        <path id="Path_7630" data-name="Path 7630" d="M774.714,1311.422a58.207,58.207,0,0,0-21.112,9.01,5.57,5.57,0,0,0-2.458,5.323c1.338,10.6,6.839,44.9,24.98,78.406a8.435,8.435,0,0,1,.809,5.787l-3.152,14.667-5.845,5.48h15.054l10.024-27.125-4.286-1.356a8.11,8.11,0,0,1-5.664-7.593l-.5-29.1c.429-12.964-7.949-21.909-7.949-21.909l24.042-1.169Z" transform="translate(-688.336 -1297.838)" fill="url(#linear-gradient-29)"/>
        <path id="Path_7631" data-name="Path 7631" d="M769.447,1493.974c-1.371,1.794,14.756,4.162,22.9.237,0,0,11.294-19.651,11.294-29.769,0,0-.9-2.063-7.528-1.6,0,0-3.792,23.268-7.8,25.875s-11.2.263-11.2.263S771.47,1491.326,769.447,1493.974Z" transform="translate(-695.726 -1359.071)" fill="url(#linear-gradient-30)"/>
        <path id="Path_7632" data-name="Path 7632" d="M757.676,1345.98c-.128-.222-25.886-3.1-25.886-3.1A59.525,59.525,0,0,1,730,1361.495c-2.634,10.781-40.452,57.49-40.452,57.49l3.966,12.57a63.781,63.781,0,0,1-36.187,2.176l24.574-14.747s23-78.375,37.086-92.358L744.8,1317.7Z" transform="translate(-650.399 -1300.376)" fill="url(#linear-gradient-19)"/>
        <path id="Path_7633" data-name="Path 7633" d="M857.51,1288.609s14.84,22.072,16.058,32.141-4.065,14.16-19.636,14.835-57.139.664-57.139.664l-35.478-30.32s25.855-9.226,32.577-11.834S857.51,1288.609,857.51,1288.609Z" transform="translate(-692.469 -1288.609)" fill="url(#linear-gradient-32)"/>
        <path id="Path_7634" data-name="Path 7634" d="M687.308,1501.805s4.269,4.135,1.385,8.736c0,0-33.818,5.994-43,3.274,0,0,1.907-4.351,12.246-9.3l-.763.585a1.235,1.235,0,0,0,.816,2.216C664.8,1506.923,678.9,1505.675,687.308,1501.805Z" transform="translate(-645.693 -1374.859)" fill="url(#linear-gradient-33)"/>
      </g>
      <g id="Group_11114" data-name="Group 11114" transform="translate(229.989 61.596)">
        <path id="Path_7635" data-name="Path 7635" d="M857.284,1080.334c2.242.7,10.326,3.6,9.282,8.8a.951.951,0,0,0,1.191,1.09c3.482-.937,11.176-2.119,15.945,3.857,4.211,5.277,1.064,10.256-1.5,12.989a.957.957,0,0,0,.8,1.618c6.4-.809,20.316-1,22.593,12.031,2.123,12.154-6.337,15.581-11.354,16.548a.952.952,0,0,0-.317,1.742c2.5,1.588,5.4,4.869,4.231,11.345-1.837,10.149-21.735,9.318-24.061,9.186a.941.941,0,0,1-.415-.124L841.8,1141.238a.957.957,0,0,1-.47-.669l-6.434-37.161a.959.959,0,0,1,.254-.828l21.16-21.994A.951.951,0,0,1,857.284,1080.334Z" transform="translate(-811.935 -1058.909)" fill="url(#linear-gradient-34)"/>
        <path id="Path_7636" data-name="Path 7636" d="M834.633,1229.339s-17.281-16.455-25.788-27.354a23.123,23.123,0,0,1-3.916-20.812c3.883-13.085,10.785-26.636,11.415-28.746.965-3.233,20.342-3.1,20.342-3.1s38.13,24.747,53.111,66.666l-16.825,5.238s-9.956-16.7-19.792-27.322c0,0,17.021,22.486,17.621,31.69Z" transform="translate(-799.427 -1086.839)" fill="#7d97f4"/>
        <path id="Path_7637" data-name="Path 7637" d="M820.818,1122.415c.2.672,5.26,17.439,5.655,17.786s11.092.923,16.126-2.518l-8.542-17.879Z" transform="translate(-806.244 -1074.895)" fill="url(#linear-gradient-35)"/>
        <g id="Group_11113" data-name="Group 11113" transform="translate(4.592)">
          <path id="Path_7638" data-name="Path 7638" d="M822.344,1064.677s-9.13,3.855-15.338,17.049-1.573,19.285,4.251,20.121,14.532.709,23.743-7.813S834.212,1060.107,822.344,1064.677Z" transform="translate(-804.054 -1052.372)" fill="url(#linear-gradient-36)"/>
          <path id="Path_7639" data-name="Path 7639" d="M834.656,1079s6.889-19.3-10.225-19.53l-4.027,2.815s-6.279-10.7,4.027-15.811,22.368-.889,26.754,13,5.135,23.179-2.162,29.823-10.3-.89-10.3-.89,3.973-6.214,2.356-9.538-5.349.688-5.349.688Z" transform="translate(-809.902 -1044.382)" fill="url(#linear-gradient-37)"/>
          <path id="Path_7640" data-name="Path 7640" d="M848.849,1101.433s3.483-9.943,8.13-5.984-3.776,9.185-7.074,10.878Z" transform="translate(-822.176 -1064.665)" fill="url(#linear-gradient-38)"/>
        </g>
        <path id="Path_7641" data-name="Path 7641" d="M796.342,1275.856l12.7-12.238,17.564,7.42s17.483,2.709,27.49,0l10.007-2.709,22.612-7.04,3.551,10.037a6.043,6.043,0,0,1-2.208,6.943,39.89,39.89,0,0,1-5.711,3.558c-2.978,1.3-73.408-.9-73.408-.9Z" transform="translate(-796.342 -1132.134)" fill="url(#linear-gradient-39)"/>
      </g>
      <g id="Group_11115" data-name="Group 11115" transform="translate(133.102 144.216)">
        <path id="Path_7642" data-name="Path 7642" d="M824.643,1290.911q-.085,0-.17,0l-73.652-.08a3.3,3.3,0,0,1,.007-6.593l73.652.08a3.3,3.3,0,0,1,.162,6.589Z" transform="translate(-679.707 -1224.039)" fill="url(#linear-gradient-40)"/>
        <path id="Path_7643" data-name="Path 7643" d="M638.531,1183.136H699.87a11.692,11.692,0,0,1,10.574,6.7l28.356,60.129H662.573a7.1,7.1,0,0,1-6.608-4.494l-21.99-55.64A4.9,4.9,0,0,1,638.531,1183.136Z" transform="translate(-633.628 -1183.136)" fill="url(#linear-gradient-41)"/>
        <ellipse id="Ellipse_113" data-name="Ellipse 113" cx="4.832" cy="7.855" rx="4.832" ry="7.855" transform="matrix(0.952, -0.306, 0.306, 0.952, 36.51, 26.314)" fill="url(#linear-gradient-42)"/>
      </g>
      <g id="Group_11116" data-name="Group 11116" transform="translate(50.55 199.564)">
        <path id="Path_7644" data-name="Path 7644" d="M579.7,1286.411H507.216v-7.481H579.7C578.151,1278.93,578.151,1286.411,579.7,1286.411Z" transform="translate(-499.935 -1277.238)" fill="url(#linear-gradient-43)"/>
        <path id="Path_7645" data-name="Path 7645" d="M502.865,1285.261a.6.6,0,0,1-.6-.6v-6.29a.6.6,0,0,1,.6-.6H576.37a.6.6,0,0,0,.6-.6v-.5a.6.6,0,0,0-.6-.6H498.118a3.131,3.131,0,0,0-3.13,3.131V1284a2.952,2.952,0,0,0,2.952,2.952H576.37a.6.6,0,0,0,.6-.6v-.5a.6.6,0,0,0-.6-.6Z" transform="translate(-494.988 -1276.089)" fill="url(#linear-gradient-44)"/>
      </g>
      <path id="Path_7646" data-name="Path 7646" d="M819.772,1297.657a2.582,2.582,0,0,0-.69-2.354,3.5,3.5,0,0,0-2.531-1.036H484.82a3.945,3.945,0,0,0-3.181,1.512,2.912,2.912,0,0,0-.247,3.142l3.595,6.757a5.131,5.131,0,0,0,4.569,2.538H814.275a3.714,3.714,0,0,0,3.742-2.681Z" transform="translate(-438.797 -1083.879)" fill="#91b3fa"/>
    </g>
    <g id="Group_11118" data-name="Group 11118" transform="translate(482.069 212.186)">
      <path id="Path_7647" data-name="Path 7647" d="M723.239,528.663l-1.965-3.6,138.139-75.478,128.419,56.449L1098.1,397.876l.215-.127,129.472-76.409,2.082,3.529-129.257,76.283L988.722,510.9,859.61,454.15Z" transform="translate(-707.399 -303.692)" fill="url(#linear-gradient-45)"/>
      <path id="Path_7648" data-name="Path 7648" d="M727.687,656.41a14.857,14.857,0,1,1-14.857-14.858A14.858,14.858,0,0,1,727.687,656.41Z" transform="translate(-697.972 -433.237)" fill="url(#linear-gradient-46)"/>
      <circle id="Ellipse_114" data-name="Ellipse 114" cx="14.858" cy="14.858" r="14.858" transform="translate(134.239 159.224) rotate(-76.718)" fill="url(#linear-gradient-47)"/>
      <circle id="Ellipse_115" data-name="Ellipse 115" cx="14.858" cy="14.858" r="14.858" transform="translate(259.866 201.948) rotate(-45)" fill="url(#linear-gradient-47)"/>
      <circle id="Ellipse_116" data-name="Ellipse 116" cx="14.858" cy="14.858" r="14.858" transform="translate(373.561 80.965)" fill="url(#linear-gradient-47)"/>
      <circle id="Ellipse_117" data-name="Ellipse 117" cx="14.857" cy="14.857" r="14.857" transform="matrix(0.383, -0.924, 0.924, 0.383, 502.016, 27.453)" fill="url(#linear-gradient-47)"/>
    </g>
    <g id="Group_11130" data-name="Group 11130" transform="translate(864.292 680.28)">
      <g id="Group_11128" data-name="Group 11128" transform="translate(0 20.377)">
        <g id="Group_11119" data-name="Group 11119" transform="translate(0 152.234)">
          <path id="Path_7649" data-name="Path 7649" d="M1352.186,1391.875c-1.952,2.889-9.712,68.3-10.926,92.453a2.857,2.857,0,0,0,2.86,3h0a2.863,2.863,0,0,0,2.828-2.421l14.192-90.948Z" transform="translate(-1340.442 -1377.492)" fill="#7d97f4"/>
          <path id="Path_7650" data-name="Path 7650" d="M1458.3,1391.875c1.952,2.889,9.712,68.3,10.926,92.453a2.857,2.857,0,0,1-2.86,3h0a2.863,2.863,0,0,1-2.828-2.421l-14.192-90.948Z" transform="translate(-1384.169 -1377.492)" fill="#7d97f4"/>
          <path id="Path_7651" data-name="Path 7651" d="M1339.9,1377l-.006.713c-.047,5.131,4.374,9.341,9.909,9.435l65.6,1.116c5.456.092,10-3.849,10.268-8.9l.035-.653c.276-5.268-4.2-9.707-9.888-9.809l-65.626-1.177C1344.568,1367.621,1339.943,1371.791,1339.9,1377Z" transform="translate(-1339.888 -1367.72)" fill="url(#linear-gradient-51)"/>
        </g>
        <g id="Group_11123" data-name="Group 11123" transform="translate(8.912)">
          <g id="Group_11120" data-name="Group 11120" transform="translate(99.466 244.778)">
            <path id="Path_7652" data-name="Path 7652" d="M1541.228,1541.854c-11.661,0-16.821-1-19.128-1.913a4.425,4.425,0,0,0,4.309,3.427h41.254a2.007,2.007,0,0,0,1.934-2.534C1564.895,1541.212,1554.907,1541.854,1541.228,1541.854Z" transform="translate(-1521.982 -1529.938)" fill="url(#linear-gradient-52)"/>
            <path id="Path_7653" data-name="Path 7653" d="M1569.517,1534.038a1.938,1.938,0,0,0-.338-.7c-3.143-4.012-9.455-10.313-18.042-10.192-12.579.177-16.965,1.542-26.741.077l-2.306,7.644a4.38,4.38,0,0,0-.07,2.28c2.307.913,7.467,1.913,19.128,1.913C1554.827,1535.058,1564.815,1534.416,1569.517,1534.038Z" transform="translate(-1521.902 -1523.142)" fill="url(#linear-gradient-53)"/>
          </g>
          <path id="Path_7654" data-name="Path 7654" d="M1528.922,1509.44l-2.831,9.628s6.271,2.855,11.787.563l1.082-8.341Z" transform="translate(-1424.131 -1272.82)" fill="url(#linear-gradient-54)"/>
          <g id="Group_11121" data-name="Group 11121" transform="translate(169.856 230.862)">
            <path id="Path_7655" data-name="Path 7655" d="M1663.5,1520.36c-9.091,7.3-13.736,9.759-16.1,10.5a4.419,4.419,0,0,0,5.5-.04l32.159-25.84a2,2,0,0,0-.072-3.177C1681.55,1505.039,1674.163,1511.793,1663.5,1520.36Z" transform="translate(-1643.062 -1500.591)" fill="url(#linear-gradient-55)"/>
            <path id="Path_7656" data-name="Path 7656" d="M1682.034,1500.979a1.94,1.94,0,0,0-.7-.333c-4.951-1.144-13.8-2.079-20.418,3.393-9.7,8.016-12.264,11.823-20.8,16.809l2.968,7.375a4.343,4.343,0,0,0,1.367,1.813c2.367-.737,7.013-3.193,16.1-10.5C1671.218,1510.971,1678.6,1504.218,1682.034,1500.979Z" transform="translate(-1640.117 -1499.77)" fill="url(#linear-gradient-56)"/>
          </g>
          <path id="Path_7657" data-name="Path 7657" d="M1420.013,1325.222s69.815,5.7,84.138,12.443-11.687,101.237-11.687,101.237-3.9,1.876-12.575-.821c0,0,8.9-69.734,2.276-84.854l-75.592-12.364Z" transform="translate(-1375.779 -1198.293)" fill="url(#linear-gradient-57)"/>
          <path id="Path_7658" data-name="Path 7658" d="M1628.468,1510.079c.648.591,6.936,13.274,6.936,13.274s7-1.515,8.429-5.945l-6.3-11.447Z" transform="translate(-1465.549 -1271.412)" fill="url(#linear-gradient-58)"/>
          <path id="Path_7659" data-name="Path 7659" d="M1357.042,1324.242a35.356,35.356,0,0,0-2.182,12.75,19.141,19.141,0,0,0,18.266,18.727l82.533,3.764a3.958,3.958,0,0,1,3.654,2.975c1.939,7.5,11.419,30.539,57.759,76.507a3.736,3.736,0,0,0,4.622.5l6.6-4.167a1.518,1.518,0,0,0,.5-2.052l-48.055-82.061a18.6,18.6,0,0,0-11.3-8.381l-70.344-17.981Z" transform="translate(-1354.856 -1197.897)" fill="url(#linear-gradient-59)"/>
          <path id="Path_7660" data-name="Path 7660" d="M1497.4,1112.054s-23.252,13.791-32.266,21.364l18.632,10.4s10.068-11.631,19.661-16.477Z" transform="translate(-1399.471 -1112.054)" fill="url(#linear-gradient-60)"/>
          <path id="Path_7661" data-name="Path 7661" d="M1356.009,1251.718s22.281,5.43,43.548,0c0,0,29.759-40,41.272-50.893,0,0,18.364,28.979,59.24,33.086l2.28-5.094s-32.541-15-42.56-38.05-14.042-32.88-23.156-38.894c-5.676-3.745-9.075-6.3-10.831-7.7a2.914,2.914,0,0,0-3.338-.212C1412.792,1149.854,1367.28,1181.025,1356.009,1251.718Z" transform="translate(-1355.323 -1124.789)" fill="url(#linear-gradient-61)"/>
          <g id="Group_11122" data-name="Group 11122" transform="translate(72.802 54.038)">
            <path id="Path_7662" data-name="Path 7662" d="M1488.618,1223.3a.485.485,0,0,0,.384-.779,88.5,88.5,0,0,1-10.944-19.4.484.484,0,0,0-.9.347,89.682,89.682,0,0,0,11.079,19.642A.485.485,0,0,0,1488.618,1223.3Z" transform="translate(-1477.122 -1202.808)" fill="url(#linear-gradient-62)"/>
          </g>
          <path id="Path_7663" data-name="Path 7663" d="M1593.821,1279.148l4.6-1.227,13.97-3.235a6.476,6.476,0,0,1,4.91.828l12.011,7.557-33.171-.056Z" transform="translate(-1451.532 -1177.781)" fill="url(#linear-gradient-63)"/>
        </g>
        <g id="Group_11126" data-name="Group 11126" transform="translate(135.374 40.707)">
          <g id="Group_11124" data-name="Group 11124" transform="translate(0 64.691)">
            <path id="Path_7664" data-name="Path 7664" d="M1570.252,1295.462c.054,0,.108,0,.163,0l70.863-.071a3.166,3.166,0,1,0-.008-6.332l-70.862.071a3.166,3.166,0,0,0-.155,6.328Z" transform="translate(-1567.239 -1289.063)" fill="#bdd0fb"/>
          </g>
          <g id="Group_11125" data-name="Group 11125" transform="translate(71.297)">
            <path id="Path_7665" data-name="Path 7665" d="M1717.162,1182.112q-.038.072-.072.147l-29.816,64.284a3.166,3.166,0,1,0,5.744,2.663l29.816-64.285a3.166,3.166,0,0,0-5.672-2.809Z" transform="translate(-1686.978 -1180.419)" fill="#bdd0fb"/>
          </g>
        </g>
        <g id="Group_11127" data-name="Group 11127" transform="translate(119.267 108.176)">
          <path id="Path_7666" data-name="Path 7666" d="M1599.777,1305.783c-.31,1.283-29.878,112.177-37.374,140.29a5.082,5.082,0,0,0,4.865,6.422h0a5.05,5.05,0,0,0,4.887-3.864l32.823-133.077Z" transform="translate(-1549.104 -1298.605)" fill="#91b3fa"/>
          <path id="Path_7667" data-name="Path 7667" d="M1648.948,1305.783c.31,1.283,29.878,112.177,37.375,140.29a5.083,5.083,0,0,1-4.865,6.422h0a5.05,5.05,0,0,1-4.887-3.864l-32.822-133.077Z" transform="translate(-1582.085 -1298.605)" fill="#91b3fa"/>
          <path id="Path_7668" data-name="Path 7668" d="M1642.039,1299.694h-18.415v14.788a3.825,3.825,0,0,0,3.8,3.848h2.526v33.218a2.9,2.9,0,0,0,2.878,2.913h0a2.9,2.9,0,0,0,2.879-2.913v-33.218h1.282a5.077,5.077,0,0,0,5.046-5.108Z" transform="translate(-1573.943 -1296.142)" fill="#91b3fa"/>
          <path id="Path_7669" data-name="Path 7669" d="M1544.591,1293.728h102.824a3.158,3.158,0,0,1,3.052,2.392l1.436,5.629a3.181,3.181,0,0,1-3.069,3.986l-105.509-.614a3.181,3.181,0,0,1-3.037-3.968l1.249-5.016A3.158,3.158,0,0,1,1544.591,1293.728Z" transform="translate(-1540.189 -1293.728)" fill="url(#linear-gradient-64)"/>
        </g>
      </g>
      <g id="Group_11129" data-name="Group 11129" transform="translate(82.769)">
        <path id="Path_7670" data-name="Path 7670" d="M1525.567,1101.067s.216,16.5-2.451,24-3.084,12.91-12.171,10.83-14.451-9.294-15.253-18.212c0,0-1.336-13.784,1.955-17.818S1525.567,1101.067,1525.567,1101.067Z" transform="translate(-1485.58 -1086.129)" fill="url(#linear-gradient-65)"/>
        <path id="Path_7671" data-name="Path 7671" d="M1494.1,1105.357l1.071.45s-.613-10.9,3.931-10.863,21.21,3.352,26.81-.7c5.4-3.911,5.4-11.891,1.934-15.578a.617.617,0,0,0-.837-.037l-.634.52a.624.624,0,0,1-1.015-.554h0a.621.621,0,0,0-.965-.591c-1.7,1.2-5.555,2.7-13.49.967-11.259-2.458-19.942-1.129-23.144,6.021a.624.624,0,0,1-1.088.1c-.574-.794-1.716-1.533-3.948-.839-3.882,1.208-5.335,7.959-1.207,15.748a.62.62,0,0,1-.414.911c-1.452.264-3.892,1.316-.477,5.52,3.495,4.3,6.271,5.156,7.385,5.321a.624.624,0,0,0,.685-.412l2.291-6.565a.624.624,0,0,1,.831-.37Z" transform="translate(-1478.893 -1077.832)" fill="url(#linear-gradient-66)"/>
        <path id="Path_7672" data-name="Path 7672" d="M1499.615,1120.3s1.425-9.887-3.621-9.065-2.119,10.858.954,12.54Z" transform="translate(-1484.707 -1091.326)" fill="url(#linear-gradient-67)"/>
      </g>
    </g>
    <g id="Group_11139" data-name="Group 11139" transform="translate(1045.078 410.171)">
      <g id="Group_11132" data-name="Group 11132" transform="translate(0 94.917)">
        <circle id="Ellipse_118" data-name="Ellipse 118" cx="42.244" cy="42.244" r="42.244" transform="matrix(0.604, -0.797, 0.797, 0.604, 0, 67.354)" fill="url(#linear-gradient-68)"/>
        <circle id="Ellipse_119" data-name="Ellipse 119" cx="40.839" cy="40.839" r="40.839" transform="translate(5.899 36.892) rotate(-22.3)" fill="url(#linear-gradient-69)"/>
        <path id="Path_7673" data-name="Path 7673" d="M1685.409,840.858a1.365,1.365,0,0,1-1.218-1.98,38.9,38.9,0,0,1,34.894-21.485,39.437,39.437,0,0,1,7.047.634,1.365,1.365,0,1,1-.49,2.686,36.838,36.838,0,0,0-6.557-.588,36.184,36.184,0,0,0-32.456,19.984A1.365,1.365,0,0,1,1685.409,840.858Z" transform="translate(-1659.906 -797.276)" fill="#fff" opacity="0.6"/>
        <circle id="Ellipse_120" data-name="Ellipse 120" cx="34.565" cy="34.565" r="34.565" transform="translate(25.504 25.504)" fill="#fff" opacity="0.78"/>
        <g id="Group_11131" data-name="Group 11131" transform="translate(44.846 35.607)">
          <path id="Path_7674" data-name="Path 7674" d="M1730.653,893.567v-3.76a30.679,30.679,0,0,1-10.552-2.288,2.175,2.175,0,0,1-1.2-2.57l.955-3.5a2.192,2.192,0,0,1,2.977-1.434,25.464,25.464,0,0,0,9.742,2.051c3.776,0,6.592-1.28,6.592-3.9,0-2.368-2.176-3.776-7.424-5.183-7.488-2.048-12.864-5.312-12.864-11.9,0-5.952,4.352-10.5,11.9-11.712V845.6a2.191,2.191,0,0,1,2.191-2.191h2.209a2.191,2.191,0,0,1,2.191,2.191v3.377a27.976,27.976,0,0,1,8.364,1.5,2.18,2.18,0,0,1,1.363,2.632l-.878,3.239a2.185,2.185,0,0,1-2.884,1.476,22.81,22.81,0,0,0-8.2-1.49c-4.479,0-5.76,1.856-5.76,3.52,0,2.048,2.688,3.455,8.512,5.248,8.32,2.5,11.775,5.952,11.775,12.16,0,5.7-4.224,10.816-12.416,12.1v4.209a2.191,2.191,0,0,1-2.191,2.191h-2.21A2.191,2.191,0,0,1,1730.653,893.567Z" transform="translate(-1718.82 -843.408)" fill="url(#linear-gradient-70)"/>
        </g>
      </g>
      <g id="Group_11134" data-name="Group 11134" transform="translate(75.427)">
        <circle id="Ellipse_121" data-name="Ellipse 121" cx="73.539" cy="73.539" r="73.539" transform="translate(0 104) rotate(-45)" fill="url(#linear-gradient-68)"/>
        <circle id="Ellipse_122" data-name="Ellipse 122" cx="71.094" cy="71.094" r="71.094" transform="matrix(0.227, -0.974, 0.974, 0.227, 18.601, 157.063)" fill="url(#linear-gradient-69)"/>
        <path id="Path_7675" data-name="Path 7675" d="M1845.459,725.18a1.365,1.365,0,0,1-1.218-1.98,66.713,66.713,0,0,1,59.843-36.847,67.447,67.447,0,0,1,12.084,1.089,1.365,1.365,0,1,1-.49,2.686,64.811,64.811,0,0,0-11.595-1.043,64,64,0,0,0-57.4,35.345A1.364,1.364,0,0,1,1845.459,725.18Z" transform="translate(-1800.083 -649.347)" fill="#fff" opacity="0.6"/>
        <circle id="Ellipse_123" data-name="Ellipse 123" cx="60.172" cy="60.172" r="60.172" transform="translate(45.377 45.377)" fill="#fff" opacity="0.78"/>
        <g id="Group_11133" data-name="Group 11133" transform="translate(79.047 62.963)">
          <path id="Path_7676" data-name="Path 7676" d="M1923.531,817.265v-6.547a53.369,53.369,0,0,1-18.369-3.982,3.787,3.787,0,0,1-2.093-4.474l1.663-6.1a3.817,3.817,0,0,1,5.182-2.5,44.326,44.326,0,0,0,16.96,3.571c6.573,0,11.475-2.229,11.475-6.8,0-4.122-3.788-6.573-12.924-9.024-13.034-3.565-22.393-9.247-22.393-20.723,0-10.361,7.576-18.271,20.723-20.388V733.76a3.814,3.814,0,0,1,3.814-3.814h3.846a3.814,3.814,0,0,1,3.814,3.814v5.878a48.675,48.675,0,0,1,14.559,2.615,3.8,3.8,0,0,1,2.372,4.582l-1.53,5.639a3.8,3.8,0,0,1-5.021,2.569,39.717,39.717,0,0,0-14.28-2.593c-7.8,0-10.027,3.231-10.027,6.128,0,3.565,4.679,6.016,14.817,9.136,14.484,4.345,20.5,10.361,20.5,21.168,0,9.915-7.353,18.828-21.613,21.057v7.326a3.814,3.814,0,0,1-3.814,3.814h-3.847A3.815,3.815,0,0,1,1923.531,817.265Z" transform="translate(-1902.934 -729.946)" fill="url(#linear-gradient-70)"/>
        </g>
      </g>
      <g id="Group_11136" data-name="Group 11136" transform="translate(126.688 164.797)">
        <circle id="Ellipse_124" data-name="Ellipse 124" cx="75.671" cy="75.671" r="75.671" transform="translate(9.067 153.883) rotate(-73.113)" fill="url(#linear-gradient-68)"/>
        <circle id="Ellipse_125" data-name="Ellipse 125" cx="73.155" cy="73.155" r="73.155" transform="translate(0 103.457) rotate(-45)" fill="url(#linear-gradient-69)"/>
        <path id="Path_7677" data-name="Path 7677" d="M1927.781,998.886a1.366,1.366,0,0,1-1.218-1.981,68.606,68.606,0,0,1,61.542-37.893,69.391,69.391,0,0,1,12.427,1.119,1.365,1.365,0,1,1-.49,2.686,66.81,66.81,0,0,0-11.938-1.074,65.891,65.891,0,0,0-59.1,36.39A1.364,1.364,0,0,1,1927.781,998.886Z" transform="translate(-1884.648 -924.451)" fill="#fff" opacity="0.6"/>
        <circle id="Ellipse_126" data-name="Ellipse 126" cx="61.917" cy="61.917" r="61.917" transform="matrix(0.232, -0.973, 0.973, 0.232, 30.443, 150.888)" fill="#fff" opacity="0.78"/>
        <g id="Group_11135" data-name="Group 11135" transform="translate(77.78 61.23)">
          <path id="Path_7678" data-name="Path 7678" d="M2008.09,1093.651v-6.736a54.946,54.946,0,0,1-18.9-4.1,3.9,3.9,0,0,1-2.153-4.6l1.711-6.274a3.928,3.928,0,0,1,5.332-2.57,45.613,45.613,0,0,0,17.452,3.674c6.764,0,11.808-2.293,11.808-6.994,0-4.241-3.9-6.764-13.3-9.285-13.413-3.668-23.043-9.515-23.043-21.323,0-10.662,7.8-18.8,21.323-20.979v-6.737a3.925,3.925,0,0,1,3.925-3.925h3.958a3.925,3.925,0,0,1,3.925,3.925v6.049a50.094,50.094,0,0,1,14.982,2.69,3.906,3.906,0,0,1,2.441,4.715l-1.574,5.8a3.914,3.914,0,0,1-5.167,2.644,40.862,40.862,0,0,0-14.694-2.668c-8.025,0-10.317,3.324-10.317,6.305,0,3.668,4.815,6.19,15.246,9.4,14.9,4.471,21.094,10.661,21.094,21.781,0,10.2-7.566,19.374-22.239,21.667v7.539a3.926,3.926,0,0,1-3.925,3.925h-3.958A3.925,3.925,0,0,1,2008.09,1093.651Z" transform="translate(-1986.895 -1003.801)" fill="url(#linear-gradient-76)"/>
        </g>
      </g>
      <g id="Group_11138" data-name="Group 11138" transform="translate(255.831 93.786)">
        <circle id="Ellipse_127" data-name="Ellipse 127" cx="55.444" cy="55.444" r="55.444" transform="translate(11.908 122.477) rotate(-85.658)" fill="url(#linear-gradient-68)"/>
        <circle id="Ellipse_128" data-name="Ellipse 128" cx="53.6" cy="53.6" r="53.6" transform="matrix(0.428, -0.904, 0.904, 0.428, 0, 96.874)" fill="url(#linear-gradient-69)"/>
        <path id="Path_7679" data-name="Path 7679" d="M2117.893,846.159a1.365,1.365,0,0,1-1.218-1.98,50.631,50.631,0,0,1,45.417-27.964,51.329,51.329,0,0,1,9.171.825,1.365,1.365,0,1,1-.49,2.687,48.63,48.63,0,0,0-8.682-.781,47.917,47.917,0,0,0-42.979,26.463A1.364,1.364,0,0,1,2117.893,846.159Z" transform="translate(-2090.702 -795.669)" fill="#fff" opacity="0.6"/>
        <circle id="Ellipse_129" data-name="Ellipse 129" cx="45.366" cy="45.366" r="45.366" transform="translate(11.319 53.428) rotate(-27.652)" fill="#fff" opacity="0.78"/>
        <g id="Group_11137" data-name="Group 11137" transform="translate(52.577 40.451)">
          <path id="Path_7680" data-name="Path 7680" d="M2176.984,915.477v-4.936a40.246,40.246,0,0,1-13.849-3,2.855,2.855,0,0,1-1.577-3.373l1.253-4.6a2.878,2.878,0,0,1,3.907-1.883,33.421,33.421,0,0,0,12.787,2.692c4.955,0,8.651-1.68,8.651-5.124,0-3.108-2.856-4.956-9.743-6.8-9.827-2.688-16.883-6.971-16.883-15.623,0-7.812,5.712-13.776,15.623-15.371V852.52a2.876,2.876,0,0,1,2.876-2.876h2.9a2.876,2.876,0,0,1,2.876,2.876v4.431a36.707,36.707,0,0,1,10.976,1.971,2.862,2.862,0,0,1,1.789,3.455l-1.154,4.251a2.867,2.867,0,0,1-3.786,1.937,29.947,29.947,0,0,0-10.766-1.954c-5.879,0-7.559,2.435-7.559,4.619,0,2.688,3.527,4.536,11.171,6.888,10.919,3.276,15.455,7.812,15.455,15.959,0,7.476-5.543,14.2-16.295,15.876v5.523a2.876,2.876,0,0,1-2.876,2.876h-2.9A2.876,2.876,0,0,1,2176.984,915.477Z" transform="translate(-2161.454 -849.644)" fill="url(#linear-gradient-70)"/>
        </g>
      </g>
    </g>
    <g id="Group_11143" data-name="Group 11143" transform="translate(801.278 115.254)">
      <g id="Group_11140" data-name="Group 11140" transform="translate(0 21.281)">
        <path id="Path_7681" data-name="Path 7681" d="M1235.352,211.787s.277-.465.815-1.3a1.023,1.023,0,0,1,1.837.242c.438-.119.937-.249,1.486-.383a1.023,1.023,0,1,1,.483,1.989c-1.547.376-2.641.712-3.166.874-.151.046-.255.078-.308.092l-2.437.657Zm3.711-5.585c.978-1.383,2.008-2.781,3.06-4.155a1.023,1.023,0,1,1,1.624,1.244c-1.035,1.353-2.05,2.731-3.014,4.092a1.023,1.023,0,0,1-1.426.244,1.036,1.036,0,0,1-.208-.2A1.023,1.023,0,0,1,1239.063,206.2Zm4.685,4.3a1.023,1.023,0,0,1,.864-1.161,51.188,51.188,0,0,1,5.2-.5,1.023,1.023,0,1,1,.089,2.044,49.159,49.159,0,0,0-4.993.481,1.023,1.023,0,0,1-1.16-.865Zm10.2-.634a1.023,1.023,0,0,1,1.1-.937,34.249,34.249,0,0,1,5.207.821,1.023,1.023,0,0,1-.479,1.989,32.049,32.049,0,0,0-4.895-.77,1.024,1.024,0,0,1-.937-1.1Zm-8.624-11.862c1.1-1.337,2.228-2.656,3.351-3.92a1.023,1.023,0,0,1,1.53,1.359c-1.106,1.246-2.216,2.545-3.3,3.861a1.023,1.023,0,0,1-1.441.139,1.052,1.052,0,0,1-.149-.151A1.024,1.024,0,0,1,1245.328,198.01Zm18.6,13.967a1.023,1.023,0,0,1,1.355-.507,24.453,24.453,0,0,1,3.326,1.832q.617.406,1.212.766a1.024,1.024,0,0,1-1.062,1.751q-.626-.38-1.276-.808a22.578,22.578,0,0,0-3.047-1.679,1.022,1.022,0,0,1-.508-1.355Zm13.933,14.489a1.023,1.023,0,0,1,1.086-.236,7.6,7.6,0,0,1,3.074-.207,1.023,1.023,0,1,1-.221,2.034,4.538,4.538,0,0,0-3.3.64l-1.3-1.567Zm-4.968-9.593a1.024,1.024,0,0,1,1.33-.57,18.444,18.444,0,0,0,4.665,1.24,1.023,1.023,0,1,1-.24,2.033,20.5,20.5,0,0,1-5.186-1.372,1.024,1.024,0,0,1-.57-1.33ZM1252.177,190.3c1.2-1.247,2.423-2.474,3.648-3.65a1.024,1.024,0,0,1,1.417,1.477c-1.205,1.156-2.412,2.363-3.589,3.589a1.023,1.023,0,0,1-1.446.03,1.127,1.127,0,0,1-.092-.1A1.024,1.024,0,0,1,1252.177,190.3Zm29.262,32.513c1.372-1.421,2.55-2.669,3.5-3.711a1.023,1.023,0,1,1,1.511,1.38c-.965,1.056-2.156,2.317-3.54,3.752a1.023,1.023,0,0,1-1.447.026,1.081,1.081,0,0,1-.089-.1A1.023,1.023,0,0,1,1281.439,222.811Zm4.469,5.054a1.024,1.024,0,0,1,1.234-.756c1.458.35,3.063.715,4.928,1a1.024,1.024,0,0,1-.315,2.023c-1.938-.3-3.592-.677-5.092-1.037a1.025,1.025,0,0,1-.755-1.235Zm-3.062-9.384a1.023,1.023,0,0,1,.706-1.262,12.8,12.8,0,0,0,3.47-1.633,8.97,8.97,0,0,1,.779-.456,2.811,2.811,0,0,1,.289-.121,1,1,0,0,1,1.268.652,1.053,1.053,0,0,1-.668,1.312c-.15.073-.341.2-.579.346a14.825,14.825,0,0,1-4,1.87,1.022,1.022,0,0,1-1.263-.707Zm-23.212-35.323c1.161-1.016,2.344-2.005,3.514-2.941l.459-.365a1.024,1.024,0,0,1,1.435.164l0,0a1.023,1.023,0,0,1-.167,1.437l-.451.359c-1.146.917-2.3,1.888-3.444,2.884a1.024,1.024,0,0,1-1.444-.1c-.011-.011-.02-.024-.029-.036A1.023,1.023,0,0,1,1259.633,183.158Zm36.342,46.429a1.023,1.023,0,0,1,1.067-.978,48.74,48.74,0,0,0,5-.045,1.023,1.023,0,0,1,.121,2.043,50.985,50.985,0,0,1-5.215.046,1.023,1.023,0,0,1-.978-1.067Zm10.2-.383a1.024,1.024,0,0,1,.861-1.163q.531-.079,1.074-.169a34.05,34.05,0,0,0,3.8-.851,1.023,1.023,0,0,1,.561,1.969,36.032,36.032,0,0,1-4.027.9q-.56.092-1.106.174a1.023,1.023,0,0,1-1.163-.862ZM1267.5,178.183a1.023,1.023,0,0,1,.248-1.425c1.432-1.007,2.887-1.966,4.325-2.85a1.023,1.023,0,0,1,1.071,1.743c-1.4.862-2.821,1.8-4.219,2.78a1.022,1.022,0,0,1-1.387-.2C1267.528,178.218,1267.515,178.2,1267.5,178.183Zm48.556,48.481a1.023,1.023,0,0,1,.505-1.356,32.836,32.836,0,0,0,4.337-2.4,1.023,1.023,0,0,1,1.123,1.711,34.982,34.982,0,0,1-4.609,2.549,1.024,1.024,0,0,1-1.356-.5Zm-39.907-53.939a1.024,1.024,0,0,1,.434-1.381c1.553-.812,3.131-1.561,4.692-2.229a1.024,1.024,0,0,1,.8,1.883c-1.512.646-3.043,1.373-4.55,2.161a1.023,1.023,0,0,1-1.38-.433Zm48.687,47.162a36,36,0,0,0,3.477-3.553,1.023,1.023,0,1,1,1.558,1.327,37.91,37.91,0,0,1-3.675,3.755,1.024,1.024,0,0,1-1.445-.085l-.034-.042A1.023,1.023,0,0,1,1324.839,219.887Zm-39.349-51.319a1.023,1.023,0,0,1,.652-1.292c1.665-.547,3.354-1.015,5.019-1.392a1.023,1.023,0,1,1,.452,2c-1.6.363-3.228.815-4.831,1.341a1.023,1.023,0,0,1-1.292-.653Zm45.784,43.77a21.725,21.725,0,0,0,2.146-4.1l.326-2.241a1.023,1.023,0,1,1,2.024.295l-.317,2.188-.018,0c-.219,1.465-2.411,4.92-2.435,4.958a1.023,1.023,0,0,1-1.726-1.1Zm-35.866-46.206a1.022,1.022,0,0,1,.894-1.138,48.614,48.614,0,0,1,5.21-.344,1.024,1.024,0,0,1,.023,2.047,46.218,46.218,0,0,0-4.988.329,1.023,1.023,0,0,1-1.138-.894Zm10.2-.337a1.023,1.023,0,0,1,1.119-.917,48.14,48.14,0,0,1,5.16.8,1.023,1.023,0,1,1-.423,2,45.981,45.981,0,0,0-4.938-.765,1.024,1.024,0,0,1-.918-1.119Zm28.87,35.142.735-5.063a1.024,1.024,0,1,1,2.026.294l-.735,5.063a1.024,1.024,0,0,1-2.026-.294Zm-18.841-33.257a1.024,1.024,0,0,1,1.288-.66c1.615.521,3.255,1.139,4.871,1.838a1.023,1.023,0,1,1-.811,1.879c-1.557-.673-3.134-1.268-4.688-1.768a1.024,1.024,0,0,1-.66-1.288Zm20.311,23.13.735-5.063a1.024,1.024,0,1,1,2.026.294l-.735,5.063a1.024,1.024,0,0,1-2.026-.294Zm-10.863-19.262a1.022,1.022,0,0,1,1.387-.411c1.483.8,2.983,1.7,4.46,2.653a1.023,1.023,0,0,1-1.114,1.717c-1.432-.928-2.886-1.793-4.322-2.572a1.01,1.01,0,0,1-.311-.26A1.022,1.022,0,0,1,1325.086,171.548Zm8.656,5.42a1.024,1.024,0,0,1,1.434-.2c1.312.989,2.637,2.052,3.938,3.162l.429.367-.1.683a1.023,1.023,0,0,1-1.952.258c-1.175-.993-2.367-1.947-3.548-2.837a1,1,0,0,1-.183-.178A1.024,1.024,0,0,1,1333.742,176.967Z" transform="translate(-1234.061 -164.65)" fill="#7d97f4"/>
      </g>
      <path id="Path_7682" data-name="Path 7682" d="M1360.413,207.089s-10.464,20.113-26.058,14.024-29.815-16.1-37.046-12.976c0,0,27.557-34.729,63.374-9.042Z" transform="translate(-1259.649 -153.475)" fill="url(#linear-gradient-80)"/>
      <path id="Path_7683" data-name="Path 7683" d="M1423.475,255.83s-2.708,22.094-9.736,24.838c-6.685,2.61-56.879-1.9-61.761-2.351a.415.415,0,0,1-.376-.426h0a5.7,5.7,0,0,1,2.4-4.578c7.179-5.1,28.744-20.159,36.724-22.62C1400.36,247.721,1423.475,255.83,1423.475,255.83Z" transform="translate(-1281.613 -177.914)" fill="url(#linear-gradient-81)"/>
      <path id="Path_7684" data-name="Path 7684" d="M1382.464,284.161a.51.51,0,0,0,.363.191c.277.02,27.809,2.017,39.694,2.416a5.348,5.348,0,0,0,5-3.014,79.625,79.625,0,0,0,5.582-15.174.512.512,0,0,0-1-.238,78.515,78.515,0,0,1-5.508,14.966,4.322,4.322,0,0,1-4.039,2.436c-11.865-.4-39.378-2.393-39.654-2.413a.512.512,0,0,0-.437.83Z" transform="translate(-1294.053 -185.16)" fill="#bdd0fb"/>
      <path id="Path_7685" data-name="Path 7685" d="M1425,155.118s-2.136-22.157-9.09-25.082c-6.615-2.782-56.909.432-61.8.753a.415.415,0,0,0-.387.416h0a5.7,5.7,0,0,0,2.279,4.639c7.044,5.288,28.213,20.9,36.127,23.562C1401.686,162.626,1425,155.118,1425,155.118Z" transform="translate(-1282.472 -128.91)" fill="url(#linear-gradient-82)"/>
      <path id="Path_7686" data-name="Path 7686" d="M1384.519,134.785a.514.514,0,0,0,.424.192c.277-.013,27.832-1.3,39.7-1.386a4.325,4.325,0,0,1,3.974,2.54,78.472,78.472,0,0,1,5.118,15.1.511.511,0,1,0,1-.211,77.955,77.955,0,0,0-5.186-15.314,5.347,5.347,0,0,0-4.915-3.142c-11.892.09-39.467,1.375-39.744,1.387a.512.512,0,0,0-.376.831Z" transform="translate(-1294.885 -130.39)" fill="#bdd0fb"/>
      <path id="Path_7687" data-name="Path 7687" d="M1515.919,221.942a114.971,114.971,0,0,1-35.51,5.254c-41.171-.413-71.359-7.838-79.887-10.178a4.365,4.365,0,0,1-3.08-3.223,76.953,76.953,0,0,1,.19-36.721,6.344,6.344,0,0,1,4.694-4.628c9.993-2.379,39.5-8.434,78.893-7.809a114.979,114.979,0,0,1,35.129,6.091C1521.786,191.206,1518.45,210.9,1515.919,221.942Z" transform="translate(-1299.297 -143.346)" fill="url(#linear-gradient-83)"/>
      <path id="Path_7688" data-name="Path 7688" d="M1598.291,174.9a119.312,119.312,0,0,1,42,24.6,2.145,2.145,0,0,1-.041,3.174,119.305,119.305,0,0,1-42.391,23.435C1600.393,215.066,1603.729,195.375,1598.291,174.9Z" transform="translate(-1381.24 -147.515)" fill="url(#linear-gradient-84)"/>
      <g id="Group_11141" data-name="Group 11141" transform="translate(164.647 31.671)">
        <ellipse id="Ellipse_130" data-name="Ellipse 130" cx="20.725" cy="19.31" rx="20.725" ry="19.31" transform="translate(0 41.446) rotate(-89.258)" fill="#91b3fa"/>
        <path id="Path_7689" data-name="Path 7689" d="M1534.131,188.628c-8.5-.11-15.481,7.194-15.6,16.313s6.674,16.6,15.171,16.712,15.481-7.194,15.6-16.313S1542.628,188.738,1534.131,188.628Z" transform="translate(-1513.793 -184.74)" fill="url(#linear-gradient-85)"/>
        <path id="Path_7690" data-name="Path 7690" d="M1548.849,224.523a.513.513,0,0,0,.543.171,12.919,12.919,0,0,0,9.036-12.278,13.433,13.433,0,0,0-.612-4.2.511.511,0,0,0-.976.306,12.389,12.389,0,0,1,.564,3.879,11.886,11.886,0,0,1-8.3,11.309.513.513,0,0,0-.257.811Z" transform="translate(-1526.013 -192.521)" fill="#bdd0fb"/>
      </g>
      <g id="Group_11142" data-name="Group 11142" transform="translate(132.663 38.45)">
        <path id="Path_7691" data-name="Path 7691" d="M1469.792,193.486c-7.045-.091-12.835,5.965-12.932,13.525s5.533,13.764,12.579,13.855,12.835-5.965,12.932-13.525S1476.838,193.577,1469.792,193.486Z" transform="translate(-1456.859 -193.485)" fill="#91b3fa"/>
        <path id="Path_7692" data-name="Path 7692" d="M1472.126,197.522c-5.613-.073-10.227,4.753-10.305,10.777s4.409,10.967,10.022,11.04,10.227-4.753,10.305-10.777S1477.739,197.6,1472.126,197.522Z" transform="translate(-1458.866 -195.118)" fill="url(#linear-gradient-86)"/>
        <path id="Path_7693" data-name="Path 7693" d="M1481.595,221.226a.512.512,0,0,0,.543.171,8.705,8.705,0,0,0,6.094-8.275,8.99,8.99,0,0,0-.412-2.829.511.511,0,1,0-.975.307,8,8,0,0,1,.364,2.509,7.676,7.676,0,0,1-5.358,7.305.511.511,0,0,0-.348.634A.5.5,0,0,0,1481.595,221.226Z" transform="translate(-1466.821 -200.14)" fill="#bdd0fb"/>
      </g>
    </g>
    <g id="Group_11144" data-name="Group 11144" transform="translate(276.289 95.153)">
      <path id="Path_7694" data-name="Path 7694" d="M1207.582,240.927l-6.712,1.645a1.17,1.17,0,1,1-.557-2.273l.076-.019,6.544-1.629.082-.02a1.183,1.183,0,1,1,.572,2.3Z" transform="translate(-695.058 -153.184)" fill="#7d97f4"/>
      <path id="Path_7695" data-name="Path 7695" d="M1184.906,245.688l-6.859.741a1.145,1.145,0,1,1-.246-2.278l.066-.008,6.715-.75.072-.008a1.158,1.158,0,1,1,.257,2.3Z" transform="translate(-685.897 -155.119)" fill="#7d97f4"/>
      <path id="Path_7696" data-name="Path 7696" d="M1161.913,247.5l-6.882-.051a1.121,1.121,0,0,1,.017-2.241h.055l6.762.025h.061a1.133,1.133,0,0,1-.009,2.266Z" transform="translate(-676.65 -155.858)" fill="#7d97f4"/>
      <path id="Path_7697" data-name="Path 7697" d="M1138.939,246.319l-6.839-.722a1.1,1.1,0,1,1,.23-2.179l.044,0,6.744.687.05.005a1.108,1.108,0,0,1-.224,2.2Z" transform="translate(-667.426 -155.133)" fill="#7d97f4"/>
      <path id="Path_7698" data-name="Path 7698" d="M1116.171,243.068l-6.749-1.281a1.071,1.071,0,0,1,.4-2.1l.035.007,6.674,1.241.041.007a1.083,1.083,0,0,1-.4,2.13Z" transform="translate(-658.296 -153.617)" fill="#7d97f4"/>
      <path id="Path_7699" data-name="Path 7699" d="M1093.733,238.088l-6.636-1.745a1.046,1.046,0,0,1,.532-2.023l.028.008,6.577,1.7.033.009a1.058,1.058,0,1,1-.531,2.049Z" transform="translate(-649.301 -151.441)" fill="#7d97f4"/>
      <path id="Path_7700" data-name="Path 7700" d="M1071.678,231.668l-6.516-2.133a1.021,1.021,0,0,1,.635-1.941l.023.008,6.469,2.092.027.008a1.033,1.033,0,0,1-.636,1.967Z" transform="translate(-640.458 -148.713)" fill="#7d97f4"/>
      <path id="Path_7701" data-name="Path 7701" d="M1050.021,224.04l-6.4-2.461a1,1,0,1,1,.715-1.858l.019.007,6.359,2.42.023.008a1.008,1.008,0,1,1-.717,1.885Z" transform="translate(-631.771 -145.521)" fill="#7d97f4"/>
      <path id="Path_7702" data-name="Path 7702" d="M1028.76,215.385l-6.277-2.74a.971.971,0,0,1,.776-1.78l.015.007,6.25,2.7.019.008a.983.983,0,1,1-.78,1.805Z" transform="translate(-623.24 -141.933)" fill="#7d97f4"/>
      <path id="Path_7703" data-name="Path 7703" d="M1007.882,205.852l-6.164-2.981a.946.946,0,0,1,.823-1.7l.013.006,6.143,2.943.016.008a.958.958,0,0,1-.828,1.729Z" transform="translate(-614.859 -138.004)" fill="#7d97f4"/>
      <path id="Path_7704" data-name="Path 7704" d="M987.371,195.554l-6.056-3.192a.921.921,0,0,1,.859-1.629l.01.005,6.041,3.156.014.007a.933.933,0,0,1-.865,1.655Z" transform="translate(-606.622 -133.778)" fill="#7d97f4"/>
      <path id="Path_7705" data-name="Path 7705" d="M967.211,184.585l-5.954-3.379a.9.9,0,1,1,.884-1.558l.008,0L968.093,183l.012.007a.908.908,0,0,1-.891,1.583Z" transform="translate(-598.523 -129.29)" fill="#7d97f4"/>
      <path id="Path_7706" data-name="Path 7706" d="M947.376,173.014l-5.86-3.538a.883.883,0,1,1,.913-1.512l.01.005,5.843,3.52.01.006a.887.887,0,0,1-.915,1.52Z" transform="translate(-590.547 -124.558)" fill="#7d97f4"/>
      <path id="Path_7707" data-name="Path 7707" d="M927.851,160.915l-5.766-3.689a.876.876,0,1,1,.945-1.476l.008,0,5.751,3.672.01.006a.88.88,0,0,1-.947,1.483Z" transform="translate(-582.696 -119.612)" fill="#7d97f4"/>
      <path id="Path_7708" data-name="Path 7708" d="M908.64,148.326l-5.673-3.828a.87.87,0,0,1,.973-1.442l.008.005,5.66,3.811.009.006a.873.873,0,1,1-.975,1.448Z" transform="translate(-574.969 -114.473)" fill="#7d97f4"/>
      <path id="Path_7709" data-name="Path 7709" d="M889.741,135.288l-5.579-3.956a.863.863,0,1,1,1-1.408l.007.005,5.567,3.939.008.006a.866.866,0,0,1-1,1.414Z" transform="translate(-567.37 -109.156)" fill="#7d97f4"/>
      <path id="Path_7710" data-name="Path 7710" d="M870.723,122.533l-5.827-3.455-.046-.028a.856.856,0,0,1,.872-1.473l5.923,3.506a.859.859,0,1,1-.875,1.478h0Z" transform="translate(-559.534 -104.177)" fill="#7d97f4"/>
      <path id="Path_7711" data-name="Path 7711" d="M850.473,112.059l-6.218-2.69-.049-.021a.849.849,0,0,1,.673-1.558l6.319,2.726a.852.852,0,1,1-.675,1.565h0Z" transform="translate(-551.145 -100.237)" fill="#7d97f4"/>
      <path id="Path_7712" data-name="Path 7712" d="M829.057,104.236l-6.509-1.88-.051-.015a.842.842,0,0,1,.467-1.618l6.614,1.9a.845.845,0,1,1-.467,1.625h0Z" transform="translate(-542.323 -97.393)" fill="#7d97f4"/>
      <path id="Path_7713" data-name="Path 7713" d="M806.823,99.19l-6.695-1.041-.052-.008a.835.835,0,0,1,.256-1.651l6.8,1.051a.838.838,0,0,1-.257,1.657h0Z" transform="translate(-533.213 -95.69)" fill="#7d97f4"/>
      <path id="Path_7714" data-name="Path 7714" d="M784.128,97l-6.772-.186-.053,0a.828.828,0,0,1,.045-1.656l6.878.182A.832.832,0,0,1,784.182,97h-.054Z" transform="translate(-523.96 -95.153)" fill="#7d97f4"/>
      <path id="Path_7715" data-name="Path 7715" d="M761.338,97.226,754.6,97.9l-.052.005a.822.822,0,0,1-.164-1.635l6.845-.691a.825.825,0,1,1,.166,1.642h0Z" transform="translate(-514.713 -95.324)" fill="#7d97f4"/>
      <path id="Path_7716" data-name="Path 7716" d="M738.819,100.222l-6.6,1.525-.051.011a.815.815,0,0,1-.367-1.587l6.7-1.555a.818.818,0,0,1,.37,1.594h0Z" transform="translate(-505.621 -96.546)" fill="#7d97f4"/>
      <path id="Path_7717" data-name="Path 7717" d="M716.934,106.069l-6.356,2.351-.048.018a.808.808,0,0,1-.562-1.515l6.45-2.393a.811.811,0,0,1,.564,1.521h0Z" transform="translate(-496.832 -98.926)" fill="#7d97f4"/>
      <path id="Path_7718" data-name="Path 7718" d="M696.068,114.673l-5.967,3.2-.052.027a.8.8,0,0,1-.757-1.412l6.068-3.256a.8.8,0,1,1,.761,1.417h0Z" transform="translate(-488.51 -102.426)" fill="#7d97f4"/>
      <path id="Path_7719" data-name="Path 7719" d="M676.7,126.152l-5.482,3.981-.04.03a.794.794,0,1,1-.934-1.285l5.56-4.047a.8.8,0,1,1,.939,1.29h0Z" transform="translate(-480.843 -107.098)" fill="#7d97f4"/>
      <path id="Path_7720" data-name="Path 7720" d="M659.031,140.136l-4.962,4.618-.033.031a.788.788,0,0,1-1.074-1.153l5.026-4.685a.791.791,0,1,1,1.079,1.158h0Z" transform="translate(-473.881 -112.784)" fill="#7d97f4"/>
      <path id="Path_7721" data-name="Path 7721" d="M643.167,156.17l-4.4,5.159-.029.034a.781.781,0,0,1-1.188-1.013L642,155.118a.784.784,0,1,1,1.194,1.017h0Z" transform="translate(-467.67 -119.301)" fill="#7d97f4"/>
      <path id="Path_7722" data-name="Path 7722" d="M629.279,173.963l-3.781,5.632-.025.038a.774.774,0,0,1-1.286-.862l3.826-5.711a.778.778,0,1,1,1.292.865h0Z" transform="translate(-462.288 -126.531)" fill="#7d97f4"/>
      <path id="Path_7723" data-name="Path 7723" d="M617.623,193.3l-3.065,6.048-.022.044a.767.767,0,0,1-1.37-.693l3.1-6.138a.771.771,0,0,1,1.375.7h0Z" transform="translate(-457.849 -134.389)" fill="#7d97f4"/>
      <path id="Path_7724" data-name="Path 7724" d="M608.561,213.989l-2.223,6.4-.018.052a.76.76,0,1,1-1.437-.5l2.252-6.5a.764.764,0,1,1,1.443.5h0Z" transform="translate(-454.515 -142.798)" fill="#7d97f4"/>
      <path id="Path_7725" data-name="Path 7725" d="M602.575,235.806l-1.219,6.656-.011.061a.753.753,0,0,1-1.482-.271l1.234-6.778a.757.757,0,1,1,1.489.271h0Z" transform="translate(-452.496 -151.67)" fill="#7d97f4"/>
      <path id="Path_7726" data-name="Path 7726" d="M600.242,258.374l-.042,6.756v.07a.746.746,0,1,1-1.493-.009l.036-6.9a.75.75,0,1,1,1.5.008h0Z" transform="translate(-452.033 -160.853)" fill="#7d97f4"/>
      <path id="Path_7727" data-name="Path 7727" d="M601.214,281.117l1.265,6.631.014.073a.74.74,0,0,1-1.453.278l-1.3-6.777a.743.743,0,0,1,1.459-.28h0Z" transform="translate(-452.446 -170.113)" fill="#7d97f4"/>
      <path id="Path_7728" data-name="Path 7728" d="M606.615,303.221l2.584,6.238.029.068a.733.733,0,1,1-1.353.561l-2.647-6.374a.736.736,0,1,1,1.359-.564h0Z" transform="translate(-454.648 -179.117)" fill="#7d97f4"/>
      <path id="Path_7729" data-name="Path 7729" d="M616.55,323.666a34.373,34.373,0,0,0,4.251,5.152.727.727,0,0,1-1.023,1.034,35.881,35.881,0,0,1-4.438-5.366.731.731,0,0,1,1.209-.82Z" transform="translate(-458.712 -187.47)" fill="#7d97f4"/>
      <path id="Path_7730" data-name="Path 7730" d="M632.6,339.429a28.759,28.759,0,0,0,6,2.86.72.72,0,0,1-.464,1.364,30.264,30.264,0,0,1-6.308-3,.723.723,0,0,1,.768-1.227Z" transform="translate(-465.296 -193.933)" fill="#7d97f4"/>
      <path id="Path_7731" data-name="Path 7731" d="M653.817,346.66a31.622,31.622,0,0,0,6.667-.032.713.713,0,0,1,.156,1.418,33.074,33.074,0,0,1-6.968.04.717.717,0,0,1,.145-1.426Z" transform="translate(-474.009 -196.888)" fill="#7d97f4"/>
      <path id="Path_7732" data-name="Path 7732" d="M676.191,342.516a37.1,37.1,0,0,0,6.178-2.573.707.707,0,0,1,.659,1.25,38.53,38.53,0,0,1-6.412,2.678.71.71,0,1,1-.426-1.355Z" transform="translate(-483.179 -194.153)" fill="#7d97f4"/>
      <path id="Path_7733" data-name="Path 7733" d="M696.191,330.7a40.346,40.346,0,0,0,4.951-4.517.7.7,0,1,1,1.026.952,41.682,41.682,0,0,1-5.118,4.679.7.7,0,0,1-.859-1.113Z" transform="translate(-491.36 -188.528)" fill="#7d97f4"/>
      <path id="Path_7734" data-name="Path 7734" d="M711.561,313.2l1.7-2.9a33.2,33.2,0,0,0,1.553-2.984l.021-.04a.692.692,0,0,1,1.239.619,34.6,34.6,0,0,1-1.6,3.076l-1.757,3a.7.7,0,1,1-1.2-.7h0Z" transform="translate(-497.636 -180.814)" fill="#7d97f4"/>
      <path id="Path_7735" data-name="Path 7735" d="M721.037,292.133a38.243,38.243,0,0,0,1.273-6.586.686.686,0,0,1,1.365.138,39.5,39.5,0,0,1-1.312,6.824.689.689,0,1,1-1.327-.376Z" transform="translate(-501.512 -171.93)" fill="#7d97f4"/>
      <path id="Path_7736" data-name="Path 7736" d="M722.405,269.685a34.454,34.454,0,0,0-1.243-6.571.679.679,0,0,1,1.3-.38,35.789,35.789,0,0,1,1.3,6.829.683.683,0,1,1-1.359.124Z" transform="translate(-501.563 -162.751)" fill="#7d97f4"/>
      <path id="Path_7737" data-name="Path 7737" d="M714.533,248.661a39.216,39.216,0,0,0-3.546-5.691.673.673,0,0,1,1.077-.806,40.549,40.549,0,0,1,3.673,5.884.676.676,0,0,1-1.2.613Z" transform="translate(-497.403 -154.519)" fill="#7d97f4"/>
      <path id="Path_7738" data-name="Path 7738" d="M699.965,231.444a48.347,48.347,0,0,0-5.131-4.356.666.666,0,0,1,.79-1.072,49.762,49.762,0,0,1,5.278,4.471.669.669,0,0,1-.935.957Z" transform="translate(-490.812 -148.043)" fill="#7d97f4"/>
      <path id="Path_7739" data-name="Path 7739" d="M681.093,218.943a57.357,57.357,0,0,0-6.078-2.927.659.659,0,0,1,.5-1.219,58.657,58.657,0,0,1,6.221,2.988.662.662,0,1,1-.644,1.158Z" transform="translate(-482.739 -143.536)" fill="#7d97f4"/>
      <path id="Path_7740" data-name="Path 7740" d="M659.719,211.187c-2.16-.629-4.395-1.036-6.588-1.566l-.052-.012a.669.669,0,1,1,.314-1.3h0c2.228.545,4.472.983,6.685,1.618a.656.656,0,1,1-.355,1.262Z" transform="translate(-473.823 -140.924)" fill="#7d97f4"/>
      <path id="Path_7741" data-name="Path 7741" d="M637.222,207.29l-6.753-.651-.045,0a.707.707,0,0,1,.136-1.407h0l6.837.7a.687.687,0,0,1-.135,1.368Z" transform="translate(-464.606 -139.684)" fill="#7d97f4"/>
      <path id="Path_7742" data-name="Path 7742" d="M614.386,206.224l-6.784.167h-.043a.745.745,0,1,1-.036-1.489h0l6.87-.13a.726.726,0,0,1,.032,1.451Z" transform="translate(-455.306 -139.501)" fill="#7d97f4"/>
      <path id="Path_7743" data-name="Path 7743" d="M591.588,207.375l-6.725.916-.042.005a.782.782,0,1,1-.211-1.551h0l6.812-.89a.763.763,0,0,1,.2,1.513Z" transform="translate(-446.056 -139.936)" fill="#7d97f4"/>
      <path id="Path_7744" data-name="Path 7744" d="M569.1,211.009l-6.589,1.625-.042.011a.821.821,0,1,1-.393-1.593h0l6.681-1.608a.8.8,0,0,1,.38,1.556Z" transform="translate(-436.963 -141.381)" fill="#7d97f4"/>
      <path id="Path_7745" data-name="Path 7745" d="M547.188,217.014l-6.375,2.318-.044.016a.858.858,0,1,1-.586-1.613h0l6.475-2.314a.839.839,0,0,1,.569,1.579Z" transform="translate(-428.128 -143.788)" fill="#7d97f4"/>
      <path id="Path_7746" data-name="Path 7746" d="M526.123,225.357l-6.066,3.019-.048.024a.9.9,0,0,1-.8-1.6l0,0,6.177-3.033a.877.877,0,0,1,.778,1.572Z" transform="translate(-419.671 -147.147)" fill="#7d97f4"/>
      <path id="Path_7747" data-name="Path 7747" d="M506.266,236.09l-5.644,3.735-.045.03a.934.934,0,0,1-1.031-1.558l0,0,5.757-3.764a.914.914,0,0,1,1.005,1.528Z" transform="translate(-411.747 -151.48)" fill="#7d97f4"/>
      <path id="Path_7748" data-name="Path 7748" d="M487.854,249.157l-5.23,4.318-.034.029a.972.972,0,1,1-1.237-1.5l0,0,5.324-4.347a.953.953,0,0,1,1.209,1.473Z" transform="translate(-404.413 -156.763)" fill="#7d97f4"/>
      <path id="Path_7749" data-name="Path 7749" d="M470.794,264.046l-4.847,4.751-.027.027a1.009,1.009,0,1,1-1.414-1.442l0,0,4.928-4.778a.991.991,0,0,1,1.383,1.418Z" transform="translate(-397.618 -162.782)" fill="#7d97f4"/>
      <path id="Path_7750" data-name="Path 7750" d="M454.969,280.3l-4.5,5.089-.023.025a1.046,1.046,0,1,1-1.567-1.386l0,0,4.574-5.117a1.028,1.028,0,0,1,1.536,1.367Z" transform="translate(-391.312 -169.354)" fill="#7d97f4"/>
      <path id="Path_7751" data-name="Path 7751" d="M440.273,297.625l-4.18,5.359-.02.024a1.081,1.081,0,1,1-1.705-1.33l0,0,4.247-5.386a1.064,1.064,0,0,1,1.674,1.312Z" transform="translate(-385.456 -176.36)" fill="#7d97f4"/>
      <path id="Path_7752" data-name="Path 7752" d="M426.627,315.817,422.75,321.4l-.017.024a1.117,1.117,0,0,1-1.835-1.274l0,0,3.941-5.613a1.1,1.1,0,0,1,1.8,1.259Z" transform="translate(-380.018 -183.717)" fill="#7d97f4"/>
      <path id="Path_7753" data-name="Path 7753" d="M413.983,334.737l-3.585,5.778-.015.024a1.153,1.153,0,0,1-1.96-1.216l0,0,3.646-5.809a1.135,1.135,0,0,1,1.926,1.2Z" transform="translate(-374.982 -191.368)" fill="#7d97f4"/>
      <path id="Path_7754" data-name="Path 7754" d="M402.318,354.289l-3.293,5.95-.014.026a1.189,1.189,0,1,1-2.08-1.152l0-.005,3.354-5.984a1.171,1.171,0,0,1,2.045,1.139Z" transform="translate(-370.342 -199.276)" fill="#7d97f4"/>
      <path id="Path_7755" data-name="Path 7755" d="M391.644,374.406l-2.994,6.106-.013.027a1.224,1.224,0,0,1-2.2-1.077l0-.006,3.053-6.145a1.206,1.206,0,0,1,2.164,1.067Z" transform="translate(-366.107 -207.414)" fill="#7d97f4"/>
      <path id="Path_7756" data-name="Path 7756" d="M382.005,395.041l-2.674,6.25-.014.032a1.26,1.26,0,0,1-2.317-.991l0-.006,2.732-6.3a1.242,1.242,0,0,1,2.282.982Z" transform="translate(-362.299 -215.763)" fill="#7d97f4"/>
      <path id="Path_7757" data-name="Path 7757" d="M373.493,416.16l-2.317,6.387-.014.037a1.3,1.3,0,0,1-2.435-.884l0-.007,2.377-6.447a1.278,1.278,0,0,1,2.4.878Z" transform="translate(-358.961 -224.312)" fill="#7d97f4"/>
      <path id="Path_7758" data-name="Path 7758" d="M366.263,437.739l-1.9,6.514-.013.045a1.331,1.331,0,0,1-2.556-.745l0-.007,1.96-6.593a1.313,1.313,0,0,1,2.519.742Z" transform="translate(-356.166 -233.052)" fill="#7d97f4"/>
      <path id="Path_7759" data-name="Path 7759" d="M360.578,459.746l-1.385,6.625-.01.048a1.365,1.365,0,0,1-2.674-.552c.459-2.25.962-4.491,1.441-6.736a1.349,1.349,0,1,1,2.638.563Z" transform="translate(-354.038 -241.972)" fill="#7d97f4"/>
      <path id="Path_7760" data-name="Path 7760" d="M356.8,482.152,356,488.87l-.008.065a1.351,1.351,0,0,1-2.684-.315l.8-6.847a1.358,1.358,0,1,1,2.7.313v0Z" transform="translate(-352.753 -251.078)" fill="#7d97f4"/>
      <path id="Path_7761" data-name="Path 7761" d="M355.169,504.868l-.113,6.761v.071a1.338,1.338,0,0,1-2.675-.043l.1-6.9a1.345,1.345,0,0,1,2.689.041v.073Z" transform="translate(-352.379 -260.326)" fill="#7d97f4"/>
      <path id="Path_7762" data-name="Path 7762" d="M355.483,527.669l.623,6.726.007.074a1.324,1.324,0,0,1-2.637.247l-.65-6.873a1.331,1.331,0,1,1,2.65-.251v0Z" transform="translate(-352.557 -269.613)" fill="#7d97f4"/>
      <path id="Path_7763" data-name="Path 7763" d="M358.24,550.289l1.383,6.608.016.073a1.311,1.311,0,0,1-2.565.539l-1.427-6.752a1.318,1.318,0,0,1,2.578-.545v0Z" transform="translate(-353.689 -278.829)" fill="#7d97f4"/>
      <path id="Path_7764" data-name="Path 7764" d="M363.555,572.434l2.131,6.409.023.07a1.3,1.3,0,0,1-2.461.821l-2.191-6.545a1.3,1.3,0,0,1,2.473-.828v0Z" transform="translate(-355.863 -287.852)" fill="#7d97f4"/>
      <path id="Path_7765" data-name="Path 7765" d="M371.363,593.849l2.83,6.138.029.063a1.284,1.284,0,0,1-2.331,1.077l-2.9-6.258a1.291,1.291,0,0,1,2.342-1.085v0Z" transform="translate(-359.051 -296.576)" fill="#7d97f4"/>
      <path id="Path_7766" data-name="Path 7766" d="M381.467,614.293l3.454,5.816.032.054a1.27,1.27,0,0,1-2.184,1.3l-3.53-5.917a1.277,1.277,0,0,1,2.194-1.309v0Z" transform="translate(-363.172 -304.901)" fill="#7d97f4"/>
      <path id="Path_7767" data-name="Path 7767" d="M393.6,633.619l3.992,5.47.033.045a1.257,1.257,0,0,1-2.029,1.484l-4.069-5.553a1.264,1.264,0,1,1,2.039-1.494l0,0Z" transform="translate(-368.117 -312.766)" fill="#7d97f4"/>
      <path id="Path_7768" data-name="Path 7768" d="M407.466,651.763l4.443,5.12.032.037a1.244,1.244,0,0,1-1.877,1.632l-4.518-5.186a1.25,1.25,0,1,1,1.885-1.643l0,0Z" transform="translate(-373.764 -320.146)" fill="#7d97f4"/>
      <path id="Path_7769" data-name="Path 7769" d="M422.777,668.727l4.811,4.777.03.029a1.23,1.23,0,0,1-1.732,1.747L421,670.452a1.237,1.237,0,0,1,1.739-1.758l0,0Z" transform="translate(-379.994 -327.04)" fill="#7d97f4"/>
      <path id="Path_7770" data-name="Path 7770" d="M439.264,684.546l5.118,4.461.028.024a1.217,1.217,0,0,1-1.6,1.836l-5.183-4.5a1.223,1.223,0,1,1,1.6-1.847h0Z" transform="translate(-386.698 -333.466)" fill="#7d97f4"/>
      <path id="Path_7771" data-name="Path 7771" d="M456.73,699.312l5.368,4.167.025.019a1.2,1.2,0,0,1-1.473,1.9l-5.427-4.2a1.21,1.21,0,0,1,1.48-1.914h0Z" transform="translate(-393.795 -339.461)" fill="#7d97f4"/>
      <path id="Path_7772" data-name="Path 7772" d="M474.992,713.1l5.574,3.9.023.016a1.19,1.19,0,0,1-1.362,1.951L473.6,715.05a1.2,1.2,0,0,1,1.367-1.963h0Z" transform="translate(-401.213 -345.058)" fill="#7d97f4"/>
      <path id="Path_7773" data-name="Path 7773" d="M493.91,726.046l5.7,3.766a1.176,1.176,0,1,1-1.292,1.966l-5.713-3.76a1.183,1.183,0,0,1,1.3-1.976Z" transform="translate(-408.892 -350.306)" fill="#7d97f4"/>
      <path id="Path_7774" data-name="Path 7774" d="M513.089,738.667l5.717,3.736a1.163,1.163,0,0,1-1.27,1.948l-5.727-3.726a1.169,1.169,0,0,1,1.275-1.96Z" transform="translate(-416.663 -355.416)" fill="#7d97f4"/>
      <path id="Path_7775" data-name="Path 7775" d="M532.311,751.213l5.716,3.738a1.149,1.149,0,1,1-1.258,1.923l-5.72-3.724a1.156,1.156,0,1,1,1.259-1.939Z" transform="translate(-424.448 -360.492)" fill="#7d97f4"/>
      <path id="Path_7776" data-name="Path 7776" d="M551.506,763.79l5.694,3.771a1.136,1.136,0,1,1-1.257,1.892L550.25,765.7a1.142,1.142,0,1,1,1.25-1.912Z" transform="translate(-432.22 -365.58)" fill="#7d97f4"/>
      <path id="Path_7777" data-name="Path 7777" d="M570.607,776.5l5.651,3.837A1.122,1.122,0,1,1,575,782.2l0,0-5.645-3.817-.007,0a1.129,1.129,0,1,1,1.265-1.87Z" transform="translate(-439.952 -370.722)" fill="#7d97f4"/>
      <path id="Path_7778" data-name="Path 7778" d="M589.55,789.47l5.592,3.939a1.109,1.109,0,0,1-1.277,1.813l-.007-.005-5.582-3.915-.008-.007a1.115,1.115,0,1,1,1.281-1.826Z" transform="translate(-447.618 -375.964)" fill="#7d97f4"/>
      <path id="Path_7779" data-name="Path 7779" d="M608.254,802.787l5.5,4.063a1.095,1.095,0,1,1-1.3,1.761l-.01-.007-5.485-4.036-.011-.008a1.1,1.1,0,0,1,1.306-1.776Z" transform="translate(-455.185 -381.346)" fill="#7d97f4"/>
      <path id="Path_7780" data-name="Path 7780" d="M626.633,816.55l5.389,4.22a1.082,1.082,0,1,1-1.334,1.7l-.012-.009-5.371-4.19-.013-.01a1.088,1.088,0,1,1,1.339-1.715Z" transform="translate(-462.619 -386.908)" fill="#7d97f4"/>
      <path id="Path_7781" data-name="Path 7781" d="M644.637,830.827l5.28,4.341a1.068,1.068,0,1,1-1.356,1.649l-.008-.006-5.269-4.314-.01-.008a1.075,1.075,0,0,1,1.362-1.664Z" transform="translate(-469.904 -392.678)" fill="#7d97f4"/>
      <path id="Path_7782" data-name="Path 7782" d="M662.285,845.521l5.161,4.5a1.054,1.054,0,0,1-1.386,1.59l-.013-.011-5.142-4.465-.014-.011a1.061,1.061,0,1,1,1.391-1.6Z" transform="translate(-477.043 -398.616)" fill="#7d97f4"/>
      <path id="Path_7783" data-name="Path 7783" d="M679.479,860.775l4.986,4.7a1.041,1.041,0,1,1-1.428,1.515l-.015-.014-4.962-4.659-.016-.016a1.047,1.047,0,0,1,1.434-1.527Z" transform="translate(-483.996 -404.778)" fill="#7d97f4"/>
      <path id="Path_7784" data-name="Path 7784" d="M696.032,876.736l4.75,4.946A1.027,1.027,0,1,1,699.3,883.1l-.018-.02-4.721-4.895-.02-.02a1.034,1.034,0,1,1,1.489-1.436Z" transform="translate(-490.687 -411.222)" fill="#7d97f4"/>
      <path id="Path_7785" data-name="Path 7785" d="M711.732,893.552l4.441,5.234a1.014,1.014,0,1,1-1.546,1.312l-.021-.026L710.2,894.9l-.022-.026a1.021,1.021,0,1,1,1.554-1.324Z" transform="translate(-497.031 -418.008)" fill="#7d97f4"/>
      <path id="Path_7786" data-name="Path 7786" d="M726.315,911.359l4.039,5.556a1,1,0,0,1-1.618,1.177l-.023-.032-4-5.482-.024-.033a1.007,1.007,0,0,1,1.627-1.188Z" transform="translate(-502.922 -425.189)" fill="#7d97f4"/>
      <path id="Path_7787" data-name="Path 7787" d="M739.461,930.262l3.529,5.9a.987.987,0,1,1-1.693,1.013l-.024-.041-3.49-5.81-.025-.04a.994.994,0,0,1,1.7-1.023Z" transform="translate(-508.23 -432.809)" fill="#7d97f4"/>
      <path id="Path_7788" data-name="Path 7788" d="M750.792,950.31l2.886,6.243a.961.961,0,0,1-1.743.812l-.023-.049-2.874-6.131-.023-.049a.98.98,0,1,1,1.774-.831Z" transform="translate(-512.804 -440.885)" fill="#7d97f4"/>
      <path id="Path_7789" data-name="Path 7789" d="M759.9,971.487l2.137,6.54a.924.924,0,0,1-1.754.579l-.018-.054-2.136-6.421-.018-.055a.943.943,0,0,1,1.789-.595Z" transform="translate(-516.501 -449.42)" fill="#7d97f4"/>
      <path id="Path_7790" data-name="Path 7790" d="M766.418,993.6l1.3,6.759a.886.886,0,0,1-1.739.339l-.011-.056-1.314-6.639-.011-.057a.9.9,0,1,1,1.775-.351Z" transform="translate(-519.157 -458.333)" fill="#7d97f4"/>
      <path id="Path_7791" data-name="Path 7791" d="M770.088,1016.371l.423,6.872a.848.848,0,0,1-1.693.109l0-.054-.454-6.76,0-.055a.867.867,0,1,1,1.731-.116Z" transform="translate(-520.666 -467.512)" fill="#7d97f4"/>
      <path id="Path_7792" data-name="Path 7792" d="M770.455,1039.426l-.5,6.848a.811.811,0,0,1-1.617-.113l0-.041.456-6.764,0-.046a.83.83,0,1,1,1.655.111Z" transform="translate(-520.658 -476.808)" fill="#7d97f4"/>
      <path id="Path_7793" data-name="Path 7793" d="M767.867,1062.354l-1.117,6.771a.773.773,0,0,1-1.527-.248l.005-.033,1.069-6.711.005-.034a.792.792,0,1,1,1.564.25Z" transform="translate(-519.395 -486.071)" fill="#7d97f4"/>
      <path id="Path_7794" data-name="Path 7794" d="M763.249,1084.99l-1.744,6.642a.735.735,0,0,1-1.423-.369l.01-.038,1.687-6.577.01-.037a.754.754,0,1,1,1.461.375Z" transform="translate(-517.31 -495.219)" fill="#7d97f4"/>
      <path id="Path_7795" data-name="Path 7795" d="M756.252,1107.1l-2.587,6.381a.7.7,0,0,1-1.294-.52l.022-.054,2.509-6.29.02-.051a.716.716,0,0,1,1.331.531Z" transform="translate(-514.18 -504.147)" fill="#7d97f4"/>
      <path id="Path_7796" data-name="Path 7796" d="M745.779,1128.086a46.1,46.1,0,0,1-3.938,5.7.66.66,0,0,1-1.025-.832,44.771,44.771,0,0,0,3.792-5.552.679.679,0,1,1,1.173.684Z" transform="translate(-509.466 -512.622)" fill="#7d97f4"/>
      <path id="Path_7797" data-name="Path 7797" d="M729.637,1145.812a22.789,22.789,0,0,1-6.086,3.463.623.623,0,0,1-.438-1.166,21.494,21.494,0,0,0,5.729-3.3.641.641,0,1,1,.8,1.005Z" transform="translate(-502.2 -519.744)" fill="#7d97f4"/>
    </g>
  </g>
</svg>
