<svg xmlns="http://www.w3.org/2000/svg" width="803.928" height="800.528" viewBox="0 0 803.928 800.528"><defs><style>.a{opacity:0.3;}.a,.g,.t{mix-blend-mode:multiply;}.a,.g,.t,.u{isolation:isolate;}.b{fill:#b3b3b3;}.c{fill:#ef8181;}.d{fill:#d86a6a;}.e{fill:#ff9797;}.f,.y{fill:none;stroke-miterlimit:10;}.f{stroke:#fff;}.g{opacity:0.2;}.h{fill:gray;}.i{fill:#1b1f2d;}.j{fill:#31394c;}.k{fill:#546fbf;}.l{fill:#f24b4b;}.m{fill:#d0d9f2;}.n{fill:#fff;}.o{fill:#91aaf2;}.p{opacity:0.1;}.q{fill:#a6bfff;}.r{fill:#cfdeff;}.s{fill:#eef4ff;}.t{fill:#ccc;}.u{opacity:0.03;mix-blend-mode:hard-light;}.v{fill:#2b3d89;}.w{fill:#354d9b;}.x{fill:#f2c599;}.y{stroke:#546fbf;stroke-width:0.2px;}.z{fill:#db3e3e;}.aa{fill:#252c3a;}.ab{fill:#405dad;}</style></defs><g transform="translate(-84.919 -135.367)"><g transform="translate(84.919 444.435)"><g class="a" transform="translate(0 29.178)"><path class="b" d="M809.829,332.516,720.949,281.2l-66.1,23.882a490.206,490.206,0,0,0-91.369-21.9l-17.941-44L420.2,239.146l-17.388,44.038a485.1,485.1,0,0,0-91.179,21.934L245.316,281.2l-88.362,51.35,41.5,38.331c-17.247,16.672-29.828,34.474-37.569,52.887L84.919,433.99l.468,72.6,76.026,10.249c7.948,18.345,20.67,36.181,38.1,52.853L158.505,608.06l88.88,51.314,66.1-23.882a492.475,492.475,0,0,0,91.427,21.934L422.8,701.4l125.336.032,5.432-3.224,11.956-40.812a485.464,485.464,0,0,0,91.24-21.9l66.313,23.916,88.362-51.351-41.5-38.331c17.247-16.672,29.77-34.508,37.51-52.924l75.97-10.215,5.43-3.224-5.9-69.377L806.98,423.771c-8.008-18.379-20.729-36.215-38.165-52.887Z" transform="translate(-84.919 -239.146)"/></g><g transform="translate(5.43 25.954)"><path class="c" d="M812.059,331.192l-88.88-51.316-66.1,23.882a490.437,490.437,0,0,0-91.369-21.9l-17.943-44-125.336-.034L405.041,281.86a484.935,484.935,0,0,0-91.181,21.934l-66.313-23.916-88.362,51.351,41.5,38.333c-17.247,16.672-29.828,34.471-37.569,52.887l-75.97,10.215.468,72.6,76.026,10.249c7.948,18.347,20.67,36.181,38.107,52.853l-41.014,38.367,88.88,51.314,66.1-23.882A492.24,492.24,0,0,0,407.147,656.1l17.882,43.97,125.339.034,17.388-44.038a485.506,485.506,0,0,0,91.24-21.9l66.313,23.914,88.359-51.348-41.5-38.333c17.249-16.672,29.77-34.506,37.51-52.921l75.97-10.215-.467-72.6L809.21,422.447c-8.006-18.381-20.729-36.215-38.163-52.887Z" transform="translate(-87.149 -237.822)"/></g><path class="d" d="M409.03,291.463V265.509l-41.013,38.367V329.83Z" transform="translate(321.311 -172.139)"/><path class="d" d="M116.733,265.524v25.954l41.5,38.333V303.857Z" transform="translate(-39.267 -172.117)"/><g transform="translate(5.43 0)"><path class="e" d="M812.059,320.533l-88.88-51.316-66.1,23.882a490.24,490.24,0,0,0-91.369-21.9l-17.943-44-125.336-.034L405.041,271.2a484.939,484.939,0,0,0-91.181,21.934l-66.313-23.916-88.362,51.35,41.5,38.333c-17.247,16.672-29.828,34.471-37.569,52.887L87.149,422l.468,72.6,76.026,10.249c7.948,18.347,20.67,36.181,38.107,52.853l-41.014,38.367,88.88,51.314,66.1-23.882a492.438,492.438,0,0,0,91.427,21.934l17.882,43.97,125.339.034,17.388-44.038a485.511,485.511,0,0,0,91.24-21.9l66.313,23.914,88.359-51.348-41.5-38.333c17.249-16.672,29.77-34.506,37.51-52.921l75.97-10.217-.467-72.6L809.21,411.788c-8.006-18.381-20.729-36.215-38.163-52.887Z" transform="translate(-87.149 -227.163)"/></g><path class="d" d="M153.872,439.772V413.818l66.1-23.882v25.954Z" transform="translate(14.025 6.408)"/><path class="d" d="M236.451,442.914v25.955L218.568,424.9V398.944Z" transform="translate(106.86 19.334)"/><path class="d" d="M277.387,468.923V442.968l17.388-44.038v25.954Z" transform="translate(191.262 19.313)"/><path class="d" d="M388.311,439.805V413.851L322,389.936V415.89Z" transform="translate(255.278 6.407)"/><path class="d" d="M383.881,373.167V347.212L459.852,337v25.954Z" transform="translate(344.076 -69.558)"/><path class="d" d="M163.368,373.2V347.247L87.341,337v25.954Z" transform="translate(-81.443 -69.556)"/><path class="c" d="M117.37,378.67v25.954l88.88,51.315V429.985Z" transform="translate(-38.353 -9.759)"/><path class="c" d="M437.594,404.623V378.669l-88.361,51.35v25.954Z" transform="translate(294.357 -9.761)"/><g transform="translate(96.194 48.15)"><ellipse class="f" cx="179.131" cy="309.259" rx="179.131" ry="309.259" transform="matrix(0.003, -1, 1, 0.003, 0, 358.261)"/></g></g><g transform="translate(538.292 135.367)"><g class="g" transform="translate(60.356 422.684)"><path class="h" d="M487.758,355.329,295.77,244.485a15.006,15.006,0,0,0-13.607,0L264.739,254.61c-3.74,2.172-3.721,5.705.049,7.88L456.776,373.336a15.013,15.013,0,0,0,13.607,0l17.427-10.127C491.547,361.037,491.528,357.506,487.758,355.329Z" transform="translate(-261.947 -242.852)"/></g><path class="i" d="M440.088,154.381,298.4,72.577c-6.908-3.988-13.137-4.247-17.573-1.478l-7.395,4.264,2.99.545a22.089,22.089,0,0,0-2.379,10.548l-1.12,395.518c-.044,15.4,10.792,34.172,24.2,41.913l141.692,81.8a22.187,22.187,0,0,0,10.648,3.292l-.83,2.7L456,607.432l0,0,.039-.022h0c4.385-2.523,7.108-7.914,7.13-15.593l1.123-395.518C465.271,176.933,453.493,162.122,440.088,154.381Z" transform="translate(-185.843 -69.262)"/><g transform="translate(78.97 4.691)"><path class="j" d="M436.761,156.321l-141.692-81.8c-13.4-7.738-24.31-1.522-24.354,13.882l-1.123,395.518c-.044,15.4,10.794,34.172,24.2,41.91l141.69,81.807c13.4,7.738,24.313,1.522,24.357-13.882l1.12-395.518C461.941,178.876,450.165,164.061,436.761,156.321Z" transform="translate(-269.592 -71.188)"/></g><g transform="translate(82.932 10.226)"><path class="i" d="M433.477,157.1,293.645,76.368c-11.714-6.764-21.272-1.32-21.311,12.143l-1.115,393.336c-.039,13.463,9.457,29.908,21.172,36.673l139.832,80.731c11.717,6.764,21.286,1.327,21.325-12.136l1.115-393.336A42.66,42.66,0,0,0,433.477,157.1Z" transform="translate(-271.219 -73.461)"/></g><g transform="translate(86.523 15.478)"><path class="k" d="M431.029,158.445l-17.666-10.2c-1.084-.626-1.97-.18-2.118.979-.959,7.358-6.874,10.047-14,5.934l-71.709-41.4c-7.125-4.113-13.005-13.614-13.921-22.053a4.779,4.779,0,0,0-2.1-3.416l-17.668-10.2c-9.935-5.737-18.009-1.135-18.041,10.28l-1.11,391.576c-.032,11.4,7.989,25.311,17.924,31.048L429.8,591.349c9.935,5.737,18.009,1.12,18.043-10.283l1.11-391.576C448.987,178.075,440.963,164.179,431.029,158.445Z" transform="translate(-272.694 -75.618)"/></g><g transform="translate(133.038 272.012)"><path class="l" d="M342.816,208.938l-47.63-27.5c-1.86-1.074-3.382-.222-3.389,1.916a7.442,7.442,0,0,0,3.368,5.832l47.63,27.5c1.86,1.076,3.382.207,3.389-1.931a7.411,7.411,0,0,0-3.368-5.815" transform="translate(-291.797 -180.973)"/><path class="l" d="M332.164,202.79l-12.494-7.212c-1.86-1.074-3.37-.214-3.375,1.924a7.406,7.406,0,0,0,3.353,5.822l12.494,7.215c1.86,1.074,3.37.2,3.377-1.938a7.39,7.39,0,0,0-3.355-5.81" transform="translate(-256.644 -160.681)"/><g transform="translate(3.73 24.427)"><path class="e" d="M355.225,224.782l-58.039-33.51c-1.069-.619-1.928-.127-1.933,1.1a4.218,4.218,0,0,0,1.921,3.312l58.039,33.51c1.057.609,1.916.119,1.921-1.1a4.209,4.209,0,0,0-1.909-3.316" transform="translate(-290.57 -191.005)"/><path class="e" d="M327.291,215.847l-10.687-6.17c-1.057-.611-1.916-.119-1.919,1.108a4.2,4.2,0,0,0,1.907,3.3l10.687,6.173c1.054.609,1.916.119,1.919-1.1a4.2,4.2,0,0,0-1.907-3.316" transform="translate(-262.684 -164.589)"/><path class="e" d="M336.521,221.174l-39.356-22.723c-1.069-.619-1.931-.127-1.933,1.1a4.216,4.216,0,0,0,1.919,3.312l39.358,22.723c1.069.616,1.929.127,1.933-1.086a4.215,4.215,0,0,0-1.921-3.326" transform="translate(-290.598 -180.704)"/><path class="e" d="M348.162,224.305l-42.84-24.734c-1.057-.611-1.916-.119-1.919,1.093a4.2,4.2,0,0,0,1.907,3.3L348.15,228.7c1.069.618,1.928.127,1.933-1.086a4.21,4.21,0,0,0-1.921-3.309" transform="translate(-278.873 -179.091)"/><path class="e" d="M311.886,203.36l-16.636-9.606c-1.057-.609-1.916-.119-1.921,1.093a4.209,4.209,0,0,0,1.907,3.3l16.638,9.608c1.057.609,1.916.117,1.921-1.1a4.206,4.206,0,0,0-1.909-3.3" transform="translate(-293.329 -187.436)"/></g></g><g transform="translate(125.402 125.437)"><path class="m" d="M338.146,124.339c-.489-.282-.979-.528-1.463-.75-3.536-1.646-7.166-2.939-10.327-2.8a6.858,6.858,0,0,0-6.287,3.991,10.884,10.884,0,0,0-.821,5.162c.024.241.037.492.076.772a4.827,4.827,0,0,0-.74-.528,3.651,3.651,0,0,0-2.956-.392c-1.972.684-2.639,3.275-2.978,5.829a46.325,46.325,0,0,0-.041,9.771c.153,1.714.4,3.45.7,5.218.117.721.248,1.432.377,2.16-2.2-.847-3.971,2.72-2.135,7.392,1.685,4.3,3.143,8.983,5.052,10.086a1.824,1.824,0,0,0,.3.141,1.543,1.543,0,0,0,.7.085,57.175,57.175,0,0,0,7.039,15.333l-.032,11.023-28.348-.012c-2.868.09-4.8,2.223-5.182,5.708l-2.418,22.538s16.984,18.508,48.662,36.8c27.919,16.119,48.723,19.428,48.723,19.428L383.753,256a22.106,22.106,0,0,0-5.082-11.62L350.72,211.92l.032-11.038a12.6,12.6,0,0,0,7.115-7.159,4.587,4.587,0,0,0,.7.723,2.578,2.578,0,0,0,.3.2c1.911,1.1,3.389-1.89,5.094-4.227,1.831-2.5.168-7.967-1.982-9.754a89.5,89.5,0,0,0-.124-11.873c-.28-4.018-.463-9.438-3.251-13.738-.146-.219-.3-.431-.463-.631a2.672,2.672,0,0,0,.825-1.709c.351-2.44-1.266-5.408-3.389-7.3a16.722,16.722,0,0,0-2.737-1.963c-.219-.124-.436-.246-.653-.358a5,5,0,0,0,.161-1.305c-.032-2.766-1.78-6.068-3.981-8.145a13.86,13.86,0,0,0-2.571-1.943,10.528,10.528,0,0,0-2.362-1.011,4.065,4.065,0,0,0-.1-.531,9.237,9.237,0,0,0-1.721-2.924,12.5,12.5,0,0,0-3.458-2.9" transform="translate(-288.661 -120.777)"/></g><g transform="translate(181.922 376.716)"><path class="l" d="M334.092,227.011c-12.228-7.061-22.177-1.39-22.219,12.672s9.847,31.175,22.075,38.233,22.18,1.39,22.219-12.662S346.33,234.074,334.092,227.011Z" transform="translate(-311.873 -223.974)"/><g transform="translate(7.89 18.543)"><path class="n" d="M329.391,234.881c-6.747-3.893-10-3.548-11.836-2.868s-2.7,3.2-2.374,4.841a16.526,16.526,0,0,0,1.242,3.287,2.716,2.716,0,0,0,1.025,1.176,1.343,1.343,0,0,0,.426.166l4.5.845c.531.1.891-.265.894-.9l.01-2.8c0-.558.261-.937.7-.928,1.987.051,5.4,1.975,5.4,1.975a26.624,26.624,0,0,1,5.393,4.256,2.8,2.8,0,0,1,.7,1.734l-.007,2.8a2.889,2.889,0,0,0,.877,1.926l4.5,4.351a2.135,2.135,0,0,0,.419.324.838.838,0,0,0,1.027.007,4.313,4.313,0,0,0,1.256-1.843c.338-1.261-.5-4.768-2.333-7.558a33.158,33.158,0,0,0-11.819-10.789" transform="translate(-315.113 -231.589)"/></g></g><g transform="translate(120.182 340.974)"><path class="o" d="M308.743,212.334c-12.238-7.064-22.187-1.393-22.226,12.667s9.845,31.175,22.082,38.241,22.178,1.39,22.219-12.662S320.972,219.4,308.743,212.334Z" transform="translate(-286.517 -209.295)"/><g transform="translate(10.7 10.745)"><path class="n" d="M295.749,214.424a1.936,1.936,0,0,0-.175-.085,6.145,6.145,0,0,0-2.462-.623c-1.135.11-2.4,2.2-2.174,5.055s1.144,7.59,5.9,15.83,8.408,11.415,10.772,13.049c.195.134.39.258.584.37,2.174,1.256,4.3,1.166,4.906.319a6,6,0,0,0,.7-2.425,2.721,2.721,0,0,0-.713-1.95l-4.249-4.88a2.4,2.4,0,0,0-.575-.485.927.927,0,0,0-.925-.092l-1.731.986a.929.929,0,0,1-.918-.085,1.928,1.928,0,0,1-.387-.3,36.146,36.146,0,0,1-7.612-13.178,1.12,1.12,0,0,1,.331-1.317l1.724-.991c.4-.219.494-.864.253-1.578l-2.094-6.109a2.876,2.876,0,0,0-1.157-1.51" transform="translate(-290.911 -213.708)"/></g></g><g transform="translate(160.473 54.339)"><path class="j" d="M329.059,106.034,304.32,91.753c-.7-.4-1.254-.088-1.256.716a2.727,2.727,0,0,0,1.249,2.148L329.052,108.9c.687.4,1.254.088,1.256-.7a2.752,2.752,0,0,0-1.249-2.165" transform="translate(-303.064 -91.578)"/></g><g transform="translate(193.001 72.852)"><path class="j" d="M318.765,99.5c-1.293-.745-2.34-.151-2.342,1.337a5.108,5.108,0,0,0,2.328,4.015c1.278.74,2.338.151,2.342-1.32a5.148,5.148,0,0,0-2.328-4.032" transform="translate(-316.423 -99.181)"/></g><g transform="translate(193.525 73.534)"><path class="i" d="M318.452,99.712c-1-.58-1.809-.119-1.814,1.032a3.956,3.956,0,0,0,1.8,3.107c.991.57,1.8.11,1.8-1.028a3.954,3.954,0,0,0-1.79-3.112" transform="translate(-316.638 -99.461)"/></g><g transform="translate(194.91 75.316)"><path class="j" d="M317.631,100.254c-.236-.139-.421-.032-.424.241a.912.912,0,0,0,.421.713c.224.129.409.024.411-.234a.911.911,0,0,0-.409-.721" transform="translate(-317.207 -100.193)"/></g><g class="p" transform="translate(86.523 34.55)"><path class="n" d="M413.013,137.005c-1.084-.626-1.97-.18-2.118.979-.959,7.358-6.874,10.049-14,5.934l-71.709-41.4c-6.294-3.633-11.61-11.471-13.4-19.066l-38.438,29.256-.414,146.474,151.7-115.463Z" transform="translate(-272.344 -83.451)"/><path class="n" d="M272.912,262.18l-.09,31.68L448.639,160.043l.09-31.68Z" transform="translate(-272.51 -19.005)"/><path class="n" d="M272.694,347.469c-.032,11.4,7.989,25.311,17.924,31.048l41.73,24.091,115.877-88.2.416-146.474L272.823,301.755Z" transform="translate(-272.694 37.783)"/><path class="n" d="M341.46,319.209l41.7-31.737.09-31.68-65.405,49.781Z" transform="translate(-207.908 163.849)"/></g><g transform="translate(295.866 296.135)"><path class="o" d="M382,208.694l-21.968-12.684c-.738-.426-1.334-.073-1.337.777a2.917,2.917,0,0,0,1.329,2.3l21.968,12.684c.738.426,1.346.093,1.349-.755A2.966,2.966,0,0,0,382,208.694" transform="translate(-358.634 -183.778)"/><path class="o" d="M391.212,216.872l-31.192-18.009c-.738-.426-1.334-.085-1.337.762a2.94,2.94,0,0,0,1.33,2.316L391.2,219.95c.74.426,1.334.071,1.337-.777a2.918,2.918,0,0,0-1.327-2.3" transform="translate(-358.645 -179.689)"/><path class="o" d="M389.065,215.629l-13.339-7.7c-.738-.426-1.347-.095-1.349.755a2.965,2.965,0,0,0,1.342,2.323l13.339,7.7c.738.426,1.347.08,1.349-.769a2.943,2.943,0,0,0-1.342-2.308" transform="translate(-336.126 -166.685)"/><path class="o" d="M371.136,208.136l-11.123-6.421c-.738-.426-1.334-.088-1.337.762a2.914,2.914,0,0,0,1.329,2.3l11.123,6.421c.738.426,1.334.088,1.337-.762a2.917,2.917,0,0,0-1.329-2.3" transform="translate(-358.656 -175.596)"/><path class="o" d="M389.171,218.546l-22.192-12.813c-.74-.426-1.349-.095-1.351.755a2.95,2.95,0,0,0,1.342,2.308l22.192,12.813c.74.426,1.334.088,1.337-.762a2.918,2.918,0,0,0-1.327-2.3" transform="translate(-348.681 -169.833)"/><path class="o" d="M378.966,215.505,360,204.56c-.738-.429-1.334-.073-1.337.777a2.913,2.913,0,0,0,1.329,2.3l18.959,10.948c.74.426,1.334.088,1.337-.762a2.944,2.944,0,0,0-1.327-2.316" transform="translate(-358.668 -171.511)"/><path class="o" d="M376.492,214.078l-6.241-3.6c-.74-.426-1.334-.071-1.337.779a2.917,2.917,0,0,0,1.327,2.3l6.241,3.6c.74.426,1.334.088,1.337-.762a2.944,2.944,0,0,0-1.327-2.316" transform="translate(-343.964 -163.023)"/><path class="o" d="M388.552,212.477,370.991,202.34c-.738-.429-1.334-.073-1.337.777a2.913,2.913,0,0,0,1.33,2.3l17.561,10.139c.738.429,1.347.095,1.349-.752a2.974,2.974,0,0,0-1.342-2.325" transform="translate(-342.904 -174.697)"/><path class="i" d="M391.8,209l-30.863-17.817c-1.225-.709-2.233-.136-2.235,1.288a4.916,4.916,0,0,0,2.221,3.85l30.863,17.819c1.239.716,2.245.141,2.25-1.269A4.928,4.928,0,0,0,391.8,209" transform="translate(-358.613 -190.88)"/><path class="i" d="M388.347,207l-11.559-6.672c-1.239-.716-2.245-.144-2.25,1.283a4.917,4.917,0,0,0,2.235,3.857l11.559,6.672c1.239.716,2.245.144,2.25-1.266A4.929,4.929,0,0,0,388.347,207" transform="translate(-335.894 -177.762)"/></g><g transform="translate(295.271 347.098)"><path class="o" d="M381.753,229.624,359.785,216.94c-.738-.426-1.334-.071-1.337.777a2.913,2.913,0,0,0,1.329,2.3L381.746,232.7c.738.426,1.347.095,1.349-.755a2.966,2.966,0,0,0-1.342-2.323" transform="translate(-358.39 -204.708)"/><path class="o" d="M390.968,237.8l-31.192-18.006c-.738-.426-1.334-.088-1.337.762a2.944,2.944,0,0,0,1.329,2.316l31.189,18.006c.74.426,1.334.073,1.337-.777a2.921,2.921,0,0,0-1.327-2.3" transform="translate(-358.401 -200.617)"/><path class="o" d="M388.822,236.56l-13.339-7.7c-.74-.426-1.349-.095-1.351.755a2.98,2.98,0,0,0,1.342,2.323l13.341,7.7c.738.426,1.347.078,1.349-.769a2.94,2.94,0,0,0-1.342-2.308" transform="translate(-335.884 -187.613)"/><path class="o" d="M370.892,229.069l-11.123-6.423c-.738-.426-1.334-.085-1.337.762a2.914,2.914,0,0,0,1.329,2.3l11.12,6.421c.74.429,1.337.088,1.337-.762a2.917,2.917,0,0,0-1.327-2.3" transform="translate(-358.412 -196.526)"/><path class="o" d="M388.927,239.476l-22.192-12.813c-.74-.426-1.349-.095-1.351.755a2.946,2.946,0,0,0,1.342,2.308l22.192,12.813c.74.426,1.334.088,1.337-.762a2.925,2.925,0,0,0-1.327-2.3" transform="translate(-348.437 -190.763)"/><path class="o" d="M378.722,236.435,359.761,225.49c-.738-.426-1.334-.073-1.337.777a2.917,2.917,0,0,0,1.327,2.3l18.961,10.945c.738.429,1.334.088,1.337-.762a2.951,2.951,0,0,0-1.327-2.316" transform="translate(-358.424 -192.441)"/><path class="o" d="M376.249,235.01l-6.241-3.6c-.74-.429-1.334-.073-1.337.777a2.921,2.921,0,0,0,1.327,2.3l6.241,3.6c.738.429,1.334.088,1.337-.76a2.944,2.944,0,0,0-1.327-2.316" transform="translate(-343.72 -183.952)"/><path class="o" d="M388.308,233.409,370.747,223.27c-.738-.426-1.334-.073-1.337.777a2.914,2.914,0,0,0,1.329,2.3L388.3,236.487c.738.426,1.347.095,1.349-.755a2.966,2.966,0,0,0-1.342-2.323" transform="translate(-342.66 -195.626)"/><path class="i" d="M391.558,229.93,360.7,212.114c-1.227-.709-2.233-.136-2.235,1.291a4.91,4.91,0,0,0,2.221,3.85l30.86,17.816c1.242.716,2.247.144,2.252-1.266a4.924,4.924,0,0,0-2.238-3.874" transform="translate(-358.369 -211.81)"/><path class="i" d="M388.1,227.935l-11.559-6.674c-1.242-.716-2.247-.141-2.25,1.283a4.911,4.911,0,0,0,2.235,3.857l11.559,6.674c1.239.716,2.245.141,2.25-1.269a4.927,4.927,0,0,0-2.235-3.872" transform="translate(-335.65 -198.692)"/></g><g transform="translate(297.305 225.584)"><path class="l" d="M363.949,202.54a3.88,3.88,0,0,1-1.76-3.053l.093-32.565c0-1.123.8-1.575,1.773-1.011l41.138,23.75a3.89,3.89,0,0,1,1.763,3.053l-.093,32.565c0,1.122-.8,1.575-1.773,1.011l-24.437-14.106a3.348,3.348,0,0,0-3.3-.358l-7.122,3.891.012-4.139a10.344,10.344,0,0,0-4.682-8.108l-1.61-.93M405.2,186.3l-41.138-23.75c-2.586-1.493-4.7-.287-4.712,2.686l-.092,32.565a10.341,10.341,0,0,0,4.68,8.108l1.61.93a3.885,3.885,0,0,1,1.763,3.051l-.012,4.473a6.2,6.2,0,0,0,1.719,3.986,4.9,4.9,0,0,0,1.081.867,2.009,2.009,0,0,0,1.97.209l7.332-4.013a1.3,1.3,0,0,1,1.242.141l24.437,14.108c2.586,1.493,4.7.285,4.712-2.686l.093-32.567A10.35,10.35,0,0,0,405.2,186.3" transform="translate(-359.259 -161.906)"/><path class="l" d="M366.777,171.608c-2.123-1.227-3.857-.239-3.864,2.2a8.478,8.478,0,0,0,3.84,6.652c2.126,1.225,3.845.229,3.852-2.211a8.441,8.441,0,0,0-3.828-6.643" transform="translate(-354.016 -148.741)"/><path class="l" d="M371.936,174.586c-2.123-1.227-3.859-.239-3.864,2.2a8.472,8.472,0,0,0,3.84,6.652c2.123,1.227,3.857.239,3.864-2.2a8.477,8.477,0,0,0-3.84-6.65" transform="translate(-346.613 -144.468)"/><path class="l" d="M377.094,177.564c-2.123-1.227-3.857-.239-3.864,2.2a8.473,8.473,0,0,0,3.84,6.65c2.126,1.227,3.859.239,3.867-2.2a8.48,8.48,0,0,0-3.842-6.652" transform="translate(-339.211 -140.194)"/></g><g transform="translate(12.08 201.624)"><path class="k" d="M246.813,192.7a3.881,3.881,0,0,1-1.763-3.051l.093-32.565c0-1.123.8-1.575,1.775-1.013l41.138,23.753a3.885,3.885,0,0,1,1.763,3.051l-.093,32.567c0,1.12-.8,1.573-1.775,1.011l-24.435-14.108a3.354,3.354,0,0,0-3.3-.358l-7.122,3.891.012-4.139a10.351,10.351,0,0,0-4.682-8.108l-1.61-.93m41.253-16.244-41.138-23.75c-2.586-1.493-4.7-.285-4.714,2.686l-.092,32.565a10.355,10.355,0,0,0,4.682,8.111l1.609.928a3.889,3.889,0,0,1,1.763,3.053l-.012,4.473a6.2,6.2,0,0,0,1.719,3.984,4.706,4.706,0,0,0,1.081.867,2.009,2.009,0,0,0,1.97.209l7.332-4.01a1.3,1.3,0,0,1,1.242.139l24.435,14.108c2.586,1.493,4.7.285,4.714-2.686l.092-32.565a10.359,10.359,0,0,0-4.682-8.111" transform="translate(-242.121 -152.066)"/><path class="k" d="M249.64,161.768c-2.123-1.227-3.857-.239-3.864,2.2a8.472,8.472,0,0,0,3.84,6.652c2.123,1.227,3.845.231,3.852-2.211a8.445,8.445,0,0,0-3.828-6.643" transform="translate(-236.876 -138.901)"/><path class="k" d="M254.8,164.746c-2.126-1.227-3.859-.239-3.867,2.2a8.474,8.474,0,0,0,3.84,6.65c2.126,1.227,3.859.239,3.867-2.2a8.478,8.478,0,0,0-3.84-6.652" transform="translate(-229.475 -134.628)"/><path class="k" d="M259.957,167.723c-2.123-1.225-3.857-.236-3.864,2.2a8.482,8.482,0,0,0,3.84,6.652c2.123,1.225,3.857.239,3.864-2.2a8.475,8.475,0,0,0-3.84-6.652" transform="translate(-222.072 -130.354)"/></g><g transform="translate(0 78.845)"><path class="i" d="M270.536,178.958c-16.438-9.491-29.775-32.589-29.721-51.48s13.477-26.538,29.916-17.047,29.774,32.589,29.721,51.48-13.463,26.548-29.916,17.047m.207-72.742c-18.459-10.655-33.522-2.058-33.583,19.153s14.907,47.148,33.366,57.8,33.534,2.065,33.595-19.144-14.907-47.148-33.378-57.813" transform="translate(-237.16 -101.642)"/><path class="i" d="M252.331,107.986c-.784-.453-1.446-.117-1.476.789l-.769,25.114a2.008,2.008,0,0,0-.11.786,4.615,4.615,0,0,0,.76,2.247,4.45,4.45,0,0,0,1.49,1.544l.092.051a1.917,1.917,0,0,0,.541.207l17.907,9.533c.752.4,1.388.073,1.417-.806a3.2,3.2,0,0,0-1.407-2.559l-16.4-10.212-.58-24.206a3.287,3.287,0,0,0-1.422-2.459l-.046-.029" transform="translate(-218.772 -92.827)"/></g><g transform="translate(2.07 157.751)"><path class="l" d="M244.952,135.2a7.281,7.281,0,0,0-3.589-1.149,2.893,2.893,0,0,0-2.452,1.381,7.068,7.068,0,0,0-.9,3.913l4.281,2.471,0-.426a3.749,3.749,0,0,1,.523-2.016c.358-.543,1.086-.5,2.211.151a4.885,4.885,0,0,1,1.953,2,5.266,5.266,0,0,1,.631,2.462,3.147,3.147,0,0,1-.657,2.04A5.091,5.091,0,0,1,245.3,147.3c-.67.314-1.634.677-2.883,1.115-.265.085-.533.17-.8.27s-.55.212-.862.321l-2.569,1.057-.012,4.239,13.643,7.877.012-4.342-8-4.619v-.153l2.615-1.013.609-.229a13.85,13.85,0,0,0,2.391-1.091,4.9,4.9,0,0,0,1.607-1.68,5.8,5.8,0,0,0,.677-2.985,10.71,10.71,0,0,0-.806-4.01,13.513,13.513,0,0,0-2.333-3.855,14.207,14.207,0,0,0-3.64-3.007" transform="translate(-238.01 -134.048)"/><path class="l" d="M249.118,150.339l4.139-5.06-.022,7.439-4.117-2.379m8.437-8.5-5.481-3.165-7.373,9.333-.01,3.643,8.532,4.945-.015,5.277,4.281,2.471.017-5.277,2.3,1.325.01-3.779-2.3-1.325.039-13.448" transform="translate(-228.423 -127.404)"/><path class="l" d="M265.585,144.55l-4.089-2.361-9.823,26.179,4.089,2.36,9.823-26.178" transform="translate(-218.403 -122.366)"/><path class="l" d="M271.66,152.494l-13.6-7.851-.013,4.528,9.54,5.508v.2l-7.575,13.035v.392l4.592,2.651,7.041-13.36.015-5.107" transform="translate(-209.257 -118.845)"/></g></g><g transform="translate(264.141 352.61)"><g transform="translate(6.346 24.736)"><g class="g" transform="translate(0 177.125)"><path class="h" d="M556.45,429.1,288.9,274.629c-5.255-3.034-13.753-3.034-18.963,0L165.017,335.593c-5.211,3.029-5.182,7.953.071,10.984L432.642,501.05c5.255,3.034,13.753,3.034,18.963,0L556.52,440.086C561.731,437.057,561.7,432.136,556.45,429.1Z" transform="translate(-161.129 -272.353)"/></g><g transform="translate(11.492 42.543)"><g transform="translate(9.156 5.291)"><path class="j" d="M176.875,420.17l-.436-153.8L239.46,230,280.353,360.44,176.875,420.17m67.616-200.915-74.882,43.22.48,169.445L289.54,362.97Z" transform="translate(-169.609 -219.255)"/></g><path class="i" d="M234.2,351.6l9.176,2.509L202.494,223.666l-7.113,4.1Z" transform="translate(-123.472 -207.635)"/><path class="i" d="M172.583,330.623l.02,7.823,103.482-59.718-9.2-2.521Z" transform="translate(-156.185 -132.24)"/><path class="i" d="M165.849,234.836l9.156,5.292.483,169.434-9.156-5.292Z" transform="translate(-165.849 -191.606)"/><path class="i" d="M165.849,260.313l9.156,5.292,74.888-43.231-9.156-5.292Z" transform="translate(-165.849 -217.082)"/></g><g transform="translate(260.771 186.095)"><g transform="translate(9.155 5.291)"><path class="j" d="M279.25,479.125l-.436-153.8,63.024-36.371L382.73,419.4,279.25,479.125M346.868,278.21l-74.884,43.22.482,169.445,119.451-68.95Z" transform="translate(-271.984 -278.21)"/></g><path class="i" d="M336.572,410.557l9.176,2.509L304.869,282.62l-7.113,4.1Z" transform="translate(-225.847 -266.59)"/><path class="i" d="M274.959,389.578l.02,7.823,103.482-59.718-9.2-2.521Z" transform="translate(-258.56 -191.195)"/><path class="i" d="M268.224,293.791l9.156,5.292.483,169.434-9.156-5.292Z" transform="translate(-268.224 -250.56)"/><path class="i" d="M268.224,319.268l9.156,5.292,74.888-43.231-9.156-5.292Z" transform="translate(-268.224 -276.037)"/></g><path class="q" d="M560.409,358.008l-4.948.786L288.9,204.893c-5.255-3.034-13.753-3.034-18.963,0L165.193,265.755l-4.052-1.534-.012,7.125v.09l.007,0c.051,1.96,1.364,3.913,3.952,5.408L432.642,431.314c5.255,3.031,13.753,3.031,18.963,0L556.52,370.348c2.734-1.588,4.01-3.7,3.862-5.783l.027.01C560.365,364.329,560.409,358.008,560.409,358.008Z" transform="translate(-161.129 -195.295)"/><path class="o" d="M286.214,351.937l104.914-60.971c2.734-1.588,4.01-3.7,3.862-5.783l.027.01c-.044-.246,0-6.567,0-6.567l-4.948.786-37.2-21.474-76.484,76.484v19.764A19.424,19.424,0,0,0,286.214,351.937Z" transform="translate(4.263 -115.913)"/><g transform="translate(0)"><path class="r" d="M556.45,356.359,288.9,201.886c-5.255-3.034-13.753-3.034-18.963,0L165.017,262.85c-5.211,3.029-5.182,7.95.071,10.984L432.642,428.307c5.255,3.034,13.753,3.034,18.963,0L556.52,367.343C561.731,364.314,561.7,359.391,556.45,356.359Z" transform="translate(-161.129 -199.61)"/></g><g transform="translate(16.312 52.08)"><path class="n" d="M191.381,221.52a5.437,5.437,0,0,0-4.787.068l-17.758,10.319c-1.354.786-1.339,2.06.015,2.842l26.166,15.109a5.416,5.416,0,0,0,4.909,0l17.758-10.322c1.312-.762,1.344-1.982.1-2.771a1.707,1.707,0,0,1,.891,1.252l-22.416-1.539,1.658,13.945a6.211,6.211,0,0,1-1.346-.056L194.9,236.386l-2.489-.17-.3-1.444-24.138-.916a1.171,1.171,0,0,1-.1-.779l24.074.911-2.725-12.976a5.021,5.021,0,0,1,2.16.509m26.346,15.209.039.024-.039-.024M191.44,221.552l-.051-.027.051.027" transform="translate(-167.828 -220.999)"/><path class="s" d="M196.249,229.361l-1.356-.093,1.668,13.981a6.211,6.211,0,0,0,1.346.056l-1.658-13.945m-4.312-2.491-24.074-.911a1.171,1.171,0,0,0,.1.779l24.138.916-.163-.784" transform="translate(-167.818 -213.881)"/><path class="s" d="M205.059,236.687l-26.166-15.106-.061-.037-.051-.027-.007,0a5.021,5.021,0,0,0-2.16-.509l2.725,12.976.163.784.3,1.444,2.489.17,1.356.093,22.416,1.539a1.707,1.707,0,0,0-.891-1.252l-.017-.012-.039-.024-.061-.034" transform="translate(-155.221 -220.991)"/></g><g transform="translate(53.514 32.201)"><path class="n" d="M206.658,213.356a5.44,5.44,0,0,0-4.785.066l-17.758,10.322c-1.354.786-1.342,2.06.015,2.842L210.3,241.692a5.4,5.4,0,0,0,4.906,0l17.76-10.319c1.312-.762,1.344-1.982.1-2.771a1.709,1.709,0,0,1,.891,1.252l-22.419-1.539,1.661,13.945a6.215,6.215,0,0,1-1.346-.056l-1.668-13.981-2.489-.173-.3-1.441-24.138-.916a1.192,1.192,0,0,1-.1-.782l24.077.913L204.5,212.848a5,5,0,0,1,2.16.509m26.349,15.209.037.024-.037-.024m-26.288-15.177-.051-.027.051.027" transform="translate(-183.107 -212.835)"/><path class="s" d="M211.526,221.2l-1.354-.092,1.668,13.981a6.217,6.217,0,0,0,1.347.056L211.526,221.2m-4.31-2.491-24.077-.913a1.192,1.192,0,0,0,.1.782l24.138.916-.163-.784" transform="translate(-183.097 -205.718)"/><path class="s" d="M220.339,228.521l-26.166-15.106-.061-.034-.051-.027-.01,0a5,5,0,0,0-2.16-.509l2.727,12.976.163.784.3,1.441,2.489.173,1.354.092,22.419,1.539a1.709,1.709,0,0,0-.891-1.252l-.019-.012-.037-.024-.061-.036" transform="translate(-170.5 -212.827)"/></g><g transform="translate(90.718 12.322)"><path class="n" d="M221.937,205.193a5.439,5.439,0,0,0-4.785.066L199.392,215.58c-1.351.786-1.339,2.058.017,2.842l26.166,15.106a5.4,5.4,0,0,0,4.906,0l17.758-10.319c1.312-.765,1.347-1.982.1-2.773a1.709,1.709,0,0,1,.889,1.252l-22.416-1.536,1.661,13.942a6.052,6.052,0,0,1-1.346-.056l-1.668-13.981-2.491-.17-.3-1.442-24.138-.918a1.169,1.169,0,0,1-.1-.779l24.074.913-2.725-12.976a4.977,4.977,0,0,1,2.16.509M248.286,220.4l.037.024-.037-.024M222,205.224l-.054-.027.054.027" transform="translate(-198.385 -204.671)"/><path class="s" d="M226.805,213.034l-1.354-.095,1.668,13.981a6.05,6.05,0,0,0,1.346.056l-1.661-13.942m-4.312-2.491-24.074-.913a1.168,1.168,0,0,0,.1.779l24.138.918-.166-.784" transform="translate(-198.376 -197.554)"/><path class="s" d="M235.618,220.357l-26.166-15.106-.061-.034-.054-.027-.007,0a4.977,4.977,0,0,0-2.16-.509l2.725,12.976.166.784.3,1.442,2.491.17,1.354.095,22.416,1.536a1.709,1.709,0,0,0-.889-1.252l-.019-.01-.037-.024-.061-.037" transform="translate(-185.779 -204.663)"/></g><g transform="translate(264.556 148.135)"><path class="n" d="M350.038,281.059l-35.7-20.612-44.559,25.895,35.7,20.612Z" transform="translate(-269.779 -260.447)"/><g transform="translate(10.626 6.834)"><path class="q" d="M310.692,281.152l-27.53-15.894-.537.312,27.529,15.894.537-.312" transform="translate(-261.97 -260.379)"/><path class="q" d="M309.746,281.7l-27.529-15.894-.537.312,27.53,15.894.537-.312" transform="translate(-263.327 -259.59)"/><path class="q" d="M308.8,282.251l-27.529-15.894-.537.312,27.529,15.894.537-.312" transform="translate(-264.685 -258.801)"/><path class="q" d="M307.85,282.8l-27.529-15.894-.531.309,27.529,15.894.531-.309" transform="translate(-266.039 -258.012)"/><path class="q" d="M306.91,283.349l-27.529-15.894-.537.312,27.529,15.894.537-.312" transform="translate(-267.396 -257.225)"/><path class="q" d="M305.964,283.9,278.435,268l-.537.312,27.529,15.894.537-.312" transform="translate(-268.753 -256.436)"/><path class="q" d="M305.018,284.449l-27.53-15.894-.537.312,27.529,15.894.537-.312" transform="translate(-270.111 -255.648)"/><path class="q" d="M304.069,285,276.54,269.1l-.531.309,27.529,15.894.531-.309" transform="translate(-271.465 -254.859)"/><path class="q" d="M303.123,285.548l-27.529-15.894-.531.309,27.53,15.894.531-.309" transform="translate(-272.823 -254.07)"/><path class="q" d="M287.825,277.88l-13.146-7.59-.537.312,13.146,7.59.537-.312" transform="translate(-274.143 -253.157)"/><path class="l" d="M302.246,272,287.1,263.254l-1.454.845,15.149,8.746,1.454-.845" transform="translate(-257.64 -263.254)"/><path class="k" d="M294.556,268.917l-8.734-5.042-1.029.6,8.734,5.042,1.029-.6" transform="translate(-258.859 -262.363)"/></g></g><g transform="translate(265.287 147.099)"><path class="n" d="M350.338,280.634l-35.7-20.612-44.559,25.9,35.7,20.612Z" transform="translate(-270.079 -260.022)"/><g transform="translate(10.626 6.834)"><path class="q" d="M310.992,280.726l-27.53-15.894-.537.312,27.529,15.894.537-.312" transform="translate(-262.27 -259.954)"/><path class="q" d="M310.046,281.276l-27.53-15.894-.537.312,27.529,15.894.537-.312" transform="translate(-263.627 -259.165)"/><path class="q" d="M309.1,281.826l-27.529-15.894-.537.312,27.53,15.894.537-.312" transform="translate(-264.985 -258.376)"/><path class="q" d="M308.151,282.375l-27.529-15.894-.531.309,27.529,15.894.531-.309" transform="translate(-266.339 -257.587)"/><path class="q" d="M307.211,282.924l-27.53-15.894-.537.312,27.529,15.894.537-.312" transform="translate(-267.696 -256.8)"/><path class="q" d="M306.265,283.474,278.735,267.58l-.537.312,27.53,15.894.537-.312" transform="translate(-269.054 -256.011)"/><path class="q" d="M305.319,284.023l-27.529-15.894-.537.312,27.53,15.894.537-.312" transform="translate(-270.411 -255.222)"/><path class="q" d="M304.369,284.573,276.84,268.679l-.531.309,27.53,15.894.531-.309" transform="translate(-271.765 -254.433)"/><path class="q" d="M303.423,285.123l-27.529-15.894-.531.309,27.529,15.894.531-.309" transform="translate(-273.123 -253.645)"/><path class="q" d="M288.125,277.455l-13.146-7.59-.537.312,13.146,7.59.537-.312" transform="translate(-274.443 -252.731)"/><path class="l" d="M302.546,271.575,287.4,262.829l-1.454.845,15.149,8.746,1.453-.845" transform="translate(-257.941 -262.829)"/><path class="k" d="M294.857,268.492l-8.734-5.043-1.029.6,8.734,5.043,1.029-.6" transform="translate(-259.159 -261.937)"/></g></g><g transform="translate(255.449 146.222)"><path class="n" d="M346.3,280.273l-35.7-20.612-44.559,25.895,35.7,20.612Z" transform="translate(-266.038 -259.661)"/><g transform="translate(10.626 6.834)"><path class="q" d="M306.952,280.366l-27.53-15.894-.537.312,27.529,15.894.537-.312" transform="translate(-258.229 -259.593)"/><path class="q" d="M306.006,280.915l-27.529-15.894-.537.312,27.529,15.894.537-.312" transform="translate(-259.587 -258.804)"/><path class="q" d="M305.06,281.465,277.53,265.571l-.537.312,27.529,15.894.537-.312" transform="translate(-260.944 -258.015)"/><path class="q" d="M304.111,282.015l-27.53-15.894-.531.309,27.529,15.894.531-.309" transform="translate(-262.298 -257.227)"/><path class="q" d="M303.17,282.563l-27.53-15.894-.537.312,27.529,15.894.537-.312" transform="translate(-263.656 -256.439)"/><path class="q" d="M302.224,283.113l-27.53-15.894-.537.312,27.53,15.894.537-.312" transform="translate(-265.013 -255.651)"/><path class="q" d="M301.278,283.663l-27.529-15.894-.537.312,27.529,15.894.537-.312" transform="translate(-266.371 -254.862)"/><path class="q" d="M300.329,284.213,272.8,268.319l-.531.309L299.8,284.521l.531-.309" transform="translate(-267.725 -254.073)"/><path class="q" d="M299.383,284.762l-27.529-15.894-.531.308,27.529,15.894.531-.309" transform="translate(-269.082 -253.284)"/><path class="q" d="M284.085,277.094l-13.145-7.59-.537.312,13.146,7.589.537-.312" transform="translate(-270.402 -252.371)"/><path class="l" d="M298.505,271.214l-15.149-8.746-1.454.845,15.149,8.746,1.453-.845" transform="translate(-253.9 -262.468)"/><path class="k" d="M290.816,268.132l-8.734-5.043-1.029.6,8.734,5.043,1.029-.6" transform="translate(-255.118 -261.577)"/></g></g><g transform="translate(130.576 30.254)"><g class="a" transform="translate(0 52.398)"><path class="t" d="M330.03,279.993l-41.6,24.145a3.3,3.3,0,0,1-3.316,0L216.4,264.142a3.309,3.309,0,0,1,.01-5.725L258.455,234a3.308,3.308,0,0,1,3.316,0l68.042,43C331.623,278.016,331.506,279.087,330.03,279.993Z" transform="translate(-214.755 -233.554)"/></g><g transform="translate(0.23 53.997)"><path class="i" d="M330.684,275.44a7.363,7.363,0,0,1-2.7-.163l-69.754-40.644a3.145,3.145,0,0,0-3.153,0L216.66,255.429a4.3,4.3,0,0,0-.027,7l68.612,39.612a3.145,3.145,0,0,0,3.153,0l41.852-24.323a1.7,1.7,0,0,0,.433-2.274Z" transform="translate(-214.849 -234.211)"/></g><g transform="translate(42.228)"><path class="j" d="M232.1,215.458l1.023,47.464a3.533,3.533,0,0,0,1.751,3.058l68.541,40.442c2.286,1.332,5.1-.8,5.108-3.462l.129-46.2a3.512,3.512,0,0,0-1.714-3.027l-69.62-41.172A3.343,3.343,0,0,0,232.1,215.458Z" transform="translate(-232.097 -212.035)"/></g><g transform="translate(42.069 0.629)"><path class="i" d="M232.171,214.818l-.139,48.343a3.529,3.529,0,0,0,1.753,3.056l68.524,39.975a3.433,3.433,0,0,0,5.15-2.993l.129-46.206a3.5,3.5,0,0,0-1.714-3.027l-69.863-41.309A2.53,2.53,0,0,0,232.171,214.818Z" transform="translate(-232.032 -212.293)"/></g><g transform="translate(44.672 3.503)"><path class="k" d="M233.245,213.474l-.144,47.353,69.987,40.463.141-46.874Z" transform="translate(-233.101 -213.474)"/></g><g class="u" transform="translate(44.685 8.696)"><path class="n" d="M242.114,215.606l-8.9,4.115-.1,34,41.428-19.146Z" transform="translate(-233.106 -215.606)"/><path class="n" d="M279.029,224.694l-45.29,20.931,8.36,4.834,45.236-20.906Z" transform="translate(-232.198 -202.566)"/><path class="n" d="M284.606,227.987l-45.2,20.889,32.634,18.867,22.069-10.2.072-23.956Z" transform="translate(-224.066 -197.84)"/><path class="n" d="M263.4,254.964l8.226-3.8.026-8.709-16.612,7.677Z" transform="translate(-201.628 -177.082)"/></g><g transform="translate(0.468 52.564)"><path class="j" d="M330.222,277.265l-42.066,24.276a3.14,3.14,0,0,1-3.153,0l-68.49-39.821a3.143,3.143,0,0,1,.007-5.442l38.521-22.231a3.151,3.151,0,0,1,3.153,0l72.031,41.881A.771.771,0,0,1,330.222,277.265Z" transform="translate(-214.947 -233.622)"/></g><g transform="translate(27.957 86.137)"><path class="r" d="M256.424,259.087l-10.512,6.224a.849.849,0,0,1-.847,0l-18.406-10.626a.843.843,0,0,1,0-1.461l10.073-5.7a.845.845,0,0,1,.845,0l18.849,11.2A.208.208,0,0,1,256.424,259.087Z" transform="translate(-226.236 -247.41)"/></g><g transform="translate(20.649 57.28)"><path class="r" d="M231.985,236.986l2.357,1.378a1.126,1.126,0,0,0,1.035-.01l1.174-.7c.29-.17.292-.441.01-.606l-2.362-1.371a1.125,1.125,0,0,0-1.028.01l-1.171.694C231.712,236.552,231.705,236.823,231.985,236.986Z" transform="translate(-210.974 -235.559)"/><path class="r" d="M233.7,237.994l2.384,1.393a1.126,1.126,0,0,0,1.042-.01l1.178-.7a.324.324,0,0,0,0-.611l-2.391-1.39a1.126,1.126,0,0,0-1.035.012l-1.176.7C233.416,237.553,233.411,237.826,233.7,237.994Z" transform="translate(-208.526 -234.134)"/><path class="r" d="M235.426,239.011l2.415,1.412a1.127,1.127,0,0,0,1.049-.01l1.181-.709a.33.33,0,0,0,0-.621l-2.42-1.4a1.126,1.126,0,0,0-1.042.01l-1.178.706A.327.327,0,0,0,235.426,239.011Z" transform="translate(-206.049 -232.693)"/><path class="r" d="M237.177,240.042l2.445,1.429a1.142,1.142,0,0,0,1.057-.007l1.186-.716a.335.335,0,0,0,0-.628l-2.45-1.422a1.134,1.134,0,0,0-1.049.01l-1.183.711A.332.332,0,0,0,237.177,240.042Z" transform="translate(-203.541 -231.232)"/><path class="r" d="M238.951,241.087l2.474,1.446a1.147,1.147,0,0,0,1.067-.007l1.188-.723a.337.337,0,0,0-.01-.633l-2.479-1.439a1.139,1.139,0,0,0-1.059.007l-1.186.718A.336.336,0,0,0,238.951,241.087Z" transform="translate(-201.003 -229.755)"/><path class="r" d="M240.745,242.143l2.506,1.463a1.141,1.141,0,0,0,1.074,0l1.193-.73a.342.342,0,0,0-.015-.64l-2.51-1.456a1.147,1.147,0,0,0-1.067.007l-1.191.723A.341.341,0,0,0,240.745,242.143Z" transform="translate(-198.433 -228.259)"/><path class="r" d="M242.563,243.212,245.1,244.7a1.16,1.16,0,0,0,1.084,0l1.2-.735c.292-.18.282-.47-.022-.648l-2.54-1.476a1.16,1.16,0,0,0-1.076,0l-1.193.733A.343.343,0,0,0,242.563,243.212Z" transform="translate(-195.831 -226.745)"/><path class="r" d="M244.4,244.3l2.569,1.5a1.161,1.161,0,0,0,1.091,0l1.2-.743c.292-.183.28-.477-.027-.655l-2.574-1.5a1.16,1.16,0,0,0-1.083,0l-1.2.738C244.09,243.827,244.1,244.117,244.4,244.3Z" transform="translate(-193.197 -225.212)"/><path class="r" d="M246.268,245.393l2.6,1.519a1.162,1.162,0,0,0,1.1,0l1.205-.75c.295-.183.28-.48-.034-.662l-2.6-1.512a1.166,1.166,0,0,0-1.093,0l-1.2.743C245.947,244.916,245.956,245.211,246.268,245.393Z" transform="translate(-190.53 -223.659)"/><path class="r" d="M248.155,246.5l2.632,1.539a1.173,1.173,0,0,0,1.11,0l1.208-.757c.295-.185.278-.485-.039-.667l-2.637-1.534a1.178,1.178,0,0,0-1.1,0l-1.2.75C247.826,246.022,247.84,246.319,248.155,246.5Z" transform="translate(-187.829 -222.087)"/><path class="r" d="M250.065,247.63l2.666,1.558a1.18,1.18,0,0,0,1.118,0l1.213-.765c.3-.187.278-.489-.044-.677l-2.671-1.551a1.179,1.179,0,0,0-1.11,0l-1.208.76C249.731,247.143,249.748,247.442,250.065,247.63Z" transform="translate(-185.093 -220.495)"/><path class="r" d="M252,248.768l2.7,1.58a1.193,1.193,0,0,0,1.127,0l1.215-.772c.3-.19.275-.5-.049-.684l-2.705-1.573a1.192,1.192,0,0,0-1.12,0l-1.213.765C251.66,248.277,251.68,248.581,252,248.768Z" transform="translate(-182.323 -218.882)"/><path class="r" d="M253.96,249.923l2.737,1.6a1.192,1.192,0,0,0,1.137,0l1.217-.779c.3-.19.275-.5-.056-.692l-2.739-1.592a1.2,1.2,0,0,0-1.13,0l-1.215.774C253.614,249.424,253.636,249.731,253.96,249.923Z" transform="translate(-179.517 -217.249)"/><path class="r" d="M261.025,251.23l-2.776-1.614a1.2,1.2,0,0,0-1.14,0l-1.217.779c-.3.192-.275.5.054.7l2.773,1.622a1.2,1.2,0,0,0,1.144,0l1.222-.786C261.386,251.737,261.359,251.423,261.025,251.23Z" transform="translate(-176.674 -215.595)"/><path class="r" d="M230.437,238.427l2.16,1.278a1.4,1.4,0,0,0,1.293-.012l2.135-1.269c.363-.214.368-.555.015-.762l-2.167-1.269a1.4,1.4,0,0,0-1.286.012l-2.128,1.259C230.1,237.879,230.087,238.22,230.437,238.427Z" transform="translate(-213.269 -234.577)"/><path class="r" d="M237.716,238.641l-2.194-1.286a1.4,1.4,0,0,0-1.293.012l-2.138,1.271c-.36.214-.368.558-.015.767l2.187,1.293a1.4,1.4,0,0,0,1.3-.01l2.14-1.278C238.069,239.194,238.071,238.848,237.716,238.641Z" transform="translate(-210.922 -233.199)"/><path class="r" d="M239.411,239.628l-2.218-1.3a1.42,1.42,0,0,0-1.305.01l-2.143,1.281a.414.414,0,0,0-.01.777l2.211,1.308a1.406,1.406,0,0,0,1.312-.01l2.148-1.288A.415.415,0,0,0,239.411,239.628Z" transform="translate(-208.549 -231.804)"/><path class="r" d="M231.265,240.9l2.191,1.312a1.4,1.4,0,0,0,1.31-.01l2.157-1.29a.416.416,0,0,0,.01-.779l-2.2-1.3a1.4,1.4,0,0,0-1.3.01l-2.153,1.283C230.919,240.336,230.909,240.684,231.265,240.9Z" transform="translate(-212.087 -231.095)"/><path class="r" d="M228.8,239.4l4.023,2.408a1.4,1.4,0,0,0,1.3-.012l2.15-1.278c.363-.217.37-.562.017-.772l-4.035-2.389a1.387,1.387,0,0,0-1.286.012l-2.143,1.266C228.459,238.852,228.447,239.2,228.8,239.4Z" transform="translate(-215.62 -233.193)"/><path class="r" d="M238.631,241.129l-2.226-1.317a1.4,1.4,0,0,0-1.31.01l-2.157,1.293c-.365.219-.373.57-.015.784l2.221,1.329a1.409,1.409,0,0,0,1.317-.01l2.165-1.3A.42.42,0,0,0,238.631,241.129Z" transform="translate(-209.711 -229.682)"/><path class="r" d="M240.347,242.143l-2.25-1.334a1.421,1.421,0,0,0-1.32.007l-2.165,1.305a.425.425,0,0,0-.007.794l2.245,1.344a1.414,1.414,0,0,0,1.327-.007l2.17-1.315A.424.424,0,0,0,240.347,242.143Z" transform="translate(-207.307 -228.254)"/><path class="r" d="M242.086,243.167l-2.279-1.349a1.419,1.419,0,0,0-1.329.007l-2.172,1.315a.431.431,0,0,0,0,.8l2.272,1.359a1.42,1.42,0,0,0,1.337,0l2.177-1.327A.43.43,0,0,0,242.086,243.167Z" transform="translate(-204.875 -226.809)"/><path class="r" d="M243.842,244.2l-2.3-1.366a1.432,1.432,0,0,0-1.339.007l-2.179,1.327a.435.435,0,0,0,0,.811l2.3,1.376a1.431,1.431,0,0,0,1.349,0l2.184-1.339A.434.434,0,0,0,243.842,244.2Z" transform="translate(-202.414 -225.346)"/><path class="r" d="M245.622,245.255l-2.333-1.381a1.431,1.431,0,0,0-1.349,0l-2.184,1.339a.439.439,0,0,0,.01.818l2.328,1.393a1.437,1.437,0,0,0,1.359,0l2.189-1.349A.44.44,0,0,0,245.622,245.255Z" transform="translate(-199.923 -223.866)"/><path class="r" d="M247.423,246.319l-2.359-1.4a1.448,1.448,0,0,0-1.361,0l-2.191,1.351a.445.445,0,0,0,.017.828l2.355,1.41a1.449,1.449,0,0,0,1.368,0l2.2-1.364A.444.444,0,0,0,247.423,246.319Z" transform="translate(-197.402 -222.369)"/><path class="r" d="M249.247,247.394l-2.391-1.415a1.447,1.447,0,0,0-1.371,0l-2.2,1.364a.449.449,0,0,0,.022.835l2.384,1.427a1.453,1.453,0,0,0,1.381,0l2.2-1.376C249.649,248,249.634,247.625,249.247,247.394Z" transform="translate(-194.851 -220.853)"/><path class="r" d="M245.118,249.273l2.413,1.444a1.453,1.453,0,0,0,1.39,0l2.208-1.385c.373-.236.356-.614-.039-.847l-2.418-1.434a1.453,1.453,0,0,0-1.381,0l-2.2,1.376C244.714,248.662,244.728,249.039,245.118,249.273Z" transform="translate(-192.267 -219.318)"/><path class="r" d="M253.006,250.442c.373-.236.353-.619-.046-.855l-2.45-1.451a1.453,1.453,0,0,0-1.39,0l-2.211,1.388c-.375.236-.358.618.037.855l2.442,1.461a1.47,1.47,0,0,0,1.4,0Z" transform="translate(-189.653 -217.765)"/><path class="r" d="M254.9,251.567c.375-.239.353-.626-.051-.864l-2.479-1.468a1.47,1.47,0,0,0-1.4,0l-2.218,1.4c-.375.236-.355.623.044.862l2.474,1.48a1.469,1.469,0,0,0,1.412,0Z" transform="translate(-187.006 -216.192)"/><path class="r" d="M250.669,252.629l2.506,1.5a1.482,1.482,0,0,0,1.422,0l2.228-1.427c.377-.241.351-.633-.058-.874l-2.51-1.488a1.482,1.482,0,0,0-1.412,0l-2.225,1.415C250.242,252,250.264,252.388,250.669,252.629Z" transform="translate(-184.326 -214.6)"/><path class="r" d="M230.053,241.365c-.368.219-.377.57-.024.784l2.194,1.327a1.393,1.393,0,0,0,1.312-.007l2.17-1.3c.368-.219.375-.57.017-.787l-2.2-1.317a1.406,1.406,0,0,0-1.305.01Z" transform="translate(-213.858 -229.321)"/><path class="r" d="M227.146,240.385l5.089,3.083a1.386,1.386,0,0,0,1.3-.01l2.165-1.29c.365-.217.375-.565.022-.777l-5.1-3.061a1.385,1.385,0,0,0-1.288.012l-2.155,1.271C226.813,239.83,226.8,240.176,227.146,240.385Z" transform="translate(-217.984 -231.802)"/><path class="r" d="M231.707,242.371c-.368.222-.377.577-.017.794l2.218,1.342a1.405,1.405,0,0,0,1.322,0l2.177-1.312a.426.426,0,0,0,.01-.8l-2.223-1.332a1.4,1.4,0,0,0-1.315.007Z" transform="translate(-211.482 -227.893)"/><path class="r" d="M233.369,244.192l2.245,1.361a1.41,1.41,0,0,0,1.332,0l2.184-1.327a.429.429,0,0,0,0-.8l-2.252-1.349a1.41,1.41,0,0,0-1.325,0l-2.177,1.315A.429.429,0,0,0,233.369,244.192Z" transform="translate(-209.079 -226.448)"/><path class="r" d="M235.069,245.232l2.272,1.376a1.421,1.421,0,0,0,1.344,0l2.189-1.334a.436.436,0,0,0,0-.813l-2.277-1.366a1.423,1.423,0,0,0-1.334.007l-2.184,1.327A.434.434,0,0,0,235.069,245.232Z" transform="translate(-206.646 -224.986)"/><path class="r" d="M236.791,246.285l2.3,1.393a1.427,1.427,0,0,0,1.354,0l2.2-1.349a.441.441,0,0,0-.007-.821l-2.306-1.381a1.421,1.421,0,0,0-1.344,0l-2.191,1.337A.439.439,0,0,0,236.791,246.285Z" transform="translate(-204.184 -223.506)"/><path class="r" d="M238.532,247.351l2.328,1.41a1.428,1.428,0,0,0,1.361,0l2.206-1.361a.445.445,0,0,0-.015-.828l-2.333-1.4a1.439,1.439,0,0,0-1.356,0l-2.2,1.349A.445.445,0,0,0,238.532,247.351Z" transform="translate(-201.694 -222.008)"/><path class="r" d="M240.293,248.429l2.357,1.427a1.446,1.446,0,0,0,1.373,0l2.211-1.373a.451.451,0,0,0-.022-.838l-2.362-1.415a1.433,1.433,0,0,0-1.364,0l-2.206,1.361A.45.45,0,0,0,240.293,248.429Z" transform="translate(-199.172 -220.493)"/><path class="r" d="M242.077,249.522l2.386,1.444a1.452,1.452,0,0,0,1.383,0l2.218-1.385a.457.457,0,0,0-.029-.847l-2.389-1.432a1.45,1.45,0,0,0-1.376,0l-2.211,1.376A.456.456,0,0,0,242.077,249.522Z" transform="translate(-196.619 -218.958)"/><path class="r" d="M243.884,250.625l2.413,1.463a1.462,1.462,0,0,0,1.4,0l2.226-1.4c.375-.236.358-.618-.034-.855l-2.42-1.451a1.456,1.456,0,0,0-1.385,0l-2.218,1.388A.46.46,0,0,0,243.884,250.625Z" transform="translate(-194.036 -217.405)"/><path class="r" d="M245.712,251.746l2.445,1.478a1.462,1.462,0,0,0,1.4,0l2.23-1.412c.377-.239.358-.626-.041-.864l-2.45-1.468a1.462,1.462,0,0,0-1.4,0l-2.226,1.4C245.3,251.12,245.318,251.505,245.712,251.746Z" transform="translate(-191.42 -215.833)"/><path class="r" d="M251.454,254.382l2.238-1.424c.377-.241.355-.633-.049-.874l-2.481-1.488a1.473,1.473,0,0,0-1.407,0L247.524,252c-.377.241-.36.631.039.872l2.474,1.5A1.472,1.472,0,0,0,251.454,254.382Z" transform="translate(-188.772 -214.241)"/><path class="r" d="M258.985,255.281l-5.914-3.545a1.472,1.472,0,0,0-1.417,0l-2.24,1.427c-.377.241-.358.635.046.881l5.9,3.572a1.478,1.478,0,0,0,1.437.007l2.25-1.446C259.426,255.926,259.4,255.527,258.985,255.281Z" transform="translate(-186.059 -212.611)"/><path class="r" d="M229.222,243.687l2.2,1.346a1.393,1.393,0,0,0,1.32-.007l2.187-1.315a.427.427,0,0,0,.017-.8l-2.206-1.337a1.388,1.388,0,0,0-1.31.007l-2.182,1.305C228.878,243.113,228.866,243.468,229.222,243.687Z" transform="translate(-215.016 -227.152)"/><path class="r" d="M230.048,241.821l-2.569-1.578a.9.9,0,0,0-.85,0l-3.2,1.892c-.243.144-.258.375-.029.514l2.562,1.592a.9.9,0,0,0,.855,0l3.209-1.9C230.267,242.191,230.277,241.96,230.048,241.821Z" transform="translate(-223.235 -228.987)"/><path class="r" d="M231.712,242.837l-2.6-1.6a.913.913,0,0,0-.857,0l-3.212,1.909c-.243.144-.256.377-.027.521l2.593,1.609a.909.909,0,0,0,.862,0l3.219-1.921C231.933,243.212,231.943,242.978,231.712,242.837Z" transform="translate(-220.915 -227.557)"/><path class="r" d="M233.394,243.865l-2.632-1.617a.916.916,0,0,0-.862,0l-3.221,1.926c-.246.146-.256.38-.024.526l2.625,1.629a.912.912,0,0,0,.867,0l3.231-1.941C233.621,244.245,233.628,244.008,233.394,243.865Z" transform="translate(-218.568 -226.112)"/><path class="r" d="M236.033,245.479l-3.6-2.208a.917.917,0,0,0-.869,0l-3.231,1.943c-.246.146-.256.385-.019.531l3.589,2.23a.925.925,0,0,0,.877,0l3.243-1.963A.287.287,0,0,0,236.033,245.479Z" transform="translate(-216.193 -224.648)"/><path class="r" d="M247.222,252.317l-3.884-2.384a.95.95,0,0,0-.913,0l-3.294,2.053a.307.307,0,0,0,0,.567l3.874,2.408a.951.951,0,0,0,.92,0l3.3-2.075A.311.311,0,0,0,247.222,252.317Z" transform="translate(-200.693 -215.101)"/><path class="r" d="M248.479,253.083l-2.868-1.76a.952.952,0,0,0-.92,0l-3.307,2.077a.313.313,0,0,0,.01.577l2.861,1.777a.959.959,0,0,0,.928,0l3.316-2.1A.313.313,0,0,0,248.479,253.083Z" transform="translate(-197.462 -213.111)"/><path class="r" d="M248.268,254.806l-2.9-1.792a.953.953,0,0,0-.928,0l-1.208.762a.317.317,0,0,0,.017.582l2.9,1.8a.961.961,0,0,0,.935,0l1.208-.769A.318.318,0,0,0,248.268,254.806Z" transform="translate(-194.806 -210.689)"/><path class="r" d="M252.106,257.172l-2.976-1.838a.968.968,0,0,0-.942-.007l-1.213.777a.325.325,0,0,0,.024.6l2.971,1.846a.97.97,0,0,0,.95.007l1.217-.784C252.391,257.605,252.376,257.337,252.106,257.172Z" transform="translate(-189.433 -207.365)"/><path class="r" d="M250.174,255.981l-2.939-1.816a.961.961,0,0,0-.935,0l-1.208.769a.321.321,0,0,0,.019.589l2.934,1.824a.962.962,0,0,0,.942,0l1.213-.774C250.454,256.41,250.441,256.147,250.174,255.981Z" transform="translate(-192.137 -209.038)"/><path class="r" d="M246.081,254.9l2.939,1.814a.962.962,0,0,0,.942,0l1.208-.772c.251-.161.239-.426-.029-.589l-2.941-1.807a.967.967,0,0,0-.935,0l-1.205.767A.319.319,0,0,0,246.081,254.9Z" transform="translate(-190.747 -209.92)"/><path class="r" d="M254.165,256.606l-19.66-12.07a.925.925,0,0,0-.877,0l-3.243,1.963a.292.292,0,0,0-.015.541l19.6,12.175a.939.939,0,0,0,.911,0l3.292-2.05A.3.3,0,0,0,254.165,256.606Z" transform="translate(-213.246 -222.834)"/><path class="r" d="M225.486,241.373l6.983,4.281a1.388,1.388,0,0,0,1.31-.007l2.179-1.3c.368-.219.38-.572.024-.789l-7-4.247a1.376,1.376,0,0,0-1.29.01l-2.165,1.281C225.158,240.813,225.141,241.161,225.486,241.373Z" transform="translate(-220.361 -230.403)"/><path class="r" d="M230.888,244.716l2.226,1.364a1.4,1.4,0,0,0,1.329,0l2.194-1.327a.431.431,0,0,0,.012-.8l-2.23-1.354a1.4,1.4,0,0,0-1.322.007l-2.189,1.315A.432.432,0,0,0,230.888,244.716Z" transform="translate(-212.633 -225.702)"/><path class="r" d="M232.572,245.76l2.252,1.381a1.416,1.416,0,0,0,1.342,0l2.2-1.337a.437.437,0,0,0,.007-.813l-2.26-1.371a1.406,1.406,0,0,0-1.329,0l-2.2,1.329A.437.437,0,0,0,232.572,245.76Z" transform="translate(-210.221 -224.235)"/><path class="r" d="M234.278,246.815l2.279,1.4a1.418,1.418,0,0,0,1.349,0l2.209-1.351a.441.441,0,0,0,0-.821l-2.284-1.385a1.417,1.417,0,0,0-1.342,0l-2.2,1.342A.44.44,0,0,0,234.278,246.815Z" transform="translate(-207.781 -222.75)"/><path class="r" d="M236,247.884l2.308,1.415a1.423,1.423,0,0,0,1.359,0l2.213-1.361a.448.448,0,0,0,0-.833l-2.313-1.4a1.422,1.422,0,0,0-1.351,0l-2.208,1.351A.446.446,0,0,0,236,247.884Z" transform="translate(-205.312 -221.248)"/><path class="r" d="M237.751,248.967l2.335,1.429a1.428,1.428,0,0,0,1.371,0l2.221-1.373a.453.453,0,0,0-.012-.84l-2.34-1.42a1.428,1.428,0,0,0-1.361,0l-2.216,1.364A.452.452,0,0,0,237.751,248.967Z" transform="translate(-202.812 -219.728)"/><path class="r" d="M239.521,250.063l2.364,1.446a1.434,1.434,0,0,0,1.381,0l2.226-1.388a.457.457,0,0,0-.017-.847l-2.369-1.439a1.439,1.439,0,0,0-1.373,0l-2.221,1.376A.458.458,0,0,0,239.521,250.063Z" transform="translate(-200.282 -218.189)"/><path class="r" d="M241.311,251.169l2.393,1.468a1.446,1.446,0,0,0,1.39,0l2.235-1.4a.465.465,0,0,0-.027-.859l-2.4-1.454a1.438,1.438,0,0,0-1.383,0l-2.228,1.388A.462.462,0,0,0,241.311,251.169Z" transform="translate(-197.721 -216.632)"/><path class="r" d="M243.123,252.292l2.423,1.485a1.45,1.45,0,0,0,1.4,0l2.24-1.412a.469.469,0,0,0-.032-.867l-2.428-1.473a1.451,1.451,0,0,0-1.393,0l-2.235,1.4A.468.468,0,0,0,243.123,252.292Z" transform="translate(-195.128 -215.054)"/><path class="r" d="M251.034,252.634l-2.459-1.49a1.462,1.462,0,0,0-1.4,0l-2.24,1.415a.474.474,0,0,0,.029.874l2.452,1.5a1.468,1.468,0,0,0,1.415,0l2.247-1.427C251.452,253.269,251.433,252.877,251.034,252.634Z" transform="translate(-192.503 -213.458)"/><path class="r" d="M258.686,257.27l-8.242-5a1.468,1.468,0,0,0-1.415,0l-2.25,1.429a.481.481,0,0,0,.037.884l8.225,5.038a1.483,1.483,0,0,0,1.439.01l2.262-1.459C259.124,257.923,259.1,257.521,258.686,257.27Z" transform="translate(-189.845 -211.842)"/><path class="r" d="M258.706,252.977l-2.542-1.5a1.487,1.487,0,0,0-1.424,0l-2.23,1.427c-.377.244-.353.638.056.884L255.1,255.3a1.486,1.486,0,0,0,1.434,0l2.235-1.439C259.149,253.62,259.12,253.223,258.706,252.977Z" transform="translate(-181.613 -212.988)"/><path class="r" d="M241.125,240.629l-2.245-1.315a1.413,1.413,0,0,0-1.312.012l-2.15,1.29a.419.419,0,0,0,0,.784l2.24,1.325a1.414,1.414,0,0,0,1.32-.01l2.155-1.3A.419.419,0,0,0,241.125,240.629Z" transform="translate(-206.147 -230.394)"/><path class="r" d="M242.862,241.64l-2.272-1.329a1.426,1.426,0,0,0-1.322.01l-2.157,1.3a.422.422,0,0,0,0,.791l2.265,1.339a1.424,1.424,0,0,0,1.332-.007l2.16-1.312A.424.424,0,0,0,242.862,241.64Z" transform="translate(-203.718 -228.966)"/><path class="r" d="M244.615,242.666l-2.3-1.347a1.429,1.429,0,0,0-1.334.01l-2.16,1.312a.428.428,0,0,0,0,.8l2.294,1.356a1.432,1.432,0,0,0,1.339-.007l2.17-1.325A.428.428,0,0,0,244.615,242.666Z" transform="translate(-201.258 -227.523)"/><path class="r" d="M246.393,243.7l-2.325-1.364a1.437,1.437,0,0,0-1.342.007l-2.169,1.327a.433.433,0,0,0,.012.808l2.321,1.371a1.436,1.436,0,0,0,1.351,0l2.174-1.337A.432.432,0,0,0,246.393,243.7Z" transform="translate(-198.771 -226.062)"/><path class="r" d="M248.192,244.751l-2.355-1.378a1.443,1.443,0,0,0-1.351.007l-2.177,1.337a.438.438,0,0,0,.02.816l2.347,1.39a1.446,1.446,0,0,0,1.364,0l2.179-1.349C248.586,245.343,248.574,244.975,248.192,244.751Z" transform="translate(-196.252 -224.582)"/><path class="r" d="M250.012,245.814l-2.381-1.4a1.446,1.446,0,0,0-1.364,0l-2.182,1.349a.443.443,0,0,0,.027.825L246.486,248a1.452,1.452,0,0,0,1.373,0l2.187-1.359C250.416,246.411,250.4,246.041,250.012,245.814Z" transform="translate(-193.704 -223.087)"/><path class="r" d="M251.854,246.89l-2.411-1.412a1.459,1.459,0,0,0-1.373,0l-2.189,1.361c-.37.231-.356.606.032.835l2.406,1.422a1.458,1.458,0,0,0,1.383,0l2.194-1.373C252.266,247.494,252.246,247.119,251.854,246.89Z" transform="translate(-191.124 -221.571)"/><path class="r" d="M253.721,247.977l-2.442-1.429a1.465,1.465,0,0,0-1.383,0l-2.194,1.376c-.373.231-.355.609.037.842l2.435,1.439a1.462,1.462,0,0,0,1.4,0l2.2-1.383C254.139,248.588,254.117,248.211,253.721,247.977Z" transform="translate(-188.513 -220.038)"/><path class="r" d="M252.052,251.331a1.475,1.475,0,0,0,1.4,0l2.206-1.4c.372-.236.348-.618-.054-.855l-2.471-1.446a1.475,1.475,0,0,0-1.4,0l-2.2,1.388c-.373.236-.353.616.046.852Z" transform="translate(-185.87 -218.486)"/><path class="r" d="M257.52,250.2l-2.5-1.466a1.481,1.481,0,0,0-1.4,0l-2.206,1.4c-.375.236-.351.623.051.862l2.5,1.476a1.48,1.48,0,0,0,1.415,0l2.213-1.41C257.956,250.821,257.927,250.434,257.52,250.2Z" transform="translate(-183.194 -216.914)"/><path class="r" d="M262.117,252.887l-5.328-3.122a.944.944,0,0,0-.9,0l-2.705,1.726c-.239.153-.222.4.039.555l5.315,3.144a.95.95,0,0,0,.913,0l2.715-1.751C262.4,253.292,262.383,253.041,262.117,252.887Z" transform="translate(-180.506 -215.338)"/></g></g></g><g transform="translate(0 0)"><path class="j" d="M285.851,327.509c-7.052,2.087-13.6,5.956-20.787,7.753-6.3,2.055-12.708,3.574-19.114,5.247-4.059,1.059-8.138,2.42-11.546,4.938-1.539,1.137-1.271,3.528-1.12,5.206.253,2.807,4,4.181,6.233,4.94a20.744,20.744,0,0,0,9.711,1.013c4.4-.667,7.948-2.907,11.637-5.206,3.392-2.116,6.845-4.137,10.422-5.922,3.487-1.739,7.171-2.92,10.706-4.534,3.375-1.541,5.951-3.906,6.285-7.753a12.577,12.577,0,0,0,.012-2.995,4.332,4.332,0,0,0-1.23-2.525.992.992,0,0,0-.526-.295,1.154,1.154,0,0,0-.47.068Z" transform="translate(-51.417 8.456)"/><path class="k" d="M277.764,325.141a25.829,25.829,0,0,0-3.389.034c-2.759.195-5.491.66-8.245.925a44.618,44.618,0,0,1-8.719-.251c-.911-.088-1.824-.161-2.739-.178-7.356-.134-14.8,4.6-18.4,10.965-.022-.012-.041-.032-.066-.02-3.029,1.271-1.8,5.4-2.058,7.933-.185,1.807-1.042,3.66-.894,5.481a4.568,4.568,0,0,0,2.325,3.277,19.108,19.108,0,0,0,15.688,2.783c4.074-1.144,7.492-3.584,11.142-5.647A114.371,114.371,0,0,1,276.4,343.33c2.515-.994,5.186-1.77,7.458-3.3,2.941-1.982,5.228-5.408,3.657-8.961C285.648,326.848,281.869,325.389,277.764,325.141Z" transform="translate(-51.314 5.197)"/><path class="v" d="M263.058,330.163a32.31,32.31,0,0,0-7.222-4.366,47.57,47.57,0,0,1-8.086-.285c-.908-.085-1.819-.158-2.732-.178a13.191,13.191,0,0,0-3.251,2.043.643.643,0,0,0-.2.358c-.1.119-.2.241-.282.338a6.235,6.235,0,0,0-1.113,2.014,5.227,5.227,0,0,0,.964,4.532,12.184,12.184,0,0,0,3.119,3.6,5.673,5.673,0,0,0,2.045.969,2.624,2.624,0,0,0,2.1-.234.443.443,0,0,0,.129-.309,31.387,31.387,0,0,1,11.116-3.126c1.461-.195,3.879-.375,4.872-1.641C265.544,332.572,264.054,330.952,263.058,330.163Z" transform="translate(-41.653 5.534)"/><path class="j" d="M271.575,318.373c-7.052,2.087-13.6,5.958-20.787,7.755-6.3,2.055-12.708,3.575-19.114,5.245-4.059,1.062-8.138,2.423-11.547,4.941-1.539,1.137-1.271,3.526-1.12,5.2.253,2.81,4,4.181,6.233,4.943a20.709,20.709,0,0,0,9.711,1.011c4.4-.665,7.948-2.9,11.637-5.206,3.392-2.114,6.845-4.137,10.422-5.919,3.487-1.739,7.171-2.919,10.706-4.536,3.375-1.539,5.951-3.9,6.285-7.75a12.571,12.571,0,0,0,.012-2.995,4.345,4.345,0,0,0-1.23-2.528,1,1,0,0,0-.526-.295,1.2,1.2,0,0,0-.47.071Z" transform="translate(-71.902 -4.651)"/><path class="k" d="M263.488,316a26.689,26.689,0,0,0-3.389.034c-2.759.2-5.491.662-8.245.928a44.82,44.82,0,0,1-8.72-.251c-.911-.088-1.824-.161-2.739-.178-7.356-.136-14.8,4.6-18.4,10.965-.022-.012-.041-.032-.066-.022-3.029,1.273-1.8,5.4-2.058,7.935-.185,1.807-1.042,3.66-.894,5.481a4.568,4.568,0,0,0,2.325,3.275,19.09,19.09,0,0,0,15.688,2.783c4.074-1.142,7.492-3.582,11.142-5.647a114.367,114.367,0,0,1,13.989-7.112c2.515-1,5.184-1.77,7.458-3.3,2.941-1.982,5.228-5.41,3.657-8.961C271.37,317.712,267.593,316.253,263.488,316Z" transform="translate(-71.799 -7.91)"/><path class="v" d="M249.505,325.2c1.025-1.31-.463-2.932-1.458-3.721a31.354,31.354,0,0,0-8.186-4.748c-1.768-.034-3.526-.18-5.333-.353-.911-.088-1.824-.161-2.739-.178-.241,0-.482.039-.723.044a12.862,12.862,0,0,0-4.31,2.452.628.628,0,0,0-.207.356c-.1.122-.2.241-.28.341a6.209,6.209,0,0,0-1.113,2.014,5.229,5.229,0,0,0,.964,4.531,12.2,12.2,0,0,0,3.119,3.6,5.614,5.614,0,0,0,2.045.969,2.623,2.623,0,0,0,2.1-.231.44.44,0,0,0,.127-.312,31.4,31.4,0,0,1,11.118-3.126C246.094,326.647,248.512,326.467,249.505,325.2Z" transform="translate(-63.193 -7.573)"/><g class="a" transform="translate(35.914 343.455)"><path class="h" d="M187.952,338.476a5.3,5.3,0,0,1,4.458-.156L233.968,359.8l36.524-26.87c.071-.049.146-.1.224-.141,1-.577,3.319-2.61,4.643-2.235,1.668.463,1.58,3.479.772,4.446L251.56,364.983l60.472,8.6c.368.068,1.485-1.563,1.782-1.429.891.4.633,2.788.492,3.484a1.8,1.8,0,0,1-.962,1.169,5.018,5.018,0,0,1-2.739.56l-62.208-1.1,6.419,27.13-.012,1.977a1.584,1.584,0,0,1-.972,1.585,4.321,4.321,0,0,1-1.339.477c-1.778.326-3.665-.236-4.212-1.256l-19.372-28.116-50.545,13.193a5.08,5.08,0,0,1-4.071-.533c-1.093-.779-1.488-3.467-.273-4.171.083-.046,1.183-.2,1.273-.243l44.737-18.462-32.353-26.792c-.928-.691-1.446-3.479-.485-4.2.088-.063.662,1.683.76,1.627" transform="translate(-173.272 -330.504)"/></g><g transform="translate(167.305 371.698)"><path class="i" d="M233.7,343c3.6-2.082,6.516-.4,6.526,3.718a14.25,14.25,0,0,1-6.484,11.232c-3.582,2.07-6.492.409-6.5-3.733A14.282,14.282,0,0,1,233.7,343" transform="translate(-227.233 -342.103)"/><path class="i" d="M234.37,361.92l-6.261-3.67,8.97-15.961,6.495,3.783Z" transform="translate(-225.976 -341.836)"/><g transform="translate(6.589 3.842)"><path class="i" d="M236.4,344.575c3.6-2.082,6.516-.4,6.528,3.718a14.253,14.253,0,0,1-6.487,11.232c-3.579,2.067-6.492.409-6.5-3.733a14.282,14.282,0,0,1,6.462-11.218" transform="translate(-229.939 -343.681)"/></g><g transform="translate(6.957 4.315)"><path class="j" d="M236.187,344.717c3.4-1.963,6.146-.373,6.158,3.511a13.445,13.445,0,0,1-6.119,10.595c-3.377,1.953-6.124.387-6.136-3.521a13.485,13.485,0,0,1,6.1-10.585" transform="translate(-230.09 -343.875)"/></g></g><g transform="translate(105.414 402.887)"><path class="i" d="M208.277,355.805c3.6-2.082,6.513-.4,6.526,3.721a14.25,14.25,0,0,1-6.484,11.23c-3.582,2.07-6.492.409-6.5-3.733a14.282,14.282,0,0,1,6.462-11.218" transform="translate(-201.815 -354.912)"/><path class="i" d="M208.952,374.729l-6.261-3.67,8.97-15.96,6.5,3.783Z" transform="translate(-200.558 -354.645)"/><g transform="translate(6.589 3.842)"><path class="i" d="M210.983,357.384c3.6-2.082,6.516-.4,6.528,3.718a14.257,14.257,0,0,1-6.487,11.232c-3.582,2.067-6.492.409-6.5-3.733a14.282,14.282,0,0,1,6.462-11.218" transform="translate(-204.521 -356.49)"/></g><g transform="translate(6.957 4.316)"><path class="j" d="M210.769,357.528c3.4-1.965,6.146-.375,6.158,3.509a13.445,13.445,0,0,1-6.119,10.594c-3.38,1.95-6.124.387-6.136-3.521a13.477,13.477,0,0,1,6.1-10.582" transform="translate(-204.672 -356.685)"/></g></g><g transform="translate(29.436 386.745)"><path class="i" d="M177.074,349.174c3.6-2.079,6.516-.394,6.528,3.721a14.254,14.254,0,0,1-6.484,11.232c-3.582,2.067-6.494.407-6.506-3.735a14.282,14.282,0,0,1,6.462-11.218" transform="translate(-170.612 -348.283)"/><path class="i" d="M177.749,368.1l-6.261-3.671,8.97-15.96,6.495,3.783Z" transform="translate(-169.354 -348.016)"/><g transform="translate(6.589 3.841)"><path class="i" d="M179.78,350.754c3.606-2.082,6.516-.4,6.528,3.718a14.251,14.251,0,0,1-6.484,11.232c-3.582,2.07-6.494.409-6.506-3.733a14.288,14.288,0,0,1,6.462-11.218" transform="translate(-173.318 -349.86)"/></g><g transform="translate(6.957 4.315)"><path class="j" d="M179.566,350.9c3.4-1.965,6.146-.375,6.158,3.509A13.443,13.443,0,0,1,179.607,365c-3.38,1.953-6.126.387-6.139-3.521a13.477,13.477,0,0,1,6.1-10.582" transform="translate(-173.469 -350.055)"/></g></g><g transform="translate(41.177 338.437)"><path class="i" d="M181.9,329.337c3.6-2.082,6.516-.4,6.526,3.718a14.254,14.254,0,0,1-6.484,11.232c-3.582,2.067-6.492.409-6.5-3.733a14.282,14.282,0,0,1,6.462-11.218" transform="translate(-175.434 -328.443)"/><path class="i" d="M182.571,348.259l-6.261-3.67,8.97-15.96,6.5,3.783Z" transform="translate(-174.177 -328.177)"/><g transform="translate(6.589 3.841)"><path class="i" d="M184.6,330.913c3.6-2.079,6.516-.394,6.528,3.721a14.257,14.257,0,0,1-6.487,11.232c-3.582,2.067-6.492.409-6.5-3.733a14.29,14.29,0,0,1,6.462-11.22" transform="translate(-178.14 -330.021)"/></g><g transform="translate(6.957 4.315)"><path class="j" d="M184.388,331.057c3.4-1.963,6.146-.373,6.158,3.509a13.446,13.446,0,0,1-6.119,10.6c-3.377,1.95-6.124.385-6.136-3.521a13.478,13.478,0,0,1,6.1-10.585" transform="translate(-178.291 -330.215)"/></g></g><g transform="translate(128.492 330.297)"><path class="i" d="M217.755,325.993c3.6-2.082,6.513-.4,6.526,3.721a14.25,14.25,0,0,1-6.484,11.23c-3.582,2.07-6.492.409-6.5-3.733a14.282,14.282,0,0,1,6.462-11.218" transform="translate(-211.293 -325.1)"/><path class="i" d="M218.43,344.917l-6.261-3.671,8.97-15.96,6.5,3.783Z" transform="translate(-210.036 -324.833)"/><g transform="translate(6.589 3.842)"><path class="i" d="M220.461,327.572c3.6-2.082,6.516-.4,6.528,3.718a14.253,14.253,0,0,1-6.487,11.232c-3.582,2.067-6.492.409-6.5-3.733a14.282,14.282,0,0,1,6.462-11.218" transform="translate(-213.999 -326.678)"/></g><g transform="translate(6.957 4.316)"><path class="j" d="M220.247,327.716c3.4-1.965,6.146-.375,6.158,3.509a13.445,13.445,0,0,1-6.119,10.594c-3.38,1.953-6.124.387-6.136-3.521a13.477,13.477,0,0,1,6.1-10.582" transform="translate(-214.15 -326.873)"/></g></g><g transform="translate(35.914 330.297)"><path class="q" d="M187.952,333.072a5.316,5.316,0,0,1,4.458-.156l41.557,17.42,36.524-22.813c.071-.049.146-.1.224-.141,1-.575,3.319-2.61,4.643-2.235,1.668.465,1.58,3.482.772,4.449L251.56,355.519l60.472,12.657c.368.068,1.485-1.563,1.782-1.429.891.4.633,2.788.492,3.484a1.791,1.791,0,0,1-.962,1.169,5,5,0,0,1-2.739.56L248.4,366.8l6.419,31.192-.012,1.975a1.582,1.582,0,0,1-.972,1.585,4.261,4.261,0,0,1-1.339.477c-1.778.329-3.665-.236-4.212-1.256L228.908,368.6l-50.545,17.252a5.08,5.08,0,0,1-4.071-.533c-1.093-.777-1.488-3.467-.273-4.169.083-.049,1.183-.2,1.273-.246l44.737-22.521-32.353-22.733c-.928-.691-1.446-3.477-.485-4.2.088-.063.662,1.68.76,1.624" transform="translate(-173.272 -325.1)"/></g><g transform="translate(36.19 329.845)"><path class="r" d="M187.789,331.035a5.306,5.306,0,0,1,4.458-.158L233.8,343.5l36.524-17.868c.071-.049.146-.1.224-.141a5.321,5.321,0,0,1,3.867-.382c1.665.463,2.357,1.629,1.549,2.6L251.4,348.686l60.472,17.522c1.471.275,2.464,1.127,2.274,2.055a1.791,1.791,0,0,1-.962,1.169,5,5,0,0,1-2.739.56l-62.208-10.025,6.406,38.109a1.585,1.585,0,0,1-.972,1.588,4.389,4.389,0,0,1-1.339.477c-1.778.326-3.665-.236-4.212-1.256l-19.372-37.121L178.2,384.153a5.08,5.08,0,0,1-4.071-.533c-1.093-.779-.959-1.9.258-2.608.08-.046.166-.09.256-.134l45.224-29.331-32.353-17.936a1.369,1.369,0,0,1,0-2.4,3.137,3.137,0,0,1,.275-.178" transform="translate(-173.386 -324.915)"/></g><path class="q" d="M216.5,327.544v19.421h0c-.017,1.627-1.108,3.253-3.258,4.495a17.02,17.02,0,0,1-15.484,0c-2.138-1.242-3.209-2.868-3.209-4.495V327.958Z" transform="translate(-106.825 8.703)"/><g transform="translate(87.727 330.304)"><path class="r" d="M197.775,326.966c4.3-2.484,11.281-2.484,15.554,0s4.217,6.5-.085,8.987a17,17,0,0,1-15.484,0c-4.273-2.484-4.288-6.5.015-8.987" transform="translate(-194.551 -325.103)"/></g><path class="o" d="M215.049,320.315v17.8h0c-.017,1.49-1.015,2.983-2.988,4.12a15.6,15.6,0,0,1-14.193,0c-1.96-1.137-2.941-2.63-2.941-4.12V320.692Z" transform="translate(-106.285 -1.67)"/><g transform="translate(88.64 313.195)"><path class="q" d="M197.882,319.784a15.738,15.738,0,0,1,14.259,0c3.92,2.279,3.867,5.963-.078,8.242a15.6,15.6,0,0,1-14.193,0c-3.92-2.279-3.932-5.963.012-8.242" transform="translate(-194.926 -318.077)"/></g><path class="i" d="M185.436,341.742c18.4,27.043,86.253-35.087,86.253-35.087-4.687,21.345,7.147,35.3,3.1,79.1a3.718,3.718,0,0,0,.711,2.569c1.385,1.843,4.407,5.2,8.469,5.89,7.215,1.235,11.483-1.308,13.339-2.866a3.487,3.487,0,0,0,1.225-2.342c.813-8.2,5.364-54.518,6.027-71.247.511-12.878,2.6-39.534-18.328-44.014-15.131-3.238-65.257,16.407-65.257,16.407S165.122,311.889,185.436,341.742Z" transform="translate(-126.287 -69.008)"/><g transform="translate(10.671 223.456)"><path class="v" d="M339.45,322.1,276.4,285.7c-9.991-5.771-25.991-6-36.388-.516L171.5,321.308c-11.135,5.876-11.486,15.954-.811,22.117l69.449,40.1c10.689,6.173,28.087,5.936,38.178-.541l62.135-39.811c9.428-6.039,8.982-15.306-1-21.067" transform="translate(-162.905 -281.222)"/></g><path class="w" d="M165.651,322.428c.6-.387,1.232-.762,1.911-1.12l68.522-36.12c10.4-5.481,26.4-5.255,36.388.516l63.046,36.4a17.485,17.485,0,0,1,6.073,5.471c-5.644,6.6-18.362,9.494-25.448,12.406-12.786,5.252-24.043,13.392-35.462,21.038-5.644,3.779-11.208,8.089-17.9,9.637a38.919,38.919,0,0,1-21.423-1.062c-11.561-4.02-20.534-13.512-30.917-19.7a116.931,116.931,0,0,0-19.886-9.438,177.857,177.857,0,0,1-16.514-7.2c-3.423-1.658-6.991-4.229-8.069-8.074A9.142,9.142,0,0,1,165.651,322.428Z" transform="translate(-148.302 -57.766)"/><path class="x" d="M238.86,230.434c.054-1.478-3.38-7.931-4.977-10.85-1.415-9.547-2.978-17.256-2.978-17.256-10.787-9.158-36.476,30.542-36.476,30.542l-2.786,36.49c13.843,12.742,26.687,5.525,26.687,5.525.282-16.553,11.1-13.363,16-20.568,2.1-3.085,2.092-11.388,1.288-20.473C237.153,232.815,238.824,231.471,238.86,230.434Z" transform="translate(-110.996 -172.944)"/><path class="j" d="M206.067,277.756c13.285,4.02,20.768-2.033,24.491-13.149,0,0,.884-1.317-4.21-2.849s-7.1-17.244-1.865-16.022,4.992,8.4,7.222,9.007,3.467-1.5,1.809-6.5,7.977-6.151,4.889-11.929-.957-12.206,5.087-15.043,2.155-26.1-2.5-24.751-5.564,6-8.32.655-4.945-9.406-9.087-7.03-1.515,5.493-6.38,3.516-5.824-.594-7.507,2.859,1.144,5.483-4.446,5.966-3.764,5.408-9.065,10.051-14.812,6.871-13.891,23.232S194.046,274.116,206.067,277.756Z" transform="translate(-124.501 -189.452)"/><path class="k" d="M223.619,222.482c-.134-.628-.748-.614-1.264-.64-.765-.039-1.534-.063-2.3-.1a39.775,39.775,0,0,1-6.684-.786,30.8,30.8,0,0,1-4.736-1.517q-1.136-.464-2.247-.989a9.957,9.957,0,0,0-2.092-.9.861.861,0,0,0-1.02.726c-.212.974,1.057,1.41,1.722,1.77a33.531,33.531,0,0,0,3.087,1.476,32.42,32.42,0,0,0,12.793,2.674,6.2,6.2,0,0,0,1.977-.373,1.131,1.131,0,0,0,.8-1.062A1.362,1.362,0,0,0,223.619,222.482Z" transform="translate(-94.34 -149.158)"/><path class="i" d="M219.879,220.958a2.6,2.6,0,0,0-1.556-2.3,4,4,0,0,0-1.144-.107,21,21,0,0,0-3.36.253,4.426,4.426,0,0,0-2.873,1.23,2.425,2.425,0,0,0,1.992,3.7,13.618,13.618,0,0,0,4.692.046,2.527,2.527,0,0,0,2.257-2.238A2.947,2.947,0,0,0,219.879,220.958Z" transform="translate(-83.817 -147.692)"/><g transform="translate(95.216 53.882)"><path class="i" d="M204.693,212.556c3.942-2.274,7.125-.433,7.137,4.066a15.581,15.581,0,0,1-7.091,12.282c-3.915,2.262-7.1.448-7.113-4.081a15.623,15.623,0,0,1,7.066-12.267" transform="translate(-197.627 -211.58)"/><path class="i" d="M205.431,233.248l-6.846-4.013,9.808-17.452,7.1,4.136Z" transform="translate(-196.252 -211.289)"/><g transform="translate(7.205 4.2)"><path class="i" d="M207.652,214.281c3.942-2.274,7.125-.433,7.137,4.069a15.581,15.581,0,0,1-7.091,12.279c-3.915,2.262-7.1.448-7.113-4.081a15.627,15.627,0,0,1,7.066-12.267" transform="translate(-200.586 -213.305)"/></g><g transform="translate(7.607 4.718)"><path class="j" d="M207.418,214.438c3.718-2.145,6.72-.409,6.733,3.837a14.7,14.7,0,0,1-6.689,11.585c-3.694,2.133-6.7.424-6.711-3.85a14.738,14.738,0,0,1,6.667-11.573" transform="translate(-200.751 -213.518)"/></g><g transform="translate(8.844 5.936)"><path class="y" d="M206.694,214.809c3.034-1.843,5.484-.351,5.493,3.294a12.77,12.77,0,0,1-5.457,9.952c-3.012,1.833-5.462.363-5.471-3.307a12.806,12.806,0,0,1,5.435-9.939" transform="translate(-201.259 -214.018)"/></g></g><path class="x" d="M203.145,265.229,202,277.386q14.412-5.928,28.771-11.973a130.5,130.5,0,0,0,12.874-6.017,37.14,37.14,0,0,0,6.506-4.062c2.411-2.092,3.027-4.327,3.436-7.385.195-1.466,1.066-3.689,2.951-3.365,1.2.207,1.59,1.916,2.6,1.79a8.258,8.258,0,0,0,3.309-1.773,14.2,14.2,0,0,1,3.343-2,7.912,7.912,0,0,1,4.076-.56,1.614,1.614,0,0,1,.881.4.707.707,0,0,1,.1.894,6.475,6.475,0,0,1,3.141-.148,2.515,2.515,0,0,1,1.334.628,1.156,1.156,0,0,1,.226,1.371,5.771,5.771,0,0,1,2.228-.034,2.377,2.377,0,0,1,1.7,1.322c.4,1-.134,2.106-.66,3.046a2,2,0,0,1,1.3-.156,1.368,1.368,0,0,1,.86,1.086,2.639,2.639,0,0,1-.222,1.422,4.977,4.977,0,0,1-1.006,1.539,9.984,9.984,0,0,1-1.461,1.174c-2.194,1.546-4.273,3.134-6.54,4.57l-9.229,5.851c-6.479,4.105-13.339,7.918-19.533,12.433-6.092,4.437-12.494,8.591-18.917,12.555-9.029,5.571-18.308,11.5-28.194,15.452a12.244,12.244,0,0,1-4.307,1.2c-11.529,0-15.722-11.318-14.259-36.066Z" transform="translate(-131.949 -114.11)"/><path class="z" d="M206.22,288.128s-10.207,6.009-30.1,6.316c0,0,.438-48.48,12.786-59.476S207.74,254.16,206.22,288.128Z" transform="translate(-133.269 -127.438)"/><path class="j" d="M324.179,281.264c-15.131-3.241-67.964,10.848-67.964,10.848l-75.3-8.525s-6.389,31.4.3,43.982,25.211,19.876,43.164,25.462c31.235,9.713,86.253-35.088,86.253-35.088-.054.241-.092.477-.141.718h0l7.059,4.074c9.978,5.761,10.424,15.029,1,21.067l-6.309,4.042h0c2.238,12.072,4.772,27,2.642,49.967a3.652,3.652,0,0,0,.506,2.267,11.469,11.469,0,0,0,7.531,5.428,21.517,21.517,0,0,0,14.965-2.764,3.527,3.527,0,0,0,1.687-2.8c.565-9.284,3.282-54.436,3.935-70.891C344.019,316.174,345.105,285.742,324.179,281.264Z" transform="translate(-130.338 -58.4)"/><path class="j" d="M180.885,281.933a158.548,158.548,0,0,0-2.7,23.268L215,285.795Z" transform="translate(-130.306 -56.746)"/><path class="v" d="M240.237,290.007l-7.456-4.3c-9.991-5.771-25.991-6-36.388-.516l-3.088,1.627,41.182,4.663S236.67,290.9,240.237,290.007Z" transform="translate(-108.611 -57.766)"/><g transform="translate(47.826 225.187)"><path class="aa" d="M310.5,317.008h0l6.231,3.6v-.01c.163-1.982.7-3.864.969-5.815.144-1.049.431-2.036-.368-2.9-1.77-1.9-5.362.168-7.149.876a208.8,208.8,0,0,0-24.186,11.547c-8.065,4.463-16.09,8.724-25.243,10.443-9.706,1.821-20.332,2.386-30.042.355-9.518-1.992-23.122-7.8-28.44-16.124-6.594-10.322-5.486-33.312-5.486-33.312-.183-.7-.394-1.371-.628-2.011l-15.235-1.724s-6.389,31.4.3,43.982,25.211,19.876,43.164,25.462c31.235,9.713,86.253-35.088,86.253-35.088C310.583,316.531,310.544,316.767,310.5,317.008Z" transform="translate(-178.165 -281.933)"/><path class="aa" d="M243.611,334.463c.11-9.8-2.245-18.742-4.057-27.8l-.017.012-6.309,4.042h0c2.238,12.072,4.772,27,2.642,49.967a3.652,3.652,0,0,0,.506,2.267,11.469,11.469,0,0,0,7.531,5.427c.489.085.95.112,1.422.163a46.3,46.3,0,0,1-.594-4.626C244.073,354.512,243.5,343.842,243.611,334.463Z" transform="translate(-99.152 -246.454)"/></g><path class="l" d="M261.147,255.216s-12.109-15.3-23.432-20.643c0,0-8-.811-15.4-1.356a23.16,23.16,0,0,1-11.291-4.169s-14.741,3.419-21.379,8.554c-6.959,5.386-13.609,31.7-10.891,53.023s1.074,51.282,0,59.223c-2.058,15.223,12.484,29.358,31.574,30.714,25.048,1.777,52.946-4.3,52.04-16.743C260.4,336.741,261.147,255.216,261.147,255.216Z" transform="translate(-130.38 -132.633)"/><path class="x" d="M231.759,278.233l.5,12.435q14.409-5.924,28.771-11.973a130.126,130.126,0,0,0,12.871-6.014,37.181,37.181,0,0,0,6.509-4.064c2.408-2.089,3.024-4.327,3.433-7.383.2-1.466,1.066-3.691,2.951-3.365,1.2.2,1.59,1.916,2.6,1.79a8.247,8.247,0,0,0,3.309-1.775,14.366,14.366,0,0,1,3.343-2,7.914,7.914,0,0,1,4.076-.558,1.614,1.614,0,0,1,.881.4.7.7,0,0,1,.1.891,6.5,6.5,0,0,1,3.141-.146,2.513,2.513,0,0,1,1.337.628,1.156,1.156,0,0,1,.224,1.371,5.723,5.723,0,0,1,2.228-.034,2.385,2.385,0,0,1,1.707,1.322c.4,1-.136,2.1-.66,3.044a2.018,2.018,0,0,1,1.3-.156,1.372,1.372,0,0,1,.86,1.088,2.608,2.608,0,0,1-.222,1.42,4.9,4.9,0,0,1-1.006,1.541,9.664,9.664,0,0,1-1.459,1.171c-2.2,1.546-4.276,3.136-6.54,4.573q-4.617,2.926-9.231,5.849c-6.479,4.108-13.336,7.921-19.533,12.433-6.092,4.436-12.494,8.593-18.915,12.557-9.029,5.571-18.311,11.5-28.2,15.452a12.229,12.229,0,0,1-4.307,1.2c-11.527,0-16.363-12.623-14.9-37.372Z" transform="translate(-89.412 -95.049)"/><path class="z" d="M238.022,302.049s-12.747,7.434-32.589,9.026c0,0-2.963-55.626,8.756-68.829S237.657,263.555,238.022,302.049Z" transform="translate(-91.689 -117.81)"/><path class="ab" d="M161.92,264.242a1.694,1.694,0,0,0,1.982-.146c1.274,12.586,6.307,25.063,11.006,36.67,11.228,27.739,28.508,53.094,47.688,75.678,3.937,4.639,7.4,10.8,12.774,13.906,6.039,3.487,14.128,2.552,18.8-2.749,3.251-3.691,4.743-8.62,5.462-13.485a169.683,169.683,0,0,0,.979-39.149c-1.028-11.948.511-24.632-3.806-36.083-3.63-9.63-11.23-17.451-19.492-23.319-8.649-6.143-18.4-10.407-27.861-15.1-8.457-4.2-17.008-10.146-26.555-11.408-6.058-.8-15.328-1-20.312,3.255C158.969,255.393,157.3,261.417,161.92,264.242Z" transform="translate(-157.688 -104.584)"/><g transform="translate(0 148.238)"><path class="v" d="M173.449,252.347l62.917,36.324c8.106,4.68,14.668,16.022,14.641,25.36l-.188,66.221c-.027,9.314-6.633,13.078-14.739,8.4l-62.917-36.325c-8.106-4.68-14.668-16.046-14.641-25.362l.188-66.218c.027-9.338,6.633-13.078,14.739-8.4" transform="translate(-158.523 -250.331)"/></g><path class="r" d="M175.077,382.474,193.1,392.825l-2.092-111.969a1.814,1.814,0,0,0-.9-1.532l-16.258-9.484a1.813,1.813,0,0,0-2.725,1.566V375.649A7.873,7.873,0,0,0,175.077,382.474Z" transform="translate(-140.435 -74.455)"/><path class="o" d="M193.489,322.226l-12.708-7.337-1.043,8.861,5.036,4.077Z" transform="translate(-128.081 -9.456)"/><path class="q" d="M205.2,387.744l-5.5,3.173c-3.959,2.286-7.188.448-7.2-4.1l-.195-105.869a2.938,2.938,0,0,0-1.5-2.554l-15.74-8.892a2.091,2.091,0,0,0-1.987-.034l-1.515.791a2.129,2.129,0,0,1,1.636.1l15.637,9.187a2.939,2.939,0,0,1,1.449,2.53l.195,105.9c.017,5.824,4.159,8.177,9.221,5.255l7.495-4.327Z" transform="translate(-139.794 -74.974)"/><g transform="translate(122.88 244.092)"><path class="o" d="M220.013,345.818l-1.591-.48-2.043-44.587,6.807-.818Z" transform="translate(-198.382 -275.008)"/><path class="q" d="M218.007,349.815l-.23-46.331,13.1-6.336-2.8,46.868Z" transform="translate(-196.376 -279.005)"/><path class="q" d="M261.313,300.4v-3.838l-1.507.506-1.975-4.363a1.991,1.991,0,0,0-.855-.867,5.118,5.118,0,0,0-4.656,0l-31.586,18.355-11.746,3.945v3.738H209a1.719,1.719,0,0,0,.969,1.286,4.278,4.278,0,0,0,1.5.492l13.29,2c1.079.626,10.142-3.628,20.237-9.494S262.394,301.018,261.313,300.4Z" transform="translate(-208.988 -287.437)"/><g transform="translate(0)"><path class="r" d="M256.976,290.257a5.133,5.133,0,0,0-4.656,0l-42.375,24.627c-1.356.786-1.2,1.994.02,2.7a4.28,4.28,0,0,0,1.5.492l13.29,2c1.079.623,10.142-3.628,20.237-9.5s17.4-11.128,16.324-11.753l-3.482-7.694a1.99,1.99,0,0,0-.855-.867" transform="translate(-208.988 -289.697)"/></g></g><path class="z" d="M189.989,233.228l4.434-6.35s11.145,5.642,27.052,4.656l3.226,8.345S200.169,242.6,189.989,233.228Z" transform="translate(-113.371 -135.747)"/><path class="i" d="M218.646,241.335s2.479-18.325-5.474-26.857-22.915-12.4-27.245-8.776c0,0,1.687-5.189,8.4-8.125,0,0,31.343-9.572,32.991,38.022Z" transform="translate(-119.198 -178.924)"/></g></g></g></svg>