<?xml version="1.0" encoding="utf-8"?>
<!-- Generator: Adobe Illustrator 26.0.1, SVG Export Plug-In . SVG Version: 6.00 Build 0)  -->
<svg version="1.1" id="Layer_1" xmlns="http://www.w3.org/2000/svg" xmlns:xlink="http://www.w3.org/1999/xlink" x="0px" y="0px"
	 viewBox="0 0 45 45" style="enable-background:new 0 0 45 45;" xml:space="preserve">
<style type="text/css">
	.st0{fill:#FFFFFF;}
	.st1{fill:#010101;}
</style>
<g>
	<circle class="st0" cx="22.5" cy="22.5" r="21.8"/>
	<path class="st1" d="M13.7,14.4c-1.1,0-2,0.9-2,2c0,0.6,0.3,1.3,0.8,1.6l9.2,6.9c0.5,0.3,1.1,0.3,1.6,0l9.2-6.9
		c0.5-0.4,0.8-1,0.8-1.6c0-1.1-0.9-2-2-2C31.2,14.4,13.7,14.4,13.7,14.4z M11.7,19.2v8.7c0,1.5,1.2,2.7,2.7,2.7h16.2
		c1.5,0,2.7-1.2,2.7-2.7v-8.7L24.2,26c-0.9,0.7-2.3,0.7-3.2,0L11.7,19.2z"/>
</g>
</svg>
