<?xml version="1.0" encoding="utf-8"?>
<!-- Generator: Adobe Illustrator 26.0.1, SVG Export Plug-In . SVG Version: 6.00 Build 0)  -->
<svg version="1.1" id="Layer_1" xmlns="http://www.w3.org/2000/svg" xmlns:xlink="http://www.w3.org/1999/xlink" x="0px" y="0px"
	 viewBox="0 0 60 56.8" style="enable-background:new 0 0 60 56.8;" xml:space="preserve">
<style type="text/css">
	.st0{fill:#FFFFFF;}
	.st1{fill:#010101;}
</style>
<ellipse class="st0" cx="30" cy="28.6" rx="30" ry="28.2"/>
<path class="st1" d="M12.2,12.2c-2.3,0-4.1,1.8-4.1,4.1c0,1.3,0.6,2.5,1.6,3.3l18.6,14c1,0.7,2.3,0.7,3.3,0l18.6-14
	c1-0.8,1.6-2,1.6-3.3c0-2.3-1.8-4.1-4.1-4.1C47.8,12.2,12.2,12.2,12.2,12.2z M8.1,21.7v17.8c0,3,2.5,5.5,5.5,5.5h32.9
	c3,0,5.5-2.5,5.5-5.5V21.7l-18.6,14c-2,1.5-4.6,1.5-6.6,0L8.1,21.7z"/>
</svg>
