<svg xmlns="http://www.w3.org/2000/svg" width="720.933" height="481.1" viewBox="0 0 720.933 481.1"><defs><style>.a{fill:#9aaccc;}.b{fill:#d4e2f9;}.c{fill:#f0f0f0;}.d{fill:#f5f5f5;}.e{fill:#002e7f;}.ag,.f,.i,.l,.t,.v,.w,.x,.y{fill:#fff;}.f{opacity:0.8;}.aa,.af,.ai,.g,.j,.m,.s,.z{fill:none;}.aa,.g,.i,.j{stroke:#263238;}.aa,.af,.g,.i,.j{stroke-miterlimit:10;}.g,.s{stroke-width:0.5px;}.h,.k,.t,.w{opacity:0.3;}.af,.j{stroke-width:0.25px;}.ai,.m,.s{stroke:#000;}.ai,.m,.s,.z{stroke-linecap:round;stroke-linejoin:round;}.ab,.n{fill:#263238;}.o{fill:#ebb373;}.ac,.p,.y{opacity:0.2;}.q{fill:#dc5753;}.r{fill:#e4873e;}.s,.u{opacity:0.1;}.ad,.v,.x{opacity:0.7;}.ab,.ac,.ad,.w,.x,.y{isolation:isolate;}.z{stroke:#fff;}.ae{fill:#b97964;}.af{stroke:#002e7f;}.ag{opacity:0.5;}.ah{fill:#a24e3f;}.ai{stroke-width:0;}</style></defs><g transform="translate(-49.399 -43.043)"><g transform="translate(111.72 43.043)"><path class="a" d="M293.671,189.313a69.159,69.159,0,0,0-9.884,23.949l-13.373,1.26v25.9l13.376,1.26a69.141,69.141,0,0,0,9.883,23.949l-8.543,10.317,18.314,18.315,10.317-8.542a69.179,69.179,0,0,0,23.949,9.882l1.259,13.376,25.9,0,1.26-13.372a69.216,69.216,0,0,0,23.949-9.883l10.317,8.542,18.316-18.315-8.542-10.318a69.187,69.187,0,0,0,9.882-23.948l13.372-1.26v-25.9l-13.373-1.261a69.174,69.174,0,0,0-9.884-23.947L418.708,179l-18.313-18.313-10.317,8.542a69.2,69.2,0,0,0-23.949-9.886l-1.26-13.373h-25.9l-1.259,13.373a69.189,69.189,0,0,0-23.948,9.883l-10.318-8.543L285.128,179Zm83.041,13.366a35.062,35.062,0,1,1-49.585,0A35.064,35.064,0,0,1,376.712,202.679Z" transform="translate(-91.282 -33.504)"/><path class="a" d="M184.665,146.264a38.922,38.922,0,0,0-5.563,13.478l-7.526.709v14.576l7.528.709a38.954,38.954,0,0,0,5.563,13.479l-4.808,5.807,10.307,10.307,5.807-4.808a38.913,38.913,0,0,0,13.479,5.562l.708,7.527h14.576l.709-7.526a38.937,38.937,0,0,0,13.479-5.563l5.807,4.808,10.307-10.307-4.807-5.808a38.95,38.95,0,0,0,5.562-13.478l7.526-.709V160.452l-7.528-.709a38.939,38.939,0,0,0-5.563-13.478l4.808-5.807L244.73,130.151l-5.807,4.807a38.978,38.978,0,0,0-13.478-5.563l-.71-7.526H210.159l-.708,7.528a38.92,38.92,0,0,0-13.478,5.562l-5.808-4.808-10.307,10.308Zm46.736,7.522a19.733,19.733,0,1,1-27.907,0A19.736,19.736,0,0,1,231.4,153.786Z" transform="translate(-100.443 -35.737)"/><path class="a" d="M220.1,87.255a19.466,19.466,0,0,0-2.781,6.736l-3.761.354v7.286l3.762.354a19.466,19.466,0,0,0,2.781,6.736l-2.4,2.9,5.151,5.151,2.9-2.4a19.484,19.484,0,0,0,6.736,2.78l.354,3.762h7.285l.355-3.761a19.484,19.484,0,0,0,6.736-2.78l2.9,2.4,5.152-5.151-2.4-2.9a19.484,19.484,0,0,0,2.78-6.736l3.761-.354V94.346l-3.762-.354a19.466,19.466,0,0,0-2.781-6.736l2.4-2.9L250.118,79.2l-2.9,2.4a19.466,19.466,0,0,0-6.736-2.781l-.354-3.762H232.84l-.354,3.761a19.463,19.463,0,0,0-6.736,2.78l-2.9-2.4L217.7,84.353Zm23.357,3.76a9.862,9.862,0,1,1-13.947,0A9.861,9.861,0,0,1,243.456,91.015Z" transform="translate(-96.552 -40.076)"/><g transform="translate(0 190.645)"><rect class="b" width="55.588" height="71.419" rx="3.512" transform="matrix(0.981, -0.193, 0.193, 0.981, 0, 10.731)"/><path class="c" d="M1.774,0H33.243a1.775,1.775,0,0,1,1.775,1.775V2.968a1.775,1.775,0,0,1-1.775,1.775H1.774A1.774,1.774,0,0,1,0,2.968V1.774A1.774,1.774,0,0,1,1.774,0Z" transform="matrix(0.981, -0.193, 0.193, 0.981, 13.095, 24.009)"/><path class="c" d="M1.774,0H33.243a1.774,1.774,0,0,1,1.774,1.774V2.968a1.775,1.775,0,0,1-1.775,1.775H1.775A1.775,1.775,0,0,1,0,2.968V1.774A1.774,1.774,0,0,1,1.774,0Z" transform="translate(15.437 35.913) rotate(-11.131)"/><path class="c" d="M1.774,0H33.243a1.775,1.775,0,0,1,1.775,1.775V2.968a1.775,1.775,0,0,1-1.775,1.775H1.775A1.775,1.775,0,0,1,0,2.968V1.774A1.774,1.774,0,0,1,1.774,0Z" transform="matrix(0.981, -0.193, 0.193, 0.981, 17.779, 47.819)"/><path class="c" d="M1.774,0h14.9a1.774,1.774,0,0,1,1.774,1.774V2.968a1.774,1.774,0,0,1-1.774,1.774H1.775A1.775,1.775,0,0,1,0,2.968V1.774A1.774,1.774,0,0,1,1.774,0Z" transform="translate(20.122 59.723) rotate(-11.131)"/></g><g transform="translate(76.765 272.383)"><g transform="translate(0 0)"><rect class="b" width="37.639" height="48.359" rx="3.512" transform="matrix(0.993, 0.119, -0.119, 0.993, 5.733, 0)"/></g><path class="c" d="M208.748,308.444l-20.355-2.43a1.606,1.606,0,0,1-1.4-1.784h0a1.606,1.606,0,0,1,1.785-1.4l20.355,2.43a1.605,1.605,0,0,1,1.4,1.784h0A1.606,1.606,0,0,1,208.748,308.444Z" transform="translate(-175.78 -291.35)"/><path class="c" d="M207.857,315.91,187.5,313.48a1.607,1.607,0,0,1-1.4-1.785h0a1.606,1.606,0,0,1,1.784-1.4l20.356,2.43a1.608,1.608,0,0,1,1.4,1.785h0A1.608,1.608,0,0,1,207.857,315.91Z" transform="translate(-175.863 -290.658)"/><path class="c" d="M206.966,323.375l-20.355-2.43a1.6,1.6,0,0,1-1.4-1.784h0a1.605,1.605,0,0,1,1.784-1.4l20.355,2.43a1.605,1.605,0,0,1,1.4,1.784h0A1.605,1.605,0,0,1,206.966,323.375Z" transform="translate(-175.945 -289.966)"/><path class="c" d="M194.937,329.511l-9.218-1.1a1.606,1.606,0,0,1-1.4-1.785h0a1.607,1.607,0,0,1,1.785-1.4l9.217,1.1a1.605,1.605,0,0,1,1.4,1.784h0A1.605,1.605,0,0,1,194.937,329.511Z" transform="translate(-176.028 -289.274)"/></g><g transform="translate(564.006 129.821)"><rect class="b" width="45.301" height="58.202" rx="3.512" transform="translate(20.645 0) rotate(20.776)"/><path class="c" d="M1.469,0h25.6a1.47,1.47,0,0,1,1.47,1.47V2.4a1.469,1.469,0,0,1-1.469,1.469H1.469A1.469,1.469,0,0,1,0,2.4V1.469A1.469,1.469,0,0,1,1.469,0Z" transform="translate(23.986 14.826) rotate(20.776)"/><path class="c" d="M1.469,0h25.6a1.47,1.47,0,0,1,1.47,1.47V2.4a1.47,1.47,0,0,1-1.47,1.47H1.47A1.47,1.47,0,0,1,0,2.4V1.469A1.469,1.469,0,0,1,1.469,0Z" transform="translate(20.478 24.071) rotate(20.776)"/><rect class="c" width="28.537" height="3.865" rx="1.469" transform="translate(16.971 33.316) rotate(20.776)"/><rect class="c" width="15.037" height="3.865" rx="1.469" transform="translate(13.463 42.56) rotate(20.776)"/></g><g transform="translate(305.469)"><rect class="a" width="14.519" height="17.181" rx="1.571" transform="translate(0 26.559)"/><rect class="a" width="14.519" height="30.544" rx="1.571" transform="translate(21.837 13.196)"/><rect class="a" width="14.519" height="44.122" rx="1.571" transform="translate(45.345)"/></g><path class="a" d="M477.666,276.389a37.49,37.49,0,0,0-5.353,12.97l-7.242.682v14.026l7.243.683a37.448,37.448,0,0,0,5.352,12.969l-4.626,5.587,9.918,9.918,5.588-4.625a37.461,37.461,0,0,0,12.969,5.352l.682,7.243h14.026l.682-7.242a37.458,37.458,0,0,0,12.97-5.352l5.588,4.625,9.918-9.918-4.626-5.587a37.47,37.47,0,0,0,5.352-12.969l7.241-.683V290.041l-7.242-.683a37.467,37.467,0,0,0-5.353-12.968l4.626-5.588-9.918-9.917-5.587,4.625a37.483,37.483,0,0,0-12.969-5.353l-.683-7.242H502.2l-.682,7.242a37.444,37.444,0,0,0-12.969,5.353l-5.588-4.626L473.04,270.8Zm44.971,7.239a18.988,18.988,0,1,1-26.853,0A18.989,18.989,0,0,1,522.637,283.628Z" transform="translate(-73.24 -23.591)"/><path class="a" d="M556.573,305.718a17.687,17.687,0,0,0-2.525,6.119l-3.418.322v6.617l3.418.322a17.679,17.679,0,0,0,2.525,6.12l-2.182,2.637,4.68,4.679,2.636-2.182a17.669,17.669,0,0,0,6.12,2.525l.321,3.418h6.618l.322-3.418a17.7,17.7,0,0,0,6.12-2.525l2.635,2.182,4.68-4.679-2.182-2.637a17.7,17.7,0,0,0,2.525-6.12l3.417-.322v-6.617l-3.418-.322a17.684,17.684,0,0,0-2.525-6.119l2.182-2.637-4.68-4.68-2.637,2.182a17.664,17.664,0,0,0-6.119-2.525l-.322-3.418h-6.618l-.321,3.417a17.677,17.677,0,0,0-6.119,2.525l-2.637-2.182-4.68,4.68Zm21.22,3.415a8.96,8.96,0,1,1-12.671,0A8.96,8.96,0,0,1,577.793,309.132Z" transform="translate(-65.31 -19.724)"/><path class="d" d="M502.713,213.544a17.661,17.661,0,0,0-2.525,6.12l-3.418.321V226.6l3.418.322a17.678,17.678,0,0,0,2.525,6.12l-2.183,2.636,4.68,4.68,2.637-2.182a17.682,17.682,0,0,0,6.12,2.525l.321,3.418h6.618l.321-3.417a17.682,17.682,0,0,0,6.12-2.525l2.637,2.182,4.68-4.68-2.182-2.636a17.718,17.718,0,0,0,2.525-6.12l3.417-.322v-6.618l-3.417-.321a17.686,17.686,0,0,0-2.526-6.119l2.183-2.638-4.68-4.679-2.637,2.182a17.674,17.674,0,0,0-6.119-2.525l-.322-3.418h-6.618l-.321,3.418a17.682,17.682,0,0,0-6.12,2.525l-2.637-2.183-4.68,4.68Zm21.22,3.416a8.96,8.96,0,1,1-12.671,0A8.962,8.962,0,0,1,523.933,216.959Z" transform="translate(-70.302 -28.267)"/><path class="d" d="M552.543,236.6a33.2,33.2,0,0,0-4.742,11.49l-6.416.6v12.426l6.416.6a33.2,33.2,0,0,0,4.742,11.491l-4.1,4.949,8.786,8.786,4.95-4.1a33.187,33.187,0,0,0,11.49,4.741l.6,6.417H586.7l.6-6.415a33.208,33.208,0,0,0,11.491-4.742l4.949,4.1,8.787-8.786-4.1-4.95a33.206,33.206,0,0,0,4.74-11.49l6.416-.6V248.7l-6.416-.6a33.217,33.217,0,0,0-4.742-11.488l4.1-4.951-8.786-8.786-4.95,4.1a33.189,33.189,0,0,0-11.49-4.742l-.6-6.416H574.275l-.6,6.416a33.193,33.193,0,0,0-11.488,4.741l-4.951-4.1-8.786,8.786Zm39.839,6.413a16.821,16.821,0,1,1-23.789,0A16.822,16.822,0,0,1,592.383,243.018Z" transform="translate(-66.167 -27.03)"/><path class="d" d="M147.1,77.777a28.994,28.994,0,0,0-4.142,10.037l-5.605.528V99.2l5.605.529a28.99,28.99,0,0,0,4.142,10.037l-3.581,4.324,7.676,7.675,4.324-3.58a28.989,28.989,0,0,0,10.037,4.142l.528,5.605h10.855l.529-5.6a29,29,0,0,0,10.037-4.142l4.324,3.58,7.676-7.675-3.58-4.325a28.994,28.994,0,0,0,4.141-10.036l5.6-.529V88.342l-5.6-.528a29,29,0,0,0-4.143-10.037l3.58-4.324-7.675-7.676L187.5,69.358a29.013,29.013,0,0,0-10.037-4.143l-.528-5.605H166.082l-.528,5.605a28.973,28.973,0,0,0-10.036,4.141l-4.325-3.58-7.676,7.676Zm34.8,5.6a14.695,14.695,0,1,1-20.781,0A14.695,14.695,0,0,1,181.9,83.379Z" transform="translate(-103.615 -41.508)"/></g><g transform="translate(127.176 492.643)"><g transform="translate(0 0)"><path class="d" d="M676.533,461.207c0,3.7-124.445,6.7-277.956,6.7s-277.956-3-277.956-6.7,124.445-6.7,277.956-6.7S676.533,457.506,676.533,461.207Z" transform="translate(-120.621 -454.507)"/></g></g><g transform="translate(73.249 134.685)"><rect class="e" width="123.876" height="73.518" rx="4.095"/><rect class="f" width="123.876" height="73.518" rx="4.095"/><path class="g" d="M88.313,166.337c.538-.484,15.036-14.8,15.036-14.8l14.3,7.038,13.978-16.445,14.3,20.6,13.946-9.1" transform="translate(-69.689 -125.501)"/><rect class="e" width="6.704" height="14.855" transform="translate(16.399 47.281)"/><rect class="e" width="6.704" height="24.671" transform="translate(30.202 37.465)"/><rect class="e" width="6.704" height="22.19" transform="translate(44.268 39.945)"/><rect class="e" width="6.704" height="36.099" transform="translate(58.586 26.036)"/><rect class="e" width="6.704" height="16.958" transform="translate(73.057 45.177)"/><path class="e" d="M93.252,163.049a3.6,3.6,0,1,1-3.6-3.6A3.6,3.6,0,0,1,93.252,163.049Z" transform="translate(-69.899 -123.896)"/><path class="e" d="M105.884,151.044a3.6,3.6,0,1,1-3.6-3.6A3.6,3.6,0,0,1,105.884,151.044Z" transform="translate(-68.728 -125.009)"/><path class="e" d="M119.068,156.456a3.6,3.6,0,1,1-3.6-3.6A3.6,3.6,0,0,1,119.068,156.456Z" transform="translate(-67.506 -124.507)"/><path class="e" d="M131.86,142.436a3.6,3.6,0,1,1-3.6-3.6A3.6,3.6,0,0,1,131.86,142.436Z" transform="translate(-66.321 -125.807)"/><path class="e" d="M144.947,161.292a3.6,3.6,0,1,1-3.6-3.6A3.6,3.6,0,0,1,144.947,161.292Z" transform="translate(-65.108 -124.059)"/><rect class="e" width="6.704" height="25.459" transform="translate(87.385 36.676)"/><rect class="h" width="6.704" height="24.671" transform="translate(30.202 37.465)"/><rect class="h" width="6.704" height="36.099" transform="translate(58.586 26.036)"/><rect class="h" width="6.704" height="25.459" transform="translate(87.385 36.676)"/><rect class="e" width="6.704" height="16.958" transform="translate(102.217 45.177)"/><line class="g" x2="15.385" y2="8.543" transform="translate(90.184 28.133)"/><path class="e" d="M158.445,152.963a3.6,3.6,0,1,1-3.6-3.6A3.6,3.6,0,0,1,158.445,152.963Z" transform="translate(-63.856 -124.831)"/><circle class="e" cx="3.602" cy="3.602" r="3.602" transform="translate(101.967 33.074)"/></g><g transform="translate(645.061 332.216)"><g transform="translate(0 0)"><circle class="i" cx="62.386" cy="62.386" r="62.386"/><g transform="translate(21.912 22.961)"><rect class="e" width="61.739" height="43.599" transform="translate(10.052 28.037)"/><rect class="h" width="29.237" height="43.599" transform="translate(10.052 28.037)"/><path class="e" d="M624.683,354.36l-10.052,16.882h29.031l10.257-16.882Z" transform="translate(-614.631 -326.323)"/><path class="e" d="M650.587,354.36l10.8,16.882h30.857l-9.156-16.882Z" transform="translate(-611.299 -326.323)"/><path class="h" d="M650.587,354.36l10.8,16.882h30.857l-9.156-16.882Z" transform="translate(-611.299 -326.323)"/><path class="j" d="M642.359,345.79l-7.507-10.54" transform="translate(-612.757 -328.094)"/><path class="j" d="M651.111,345.885c-.089-5.213-.2-11.97-.294-17.184" transform="translate(-611.277 -328.701)"/><path class="j" d="M660.556,345.4q2.757-4.909,5.515-9.817" transform="translate(-610.375 -328.063)"/><path class="j" d="M666.661,333.515l-.069-.069" transform="translate(-609.815 -328.261)"/></g></g></g><g transform="translate(150.247 58.498)"><g transform="translate(331.814)"><g transform="translate(0)"><path class="e" d="M545.907,187.433l12.251,57.694a3.217,3.217,0,0,1-4.567,3.555L510.8,227.622a3.217,3.217,0,0,1-1.051-4.947l30.543-36.634A3.218,3.218,0,0,1,545.907,187.433Z" transform="translate(-439.509 -45.352)"/><path class="h" d="M545.907,187.433l12.251,57.694a3.217,3.217,0,0,1-4.567,3.555L510.8,227.622a3.217,3.217,0,0,1-1.051-4.947l30.543-36.634A3.218,3.218,0,0,1,545.907,187.433Z" transform="translate(-439.509 -45.352)"/><path class="e" d="M554.476,247.242l-4.753-32.971a62.2,62.2,0,1,0-69.039-46.058l-32.253,8.332a95.508,95.508,0,1,1,106.045,70.7Z" transform="translate(-445.404 -57.187)"/><g class="k"><path d="M554.476,247.242l-4.753-32.971a62.2,62.2,0,1,0-69.039-46.058l-32.253,8.332a95.508,95.508,0,1,1,106.045,70.7Z" transform="translate(-445.404 -57.187)"/></g></g><g transform="translate(43.38 33.827)"><circle class="e" cx="38.608" cy="38.608" r="38.608" transform="translate(8.676 29.596) rotate(-15.673)"/><circle class="h" cx="38.608" cy="38.608" r="38.608" transform="translate(8.676 29.596) rotate(-15.673)"/><circle class="e" cx="38.608" cy="38.608" r="38.608" transform="matrix(0.782, -0.623, 0.623, 0.782, 0, 48.078)"/><circle class="l" cx="32.075" cy="32.075" r="32.075" transform="matrix(0.514, -0.858, 0.858, 0.514, 10.254, 65.295)"/><g transform="translate(26.77 27.009)"><path d="M521.688,162.862l4.26-6.312c.126.085.25.167.377.249l-4.105,6.413Q521.951,163.041,521.688,162.862Zm-8.505-9.2c-.106-.186-.209-.373-.309-.563l6.717-3.585c.071.132.143.263.217.393Zm20.842,13.754.836-7.569.472.048-.7,7.583Q534.329,167.445,534.024,167.411ZM509.617,141q-.01-.316-.014-.633l7.616-.075.009.46Zm37.438,24.7-2.772-7.094.428-.172,3.035,6.984-.181.075C547.443,165.55,547.249,165.628,547.055,165.7Zm-34.71-37.552c.092-.191.186-.38.282-.569l6.783,3.463c-.07.134-.137.27-.2.405Zm39.769,24.935c.1-.107.187-.217.279-.329l5.881,4.84c-.139.169-.281.335-.424.5Zm-26.858-28.941-4.518-6.13.495-.357,4.411,6.206Zm31.163,20.487.1-.453,7.448,1.592c-.044.2-.089.408-.137.61Zm-22.386-24.157-1.175-7.524c.2-.032.405-.061.608-.089l1.04,7.543Zm22.279,14.657c-.037-.143-.075-.285-.116-.427l7.322-2.092q.089.311.169.623ZM543.5,121.309l2.46-7.207c.205.07.411.142.615.219l-2.664,7.135C543.771,121.4,543.635,121.355,543.5,121.309Zm8.309,5.46-.308-.334,5.526-5.239c.145.153.29.308.431.464Z" transform="translate(-509.603 -112.863)"/></g><g transform="translate(46.177 42.326)"><path class="m" d="M527.364,126.881l7.655,13.17L547.4,128" transform="translate(-527.364 -126.881)"/><path d="M536.771,139.817a2.395,2.395,0,1,1-.222-3.38A2.394,2.394,0,0,1,536.771,139.817Z" transform="translate(-526.881 -126.051)"/></g><path class="h" d="M516.062,119.886a32.072,32.072,0,0,1,52.156,11.191A32.066,32.066,0,1,0,507.7,152.132,32.053,32.053,0,0,1,516.062,119.886Z" transform="translate(-483.218 -86.283)"/></g></g><g transform="translate(0 22.177)"><g transform="translate(64.433 20.057)"><path class="e" d="M243.906,370.816A168.056,168.056,0,0,1,325.849,95.839l-12.381,15.545,21.7,19.836a131.471,131.471,0,0,0-64.087,215.1Z" transform="translate(-200.703 -95.839)"/><path class="e" d="M243.852,351.664c1.357-.339,46.142,0,46.142,0l-22.582-26.593-27.171,24.5Z" transform="translate(-197.038 -74.593)"/></g><g class="k" transform="translate(64.433 20.057)"><path d="M243.906,370.816A168.056,168.056,0,0,1,325.849,95.839l-12.381,15.545,21.7,19.836a131.471,131.471,0,0,0-64.087,215.1Z" transform="translate(-200.703 -95.839)"/><path d="M243.852,351.664c1.357-.339,46.142,0,46.142,0l-22.582-26.593-27.171,24.5Z" transform="translate(-197.038 -74.593)"/></g><g transform="translate(239.596 294.456)"><g transform="translate(202.282)"><path class="e" d="M546.132,409.166v-58.98a3.216,3.216,0,0,1,5.206-2.528l37.487,29.489a3.216,3.216,0,0,1,0,5.057l-37.487,29.49A3.216,3.216,0,0,1,546.132,409.166Z" transform="translate(-546.132 -346.963)"/></g><g transform="translate(0 15.181)"><rect class="e" width="208.363" height="35.065"/></g></g><path class="h" d="M606.407,377.147,568.92,347.658a3.216,3.216,0,0,0-5.206,2.528v11.957H352.894v35.065h210.82v11.957a3.216,3.216,0,0,0,5.206,2.528l37.487-29.49A3.216,3.216,0,0,0,606.407,377.147Z" transform="translate(-122.164 -52.507)"/><path class="e" d="M372.418,90.872v35.942a129.125,129.125,0,1,1,0,258.249H141.735V421H372.418c91.017,0,165.065-74.048,165.065-165.066S463.436,90.872,372.418,90.872Z" transform="translate(-141.735 -76.242)"/><path class="e" d="M362.973,80.713l-.118,58.981a3.217,3.217,0,0,1-5.211,2.518l-37.428-29.566a3.218,3.218,0,0,1,.01-5.057l37.547-29.415A3.217,3.217,0,0,1,362.973,80.713Z" transform="translate(-125.306 -77.483)"/></g><path class="h" d="M363.117,361.053c.714,0-14.642,9.726-25.018,9.642l-.981,26.24h-6.865L317.126,361.87Z" transform="translate(-125.479 -29.023)"/><g transform="translate(110.175 141.99)"><g transform="translate(59.3)"><path class="n" d="M351.882,195.6c4.815,7.605,6.583,12.207,7.335,19.68.877,8.733.838,16.48-1.011,18.813-2.426,3.063-30.006,7.111-45.561,7.2-.564,0-1.258-4.9-1.258-4.9s-1.979,4.917-2.71,4.917c-4.245,0-6.968-.026-6.968-.026s3.178-7.392,6.273-33.67c1.512-12.835,14.087-18.513,21.59-19.821C342.079,185.609,351.882,195.6,351.882,195.6Z" transform="translate(-296.383 -187.101)"/><path class="n" d="M315.24,221.943c-4.39-6.84-9.3-25.592,7.36-32.219,20.8-8.274,30.889,4.768,33.326,18.042s-4.626,23.717-18.64,23.353S318.276,226.673,315.24,221.943Z" transform="translate(-295.522 -187.133)"/><g transform="translate(17.292 3.822)"><g transform="translate(12.971 30.574)"><path class="o" d="M348.763,244.243s-4.679,3.6-10.7,8.79a22.316,22.316,0,0,1-4.1,2.794c-3.948,2.1-7.547,3.3-8.522,1.393a6.445,6.445,0,0,1-.507-1.346c-.827-3.187-.487-7.668,2.089-9.718,2.9-2.312,4.305-4.291,3.781-7.42a23.415,23.415,0,0,0-1.667-5.385l2.286-2.673,11.955-12.065C343.077,226.668,342.466,239.87,348.763,244.243Z" transform="translate(-324.531 -218.612)"/></g><path class="p" d="M330.457,238.791c3.289-1.952,6.9-5.337,6.463-9.2a18.031,18.031,0,0,0-.934-4.162l-6.678,8.842A22.3,22.3,0,0,1,330.457,238.791Z" transform="translate(-311.117 -187.406)"/><path class="o" d="M347.861,208.261c-1.125,12.284-1.343,17.493-7.682,23.934-9.535,9.688-24.2,6.429-26.728-5.746-2.273-10.96-.051-29.205,12.008-34.368C337.339,187,348.985,195.979,347.861,208.261Z" transform="translate(-312.66 -190.631)"/><path class="n" d="M331.047,211.026c-.069,1.237-.829,2.255-1.7,2.273s-1.518-.969-1.449-2.206.829-2.255,1.7-2.274S331.115,209.789,331.047,211.026Z" transform="translate(-311.248 -188.945)"/><path class="n" d="M319.356,210.813c-.069,1.181-.816,2.153-1.67,2.171s-1.489-.926-1.422-2.106.816-2.154,1.67-2.171S319.423,209.631,319.356,210.813Z" transform="translate(-312.327 -188.956)"/><path class="n" d="M332.859,206.881a.618.618,0,0,1-.483-.1,5.089,5.089,0,0,0-4.468-.716.6.6,0,0,1-.8-.337.668.668,0,0,1,.429-.8,6.361,6.361,0,0,1,5.662.842.581.581,0,0,1,.075.854A.723.723,0,0,1,332.859,206.881Z" transform="translate(-311.324 -189.335)"/><path class="n" d="M315.143,205.3a.555.555,0,0,1-.294-.32.6.6,0,0,1,.4-.746,6.335,6.335,0,0,1,5.589.545.55.55,0,0,1,.09.813.654.654,0,0,1-.869.119,5.058,5.058,0,0,0-4.432-.386A.646.646,0,0,1,315.143,205.3Z" transform="translate(-312.46 -189.407)"/><path class="n" d="M335.639,197.013c-3.907,4.1-1.966,19.606,9.006,21.631C357.283,215.67,347.3,184.764,335.639,197.013Z" transform="translate(-310.702 -190.304)"/><path class="n" d="M322.056,221.449a34.762,34.762,0,0,1,2.2,4.522c.29-.06.579-.12.865-.2,3.911-.916,5.422-2.632,5.913-4.257a5.192,5.192,0,0,0,.08-2.451,4.994,4.994,0,0,0-.432-1.334c-1.783,1.723-5.363,2.857-7.3,3.383C322.575,221.344,322.056,221.449,322.056,221.449Z" transform="translate(-311.789 -188.119)"/><path class="l" d="M323.272,221.116l.683,1.317c3.681-.872,6.156-1.979,7.049-3.365a4.994,4.994,0,0,0-.432-1.334C328.789,219.456,325.209,220.59,323.272,221.116Z" transform="translate(-311.677 -188.119)"/><path class="q" d="M324.864,225.454c3.911-.916,5.422-2.632,5.913-4.257a12.938,12.938,0,0,0-4.141,1.876A4.844,4.844,0,0,0,324.864,225.454Z" transform="translate(-311.529 -187.798)"/><path class="r" d="M322.645,209.844s-2.314,5.537-4.728,8.247c1.57,1.518,4.375.72,4.375.72Z" transform="translate(-312.173 -188.85)"/><path class="n" d="M327.21,208.284l2.819.667C328.752,210.387,327.21,208.284,327.21,208.284Z" transform="translate(-311.312 -188.995)"/><path class="n" d="M315.68,208.172l2.819.665C317.222,210.274,315.68,208.172,315.68,208.172Z" transform="translate(-312.38 -189.005)"/></g><path class="n" d="M325.372,189.556c-4.85,1.647-10,10.041-10.861,13.271,6.9,1.13,25.492-5.332,25.492-5.332s12.407,3.427,6.122-2.864S325.372,189.556,325.372,189.556Z" transform="translate(-295.197 -186.917)"/><path class="o" d="M349.135,216.554a9.89,9.89,0,0,1-5.97,4.644c-3.252.815-4.93-4.412-3.821-7.671a6.538,6.538,0,0,1,7.359-4.234C349.821,209.924,350.794,213.674,349.135,216.554Z" transform="translate(-292.927 -185.091)"/><path class="g" d="M310.2,203.741c-.692,5.408-1.4,10.863-3.218,16s-5.608,15.736-10.142,18.761" transform="translate(-296.835 -185.594)"/><circle class="e" cx="2.291" cy="2.291" r="2.291" transform="translate(49.252 33.495)"/><path class="s" d="M346.324,212.733a3.728,3.728,0,0,0-4.739,3.461" transform="translate(-292.687 -184.773)"/></g><g transform="translate(17.072 122.906)"><path class="o" d="M258.273,315.829c.611-1.693,4.977-7.364,7.3-9.477s10.555-6.739,10.555-6.739l6.952,6.582s-.652,3.77-3.444,5.155c-1.611.8-3.282,1.443-3.282,1.443a13.473,13.473,0,0,1-.363,3.023c-.423,1.714-1.308,3.739-2.7,3.316s-.763-5.091-.664-5.763c-.1.681-.888,5.423-2.815,5.108-1.859-.3-.931-5.225-.931-5.225s-.668,2.233-1.017,3.372-1.76,1.85-2.506.3a8.17,8.17,0,0,1-.322-4.4,39.674,39.674,0,0,0-3.657,4.155C259.727,318.771,257.756,317.262,258.273,315.829Z" transform="translate(-258.189 -299.614)"/><path class="s" d="M271.259,313.415a14.489,14.489,0,0,1,.7-2.6,4.855,4.855,0,0,1,1.581-2.147" transform="translate(-256.978 -298.775)"/><path class="s" d="M267.742,313.123a14.509,14.509,0,0,1,.7-2.606,4.856,4.856,0,0,1,1.58-2.146" transform="translate(-257.304 -298.802)"/><path class="s" d="M264.456,311.978a14.482,14.482,0,0,1,.7-2.606,4.859,4.859,0,0,1,1.58-2.147" transform="translate(-257.608 -298.909)"/></g><g transform="translate(31.748 61.779)"><path class="o" d="M311.366,258.744c0,.776-2.188,28.647-2.188,28.647-1.551,2.909-33.473,13.987-37.559,18.043l7.447,7.662s37.981-7.662,44.113-12.119c5.232-3.8,4.791-10.478,4.791-19.589s3.18-21.844,3.18-21.844Z" transform="translate(-271.62 -242.275)"/><path class="e" d="M323.6,243.672c-15.058,2.575-17.126,24.867-17.126,24.867l-2.288,17.7-8.54,6.23,7.985,17.058s17.05-6.491,24.547-10.928,7.691-38.443,7.691-38.443Z" transform="translate(-269.393 -243.672)"/><path class="p" d="M319.664,299.406c.282.127-6.309,3.8-6.309,3.8-.077.047-2.38-9.733-2.456-9.687a81.026,81.026,0,0,1-1.176-29.449C312.473,269.79,318.969,294.615,319.664,299.406Z" transform="translate(-268.164 -241.781)"/></g><g transform="translate(44.908 136.839)"><path class="n" d="M321.782,315.1c12.548-1.253,28.875-2.255,50.12-2.734,0,0,15.841,37.311-2.944,48.456-5.677,3.368-15.044,4.7-25.355,4.919a21.331,21.331,0,0,1-21.822-21.3Z" transform="translate(-280.131 -312.365)"/><path class="n" d="M366.346,345.662v17.53c-15.623,4.506-48.051,2.79-67.327,1.217a16.718,16.718,0,0,1-15.355-16.669V333.357a11.437,11.437,0,0,1,7.412-10.712c9.345-3.514,26.349-8.752,44.139-8.477A31.543,31.543,0,0,1,366.346,345.662Z" transform="translate(-283.664 -312.199)"/></g><g transform="translate(73.306 56.168)"><path class="e" d="M375.857,319.208c-2.428-3.2-8.05-10.866-8.762-18.929l0-.069c-.045-.517-.07-1.036-.071-1.555-.128-3.429-.107-7.488.119-12.36.031-.76.075-1.567.121-2.373.138-2.557.335-5.31.579-8.308.456-5.372,1.11-11.5,1.993-18.472.2-1.613,1.717-4.114,1.945-5.819,1.02-7.592-5.9-13.079-13.372-12.775-1.993.075-4.108.213-6.253.425-8.384.792-15.262,1.507-22.55,3.242-2.419.563-4.915,1.247-7.3,1.932-8.582,2.465-12.537,13.451-12.645,22.291-.106,8.239,5.672,25.055,9.631,39.825.582,8.473-4.045,13.087-2.652,16.041s42.348-5.071,59.224,4.991C375.857,327.3,378.447,322.627,375.857,319.208Z" transform="translate(-309.653 -238.537)"/><path class="t" d="M375.857,319.208c-2.428-3.2-8.05-10.866-8.762-18.929l0-.069c-.045-.517-.07-1.036-.071-1.555-.128-3.429-.107-7.488.119-12.36.031-.76.075-1.567.121-2.373.138-2.557.335-5.31.579-8.308.456-5.372,1.11-11.5,1.993-18.472.2-1.613,1.717-4.114,1.945-5.819,1.02-7.592-5.9-13.079-13.372-12.775-1.993.075-4.108.213-6.253.425-8.384.792-15.262,1.507-22.55,3.242-2.419.563-4.915,1.247-7.3,1.932-8.582,2.465-12.537,13.451-12.645,22.291-.106,8.239,5.672,25.055,9.631,39.825.582,8.473-4.045,13.087-2.652,16.041s42.348-5.071,59.224,4.991C375.857,327.3,378.447,322.627,375.857,319.208Z" transform="translate(-309.653 -238.537)"/><path class="p" d="M368.466,303.273s-14.453,3.175-21.178,3.48-21.278,4.892-21.278,4.892l-5.176,3.209-1.824-4.27,8.712-7.879,38.247-7.753A43.88,43.88,0,0,0,368.466,303.273Z" transform="translate(-308.785 -233.308)"/><path class="p" d="M349.973,259l-1.826,24.71-8.194,8.03,5.734,4.459,7.8-4.706L357.52,277.6Z" transform="translate(-306.844 -236.64)"/></g><g transform="translate(25.305 147.844)"><g transform="translate(28.123 125.41)"><path class="n" d="M292.665,467.909l19.181-8.462,6.065-6.772,1.878,2.55,2.292-1c1.069-8.513-3.068-12.494-5.239-14.3-.155-.138-.379-.293-.637-.5a2.606,2.606,0,0,0-.259-.19c-.035-.016-.069-.051-.1-.069-.086-.069-.19-.138-.294-.224-.016-.016-.034-.016-.069-.034v-.018a1.469,1.469,0,0,0-.172-.1l-10.53,4.653s-.172.551-.5,1.448c-1.051,2.963-3.653,9.719-6.531,13.32-.121.155-.242.311-.363.449a7.887,7.887,0,0,1-1.068,1.069C288.254,466.2,292.665,467.909,292.665,467.909Z" transform="translate(-291.461 -437.063)"/><path class="o" d="M296.848,458.75c3,1.171,7.238-1.792,10.46-5.67,1.809-2.189,3.55-5.686,5.083-8.513a18.788,18.788,0,0,1,2.706-4.118c.448-.4.862-.568,1.224-.4a.061.061,0,0,1-.017-.034c-.155-.138-.379-.293-.637-.5-.069-.052-.155-.121-.259-.19-.035-.017-.069-.051-.1-.069-.086-.069-.19-.139-.294-.224-.016-.017-.034-.017-.069-.035v-.016a1.337,1.337,0,0,0-.172-.1c-1.1-.827-2.327-1.672-2.327-1.672l-9.905,2.479.773,3.794c-1.1,3.912-3.429,11.356-6.1,14.82C297.088,458.457,296.968,458.612,296.848,458.75Z" transform="translate(-290.962 -437.209)"/></g><path class="o" d="M283.608,395.589c6.115,15.188,15.609,34.539,22.616,58.805.137.441.259.884.38,1.325.138.472.274.929.412,1.4l7.235-1.767.317-1.259s2.5-1.942,2.075-2.382c-.276-.286-.091-.822-.137-1.28v-.014c-1.95-16.925-9.46-79.044-16.908-91.946,0,0,8.439,1.569,14.836.487,4.616-.777,10.206-32.69,10.206-32.69a98.471,98.471,0,0,0-23.824-3.382h-.168S276.934,329.9,270.9,335.216c-5.667,4.991-6.516,13.173-3.373,22.9C270.413,367.029,276.031,376.772,283.608,395.589Z" transform="translate(-265.723 -322.395)"/><path class="u" d="M275.937,342.932c1.4-5.518,11.564-10.915,22.06-13.808,1.7-2.208-2.656-4.819-2.656-4.819L316,322.437l3.606,2.6,6.165,1.284L320.28,351l-22.57,3.951,14.278,66.259,1.686,13.091s-24.183-51.91-29.241-62.948S273.5,352.5,275.937,342.932Z" transform="translate(-264.829 -322.437)"/><path class="o" d="M323.319,325.987s-32.242,6.83-38.54,11.805c-5.364,4.237-5.509,9.768-3.771,14.989,4.806,14.438,22.046,38.511,41.781,107.6l11.308-3.551c-1.084,0-3.926-36.073-4.766-65.047-.4-13.667-7.4-25.452-10.147-30.212,0,0,11.525,1.556,17.921.483C345.323,360.68,350.519,333.259,323.319,325.987Z" transform="translate(-264.398 -322.108)"/><path class="p" d="M317.286,360.6s-4.278-7.095-9.611-10.088c0,0,6.564.428,10.666,9l-1.72-.206Z" transform="translate(-261.835 -319.835)"/><g transform="translate(42.205 131.699)"><path class="n" d="M335.68,460.7l-2.356.514-1.958-3.258a.728.728,0,0,0-1.12-.158l-6.7,6.2-18.292,4.013s-4.071-4.305,5.021-7.048a3.953,3.953,0,0,0,1.221-.8c4.5-3.452,9.894-12.961,9.894-12.961l10.837-2.379a14.051,14.051,0,0,1,1.231,1.367C335.168,448.31,338.312,452.866,335.68,460.7Z" transform="translate(-304.348 -442.793)"/><path class="o" d="M332.855,446.357l.008.033c-1.781-1.281-6.756,7.155-11,10.586-3.794,3.056-8.374,5.044-10.968,3.355,4.5-3.452,10.134-15.453,10.134-15.453l8.716-1.912S332.122,445.45,332.855,446.357Z" transform="translate(-303.742 -442.965)"/></g></g><g transform="translate(0 110.825)"><g transform="translate(23.671 31.454)"><path class="n" d="M303.967,331.461l31.792-12.094a.738.738,0,0,0-.214-1.413l-51.02-.611a.623.623,0,0,0-.351.1l-19.618,12.7a.739.739,0,0,0,.343,1.352h38.847A.637.637,0,0,0,303.967,331.461Z" transform="translate(-264.228 -317.344)"/><path class="v" d="M303.967,331.461l31.792-12.094a.738.738,0,0,0-.214-1.413l-51.02-.611a.623.623,0,0,0-.351.1l-19.618,12.7a.739.739,0,0,0,.343,1.352h38.847A.637.637,0,0,0,303.967,331.461Z" transform="translate(-264.228 -317.344)"/><path class="v" d="M301,327.649l20.5-7.558-24.015-.5Z" transform="translate(-261.146 -317.136)"/><path class="h" d="M332.5,319.316,300.707,331.41a.637.637,0,0,1-.221.04h-.5l-.6-1.753L332.285,317.9A.737.737,0,0,1,332.5,319.316Z" transform="translate(-260.969 -317.292)"/></g><path class="n" d="M264.477,334.17h41.391a1.182,1.182,0,0,0,1.283-1.047.848.848,0,0,0-.066-.317l-18.413-42.213a3.6,3.6,0,0,0-3.423-2.036H243.833a1.163,1.163,0,0,0-1.268,1.018.855.855,0,0,0,.075.345l18.413,42.213A3.625,3.625,0,0,0,264.477,334.17Z" transform="translate(-242.565 -288.558)"/><path class="v" d="M243.833,288.558h41.416a3.6,3.6,0,0,1,3.423,2.036l18.413,42.213a.848.848,0,0,1,.066.317,1.182,1.182,0,0,1-1.283,1.047H264.477a3.625,3.625,0,0,1-3.423-2.036L242.64,289.922a.855.855,0,0,1-.075-.345A1.163,1.163,0,0,1,243.833,288.558Z" transform="translate(-242.565 -288.558)"/><path class="l" d="M267.241,310.644c.895,2.026,2.708,3.417,4.059,3.134s1.712-2.13.844-4.161-2.7-3.391-4.054-3.108S266.335,308.564,267.241,310.644Z" transform="translate(-240.323 -286.898)"/><path class="h" d="M281.4,288.558h.247a3.6,3.6,0,0,1,3.423,2.036l18.413,42.213a.848.848,0,0,1,.066.317,1.182,1.182,0,0,1-1.283,1.047h-1.325Z" transform="translate(-238.965 -288.558)"/></g><g transform="translate(68.826 57.808)"><path class="o" d="M352.829,256.867c0,.775,2.489,28.384,2.489,28.384-1.55,2.908-33.473,13.987-37.559,18.044l7.447,7.662s37.981-7.662,44.113-12.12c5.232-3.8,4.791-10.477,4.791-19.587s-1.992-22.381-1.992-22.381Z" transform="translate(-304.421 -238.478)"/><path class="e" d="M353.613,241.391c-7.841,3.276-1.855,45.261-1.855,45.261l-7.719,3.266,4.743,17.876s9.505-1.805,19-3.742c10.042-2.048,11.513-25.227,6.487-44S362.786,237.56,353.613,241.391Z" transform="translate(-301.986 -240.037)"/><g transform="translate(0 64.816)"><path class="o" d="M305.56,319.46c.177-1.792,3.017-8.361,4.753-10.982s8.578-9.123,8.578-9.123l8.355,4.672s.294,3.816-2.073,5.844c-1.365,1.169-2.828,2.206-2.828,2.206a13.429,13.429,0,0,1,.392,3.019c.01,1.767-.351,3.946-1.8,3.878s-1.989-4.748-2.059-5.423c.068.685.471,5.475-1.475,5.643-1.876.163-2.185-4.836-2.185-4.836s-.1,2.329-.157,3.518-1.253,2.226-2.356.9a8.157,8.157,0,0,1-1.392-4.183,39.677,39.677,0,0,0-2.526,4.926C307.692,321.954,305.411,320.975,305.56,319.46Z" transform="translate(-305.553 -299.356)"/><path class="s" d="M317.8,313.6a14.515,14.515,0,0,1,.036-2.7,4.853,4.853,0,0,1,1-2.469" transform="translate(-304.421 -298.514)"/><path class="s" d="M314.324,314.184a14.433,14.433,0,0,1,.035-2.7,4.846,4.846,0,0,1,1.005-2.468" transform="translate(-304.744 -298.46)"/><path class="s" d="M310.857,313.881a14.435,14.435,0,0,1,.035-2.7,4.853,4.853,0,0,1,1.005-2.469" transform="translate(-305.065 -298.489)"/></g></g></g></g><g transform="translate(49.899 332.216)"><g transform="translate(0 0)"><circle class="i" cx="62.386" cy="62.386" r="62.386"/><g transform="translate(28.173 19.62)"><path class="n" d="M119.925,401.909c0,4.075-5.667,7.342-12.556,7.231S94.95,405.7,95,401.627s5.667-7.342,12.543-7.219S119.974,397.846,119.925,401.909Z" transform="translate(-73.893 -319.271)"/><path class="n" d="M125.859,389.815A3.674,3.674,0,0,0,127,387.367c0-3.989-8.406-7.343-18.88-7.44s-19,3.022-19.053,7.012a3.671,3.671,0,0,0,1.089,2.448,2.934,2.934,0,0,0-.331,1.223,3.468,3.468,0,0,0,1.113,2.448,2.8,2.8,0,0,0-.354,1.3,3.388,3.388,0,0,0,1.151,2.448,2.583,2.583,0,0,0-.392,1.321,3.331,3.331,0,0,0,1.224,2.374,2.587,2.587,0,0,0-.416,1.334c0,3.316,6.988,6.118,15.7,6.191s15.8-2.448,15.835-5.837a2.539,2.539,0,0,0-.392-1.345,3.306,3.306,0,0,0,1.224-2.35,2.733,2.733,0,0,0-.355-1.321,3.463,3.463,0,0,0,1.224-2.374,2.846,2.846,0,0,0-.33-1.309,3.5,3.5,0,0,0,1.224-2.386A2.987,2.987,0,0,0,125.859,389.815Z" transform="translate(-74.443 -320.613)"/><path class="w" d="M125.859,389.815A3.674,3.674,0,0,0,127,387.367c0-3.989-8.406-7.343-18.88-7.44s-19,3.022-19.053,7.012a3.671,3.671,0,0,0,1.089,2.448,2.934,2.934,0,0,0-.331,1.223,3.468,3.468,0,0,0,1.113,2.448,2.8,2.8,0,0,0-.354,1.3,3.388,3.388,0,0,0,1.151,2.448,2.583,2.583,0,0,0-.392,1.321,3.331,3.331,0,0,0,1.224,2.374,2.587,2.587,0,0,0-.416,1.334c0,3.316,6.988,6.118,15.7,6.191s15.8-2.448,15.835-5.837a2.539,2.539,0,0,0-.392-1.345,3.306,3.306,0,0,0,1.224-2.35,2.733,2.733,0,0,0-.355-1.321,3.463,3.463,0,0,0,1.224-2.374,2.846,2.846,0,0,0-.33-1.309,3.5,3.5,0,0,0,1.224-2.386A2.987,2.987,0,0,0,125.859,389.815Z" transform="translate(-74.443 -320.613)"/><path class="e" d="M142.811,359.6a33.565,33.565,0,1,0-55.139,25.318,5.52,5.52,0,0,1,1.983,4.8,1.59,1.59,0,0,0,0,.27c0,4.049,8.566,7.439,19.186,7.561s19.3-3.072,19.347-7.133v-.258a5.565,5.565,0,0,1,2.092-4.858A33.465,33.465,0,0,0,142.811,359.6Z" transform="translate(-75.683 -325.644)"/><path class="x" d="M142.811,359.6a33.565,33.565,0,1,0-55.139,25.318,5.52,5.52,0,0,1,1.983,4.8,1.59,1.59,0,0,0,0,.27c0,4.049,8.566,7.439,19.186,7.561s19.3-3.072,19.347-7.133v-.258a5.565,5.565,0,0,1,2.092-4.858A33.465,33.465,0,0,0,142.811,359.6Z" transform="translate(-75.683 -325.644)"/><path class="y" d="M125.578,339.889c0,6.534-7.649,11.846-17.132,11.846s-17.131-5.312-17.131-11.846,7.648-11.858,17.131-11.858S125.578,333.343,125.578,339.889Z" transform="translate(-74.234 -325.423)"/><path class="z" d="M83.292,370.742A25.788,25.788,0,0,1,88,338.878" transform="translate(-75.302 -324.417)"/><path class="j" d="M92.215,398.824a39.523,39.523,0,0,0,30.664.371" transform="translate(-74.151 -318.861)"/><path class="j" d="M92.006,395.527a39.53,39.53,0,0,0,30.665.373" transform="translate(-74.17 -319.167)"/><path class="j" d="M91.8,392.23a39.53,39.53,0,0,0,30.665.373" transform="translate(-74.189 -319.472)"/><path class="aa" d="M100.041,387.683a58.74,58.74,0,0,0,1.294-27.354c-.28-1.459-.939-3.218-2.249-3.25-1.171-.03-1.941,1.411-2.194,2.715-.893,4.612,1.5,9.3,4.556,12.484,1.657,1.725,3.664,3.229,5.9,3.339s4.4-1.222,6.024-2.994a15.32,15.32,0,0,0,3.539-13.447c-.476-2-1.9-4.159-3.69-3.776a3.248,3.248,0,0,0-2.144,2.58,10.673,10.673,0,0,0,.016,3.726,113.877,113.877,0,0,0,6.46,25.949" transform="translate(-73.735 -322.89)"/></g></g></g><g transform="translate(412.804 284.389)"><g transform="translate(0 0)"><g transform="translate(26.618 147.701)"><path class="ab" d="M424.022,411.191s107.777-25.251,112.9-2.8c7.317,32.043-70.444,53.6-111.863,52.281S424.022,411.191,424.022,411.191Z" transform="translate(-406.382 -399.09)"/><path class="ac" d="M424.022,411.191s107.777-25.251,112.9-2.8c7.317,32.043-70.444,53.6-111.863,52.281S424.022,411.191,424.022,411.191Z" transform="translate(-406.382 -399.09)"/><path class="ad" d="M498.084,414.1l-50.613,32.165,6.755,9.6s-3.558,5.272-10.331-10.925l31.314-20.7s-9.8-.983-9.556-2.516c.416-2.516,21.949-7.3,31.769-9.46a.976.976,0,1,1,.662,1.836Z" transform="translate(-402.905 -397.875)"/><path class="ad" d="M448.687,440.408l8.78,14.228a175.056,175.056,0,0,1-32.829,2.585,31.163,31.163,0,0,1-10.577-1.917l-3.084-5.64,6.64-13.359Z" transform="translate(-405.956 -395.641)"/><g transform="translate(24.584 39.11)"><g transform="translate(12.392)"><path class="ae" d="M462.733,434.883,440.221,449.16l4.035,10.926,26.432-11.878Z" transform="translate(-440.221 -434.883)"/></g><g transform="translate(0 11.298)"><path class="n" d="M428.88,451.861l2.211,7.858a3.092,3.092,0,0,1,2.176,2c.291.929-.393,3.49-.393,3.49l5.917,21.655a8.8,8.8,0,0,0,2.062-.817,10.119,10.119,0,0,0,1.73-1.555c1.6-1.847,1.775-4.524,1.835-6.506.1-3.323,2.008-13.029,2.008-13.029a10.805,10.805,0,0,1,3.4-4.756,4.829,4.829,0,0,0,2.039-3.782c-.281-1.98-1.7-2.724-3.556-2.5l-2.151.262a3.757,3.757,0,0,1-1.036-4.948s1.273-4.717-.7-3.924c-1.129.453-6.1,2.671-10.078,4.305-.927.381-1.8.741-2.574,1.056v0C430.054,451.377,428.88,451.861,428.88,451.861Z" transform="translate(-428.88 -445.223)"/><g transform="translate(14.608 23.671)"><path class="e" d="M444.355,468.128a.312.312,0,0,0-.072-.366,3.561,3.561,0,0,0-1.687-.87c-.342-.072-.5.478-.153.55a3.144,3.144,0,0,1,1.489.761.262.262,0,0,0,.421-.069Z" transform="translate(-442.249 -466.886)"/></g><g transform="translate(15.05 21.754)"><path class="e" d="M444.76,466.374a.314.314,0,0,0-.073-.367,3.577,3.577,0,0,0-1.686-.87c-.342-.071-.5.479-.153.551a3.149,3.149,0,0,1,1.489.761.262.262,0,0,0,.421-.069Z" transform="translate(-442.654 -465.131)"/></g><g transform="translate(15.417 19.802)"><path class="e" d="M445.1,464.588a.313.313,0,0,0-.072-.367,3.566,3.566,0,0,0-1.687-.87c-.342-.071-.5.479-.153.551a3.135,3.135,0,0,1,1.489.76.262.262,0,0,0,.421-.07Z" transform="translate(-442.99 -463.345)"/></g></g><g transform="translate(0 16.573)"><path class="y" d="M431.762,450.226v0c-1.709.7-2.883,1.186-2.883,1.186l2.211,7.858a3.092,3.092,0,0,1,2.176,2c.291.929-.393,3.49-.393,3.49l5.917,21.655a8.848,8.848,0,0,0,2.062-.817c.322-.234.61-.47.879-.707l-9.538-34.846Z" transform="translate(-428.88 -450.05)"/></g><path class="af" d="M444.638,464.428a13.367,13.367,0,0,1,2.24-.682,4.468,4.468,0,0,1,2.314.13,1.1,1.1,0,0,1,.769.7,1.019,1.019,0,0,1-.5.959,2.765,2.765,0,0,1-2.108.394,10.3,10.3,0,0,1-2.715-1.506" transform="translate(-427.419 -432.216)"/><path class="af" d="M444.62,464.687a13.311,13.311,0,0,0,1.746-1.559,4.467,4.467,0,0,0,1.092-2.044,1.1,1.1,0,0,0-.2-1.024,1.018,1.018,0,0,0-1.08-.071,2.766,2.766,0,0,0-1.433,1.6,10.288,10.288,0,0,0-.125,3.1" transform="translate(-427.426 -432.567)"/></g></g><path class="ae" d="M464.893,347.506s3.936,35.041,4.988,36.922C473.437,390.785,497,401.684,497,401.684l12.014-2.516,8.609,7.19-5.677,4.447-6.66-2.516a62.111,62.111,0,0,1-11.012.965c-6.206,0-36.134-7.585-41.13-15.929s-7.289-46.984-7.289-46.984Z" transform="translate(-376.105 -256.278)"/><g transform="translate(1.688)"><path class="e" d="M445.688,363.445s-9.233-30.773,2.271-39.317,20.653,33.767,20.653,33.767Z" transform="translate(-378.133 -258.443)"/><path class="ag" d="M445.688,363.445s-9.233-30.773,2.271-39.317,20.653,33.767,20.653,33.767Z" transform="translate(-378.133 -258.443)"/><path class="e" d="M458.407,420.245l-.09-40.788-.876-55.848-24.1-5.227-20.974-.926L388.5,328.376l-.556,13.7s2.728,62.924,2.575,64.821c-.188,2.326-6.956,16.921-6.956,16.921C413.716,430.694,458.881,422.324,458.407,420.245Z" transform="translate(-383.566 -258.955)"/><path class="ag" d="M458.407,420.245l-.09-40.788-.876-55.848-24.1-5.227-20.974-.926L388.5,328.376l-.556,13.7s2.728,62.924,2.575,64.821c-.188,2.326-6.956,16.921-6.956,16.921C413.716,430.694,458.881,422.324,458.407,420.245Z" transform="translate(-383.566 -258.955)"/><g transform="translate(30.26)"><path class="n" d="M450.526,287.9a2.786,2.786,0,0,0,.244-5.511l-6.178-.62.882,11.9a6.4,6.4,0,0,0,3.651-.031,3.961,3.961,0,0,0,2.548-2.493A2.89,2.89,0,0,0,450.526,287.9Z" transform="translate(-408.17 -262.263)"/><g transform="translate(0 31.808)"><path class="ae" d="M430.006,309.733l-13.277-16.7a.223.223,0,0,0-.009.058c0,1.579-.052,3.384-.182,5.309-.005.013-1.426-.682-1.431-.669-.568,8.68-4,23.487-3.842,24.768l13.951,6.932h2.8l.229-8.187C426.845,317.7,428.167,313.581,430.006,309.733Z" transform="translate(-411.259 -293.028)"/><path class="p" d="M427.311,314.036l-8.4-6.637c-.209,3.379,1.557,8.685,8.29,11.444A9.862,9.862,0,0,1,427.311,314.036Z" transform="translate(-410.551 -291.696)"/></g><g transform="translate(1.093 3.374)"><path class="ae" d="M419.068,286.5c-2.748,11.243-3.783,16.642.057,23.986,5.777,11.048,19.886,11.142,25.953.918,5.462-9.2,9.039-26.042-.45-33.689A15.967,15.967,0,0,0,419.068,286.5Z" transform="translate(-411.855 -266.345)"/><path class="n" d="M421.671,271.9c3.4-5.609,12.308-6.519,15.6-2.091.492.662-4.829.822-4.22.792l-3.119,8.856c-.609-.349-2.132.016-3.429,1.843,0,0-2.006,12.183-8.32,15.591C411.984,288.337,412.692,271.915,421.671,271.9Z" transform="translate(-412.086 -267.006)"/><path class="ae" d="M412.259,293.082a10.861,10.861,0,0,0,3.3,7.694c2.784,2.657,6.016.6,6.783-2.97.691-3.216.074-8.473-3.462-9.776C415.4,286.744,412.259,289.522,412.259,293.082Z" transform="translate(-412.259 -265.087)"/><path class="n" d="M432.8,294.213c-.351,1.129-.034,2.224.707,2.447s1.627-.514,1.978-1.642.034-2.224-.708-2.447S433.154,293.084,432.8,294.213Z" transform="translate(-410.368 -264.64)"/><path class="n" d="M442.936,297.5c-.351,1.13-.034,2.225.707,2.447s1.627-.512,1.978-1.641.034-2.225-.708-2.447S443.287,296.376,442.936,297.5Z" transform="translate(-409.429 -264.335)"/><path class="ah" d="M439.547,294.6s1.4,5.143,2.046,8.2a1.215,1.215,0,0,1-1.139,1.464,6.682,6.682,0,0,1-3.154-.868Z" transform="translate(-409.938 -264.448)"/><path class="n" d="M431.728,287.985a.561.561,0,0,0,.554.091,4.462,4.462,0,0,1,4,.31.559.559,0,0,0,.776-.12.548.548,0,0,0-.12-.769,5.547,5.547,0,0,0-5.05-.449.549.549,0,0,0-.161.938Z" transform="translate(-410.473 -265.185)"/><path class="n" d="M448.707,292.9a.559.559,0,0,0,.339-.919,5.452,5.452,0,0,0-4.653-1.9.562.562,0,0,0-.467.634.548.548,0,0,0,.622.463,4.247,4.247,0,0,1,3.669,1.543A.55.55,0,0,0,448.707,292.9Z" transform="translate(-409.324 -264.869)"/></g><g transform="translate(19.37 38.725)"><path class="n" d="M432.213,305.256a8.3,8.3,0,0,0,1.236.837.327.327,0,0,0,.413-.09h0a.325.325,0,0,0-.138-.41,8.023,8.023,0,0,1-4.15-5.966.3.3,0,0,0-.312-.27.26.26,0,0,0-.27.314A8.192,8.192,0,0,0,432.213,305.256Z" transform="translate(-428.986 -299.358)"/></g><path class="n" d="M459.12,281.172c-.757-2.245-3.431-3.187-5.794-3.357a2.983,2.983,0,0,0,2.652-3.016,4.982,4.982,0,0,0-2.082-3.759,7.742,7.742,0,0,0-7.512-1.074,1.134,1.134,0,0,0,.483-1.34,2.5,2.5,0,0,0-.95-1.193,6.955,6.955,0,0,0-8.68.427,5.74,5.74,0,0,0-6.7-3.784c-2.677.7-7.722,1.234-8.5,8.087a5.558,5.558,0,1,0-6.559,8.974,2.622,2.622,0,0,0-3.249,1.508,3.747,3.747,0,0,0,.741,3.716,6.742,6.742,0,0,0,3.379,2,6.532,6.532,0,0,0,3.7.113,3.555,3.555,0,0,0,2.5-2.556,2.668,2.668,0,0,0,2.85,2.106,3.091,3.091,0,0,0,2.6-2.545,3.684,3.684,0,0,0-1.438-3.431,3.354,3.354,0,0,0,5.149-1.015,10.492,10.492,0,0,0,4.823,5.014c2.171.936,5.033.541,6.423-1.374a11.105,11.105,0,0,0,2.338,2.24,3.754,3.754,0,0,0,3.1.559,2.3,2.3,0,0,0,1.626-2.483,6.626,6.626,0,0,0,6.211,1.441C458.319,285.707,459.83,283.277,459.12,281.172Z" transform="translate(-411.19 -263.918)"/></g><path class="e" d="M421.048,325.858s5.851,5.21,8.846-1.524l1.56,1.215s-.152,5.009-2.99,6.685c.688,2.78,12.567,43.234,14.693,63.623l-3.247,8.268-8.626-6.809s-4.188-34.981-5.621-64.7a12.091,12.091,0,0,1-7.455-7.067Z" transform="translate(-380.355 -258.318)"/><path class="p" d="M427.715,327.05l5.071,3.944.829-11.839L432,318.811l-1.34,7.98-2.411-1.4Z" transform="translate(-379.474 -258.83)"/><path class="p" d="M405.352,319.781c-.085.039,11.942,14.7,11.942,14.7l4.082-3.109L424.183,329l.729-.895-15.919-11.058a22.88,22.88,0,0,1-2.355,2.179A7.437,7.437,0,0,0,405.352,319.781Z" transform="translate(-381.547 -258.993)"/><path class="e" d="M406.135,319.761l5.818-5.193,15.92,14.9L423.708,328l-6.065,4.661Z" transform="translate(-381.474 -259.223)"/><path class="e" d="M426.037,329.391c-.353-.673.343-13.946.343-13.946l6.57,3.591c-.3-.062-.5,11.191-.679,11.191s-3.738-3.843-3.738-3.843Z" transform="translate(-379.639 -259.142)"/><path class="n" d="M423.054,331.028" transform="translate(-379.906 -257.698)"/><path class="p" d="M451.772,360.724l-1.233-26.3,5.884,25.179Z" transform="translate(-377.359 -257.383)"/><path class="p" d="M405.3,364.088c.743-.145,4.5-1.377,4.5-1.377l-8.355-23.24,11.469,25.71-6.894,2.745Z" transform="translate(-381.909 -256.915)"/><path class="ag" d="M406.135,319.761l5.818-5.193,15.92,14.9L423.708,328l-6.065,4.661Z" transform="translate(-381.474 -259.223)"/><path class="ag" d="M426.037,329.391c-.353-.673.343-13.946.343-13.946l6.57,3.591c-.3-.062-.5,11.191-.679,11.191s-3.738-3.843-3.738-3.843Z" transform="translate(-379.639 -259.142)"/><path class="t" d="M434.291,348.2l2.671,13.123,7.78,2.819,5.264-4.589-.963-12.393Z" transform="translate(-378.865 -256.202)"/><path class="e" d="M427.22,327.166l-2.463.6c-.008,0-.094.156-.034.057.034-.057-1.347,4.666-1.347,4.666.4.351,1.722,2.64,1.875,2.6s3.423-.341,3.423-.341l1.187-3.464S427.2,327.137,427.22,327.166Z" transform="translate(-379.876 -258.055)"/><path class="p" d="M427.22,327.166l-2.463.6c-.008,0-.094.156-.034.057.034-.057-1.347,4.666-1.347,4.666.4.351,1.722,2.64,1.875,2.6s3.423-.341,3.423-.341l1.187-3.464S427.2,327.137,427.22,327.166Z" transform="translate(-379.876 -258.055)"/></g><g transform="translate(0 68.891)"><path class="ae" d="M403.73,344.361s5.847,38.9,9.223,42.539c5.706,6.145,33.974,22.451,33.974,22.451l14.109-4.948a3.16,3.16,0,0,1,2.89.47l9.646,7.363-.921.777a1.337,1.337,0,0,1-1.443.17l-1.5-.746,1.676,1.643-.531.448a2.157,2.157,0,0,1-1.939.423L464.6,413.8l3.981,2.649a3.568,3.568,0,0,1-3.261.686l-6.311-1.8a80.151,80.151,0,0,1-13.1,1.876c-7.43.458-42.52-11.8-49.059-20.778s-13.284-46.25-13.284-46.25Z" transform="translate(-381.878 -325.352)"/><path class="e" d="M385.2,371.854s-8.744-35.258,2.76-43.8,22.9,36.062,22.9,36.062Z" transform="translate(-382.021 -326.965)"/><path class="ag" d="M385.2,371.854s-8.744-35.258,2.76-43.8,22.9,36.062,22.9,36.062Z" transform="translate(-382.021 -326.965)"/></g><g transform="translate(52.618 116.484)"><g transform="translate(0 42.111)"><path class="n" d="M474.9,409.06H430.176v.014c.011,1.708,1.918,3.086,4.259,3.078h72.857c2.323-.016,4.19-1.4,4.18-3.092Z" transform="translate(-430.176 -409.06)"/></g><path class="n" d="M504.937,415.549h-40.86a1.167,1.167,0,0,1-1.266-1.034.842.842,0,0,1,.064-.312l18.177-41.673a3.553,3.553,0,0,1,3.38-2.009h40.886a1.148,1.148,0,0,1,1.251,1.005.827.827,0,0,1-.074.341L508.318,413.54A3.58,3.58,0,0,1,504.937,415.549Z" transform="translate(-427.151 -370.521)"/><path class="x" d="M528.343,370.521H487.458a3.554,3.554,0,0,0-3.381,2.009l-17.492,40.1H430.176v.014c.011,1.708,1.918,3.086,4.259,3.078h72.857a5.387,5.387,0,0,0,2.016-.406,3.217,3.217,0,0,0,2.035-1.778l18.177-41.673a.827.827,0,0,0,.074-.341A1.148,1.148,0,0,0,528.343,370.521Z" transform="translate(-430.176 -370.521)"/><path class="l" d="M497.994,391.174c-.883,2-2.673,3.373-4.007,3.093s-1.69-2.1-.834-4.107,2.667-3.347,4-3.067S498.888,389.122,497.994,391.174Z" transform="translate(-424.382 -368.988)"/><g class="k" transform="translate(35.66)"><line class="ai" x2="0.75" transform="translate(0 42.111)"/><path d="M480.989,372.53l-17.492,40.1h1.895l18.978-42.111A3.554,3.554,0,0,0,480.989,372.53Z" transform="translate(-462.747 -370.521)"/></g></g><g transform="translate(1.522 154.121)"><g transform="translate(107.108 26.816)"><g transform="translate(0 8.63)"><path class="ae" d="M481.437,452.654l26.319,4.236,4.223-10.855-27.663-8.63Z" transform="translate(-481.437 -437.405)"/></g><g transform="translate(21.496)"><path class="n" d="M517.636,463.1l3.554-7.348a3.092,3.092,0,0,1-.3-2.942c.4-.888,2.608-2.353,2.608-2.353l9.926-20.134a8.727,8.727,0,0,0-2.085-.756,10.114,10.114,0,0,0-2.325.017c-2.421.322-4.328,2.211-5.687,3.655-2.277,2.421-10.141,8.422-10.141,8.422a10.808,10.808,0,0,1-5.7,1.307,4.832,4.832,0,0,0-4.033,1.479c-1.1,1.669-.531,3.169,1,4.23l1.784,1.229a3.756,3.756,0,0,1-2.5,4.39s-4.08,2.689-2.073,3.406c1.145.409,6.336,2.043,10.4,3.457.946.329,1.842.643,2.628.917v0C516.436,462.682,517.636,463.1,517.636,463.1Z" transform="translate(-501.11 -429.507)"/><g transform="translate(15.939 8.806)"><path class="e" d="M515.886,437.588a.313.313,0,0,0-.188.322,3.562,3.562,0,0,0,.686,1.77c.209.28.689-.027.479-.31a3.151,3.151,0,0,1-.61-1.557.263.263,0,0,0-.362-.227Z" transform="translate(-515.696 -437.566)"/></g><g transform="translate(14.337 9.948)"><path class="e" d="M514.42,438.633a.313.313,0,0,0-.188.322,3.562,3.562,0,0,0,.686,1.77c.209.28.69-.028.479-.31a3.163,3.163,0,0,1-.611-1.557.262.262,0,0,0-.361-.227Z" transform="translate(-514.23 -438.611)"/></g><g transform="translate(12.768 11.165)"><path class="e" d="M512.984,439.747a.314.314,0,0,0-.188.323,3.558,3.558,0,0,0,.686,1.769c.209.28.69-.027.479-.31a3.144,3.144,0,0,1-.611-1.557.262.262,0,0,0-.361-.227Z" transform="translate(-512.794 -439.725)"/></g></g><path class="y" d="M519.775,452.807c.4-.888,2.608-2.352,2.608-2.352l9.926-20.134a8.726,8.726,0,0,0-2.085-.756,11.278,11.278,0,0,0-1.127-.052l-15.96,32.41.438.153v0c1.744.609,2.944,1.024,2.944,1.024l3.554-7.348A3.092,3.092,0,0,1,519.775,452.807Z" transform="translate(-478.499 -429.506)"/><path class="af" d="M513.435,440.364a13.307,13.307,0,0,1-2.13-.975,4.48,4.48,0,0,1-1.646-1.631,1.1,1.1,0,0,1-.11-1.037,1.02,1.02,0,0,1,1.012-.387,2.762,2.762,0,0,1,1.839,1.1,10.289,10.289,0,0,1,1.035,2.927" transform="translate(-478.84 -428.875)"/><path class="af" d="M513.487,440.1a13.3,13.3,0,0,0-2.342.01,4.466,4.466,0,0,0-2.172.806,1.1,1.1,0,0,0-.528.9,1.018,1.018,0,0,0,.762.769,2.765,2.765,0,0,0,2.13-.245,10.272,10.272,0,0,0,2.15-2.24" transform="translate(-478.934 -428.529)"/></g><path class="n" d="M391.621,443.659c-5.676-9.039-18.506-33.538,7.53-38.31s113.022,36.566,113.022,36.566l-5.512,16.6L425.7,445.753s11.079,14.789-2.358,14.115C403.794,457.934,399.1,453.258,391.621,443.659Z" transform="translate(-383.414 -404.966)"/><path class="ad" d="M425.753,443.293,403.541,436.3s18.635,11.4,25.469,12.755Z" transform="translate(-381.549 -402.061)"/></g></g></g></g></svg>