<?xml version="1.0" encoding="utf-8"?>
<!-- Generator: Adobe Illustrator 26.0.1, SVG Export Plug-In . SVG Version: 6.00 Build 0)  -->
<svg version="1.1" id="Layer_1" xmlns="http://www.w3.org/2000/svg" xmlns:xlink="http://www.w3.org/1999/xlink" x="0px" y="0px"
	 viewBox="0 0 60 56.8" style="enable-background:new 0 0 60 56.8;" xml:space="preserve">
<style type="text/css">
	.st0{fill:#FFFFFF;}
	.st1{fill:#010101;}
</style>
<ellipse class="st0" cx="30" cy="28.6" rx="30" ry="28.2"/>
<path class="st1" d="M23.3,11.5c-0.6-1.4-2.1-2.1-3.5-1.7l-6.5,1.8C11.9,11.9,11,13,11,14.4c0,18.3,14.9,33.2,33.2,33.2
	c1.3,0,2.5-0.9,2.9-2.2l1.8-6.5c0.4-1.4-0.3-2.9-1.7-3.5l-7.1-3c-1.2-0.5-2.6-0.2-3.4,0.9l-3,3.7c-5.2-2.5-9.4-6.7-11.9-11.9l3.7-3
	c1-0.8,1.4-2.2,0.9-3.4L23.3,11.5L23.3,11.5z"/>
</svg>
