<?xml version="1.0" encoding="utf-8"?>
<!-- Generator: Adobe Illustrator 26.0.1, SVG Export Plug-In . SVG Version: 6.00 Build 0)  -->
<svg version="1.1" id="Layer_1" xmlns="http://www.w3.org/2000/svg" xmlns:xlink="http://www.w3.org/1999/xlink" x="0px" y="0px"
	 viewBox="0 0 45 45" style="enable-background:new 0 0 45 45;" xml:space="preserve">
<style type="text/css">
	.st0{fill:#FFFFFF;}
	.st1{fill:#010101;}
</style>
<circle class="st0" cx="23.2" cy="22.3" r="21.8"/>
<path class="st1" d="M19.8,13.8c-0.3-0.7-1-1-1.7-0.8l-3.2,0.9c-0.6,0.2-1.1,0.8-1.1,1.4c0,9,7.3,16.4,16.4,16.4
	c0.7,0,1.2-0.4,1.4-1.1l0.9-3.2c0.2-0.7-0.2-1.5-0.8-1.7l-3.5-1.5c-0.6-0.2-1.3-0.1-1.7,0.4l-1.5,1.8c-2.6-1.2-4.7-3.3-5.9-5.9
	l1.8-1.5c0.5-0.4,0.7-1.1,0.4-1.7L19.8,13.8L19.8,13.8z"/>
</svg>
