<svg xmlns="http://www.w3.org/2000/svg" xmlns:xlink="http://www.w3.org/1999/xlink" width="622.895" height="515.003" viewBox="0 0 622.895 515.003"><defs><style>.a{fill:#c9dbff;}.b{fill:url(#a);}.c{fill:url(#b);}.d{fill:url(#c);}.e{fill:#bad0ff;}.f{fill:#d1e0ff;}.g{fill:url(#d);}.h{fill:#4a70c9;}.i{fill:#a6c3ff;}.j{fill:#223763;}.k{fill:#214aad;}.l{fill:url(#f);}.m{fill:#471312;}.aa,.ah,.aj,.al,.am,.an,.at,.av,.bu,.bx,.n,.q,.t,.v{mix-blend-mode:overlay;}.aa,.ab,.ac,.ah,.aj,.al,.am,.an,.at,.av,.bu,.bx,.n,.q,.t,.v{isolation:isolate;}.n{fill:url(#g);}.o{fill:#163173;}.p{fill:#285ee0;}.q{fill:url(#h);}.r{fill:#18357d;}.s{fill:#5c9dad;}.t{fill:url(#i);}.u{fill:#296473;}.v{fill:url(#j);}.w{fill:url(#k);}.x{fill:#fff;}.ac,.y{fill:#fcbc19;}.ab,.z{fill:#ff5787;}.aa{fill:url(#l);}.ab,.ac{mix-blend-mode:hard-light;}.ad,.ae,.ak,.au,.br,.bz{fill:none;stroke-linecap:round;stroke-linejoin:round;}.ad{stroke:#fff;stroke-width:0.47px;}.ae{stroke:#cfa028;}.ae,.au{stroke-width:3.661px;}.af{fill:#b02a51;}.ag{fill:#d95757;}.ah{opacity:0.51;fill:url(#n);}.ai{fill:#d97e7e;}.aj{fill:url(#o);}.ak{stroke:#18357d;stroke-width:0.521px;}.al{fill:url(#p);}.am{fill:url(#q);}.ao{fill:url(#r);}.ap{fill:url(#s);}.aq{fill:url(#t);}.ar{fill:url(#u);}.as{fill:#3c72e8;}.at{fill:url(#v);}.au{stroke:#285ee0;}.av{fill:url(#w);}.aw{fill:#859fd6;}.ax{fill:url(#x);}.ay{fill:url(#y);}.az{fill:url(#z);}.ba{fill:url(#aa);}.bb{fill:url(#ab);}.bc{fill:url(#ac);}.bd{fill:url(#ad);}.be{fill:url(#ae);}.bf{fill:url(#af);}.bg{fill:url(#ag);}.bh{fill:#ff9191;}.bi{fill:url(#ah);}.bj{fill:url(#ai);}.bk{fill:#b6b878;}.bl{fill:url(#aj);}.bm{fill:#d6d6d6;}.bn{fill:url(#ak);}.bo{fill:url(#al);}.bp{fill:url(#ao);}.bq{fill:url(#ap);}.br{stroke:#d95757;stroke-width:0.261px;}.bs{fill:#2f5563;}.bt{fill:#3d6f82;}.bu{fill:url(#aq);}.bv{fill:url(#ar);}.bw{fill:url(#as);}.bx{fill:url(#at);}.by{fill:url(#au);}.bz{stroke:#9e4724;stroke-width:0.841px;}.ca{fill:#0c1b40;}</style><linearGradient id="a" x1="0.561" y1="0.887" x2="0.279" y2="-0.098" gradientUnits="objectBoundingBox"><stop offset="0" stop-color="#fff" stop-opacity="0"/><stop offset="0.085" stop-color="#fafcff" stop-opacity="0.035"/><stop offset="0.224" stop-color="#f0f4ff" stop-opacity="0.133"/><stop offset="0.401" stop-color="#dee8ff" stop-opacity="0.29"/><stop offset="0.609" stop-color="#c5d7ff" stop-opacity="0.514"/><stop offset="0.839" stop-color="#a6c2ff" stop-opacity="0.788"/><stop offset="1" stop-color="#8fb2ff"/></linearGradient><linearGradient id="b" x1="0.733" y1="-0.129" x2="0.497" y2="0.682" gradientUnits="objectBoundingBox"><stop offset="0" stop-color="#b7ebcf"/><stop offset="0.126" stop-color="#b0e6ce"/><stop offset="0.298" stop-color="#9fdacb"/><stop offset="0.498" stop-color="#82c6c7"/><stop offset="0.715" stop-color="#5aabc1"/><stop offset="0.841" stop-color="#4099bd"/></linearGradient><linearGradient id="c" x1="0.776" y1="-0.169" x2="0.427" y2="0.907" xlink:href="#b"/><linearGradient id="d" x1="0.959" y1="0.176" x2="-0.107" y2="0.929" gradientUnits="objectBoundingBox"><stop offset="0" stop-color="#4a70c9"/><stop offset="1" stop-color="#163173"/></linearGradient><linearGradient id="f" x1="0.187" y1="0.866" x2="0.605" y2="0.27" gradientUnits="objectBoundingBox"><stop offset="0" stop-opacity="0"/><stop offset="1"/></linearGradient><linearGradient id="g" x1="0.092" y1="0.849" x2="1.239" y2="-0.237" xlink:href="#f"/><linearGradient id="h" x1="0.5" y1="1.152" x2="0.5" y2="0.36" xlink:href="#f"/><linearGradient id="i" x1="0.226" y1="0.98" x2="0.87" y2="-0.214" xlink:href="#f"/><linearGradient id="j" x1="0.5" y1="1.152" x2="0.5" y2="0.36" xlink:href="#f"/><linearGradient id="k" x1="0" y1="0.5" x2="1" y2="0.5" xlink:href="#d"/><linearGradient id="l" x1="-0.156" y1="0.5" x2="0.595" y2="0.5" xlink:href="#f"/><linearGradient id="n" x1="1.077" y1="1.283" x2="-0.127" y2="-0.233" xlink:href="#f"/><linearGradient id="o" x1="0.51" y1="0.921" x2="0.48" y2="-0.281" xlink:href="#f"/><linearGradient id="p" x1="0.84" y1="0.951" x2="-0.438" y2="-0.182" xlink:href="#f"/><linearGradient id="q" x1="0.613" y1="0.927" x2="-0.104" y2="-0.286" xlink:href="#f"/><linearGradient id="r" x1="-4.142" y1="1.273" x2="5.388" y2="-0.314" xlink:href="#f"/><linearGradient id="s" x1="-4.344" y1="1.84" x2="5.186" y2="-0.796" xlink:href="#f"/><linearGradient id="t" x1="-4.142" y1="1.273" x2="5.388" y2="-0.314" xlink:href="#f"/><linearGradient id="u" x1="-4.344" y1="1.84" x2="5.186" y2="-0.796" xlink:href="#f"/><linearGradient id="v" x1="0.5" y1="-0.089" x2="0.5" y2="1.157" xlink:href="#f"/><linearGradient id="w" x1="0.423" y1="1.374" x2="0.613" y2="-0.457" xlink:href="#f"/><linearGradient id="x" x1="0.624" y1="0.5" x2="-0.481" y2="0.5" gradientUnits="objectBoundingBox"><stop offset="0" stop-color="#fff"/><stop offset="1" stop-color="#8fb2ff"/></linearGradient><linearGradient id="y" x1="0.711" y1="0.5" x2="-0.336" y2="0.5" xlink:href="#x"/><linearGradient id="z" x1="0.5" y1="-0.251" x2="0.5" y2="0.491" xlink:href="#x"/><linearGradient id="aa" x1="0.5" y1="-0.11" x2="0.5" y2="1.461" gradientUnits="objectBoundingBox"><stop offset="0.161" stop-color="#d95757"/><stop offset="1" stop-color="#471312"/></linearGradient><linearGradient id="ab" x1="4.204" y1="0.5" x2="3.099" y2="0.5" xlink:href="#x"/><linearGradient id="ac" x1="1.798" y1="0.5" x2="0.751" y2="0.5" xlink:href="#x"/><linearGradient id="ad" x1="1.587" y1="-0.251" x2="1.587" y2="1.178" xlink:href="#x"/><linearGradient id="ae" x1="1.672" y1="-0.11" x2="1.672" y2="1.461" gradientUnits="objectBoundingBox"><stop offset="0.301" stop-color="#cfa028"/><stop offset="0.949" stop-color="#cf6728"/></linearGradient><linearGradient id="af" x1="0.47" y1="0.5" x2="-0.425" y2="0.5" xlink:href="#x"/><linearGradient id="ag" x1="0.5" y1="-0.23" x2="0.5" y2="1.793" xlink:href="#x"/><linearGradient id="ah" x1="0.3" y1="0.249" x2="1.272" y2="1.47" xlink:href="#x"/><linearGradient id="ai" x1="0.3" y1="0.249" x2="1.272" y2="1.47" gradientUnits="objectBoundingBox"><stop offset="0" stop-color="#ffffb6"/><stop offset="1" stop-color="#8fb2bb"/></linearGradient><linearGradient id="aj" y1="0.5" x2="1" y2="0.5" gradientUnits="objectBoundingBox"><stop offset="0" stop-color="#fff" stop-opacity="0"/><stop offset="0.488" stop-color="#fff"/><stop offset="1" stop-color="#fff" stop-opacity="0"/></linearGradient><linearGradient id="ak" x1="0.233" y1="0.5" x2="1.233" y2="0.5" xlink:href="#x"/><linearGradient id="al" y1="0.5" x2="1" y2="0.5" gradientUnits="objectBoundingBox"><stop offset="0" stop-color="#ababab"/><stop offset="1" stop-color="#8fb2ff"/></linearGradient><linearGradient id="ao" x1="-0.163" y1="0.5" x2="1.163" y2="0.5" xlink:href="#ae"/><linearGradient id="ap" x1="0.818" y1="1.008" x2="0.468" y2="0.502" gradientUnits="objectBoundingBox"><stop offset="0" stop-color="#295dd9"/><stop offset="0.899" stop-color="#214aad"/></linearGradient><linearGradient id="aq" x1="1.033" y1="0.856" x2="-1.03" y2="-0.85" xlink:href="#f"/><linearGradient id="ar" x1="0" y1="0.5" x2="1" y2="0.5" xlink:href="#ae"/><linearGradient id="as" x1="0.32" y1="0.062" x2="0.754" y2="1.092" xlink:href="#ae"/><linearGradient id="at" x1="1.174" y1="1.113" x2="-0.039" y2="-0.352" xlink:href="#f"/><linearGradient id="au" x1="0.986" y1="-0.209" x2="0.204" y2="0.902" xlink:href="#ae"/></defs><g transform="translate(-125.979 -34.816)"><path class="a" d="M320.265,398.643c-27.588,15.647-27.657,41.452-.152,57.346s72.649,15.892,100.32,0,27.738-41.7.15-57.346S347.851,383,320.265,398.643Z" transform="translate(40.375 81.911)"/><path class="a" d="M392.739,346.145c-27.588,15.647-27.657,41.453-.152,57.346s72.649,15.892,100.32,0,27.738-41.7.15-57.346S420.325,330.5,392.739,346.145Z" transform="translate(57.235 69.698)"/><path class="a" d="M489.987,319.339c-27.588,15.647-27.656,41.452-.152,57.346s72.649,15.892,100.32,0,27.738-41.7.15-57.346S517.575,303.692,489.987,319.339Z" transform="translate(79.859 63.462)"/><path class="a" d="M214.663,364.946c-27.588,15.647-27.656,41.452-.15,57.346s72.648,15.894,100.319,0,27.738-41.7.15-57.346S242.251,349.3,214.663,364.946Z" transform="translate(15.808 74.072)"/><path class="b" d="M127.894,513.6,607.411,236.748s-6.06-46.713-73.946-42.234S449.984,135.548,388.6,169.794,314.544,58.742,266.4,88.233c-50.595,30.992-22.578,104.94-80.378,100.93S124.979,357.164,127.894,513.6Z" transform="translate(0.275 11.502)"/><path class="c" d="M451.376,227.225l218.83,126.341s11.622-53.786-11.13-48.242c1.362-33.613,4.827-86.808-19.146-62.179-9.185-51.538-21.708-93.281-36.737-99.544s-30.52,5.331-33.731,19.265c0,0-31.967-44.316-59.681,6.617-25.563-6.617-31.989,31.331-31.989,31.331S451.56,207.887,451.376,227.225Z" transform="translate(75.701 24.902)"/><path class="d" d="M127.046,437.155,309.514,332.379s-7.322-57.834-22.5-52.465-17.123-38.573-43.727-37.761-13.772,48.121-36.237,66.7-39.535,5.233-49.159,38.934S120.188,401.6,127.046,437.155Z" transform="translate(0 48.232)"/><g transform="translate(137.292 239.221)"><path class="e" d="M283.849,316.425,136.983,404.38l-1.825-1.4V287.2l148.692-86.552Z" transform="translate(-135.157 -200.643)"/><g transform="translate(1.825 1.403)"><path class="f" d="M285.33,317.563,136.638,404.115V288.334L285.33,201.781Z" transform="translate(-136.638 -201.781)"/><g transform="translate(11.284 42.95)"><path class="g" d="M217.147,257.9l-56.788,33.056v-10.6L217.147,247.3Z" transform="translate(-142.403 -234.142)"/><ellipse class="h" cx="14.265" cy="8.034" rx="14.265" ry="8.034" transform="translate(0 55.634) rotate(-53.114)"/><g transform="translate(4.283)"><path class="i" d="M266.826,238.333l-117.559,68.43v-1.708l117.559-68.431Z" transform="translate(-149.266 -236.625)"/><path class="i" d="M266.826,242.619l-117.559,68.43v-1.708l117.559-68.43Z" transform="translate(-149.266 -235.628)"/><path class="i" d="M266.826,246.9l-117.559,68.43v-1.708L266.826,245.2Z" transform="translate(-149.266 -234.631)"/></g></g><g transform="translate(11.283 91.234)"><path class="g" d="M217.147,297.071l-56.788,33.056v-10.6l56.788-33.056Z" transform="translate(-142.403 -273.313)"/><ellipse class="h" cx="14.265" cy="8.034" rx="14.265" ry="8.034" transform="translate(0 55.634) rotate(-53.114)"/><g transform="translate(4.283)"><path class="i" d="M266.826,277.5l-117.559,68.43v-1.708L266.826,275.8Z" transform="translate(-149.266 -275.796)"/><path class="i" d="M266.826,281.79,149.266,350.22v-1.708l117.559-68.43Z" transform="translate(-149.266 -274.799)"/><path class="i" d="M266.826,286.075l-117.559,68.43V352.8l117.559-68.43Z" transform="translate(-149.266 -273.802)"/></g></g></g></g><g transform="translate(263.539 336.089)"><path class="j" d="M249.734,382.664l1.129,7.353,7.9,8.712-.625.417a4.176,4.176,0,0,1-3.806.435c-3.045-1.156-8.7-3.317-10.894-4.24-3.066-1.291-4.679-3.387-4.033-4.839s2.9-9.518,2.9-9.518Z" transform="translate(-237.183 -255.557)"/><path class="j" d="M274.377,369.225l1.129,7.353,7.9,8.712-.626.417a4.174,4.174,0,0,1-3.805.435c-3.046-1.156-8.7-3.317-10.9-4.24-3.064-1.291-4.678-3.387-4.032-4.839s2.9-9.518,2.9-9.518Z" transform="translate(-231.451 -258.683)"/><path class="k" d="M237.577,304.542l3.14,99.432s5.52,5.437,10.3,1.759c3.234-11.637,23.58-119.417,23.58-119.417Z" transform="translate(-237.577 -277.58)"/><path class="k" d="M264.767,283.961v105.1s5.52,5.436,10.3,1.759c3.236-11.639,17.512-111.587,17.512-111.587Z" transform="translate(-231.252 -279.229)"/><path class="l" d="M284.226,372.76c3.242-19.079,8.048-51.326,11.268-73.332L256.372,293.6l-18.8,9.253,1.16,36.72c5,3.927,13.478,10.166,22.164,16.461,3.645-18.663,7.5-38.813,10.191-52.933v60.281C276.129,366.993,280.749,370.288,284.226,372.76Z" transform="translate(-237.577 -275.887)"/></g><g transform="translate(346.593 385.86)"><path class="k" d="M329.1,415.2l1.154,7.91s-2.122,2.846-6.639,1.77-9.594-3.529-14.3-5.592-4.429-6.156.959-5.336a85.281,85.281,0,0,0,13.653.386Z" transform="translate(-304.715 -297.682)"/><path class="m" d="M304.956,348.069l13.536,82s8.573,5.337,12.092,3.276.769-3.074,0-9.156,1.291-11.152-.737-16.22,2.487-52.31,2.487-52.31Z" transform="translate(-304.956 -312.984)"/><path class="n" d="M316.357,360.884c4.129,3.008,9.866,11.408,13.441,17.03.857-11.841,1.891-22.665,1.891-22.665l-14.042-3.893-9.917-1.527A25.551,25.551,0,0,0,316.357,360.884Z" transform="translate(-304.311 -312.575)"/><path class="k" d="M364.149,394.869l1.155,7.909s-2.123,2.846-6.639,1.77-9.594-3.529-14.3-5.592-4.429-6.156.959-5.336a85.2,85.2,0,0,0,13.653.387Z" transform="translate(-296.562 -302.412)"/><path class="m" d="M339.776,328.032l13.537,82s8.572,5.337,12.091,3.278.769-3.075,0-9.157,1.291-11.152-.737-16.22,2.487-52.31,2.487-52.31Z" transform="translate(-296.855 -317.646)"/><path class="o" d="M346.9,440.551c-13-7.5-13-19.784,0-27.288s34.266-7.5,47.264,0,13,19.784,0,27.288S359.9,448.056,346.9,440.551Z" transform="translate(-297.466 -299.127)"/><path class="p" d="M360.616,361.471V437.89h0a2.211,2.211,0,0,0,1.3,1.821,7,7,0,0,0,6.309,0,2.211,2.211,0,0,0,1.3-1.821V361.471Z" transform="translate(-292.007 -309.866)"/><path class="q" d="M360.616,413.813a15.094,15.094,0,0,0,8.911,0V361.471h-8.911Z" transform="translate(-292.007 -309.866)"/><path class="o" d="M423.909,365.358h-10.75l-33.022-19.065a14.264,14.264,0,0,0-12.861,0l-33.023,19.065H323.5v8.388h0c0,1.346.884,2.692,2.653,3.713l41.12,23.741a14.271,14.271,0,0,0,12.861,0l41.12-23.741c1.769-1.021,2.653-2.367,2.653-3.713h0Z" transform="translate(-300.641 -313.754)"/><path class="k" d="M326.156,370.655c-3.536-2.042-3.536-5.384,0-7.427l41.12-23.741a14.264,14.264,0,0,1,12.861,0l41.12,23.742c3.536,2.041,3.536,5.383,0,7.425l-41.12,23.739a14.264,14.264,0,0,1-12.861,0Z" transform="translate(-300.641 -315.337)"/><path class="m" d="M422.546,331.449s5.677,22.168-5.013,36.091c-13.722,17.871-37.642,25.058-53.129,20.219s-59.448-33.068-59.448-33.068L364.5,319.606S411.815,326.637,422.546,331.449Z" transform="translate(-304.956 -319.606)"/></g><g transform="translate(441.764 324.471)"><path class="r" d="M409.447,361.012l1.414,12.873s-2.12,4.967-7.243,3.2-20.12-9.008-18.98-11.481,11.032-1.489,11.032-1.489l6.005-3.81Z" transform="translate(-381.604 -248.748)"/><path class="s" d="M414.168,299.351s-3.106,62.786-1.829,78.635c0,0-10.438,6.063-13.448-1.235s-16.726-86.222-16.726-86.222Z" transform="translate(-382.165 -264.981)"/><path class="t" d="M413.182,321.821c.505-12.752.986-22.47.986-22.47l-32-8.822S391.75,310.906,413.182,321.821Z" transform="translate(-382.165 -264.981)"/><path class="r" d="M442.286,341.166l1.413,12.873s-2.12,4.969-7.242,3.2-20.122-9.009-18.982-11.482,11.032-1.488,11.032-1.488l6.005-3.811Z" transform="translate(-373.965 -253.365)"/><path class="u" d="M447.006,279.506s-3.106,62.786-1.828,78.635c0,0-10.439,6.063-13.449-1.235S415,270.684,415,270.684Z" transform="translate(-374.525 -269.598)"/><path class="o" d="M431.634,385.013c-13-7.5-13-19.784,0-27.288s34.266-7.5,47.264,0,13,19.784,0,27.288S444.632,392.517,431.634,385.013Z" transform="translate(-372.924 -250.658)"/><path class="p" d="M445.352,305.932V382.35h0a2.215,2.215,0,0,0,1.3,1.822,7,7,0,0,0,6.309,0,2.214,2.214,0,0,0,1.3-1.822V305.932Z" transform="translate(-367.465 -261.398)"/><path class="v" d="M445.352,358.274a15.084,15.084,0,0,0,8.911,0V305.932h-8.911Z" transform="translate(-367.465 -261.398)"/><path class="o" d="M508.644,309.82h-10.75l-33.021-19.067a14.266,14.266,0,0,0-12.863,0L418.988,309.82h-10.75v8.387h0c0,1.346.885,2.692,2.653,3.714l41.12,23.739a14.266,14.266,0,0,0,12.863,0l41.118-23.739c1.769-1.022,2.653-2.368,2.653-3.714h0Z" transform="translate(-376.099 -265.286)"/><path class="k" d="M410.891,315.115c-3.536-2.041-3.536-5.383,0-7.426l41.12-23.741a14.266,14.266,0,0,1,12.863,0l41.118,23.741c3.538,2.043,3.538,5.384,0,7.426l-41.118,23.741a14.266,14.266,0,0,1-12.863,0Z" transform="translate(-376.099 -266.868)"/><path class="s" d="M490.989,290.158s2.258,17.309-6.528,26.2-28.019,19.339-48.111,8.49-44.1-21.232-44.1-21.232L455.817,269.8Z" transform="translate(-379.82 -269.803)"/></g><g transform="translate(148.346 161.783)"><path class="w" d="M255.333,156.957l-20,4.35V148.283l1.692-7.673-3.911-2.458a4.862,4.862,0,0,0-4.5.561l-77.765,44.556a14.814,14.814,0,0,0-6.719,11.593v51.624c0,2.25.849,3.79,2.189,4.44l0,0,3.322,2.152,1.443-2.834,77.532-44.423a14.814,14.814,0,0,0,6.719-11.593v-18.7l23.614-16.268Z" transform="translate(-144.125 -137.82)"/><path class="h" d="M258.26,158.828l-20,4.35v-18.7c0-4.259-3.024-6.012-6.719-3.894L153.773,185.14a14.814,14.814,0,0,0-6.719,11.593v51.624c0,4.259,3.024,6.012,6.719,3.894l77.764-44.556a14.814,14.814,0,0,0,6.719-11.593V177.4Z" transform="translate(-143.444 -137.386)"/><g transform="translate(13.584 20.538)"><ellipse class="x" cx="33.75" cy="19.175" rx="33.75" ry="19.175" transform="translate(0 53.904) rotate(-52.993)"/><path class="y" d="M184.048,191.24l17.638-28.414c-3.777-1.474-8.673-1.136-14.124,1.231Z" transform="translate(-148.422 -152.746)"/><path class="z" d="M208.033,185.746a33.3,33.3,0,0,0,1.455-9.25c0-7.2-3-11.962-7.8-13.838l-17.638,28.414Z" transform="translate(-148.422 -152.579)"/><path class="s" d="M203.53,191.9a49.716,49.716,0,0,0,4.5-10.511l-23.985,5.327Z" transform="translate(-148.422 -148.222)"/><path class="f" d="M207.207,190.893l-19.482-5.183-19.481,27.508c4.667,2.882,11.658,2.413,19.481-2.068S202.54,199.124,207.207,190.893Z" transform="translate(-152.098 -147.217)"/></g></g><g transform="translate(505.755 96.736)"><path class="f" d="M513.445,149.425l-79.366,46.2v-61.8l79.366-46.2Z" transform="translate(-434.079 -84.45)"/><ellipse class="aa" cx="21.249" cy="11.967" rx="21.249" ry="11.967" transform="translate(19.423 34.998) rotate(-53.114)"/><path class="s" d="M513.445,139.927l-79.366,46.2V174.65l79.366-46.2Z" transform="translate(-434.079 -74.952)"/><g transform="translate(6.943 51.759)"><path class="x" d="M469,128.286l-29.291,17.05V144.09L469,127.04Z" transform="translate(-439.711 -127.04)"/><path class="x" d="M469,131.588l-29.291,17.05v-1.246L469,130.342Z" transform="translate(-439.711 -126.272)"/><path class="x" d="M469,134.891l-29.291,17.05v-1.246L469,133.645Z" transform="translate(-439.711 -125.503)"/><path class="x" d="M469,138.193l-29.291,17.05V154L469,136.947Z" transform="translate(-439.711 -124.735)"/><path class="x" d="M469,141.5l-29.291,17.05V157.3L469,140.249Z" transform="translate(-439.711 -123.967)"/></g><g transform="translate(44.164 30.421)"><path class="x" d="M499.2,110.975l-29.291,17.05v-1.246l29.291-17.05Z" transform="translate(-469.907 -109.729)"/><path class="x" d="M499.2,114.277l-29.291,17.05v-1.246l29.291-17.05Z" transform="translate(-469.907 -108.961)"/><path class="x" d="M499.2,117.58l-29.291,17.05v-1.246l29.291-17.05Z" transform="translate(-469.907 -108.192)"/><path class="x" d="M499.2,120.882l-29.291,17.05v-1.246l29.291-17.05Z" transform="translate(-469.907 -107.424)"/><path class="x" d="M499.2,124.184l-29.291,17.05v-1.246l29.291-17.05Z" transform="translate(-469.907 -106.656)"/></g><ellipse class="y" cx="21.249" cy="11.967" rx="21.249" ry="11.967" transform="matrix(0.6, -0.8, 0.8, 0.6, 20.537, 33.991)"/></g><g transform="translate(318.396 34.816)"><path class="w" d="M421.8,149.836,284.593,231.9l-2.513-1.769V115.11L421.8,34.816l2.513,1.769Z" transform="translate(-282.08 -34.816)"/><g transform="translate(2.513 1.769)"><path class="h" d="M423.842,151.272,284.119,231.565V116.545L423.842,36.252Z" transform="translate(-284.119 -36.252)"/><path class="ab" d="M294.5,168.918s4.828-7.035,13.154-5.168c8.143,1.826,25.479-41.149,40.958-47.22,8.551-3.354,16.085,2,24.456-5.08C385.608,100.842,389.1,66.842,405.626,58.6V118.57L294.5,182.43Z" transform="translate(-281.704 -31.053)"/><path class="ac" d="M294.5,172.771a57.14,57.14,0,0,1,10.7-11.891c6.815-5.711,11.48-4.8,19.014-10.926s11.481-15.569,20.628-22.439,17.264-7.65,26.391-21.564S392.5,76.565,405.626,69.024v47.12L294.5,180Z" transform="translate(-281.704 -28.628)"/><path class="x" d="M299.672,163.4a5.348,5.348,0,0,1-2.586,4.073c-1.429.821-2.586.328-2.586-1.1a5.345,5.345,0,0,1,2.586-4.073C298.514,161.476,299.672,161.969,299.672,163.4Z" transform="translate(-281.704 -7.021)"/><path class="f" d="M337.506,146.4l-36.8,21.146v-2.691l36.8-21.146Z" transform="translate(-280.26 -11.252)"/><path class="y" d="M299.672,171.435a5.348,5.348,0,0,1-2.586,4.073c-1.429.82-2.586.328-2.586-1.1a5.343,5.343,0,0,1,2.586-4.071C298.514,169.514,299.672,170.006,299.672,171.435Z" transform="translate(-281.704 -5.151)"/><path class="f" d="M337.506,154.439l-36.8,21.146v-2.691l36.8-21.146Z" transform="translate(-280.26 -9.382)"/><path class="z" d="M353.764,132.311a5.345,5.345,0,0,1-2.586,4.073c-1.429.821-2.586.328-2.586-1.1a5.345,5.345,0,0,1,2.586-4.073C352.607,130.391,353.764,130.884,353.764,132.311Z" transform="translate(-269.12 -14.252)"/><path class="f" d="M391.6,115.317l-36.8,21.146v-2.691l36.8-21.146Z" transform="translate(-267.675 -18.484)"/><path class="s" d="M353.764,140.35a5.345,5.345,0,0,1-2.586,4.073c-1.429.821-2.586.328-2.586-1.1a5.345,5.345,0,0,1,2.586-4.071C352.607,138.429,353.764,138.921,353.764,140.35Z" transform="translate(-269.12 -12.382)"/><path class="f" d="M391.6,123.354,354.8,144.5V141.81l36.8-21.146Z" transform="translate(-267.675 -16.614)"/><line class="ad" y2="33.962" transform="translate(35.021 104.643)"/><line class="ad" y2="41.855" transform="translate(57.247 83.978)"/><line class="ad" y2="47.12" transform="translate(79.472 65.941)"/><line class="ad" y2="54.657" transform="translate(101.698 45.633)"/><path class="ad" d="M405.627,50.779v69.61L294.5,184.25V163.841" transform="translate(-281.704 -32.872)"/></g></g><g transform="translate(364.746 217.996)"><path class="o" d="M361.964,183.7l0,.01a2.36,2.36,0,0,0-2.526.189l-36.283,21.166a7.765,7.765,0,0,0-3.47,6.041v28.788a2.356,2.356,0,0,0,1.118,2.279l0,.01,3.613,1.863,2.967-4.622,32.06-18.7a7.762,7.762,0,0,0,3.47-6.041V194.755l2.785-9.126Z" transform="translate(-319.683 -183.424)"/><path class="ae" d="M330.385,304.5V211.527a4.741,4.741,0,0,1,2.37-4.106l14.983-8.651a2.183,2.183,0,0,1,3.274,1.89v91.928" transform="translate(-317.193 -179.922)"/><path class="k" d="M365.979,216.273a7.768,7.768,0,0,1-3.47,6.042l-36.284,21.166c-1.908,1.113-3.47.217-3.47-1.993V212.7a7.763,7.763,0,0,1,3.47-6.041l36.284-21.167c1.908-1.113,3.47-.217,3.47,1.993Z" transform="translate(-318.968 -183.054)"/></g><g transform="translate(430.685 175.762)"><path class="o" d="M415.458,149.435l0,.01a2.358,2.358,0,0,0-2.524.189L376.647,170.8a7.765,7.765,0,0,0-3.47,6.041v28.788a2.356,2.356,0,0,0,1.118,2.279l0,.01,3.613,1.864,2.967-4.624,32.061-18.7a7.765,7.765,0,0,0,3.47-6.041V160.492l2.783-9.126Z" transform="translate(-373.177 -149.161)"/><path class="ae" d="M383.879,270.234V177.264a4.741,4.741,0,0,1,2.37-4.106l14.983-8.651a2.183,2.183,0,0,1,3.274,1.89v91.928" transform="translate(-370.687 -145.659)"/><path class="k" d="M419.473,182.011a7.765,7.765,0,0,1-3.47,6.041l-36.284,21.166c-1.908,1.113-3.47.217-3.47-1.993V178.437a7.763,7.763,0,0,1,3.47-6.041L416,151.229c1.908-1.113,3.47-.216,3.47,1.993Z" transform="translate(-372.462 -148.791)"/></g><g transform="translate(434.607 124.277)"><path class="af" d="M383.6,198.467s-9.384,14.193-6.787,27.729,49.317,34.1,49.317,34.1l37.025-38.23-29.1-16.353-5.9-13.225Z" transform="translate(-376.358 -87.596)"/><path class="ag" d="M416.736,134.368c10.525.244,12.108,5.514,15.243,10.353S447.9,185.06,447.9,185.06l-12.17,5.526L417.69,158.38Z" transform="translate(-366.965 -101.117)"/><path class="m" d="M430,136.171a109.323,109.323,0,0,1,7.428,18.875c3.2,10.968-2.6,26.058-4.1,37.1s-3.12,21.428-9.212,26.395-31.05,12.442-40.406.687-.162-12.768,0-22.021-.012-24.357,2.01-33.745,8.85-16.07,16.895-20.715S422.894,131.009,430,136.171Z" transform="translate(-375.625 -101.117)"/><path class="ah" d="M394.455,221.033c10.953,1.577,24.546-3.143,28.827-6.634,6.092-4.966,7.71-15.348,9.212-26.395.353-2.592.945-5.412,1.6-8.345-7.207,3.546-14.009,2.356-17.156-1.835-4.493-5.984-16.925-24.975-16.925-24.975l-12.435-.661a26.018,26.018,0,0,0-2.691,7.131c-1.192,5.532-1.62,13.045-1.8,20.181Z" transform="translate(-374.794 -96.971)"/><path class="af" d="M413.341,109.805c-3.12-1.721-8.927-4.839-11.4.86s-1.614,10.432-3.549,13.982-8.69,13.861-.753,16.992,16.993,1.72,16.993,1.72,12.69,4.626,16.024-1.181-2.581-12.5-2.365-15.929,1.695-12.679-3.872-15.153A19.83,19.83,0,0,0,413.341,109.805Z" transform="translate(-372.285 -107.392)"/><path class="ai" d="M411.685,114.76S410.5,120.7,416.748,126.7c0,0,2.357-2.258,3.486-1.289s-2.258,4.355-2.743,6.775-2.441,16.456-1.462,19.682.714,6.349-1.332,6.321-10.063-9.055-13.983-9.708c2.42-7.1,3.549-10,3.549-10a12.244,12.244,0,0,1-1.129-8.228c1.129-4.195.382-7.743,1.32-10.648S411.685,114.76,411.685,114.76Z" transform="translate(-370.692 -105.678)"/><path class="ag" d="M403.758,134.486c2.017,2.1,7.663.645,10.164-2.582-2.137,2.985-4.577,7.635-11.041,4.947Z" transform="translate(-370.188 -101.69)"/></g><g transform="translate(250.654 153.271)"><path class="ai" d="M325.72,170.109A60.288,60.288,0,0,0,328.4,161c.619-3.714,3.921-8.048,5.159-10.628s3.2-2.993,2.889-2.167-3.184,4.488-1.695,5.108,5.049-3.973,5.049-3.973,3.212-4.351,3.657-3.715-2.368,4.953-2.368,4.953l-2.063,3.612s3.591-5.675,4.478-4.436-3.137,6.358-4.993,8.08c0,0,4.115-4.159,4.947-3.54s-6.289,7.533-7.63,8.977-5.4,10.628-5.4,10.628Z" transform="translate(-204.186 -127.506)"/><path class="ag" d="M327.728,160.633c-.843,3.089-2.008,6.134-2.008,6.134l4.714,3.793s4.058-9.183,5.4-10.628C333.23,162.066,330.093,161.563,327.728,160.633Z" transform="translate(-204.186 -124.164)"/><path class="k" d="M295.555,251.308l3.55,34.417-61.328,26.962s-.863-28.659-1.051-35.014c-.235-7.971,5.271-21.2,5.271-21.2Z" transform="translate(-224.891 -102.906)"/><path class="aj" d="M295.555,251.308,242,256.472s-5.506,13.229-5.271,21.2c.041,1.373.113,3.789.2,6.729,17.64,8.744,42.351-3.193,42.351-3.193l2.667-13.552s.705,1.075,4.684,6.023c4.507-2.767,8.308-8.837,10.01-11.863Z" transform="translate(-224.891 -102.906)"/><path class="k" d="M279.179,161.34c8.509-1.262,37.249,32.311,37.249,32.311l20.016-30.8,9.14,4.9s-17.368,50.883-28.823,52.741-34.8-24-34.8-24Z" transform="translate(-215.013 -123.844)"/><path class="ak" d="M310.162,187.546a37.081,37.081,0,0,0-4.047,7.907" transform="translate(-208.747 -117.74)"/><path class="al" d="M312.266,188.937c-8.276-9.192-26.583-28.563-33.087-27.6l2.782,35.148s3.63,4.017,8.728,8.771a6.721,6.721,0,0,0,10.259-1.4A130.478,130.478,0,0,1,312.266,188.937Z" transform="translate(-215.013 -123.844)"/><path class="k" d="M254.963,173.95s-22.226,11.544-27.036,18.368,13.517,83.059,13.517,83.059L237.2,290.1s21.517,13.028,39.221,6.852l5.16-16.716,6.81,8.461s8.461-5.173,11.35-13.319l-2.139-14.749s18.577-67.612-1.3-96.664a6.173,6.173,0,0,0-7.085-2.3l-15.477,5.267Z" transform="translate(-227.123 -123.838)"/><path class="r" d="M248.453,174.326s.1,18.058,1.187,27.191a148.628,148.628,0,0,1,16.716,11.144l-2.792,11.731s12.993,4.351,15.4,17.825c0,0,8.134-21.662,10.146-30.021-3.406-4.643-6.192-7.894-6.192-7.894l4.025-23.217-16.717-15.609Z" transform="translate(-222.161 -122.874)"/><path class="am" d="M270.87,290.788c-4.371-20.646-12.752-72.742-32.548-97.371-3.92,0-7.44,2.3-10.592,6.172,2.942,24.1,13.574,68.323,13.574,68.323l-4.24,14.721S254.481,293.172,270.87,290.788Z" transform="translate(-226.982 -116.374)"/><path class="k" d="M267.047,147.806s3.587-2.231,4.362-5.166-2.181-5.572-2.181-5.572.839-4.85-1.741-5.675-7.16,1.466-7.16,1.466a4.076,4.076,0,0,0-5.119-1.646c-3.612,1.212-5.468,8.641-5.468,8.641s-4.672,1.663-6.088,7.952,2.786,8.662,2.786,8.662,1.473,7.519,8.063,6.184S267.047,147.806,267.047,147.806Z" transform="translate(-223.346 -130.914)"/><path class="ai" d="M267.217,173.776V158.607s2.321-1.393,2.321-3.406a28.973,28.973,0,0,0-1.16-5.881l1.16-2.322a6.012,6.012,0,0,1-2.321-2.2c-1.083-1.665-3.25-4.916-3.25-4.916l-2.632-1.083s-.92,4.624-3.772,7.275a17.98,17.98,0,0,1-.924,3.764s1.032,4.9,0,5.676a67.763,67.763,0,0,1-2.956-7.384s-3.027-.2-2.1,3.514,3.1,4.643,3.1,4.643l-2.013,4.025-1.26,17.181S263.348,186.158,267.217,173.776Z" transform="translate(-221.474 -129.081)"/><path class="ag" d="M265.708,154.868s-4.256,2.632-7.816,0c.154,2.245,4.488,3.56,7.816,3.328Z" transform="translate(-219.965 -125.342)"/><path class="s" d="M248.453,175.006s.325-5.393,1.651-7.016,5.808,2.167,11.057,0,5.97-5.984,8.033-5.366,2.065,6.5,2.065,6.5,15.271,27.071,7.429,61.81C278.687,230.934,270.356,196.746,248.453,175.006Z" transform="translate(-222.161 -123.553)"/><path class="ak" d="M273.014,229.3s-.214,19.544-1.288,33.073" transform="translate(-216.747 -108.025)"/></g><g transform="translate(238.128 205.992)"><g transform="translate(1.359 167.09)"><g transform="translate(0)"><path class="h" d="M295.593,354.218V469.064h0a1.383,1.383,0,0,0,.815,1.14,4.376,4.376,0,0,0,3.948,0,1.383,1.383,0,0,0,.815-1.14V354.218Z" transform="translate(-200.029 -298.776)"/><path class="h" d="M218.065,309.24V424.086h0a1.385,1.385,0,0,0,.814,1.14,4.386,4.386,0,0,0,3.949,0,1.385,1.385,0,0,0,.814-1.14V309.24Z" transform="translate(-218.065 -309.24)"/></g><g class="an" transform="translate(0 0)"><path class="ao" d="M295.593,400.525l5.577,4.412V354.218h-5.577Z" transform="translate(-200.028 -298.776)"/><path class="ap" d="M218.065,335.385l5.577,4.412V309.24h-5.577Z" transform="translate(-218.065 -309.24)"/></g></g><g transform="translate(283.262 3.737)"><g transform="translate(0)"><path class="h" d="M524.291,221.7V336.543h0a1.383,1.383,0,0,0,.815,1.139,4.376,4.376,0,0,0,3.948,0,1.383,1.383,0,0,0,.815-1.139V221.7Z" transform="translate(-428.727 -166.253)"/><path class="h" d="M446.763,176.717V291.563h0a1.383,1.383,0,0,0,.814,1.14,4.379,4.379,0,0,0,3.949,0,1.384,1.384,0,0,0,.813-1.14V176.717Z" transform="translate(-446.763 -176.717)"/></g><g class="an" transform="translate(0 0.001)"><path class="aq" d="M524.291,268l5.577,4.412V221.7h-5.577Z" transform="translate(-428.727 -166.254)"/><path class="ar" d="M446.763,202.862l5.577,4.412V176.717h-5.577Z" transform="translate(-446.763 -176.717)"/></g></g><path class="as" d="M316.669,399.881,602.927,234.42V229.9l-99.494-52.556L216.962,338.227v4.516Z" transform="translate(-216.962 -172.833)"/><path class="i" d="M316.669,396.218,602.927,230.757l-99.494-57.072L216.962,339.08Z" transform="translate(-216.962 -173.685)"/></g><g transform="translate(588.526 216.452)"><path class="o" d="M524.623,351.728c-13-7.5-13-19.784,0-27.287s34.267-7.5,47.264,0,13,19.784,0,27.287S537.621,359.233,524.623,351.728Z" transform="translate(-498.053 -150.383)"/><path class="p" d="M538.341,272.648v76.419h0a2.212,2.212,0,0,0,1.3,1.821,6.992,6.992,0,0,0,6.307,0,2.212,2.212,0,0,0,1.3-1.821V272.648Z" transform="translate(-492.593 -161.123)"/><path class="at" d="M538.341,280.217V324.5h0a2.213,2.213,0,0,0,1.3,1.821,6.993,6.993,0,0,0,6.307,0,2.212,2.212,0,0,0,1.3-1.821V280.217Z" transform="translate(-492.593 -159.362)"/><path class="o" d="M601.633,276.535h-10.75L557.862,257.47a14.263,14.263,0,0,0-12.861,0l-33.022,19.065h-10.75v8.388h0c0,1.346.884,2.692,2.653,3.713L545,312.377a14.264,14.264,0,0,0,12.861,0l41.119-23.741c1.769-1.021,2.654-2.367,2.653-3.713h0Z" transform="translate(-501.227 -165.01)"/><path class="au" d="M574.741,297.124V204.155a4.742,4.742,0,0,0-2.372-4.107L557.387,191.4a2.181,2.181,0,0,0-3.273,1.89v91.927" transform="translate(-488.924 -180.094)"/><g transform="translate(54.243)"><path class="o" d="M549.774,182.446l0,.009a2.363,2.363,0,0,1,2.524.189l36.284,21.167a7.763,7.763,0,0,1,3.47,6.041v28.787a2.355,2.355,0,0,1-1.119,2.279l.006.011-3.614,1.863-2.967-4.622-32.06-18.7a7.765,7.765,0,0,1-3.47-6.041V193.5l-2.784-9.126Z" transform="translate(-545.044 -182.171)"/><path class="k" d="M545.233,215.021a7.76,7.76,0,0,0,3.47,6.041l36.283,21.167c1.909,1.113,3.47.216,3.47-1.993V211.447a7.762,7.762,0,0,0-3.47-6.041L548.7,184.24c-1.909-1.113-3.47-.217-3.47,1.993Z" transform="translate(-545.233 -181.801)"/></g><path class="k" d="M503.881,281.832c-3.538-2.042-3.538-5.384,0-7.425L545,250.665a14.271,14.271,0,0,1,12.861,0l41.119,23.742c3.538,2.041,3.538,5.383,0,7.425l-41.119,23.741a14.274,14.274,0,0,1-12.862,0Z" transform="translate(-501.227 -166.593)"/></g><g transform="translate(560.475 193.841)"><path class="af" d="M577.526,245.608s9.454,26.091-1.923,37.374c-8.293,8.224-22.8,18.242-30.051,23.069a8.223,8.223,0,0,1-8.834.171l-31.229-18.989A9.983,9.983,0,0,1,505.075,271l30.693-21,10.906-14.078Z" transform="translate(-473.204 -147.055)"/><path class="av" d="M533.054,243.916c8.875,7.806,28.579,23.5,40.7,20.787a70.338,70.338,0,0,0-3.66-19.095l-30.852-9.68Z" transform="translate(-465.772 -147.055)"/><path class="o" d="M510.768,267.177c5.58,3.247,16.787,9.908,21.777,12.654s-.7,16.95-.7,16.95l-25.167-15.3Z" transform="translate(-471.907 -139.785)"/><path class="ai" d="M536.9,278.839,517.42,267.473l-.033-.02-.055-.032v0a8.119,8.119,0,0,0-1.988-.854c-10.967-3.09-9.935,10.6-12.721,20.007s-13.224,68.5-14.986,73.331l-.166.145c-1.589,1.4-3.676,3.088-5.443,4.674l-.043.039c-.222.2-.435.4-.645.59l-.127.117c-.192.181-.375.359-.553.535-.048.048-.1.1-.148.144-.164.163-.313.321-.461.478-.054.057-.113.116-.165.173-.134.146-.253.286-.371.425-.052.062-.111.126-.159.185-.11.136-.2.263-.291.389-.042.058-.092.12-.131.176-.081.123-.141.237-.2.35-.03.054-.069.112-.094.164a1.972,1.972,0,0,0-.1.307,1.552,1.552,0,0,0-.051.149.971.971,0,0,0,0,.28,1.04,1.04,0,0,0,0,.107.67.67,0,0,0,.174.314,1.252,1.252,0,0,0,.274.211c.033.02.076.034.113.052a1.81,1.81,0,0,0,.238.1c.052.017.111.03.166.043a2.568,2.568,0,0,0,.259.06c.065.011.135.019.2.026.094.011.186.022.287.028.075,0,.156,0,.235.006.1,0,.207,0,.317,0,.085,0,.174-.009.264-.013.111-.007.224-.016.34-.027.1-.01.194-.021.292-.035.118-.015.237-.031.359-.051.1-.016.211-.035.317-.053.125-.023.252-.048.378-.074.111-.023.222-.047.336-.073s.256-.06.387-.092.24-.06.364-.094.255-.071.385-.108.259-.074.389-.115.249-.079.374-.12c.141-.046.281-.091.424-.139.111-.038.222-.08.333-.12.159-.057.317-.113.477-.174.079-.03.159-.063.239-.094a29.787,29.787,0,0,0,2.831-1.277l.084-.042c.214-.112.425-.228.636-.344l.134-.074c.2-.113.4-.23.6-.349l.149-.089c.192-.117.38-.235.565-.355l.156-.1c.184-.121.361-.244.537-.367l.147-.1q.261-.189.51-.38l.133-.1c.165-.131.325-.261.481-.394.039-.033.078-.066.116-.1.155-.134.3-.271.449-.408l.095-.094c.144-.142.284-.283.415-.428.022-.026.043-.051.067-.075.134-.152.263-.3.381-.455l.032-.041a4.068,4.068,0,0,0,1.019-3.109v0h0a3.039,3.039,0,0,0-.472-1.182c.885-3.292,17.46-36.9,21.29-50.139a169.837,169.837,0,0,0,4.525-18.741,6.566,6.566,0,0,1,3.4-4.714Z" transform="translate(-478.471 -140.029)"/><path class="ag" d="M515.451,288.544a6.572,6.572,0,0,1,2.956-3.212l12.219-6.492-19.484-11.366-.033-.02-.055-.032v0a8.122,8.122,0,0,0-1.988-.854,9.783,9.783,0,0,0-3.609-.409C520.249,266.4,515.453,288.543,515.451,288.544Z" transform="translate(-472.193 -140.029)"/><path class="j" d="M489.068,343.179a5.243,5.243,0,0,0-1.585-.858c-3.729,3.291-10.22,8.149-8.817,9.6,2.369,2.454,18.233-4.018,17.289-9.547l-3.084,1.267A3.765,3.765,0,0,1,489.068,343.179Z" transform="translate(-478.471 -122.303)"/><path class="ai" d="M566.378,189.538a19.684,19.684,0,0,0-15.093,7.338c-6.635,7.851-24.181,39.1-24.181,39.1l-33.045,12.84a18.385,18.385,0,0,0-9.4,3.041c-4.423,3.041-1.52,5,0,4.436s7.247-3.687,7.741-2.126-2.14,2.057-.656,2.222,5.086-2.935,5.086-2.935,32.061-5.882,38.7-7.817,24.327-33.036,24.327-33.036Z" transform="translate(-477.577 -157.848)"/><path class="ag" d="M554.334,189.538a19.684,19.684,0,0,0-15.092,7.338,81.424,81.424,0,0,0-5.155,7.226,270.33,270.33,0,0,1,1.024,28.787h0c6.459-9.314,12.7-20.283,12.7-20.283Z" transform="translate(-465.532 -157.848)"/><path class="k" d="M576.4,170.477a6.649,6.649,0,1,1-6.65-6.649A6.649,6.649,0,0,1,576.4,170.477Z" transform="translate(-458.782 -163.828)"/><path class="af" d="M575.13,196.072s4.086,1.724,10.766,6.955c0,0-9.795,33.352-12.144,40.263s1.106,12.3-3.179,16.448-33.337-6.22-37.183-10.643,5.944-16.276,6.082-21.131-2.564-10.8-1.006-17.433c1.233-5.246,9.7-15.593,13.193-19.693a3.691,3.691,0,0,1,3.718-1.189C560.082,190.825,570.964,193.695,575.13,196.072Z" transform="translate(-465.902 -157.847)"/><path class="ai" d="M575.746,199.025s8.158,4.261,9.623,15.853,3.189,32.61,3.189,32.61l30.418-10.64a15.863,15.863,0,0,1,7.226-6.183c1.632-.7.667,1.627-1.906,3.112,3.789-.15,9.087-3.682,9.087-2.042s-2.144,7.568-12.866,9.461c0,0-31.04,27.246-40.423,22.365-7.471-3.887-9.379-37.8-9.379-37.8s-2,3.193-3.361,0C564.527,219.121,565.19,202.516,575.746,199.025Z" transform="translate(-458.126 -155.64)"/><path class="m" d="M573.158,196.558s-6.432,5.26-9.775,8.7-9.387,3.589-9.526-1.525c-4.381,1.811-7.718.037-7.478-3.03s2.919-6.635,8.007-10.617C558.43,190.5,571.12,194.332,573.158,196.558Z" transform="translate(-462.675 -157.718)"/><path class="ag" d="M567.353,223.651c1.36,3.193,3.362,0,3.362,0a35.385,35.385,0,0,0-3.947-15.574C565.334,213.773,565.851,220.122,567.353,223.651Z" transform="translate(-458.126 -153.534)"/><path class="ai" d="M550.8,174.634s1.029,11.344,1.323,14.284,3.642,3.07,3.642,3.07v3.578l-1.816-.621s-7.264,7.946-.667,11.466c4.133,2.205,14.865-6.468,17.658-6.174-2.94-1.323-5.236-4.41-4.657-11.96,0,0,5.706-9.156,1.83-14.475S550.8,174.634,550.8,174.634Z" transform="translate(-461.711 -162.012)"/><path class="ag" d="M554.772,188.588s2.508,1.04,7.047-2.336c0,0-2.418,4.394-7.047,4.209Z" transform="translate(-460.72 -158.611)"/><path class="k" d="M562.067,178.11s-11.319.921-15.108-3.022,2.478-7.5,8.085-6.314c7.735-4.452,15.773-1.334,17.4,5.335s-5.07,15.318-5.07,15.318l-1.147-3.019s3.184-4.057,1.144-5.235-3.522,3.013-3.522,3.013S561.418,180.524,562.067,178.11Z" transform="translate(-462.806 -163.161)"/><path class="ai" d="M532.77,276.493c12.188,3.434,5.25,28.981,1.42,42.216s-20.406,46.848-21.29,50.139c3.79,5.727-14.276,13.361-16.817,10.729-1.422-1.474,5.282-6.454,8.981-9.745,1.763-4.827,12.2-63.927,14.986-73.331S521.8,273.4,532.77,276.493Z" transform="translate(-474.419 -137.721)"/><path class="j" d="M506.485,353.105a5.258,5.258,0,0,0-1.584-.859c-3.729,3.292-10.22,8.15-8.817,9.6,2.368,2.454,18.232-4.018,17.288-9.547l-3.083,1.266A3.764,3.764,0,0,1,506.485,353.105Z" transform="translate(-474.418 -119.994)"/></g><g transform="translate(576.623 237.154)"><path class="aw" d="M494.286,217.746c-3.62-2.089-3.62-5.51,0-7.6a14.608,14.608,0,0,1,13.165,0c3.62,2.091,3.62,5.511,0,7.6A14.6,14.6,0,0,1,494.286,217.746Z" transform="translate(-491.571 -196.73)"/><g transform="translate(13.682 5.786)"><path class="ax" d="M507.143,213.485h-4.472V203.66h5.353a4.478,4.478,0,0,1,4.473,4.472A5.36,5.36,0,0,1,507.143,213.485Zm-2.8-1.668h2.8a3.69,3.69,0,0,0,3.687-3.686,2.808,2.808,0,0,0-2.806-2.8H504.34Z" transform="translate(-502.671 -203.66)"/></g><path class="ay" d="M508.182,207.83v-5.29H492.926v5.292a14.956,14.956,0,0,0,1,5.38l.62,1.6.006.019.036.092h.011c.425,1.1,1.716,2.1,4.026,2.586a9.436,9.436,0,0,0,3.853,0c2.31-.482,3.6-1.489,4.026-2.586h.011l.036-.091.006-.02.62-1.6A14.932,14.932,0,0,0,508.182,207.83Z" transform="translate(-491.256 -198.135)"/><path class="az" d="M495.154,206.488c-2.971-1.715-2.971-4.52,0-6.235a11.974,11.974,0,0,1,10.8,0c2.971,1.715,2.971,4.52,0,6.235A11.974,11.974,0,0,1,495.154,206.488Z" transform="translate(-491.256 -198.966)"/><path class="ba" d="M505.481,201.433a11.164,11.164,0,0,0-10.063,0c-1.577.91-2.222,2.148-2,3.343a5.152,5.152,0,0,0,1.635,1.416,11.978,11.978,0,0,0,10.8,0,5.137,5.137,0,0,0,1.635-1.415C507.7,203.583,507.058,202.343,505.481,201.433Z" transform="translate(-491.152 -198.671)"/></g><g transform="translate(455.883 263.066)"><path class="aw" d="M413.485,238.768c3.62-2.091,3.62-5.51,0-7.6a14.6,14.6,0,0,0-13.164,0c-3.62,2.091-3.62,5.511,0,7.6A14.6,14.6,0,0,0,413.485,238.768Z" transform="translate(-392.692 -217.752)"/><g transform="translate(0 5.786)"><path class="bb" d="M393.619,229.154a4.478,4.478,0,0,1,4.473-4.472h5.353v9.825h-4.472A5.36,5.36,0,0,1,393.619,229.154Zm8.158-2.8h-3.684a2.808,2.808,0,0,0-2.806,2.8,3.69,3.69,0,0,0,3.687,3.686h2.8Z" transform="translate(-393.619 -224.682)"/></g><path class="bc" d="M398.959,228.852v-5.291h15.256v5.292a14.961,14.961,0,0,1-1,5.381l-.62,1.6-.006.018-.036.092h-.011c-.426,1.1-1.716,2.1-4.026,2.586a9.438,9.438,0,0,1-3.853,0c-2.31-.483-3.6-1.489-4.026-2.586h-.011l-.036-.092-.007-.018-.619-1.6A14.937,14.937,0,0,1,398.959,228.852Z" transform="translate(-392.377 -219.156)"/><path class="bd" d="M411.988,227.51c2.971-1.715,2.971-4.521,0-6.236a11.982,11.982,0,0,0-10.8,0c-2.971,1.715-2.971,4.521,0,6.236A11.982,11.982,0,0,0,411.988,227.51Z" transform="translate(-392.377 -219.988)"/><path class="be" d="M401.452,222.455a11.157,11.157,0,0,1,10.063,0c1.577.91,2.223,2.148,2,3.343a5.151,5.151,0,0,1-1.634,1.416,11.982,11.982,0,0,1-10.8,0,5.138,5.138,0,0,1-1.634-1.416C399.228,224.6,399.875,223.365,401.452,222.455Z" transform="translate(-392.272 -219.693)"/></g><g transform="translate(303.774 376.105)"><path class="aw" d="M272.8,333.132c-3.443-1.987-3.443-5.239,0-7.227a13.89,13.89,0,0,1,12.519,0c3.443,1.988,3.443,5.24,0,7.228A13.887,13.887,0,0,1,272.8,333.132Z" transform="translate(-270.218 -308.732)"/><g transform="translate(1.213)"><path class="bf" d="M271.2,315.265l1.564,15.653a3.012,3.012,0,0,0,1.771,2.479,9.525,9.525,0,0,0,8.587,0,3.012,3.012,0,0,0,1.771-2.479h0l1.563-15.653Z" transform="translate(-271.202 -310.861)"/><path class="bg" d="M273.431,319.214c-1.652-.953-2.385-2.243-2.2-3.5a4.02,4.02,0,0,1,2.2-2.738,11.977,11.977,0,0,1,10.8,0c2.971,1.715,2.971,4.52,0,6.235A11.974,11.974,0,0,1,273.431,319.214Z" transform="translate(-271.202 -311.692)"/><path class="bh" d="M283.758,314.159a11.164,11.164,0,0,0-10.063,0c-1.577.91-2.224,2.148-2,3.344a5.151,5.151,0,0,0,1.634,1.415,11.974,11.974,0,0,0,10.8,0,5.13,5.13,0,0,0,1.633-1.415C285.981,316.309,285.335,315.07,283.758,314.159Z" transform="translate(-271.098 -311.397)"/></g></g><path class="ai" d="M259.425,289.048s2.686,7.831,4.368,8.555,5.392,1.528,7.893,2.254,3.868,1.291,3.345,1.855-5.039,0-5.039,0a20.4,20.4,0,0,1,3.952,2.663,5.587,5.587,0,0,1,1.936,4.355c-.145.711-2.581-3.952-5.082-4.919,1.533,2.178,3.951,6.05,3.508,7.179s-3.831-5.647-5.363-6.211c1.976,2.695,3.933,5.36,3.066,6.338s-2.743-4.4-5-5.289c2.017,2.984,2.743,5.645,2.017,5.968s-2.743-4.921-4.438-5.645-9.114-2.486-8.953-5.962c-1.614-3.638-4.436-9.929-4.436-9.929Z" transform="translate(29.131 59.145)"/><g transform="translate(320.582 351.147)"><path class="aw" d="M283.982,313.282l42.954,24.8,36.132-20.912-42.954-24.8Z" transform="translate(-283.824 -291.229)"/><path class="bi" d="M283.854,312.357l42.954,24.8,36.132-20.912-42.954-24.8Z" transform="translate(-283.854 -291.445)"/><g transform="translate(12.851 7.718)"><path class="i" d="M294.28,315.229l30.351-17.523.635.369L294.914,315.6l-.635-.369" transform="translate(-294.28 -297.706)"/><path class="i" d="M296.33,316.421,326.681,298.9l.629.366-30.351,17.523-.629-.366" transform="translate(-293.802 -297.429)"/><path class="i" d="M298.377,317.61l30.351-17.523.629.366-30.351,17.523-.629-.366" transform="translate(-293.326 -297.152)"/><path class="i" d="M300.423,318.8l30.351-17.523.629.366-30.351,17.523-.629-.366" transform="translate(-292.85 -296.875)"/><path class="i" d="M302.469,319.988l30.351-17.523.629.366L303.1,320.354l-.629-.366" transform="translate(-292.374 -296.599)"/><path class="i" d="M304.515,321.177l30.351-17.523.635.369L305.15,321.546l-.635-.369" transform="translate(-291.898 -296.322)"/></g><g transform="translate(8.241 12.138)"><path class="i" d="M290.539,311l16.749-9.7,1.661.971-16.749,9.7L290.539,311" transform="translate(-290.539 -301.292)"/></g><g transform="translate(45.933 19.597)"><path class="i" d="M321.117,317.047l16.749-9.7,1.661.971-16.749,9.7-1.661-.971" transform="translate(-321.117 -307.343)"/></g></g><g transform="translate(442.723 285.786)"><path class="aw" d="M383.07,260.256l42.954,24.8,36.132-20.912-42.954-24.8Z" transform="translate(-382.913 -238.204)"/><path class="bj" d="M382.943,259.331l42.954,24.8,36.132-20.912-42.954-24.8Z" transform="translate(-382.943 -238.42)"/><g transform="translate(12.851 7.718)"><path class="bk" d="M393.368,262.2l30.351-17.523.635.369L394,262.573l-.635-.369" transform="translate(-393.368 -244.681)"/><path class="bk" d="M395.419,263.4l30.351-17.523.629.366-30.351,17.523-.629-.366" transform="translate(-392.891 -244.403)"/><path class="bk" d="M397.465,264.585l30.351-17.523.629.366L398.094,264.95l-.629-.366" transform="translate(-392.415 -244.127)"/><path class="bk" d="M399.512,265.774l30.351-17.523.629.366-30.351,17.523-.629-.366" transform="translate(-391.939 -243.85)"/><path class="bk" d="M401.558,266.963l30.351-17.523.629.366-30.351,17.523-.629-.366" transform="translate(-391.463 -243.573)"/><path class="bk" d="M403.6,268.152l30.351-17.523.635.369-30.351,17.523-.635-.369" transform="translate(-390.987 -243.297)"/></g><g transform="translate(8.241 12.138)"><path class="bk" d="M389.628,257.971l16.749-9.7,1.661.971-16.749,9.7-1.661-.971" transform="translate(-389.628 -248.267)"/></g><g transform="translate(45.933 19.597)"><path class="bk" d="M420.206,264.022l16.749-9.7,1.661.971-16.749,9.7-1.661-.971" transform="translate(-420.206 -254.318)"/></g></g><path class="bl" d="M499.114,211.862s2.236-10.823,9.292-13.6c1.387-7.6,3.983-15,11.386-16.622,8.047-11.2,16.08-18.636,25.654-14.8,6.99,2.8,7.511,11.689.645,16.45-8.059,5.588-19.458,5-19.458,5s-3.485,9.288-11.755,11.937c-1.014,2.775-11,6.167-11,6.167S501.319,210.989,499.114,211.862Z" transform="translate(86.806 30.478)"/><g transform="translate(338.959 266.855)"><path class="aw" d="M298.762,275.844l36.3,20.958,55.593-31.765v-2.5l-37.318-18.276-54.576,29.082Z" transform="translate(-298.762 -218.129)"/><path class="bm" d="M298.762,274.619l36.3,20.958,55.593-31.765v-2.5l-37.318-18.276-54.576,29.082Z" transform="translate(-298.762 -218.414)"/><path class="bn" d="M298.762,272.591l36.3,20.958,55.593-31.765-37.318-20.776Z" transform="translate(-298.762 -218.886)"/><path class="bo" d="M311.343,274.169l22.47,13.17L379.745,261.1l-23.31-13.02Z" transform="translate(-295.835 -217.242)"/><g transform="translate(34.303)"><path class="bm" d="M382.636,264.992,328.138,298l-1.547-.968V255.1l56.045-32.038,1.547.968Z" transform="translate(-326.591 -223.061)"/></g><path class="x" d="M383.891,265.777l-56.045,32.038v-41.93l56.045-32.038Z" transform="translate(-291.996 -222.879)"/><ellipse class="i" cx="8.85" cy="5.034" rx="8.85" ry="5.034" transform="translate(54.524 41.986) rotate(-52.976)"/></g><g transform="translate(475.861 210.018)"><path class="aw" d="M409.826,220.5l29.95,17.291,45.866-26.207V209.52l-30.789-15.078-45.027,23.994Z" transform="translate(-409.826 -172.883)"/><path class="bm" d="M409.826,219.489l29.95,17.291,45.866-26.207V208.51l-30.789-15.078-45.027,23.994Z" transform="translate(-409.826 -173.118)"/><path class="bn" d="M409.826,217.815l29.95,17.291L485.642,208.9l-30.789-17.141Z" transform="translate(-409.826 -173.507)"/><path class="bo" d="M420.206,219.118l18.539,10.866,37.9-21.652-19.232-10.742Z" transform="translate(-407.412 -172.151)"/><g transform="translate(28.301)"><path class="bm" d="M479.025,211.546l-44.962,27.231-1.276-.8V203.384l46.238-26.432,1.276.8Z" transform="translate(-432.786 -176.952)"/></g><path class="x" d="M480.06,212.193l-46.239,26.432V204.032L480.06,177.6Z" transform="translate(-404.244 -176.801)"/><path class="i" d="M459.124,200.4c0,3.041-2.467,6.916-5.507,8.654s-5.506.683-5.506-2.358,2.465-6.916,5.506-8.656S459.124,197.362,459.124,200.4Z" transform="translate(-400.92 -172.24)"/></g><g transform="translate(681.305 182.344)"><ellipse class="bp" cx="16.741" cy="29.429" rx="16.741" ry="29.429" transform="matrix(0.798, -0.602, 0.602, 0.798, 1.865, 20.161)"/><path class="y" d="M607.523,165.556c-12.259-7.008-22.2-2.75-22.2,9.507a31.057,31.057,0,0,0,2.109,10.6l-10.94,7.527,13.611-1.664c4.065,7.471,10.348,14.378,17.416,18.418,12.257,7.008,22.195,2.751,22.195-9.507S619.78,172.564,607.523,165.556Z" transform="translate(-576.496 -152.714)"/><g transform="translate(20.716 22.669)"><path class="x" d="M601.945,181.383q0,2.522-1.135,3.248t-3.232-.486a8.226,8.226,0,0,1-3.125-3.232,9.229,9.229,0,0,1-1.151-4.523q0-2.522,1.123-3.231t3.153.462a8.483,8.483,0,0,1,3.186,3.25A9.031,9.031,0,0,1,601.945,181.383Zm-5.193-2.953a7.271,7.271,0,0,0,.218,2.029,1.579,1.579,0,0,0,.653.961.4.4,0,0,0,.647-.2,4.909,4.909,0,0,0,.212-1.792,7.421,7.421,0,0,0-.212-2.025,1.56,1.56,0,0,0-.647-.959.41.41,0,0,0-.659.216A4.928,4.928,0,0,0,596.752,178.429Zm13.549,2.782-9.3,11.39-3.4-1.966,9.3-11.39Zm4.391,14.2q0,2.511-1.142,3.233t-3.226-.482a8.215,8.215,0,0,1-3.124-3.232,9.192,9.192,0,0,1-1.152-4.511q0-2.52,1.123-3.231t3.153.462a8.5,8.5,0,0,1,3.186,3.25A9.034,9.034,0,0,1,614.692,195.416Zm-5.193-2.953a7.269,7.269,0,0,0,.218,2.029,1.583,1.583,0,0,0,.653.963q.492.285.682-.277a5.727,5.727,0,0,0,.19-1.707,8.343,8.343,0,0,0-.19-1.927,1.578,1.578,0,0,0-.682-1.064.409.409,0,0,0-.659.214A4.931,4.931,0,0,0,609.5,192.463Z" transform="translate(-593.302 -172.892)"/></g></g><path class="bq" d="M231.346,184.778s-10.49,4.8-11.014,26.245,36.544,108.315,36.544,108.315,8.588,1.761,12.257-3.9c0,0-18.009-84.467-20.638-97S238.452,188.884,231.346,184.778Z" transform="translate(21.949 34.887)"/><g transform="translate(444.579 175.294)"><path class="ai" d="M404.5,162.41s7.1,27.265,12.1,35.008c10.809-16.617,18.019-35.856,18.019-35.856s-1.08-6.088.7-10.121,3.48-1.51,3.909-1.262-1.59,5.034-.844,6.908a13.085,13.085,0,0,1,.9,7.422c-.1,8.388-10.147,52.122-22.408,55.56s-22.861-26.36-28.99-42.008-3.227-25.109,2.258-27.881S402.413,154.848,404.5,162.41Z" transform="translate(-384.448 -148.69)"/><g transform="translate(27.521)"><path class="br" d="M411.4,188.313a17.012,17.012,0,0,0-4.629,7.869" transform="translate(-406.775 -139.584)"/><path class="ai" d="M427.578,149.264s1.685-1.593,3.964,1.006,3.119,10.565,3.119,10.565,12.66,23.446,14.735,29.469-6.4,15.767-12.847,7.709c-3.4-4.254-7.012-36.644-7.012-36.644S425.55,152.642,427.578,149.264Z" transform="translate(-402.069 -148.781)"/><g transform="translate(25.276 0.982)"><path class="br" d="M429.33,160.86s.08-4.282-1.424-6.108c.913-2.363,2.564-3.923,1.956-4.3s-2.385,2.34-2.385,2.34a3.335,3.335,0,0,1,.537-3.218" transform="translate(-427.281 -149.578)"/><path class="br" d="M428.578,152.189a4.244,4.244,0,0,1,2.141,2.423" transform="translate(-426.979 -148.971)"/><path class="br" d="M429.3,151a4.6,4.6,0,0,1,1.74,1.957" transform="translate(-426.812 -149.247)"/></g></g></g><g transform="translate(441.848 216.651)"><path class="m" d="M463.641,214.6a22.669,22.669,0,0,1,3.042-5.361c2.434-3.449,2.676-8.351,1.042-10.105-.121-4.72-4.72-8.048-9.136-8.593s-2.965-9.742-8.41-7.988-7.767,12.065-2.613,20.948,8.292,14.874,8.292,14.874Z" transform="translate(-367.703 -182.333)"/><path class="ai" d="M415.362,261.105l-8.012,10.733L383.957,261.65l-1.724,4.447s21.147,25.415,28.953,25.868,22.625-17.373,22.625-17.373Z" transform="translate(-382.233 -164.007)"/><path class="ag" d="M409.81,261.105l-3.715,4.977c1.6,4.659,5.7,14.034,13.59,17.542a112.2,112.2,0,0,0,8.576-9.032Z" transform="translate(-376.682 -164.007)"/><path class="bs" d="M477.07,214.1c9.21-2.928,21.331,4.238,21.976,14.316s-10.007,27.786-10.007,27.786Z" transform="translate(-360.17 -175.095)"/><path class="ai" d="M450.435,215.612l-2.2,19.44s11.008,2.071,17.733-6.888a2.554,2.554,0,0,0,.436-2.017l-2.83-14.718s-1.276,1.231-3.316-1.914c0,0,1.591-3.265.26-4.476s-2.322,1.383-2.886,2.961-.442,3.151-1.35,2.849-.909-6.121-.909-6.121-5.2-5.134-5.385-8.764l-4.417,7.745.873.605s-2.2,6.967-1.236,8.479S450.435,215.612,450.435,215.612Z" transform="translate(-367.639 -179.162)"/><path class="ag" d="M457.239,208.825c-3.335.688-7.836,1.966-11.176,1.976a19.8,19.8,0,0,0,4.117,1.819S454.759,211.729,457.239,208.825Z" transform="translate(-367.384 -176.17)"/><path class="bt" d="M506.976,226.715c-1.333-9.076-12.587-13.8-16.948-12.706a80.826,80.826,0,0,0-15.627,6.076l-1.742-3.172c-8.781,7.019-20.722,9.44-20.722,9.44l-1.632,5.522c-7.183,3.465-19.451,10.452-19.451,10.452-5.24,2.937-5.21,40.531-6.415,44.9s-3.751,12.223-2.9,19,9.682,14.28,24.809,15.006,34.975-10.166,41.63-16.7,8.108-21.783,9.319-29.166S508.307,235.792,506.976,226.715Z" transform="translate(-373.129 -175)"/><path class="bu" d="M431.4,309.648c-4.239-10.381,5.779-23.269,9.164-31.217,5.111-12,6.251-30.356,6.251-30.356l-20.386,4.65c-1.032,11.332-1.321,24.1-1.993,26.54-1.2,4.367-3.751,12.223-2.9,19C422.046,302.344,425.472,306.678,431.4,309.648Z" transform="translate(-373.129 -167.039)"/><path class="bt" d="M434.111,237.088c6.458-2.55,19.44,1.365,15.731,17.521s-21.45,30.833-21.45,30.833-18.493-5.271-21.021-18.683a81.868,81.868,0,0,0,11.021-13.574C422.746,246.089,427.09,239.863,434.111,237.088Z" transform="translate(-376.385 -169.761)"/><g transform="translate(81.444 60.384)"><path class="k" d="M490.587,231.595l0,.009a2.363,2.363,0,0,0-2.526.189l-36.283,21.166a7.767,7.767,0,0,0-3.47,6.042v28.787a2.356,2.356,0,0,0,1.118,2.279l0,.01,3.613,1.864L456,287.316l32.06-18.7a7.764,7.764,0,0,0,3.47-6.042V242.65l2.785-9.125Z" transform="translate(-448.306 -231.32)"/><path class="o" d="M494.6,264.17a7.765,7.765,0,0,1-3.47,6.041l-36.284,21.167c-1.908,1.113-3.47.216-3.47-1.993V260.6a7.765,7.765,0,0,1,3.47-6.041l36.284-21.166c1.908-1.114,3.47-.217,3.47,1.993Z" transform="translate(-447.591 -230.95)"/><path class="au" d="M461.462,351.4V258.435a4.741,4.741,0,0,1,2.37-4.106l14.983-8.651a2.183,2.183,0,0,1,3.274,1.891V339.5" transform="translate(-445.245 -228.048)"/></g></g><g transform="translate(327.395 265.201)"><g transform="translate(0)"><path class="ai" d="M307.644,309.53s-5.714-3.809-6.029-5.277-3.511-5.467-4.747-5.553,1.053,1.067,1.093,2.814-3.105.435-4.621-.433-2.176-2.808-2.476-2.729c-.974.256.042,2.248,2.257,4.042-1.707.2-2.707-1.851-3.535-1.7-.725.848.619,2.63,1.821,5.08S297.3,309.1,297.3,309.1l5.2,5.486Z" transform="translate(-289.381 -203.892)"/><path class="ag" d="M300.673,313.311l5.144-5.055a36.723,36.723,0,0,1-5.51-4.428,40.972,40.972,0,0,0-3.073,5.854Z" transform="translate(-287.554 -202.618)"/><path class="bv" d="M383.667,254.4c11.09-1.068,29.768,3.387,18.226,33.461Z" transform="translate(-267.446 -214.148)"/><path class="ai" d="M359.347,233.858s-7.427,15.037-5.755,16.058,6.4,3.094,6.4,3.094l5.1,18.255,16.893-6.683-7.61-11.572-1.022-14.882Z" transform="translate(-274.5 -218.896)"/><path class="ag" d="M355.046,247.823c2.017,1,4.556,2.109,4.556,2.109a21.225,21.225,0,0,0,5.971-2.846C362.028,248.517,357.309,248.13,355.046,247.823Z" transform="translate(-274.105 -215.818)"/><path class="bw" d="M338.572,281.729s22.461-15.8,38.055-22.292a87.353,87.353,0,0,1,15.24-4.7,16.146,16.146,0,0,1,19.076,12.182,308.278,308.278,0,0,1,5.578,31.349c3.156,25.618,1.133,46.007-2.58,52.691s-27.161,21.163-44.3,20.792-25.484-3.43-24.941-14.538-7.612-19.11-7.239-34.658S334.487,286.354,338.572,281.729Z" transform="translate(-278.415 -214.122)"/><path class="bx" d="M337.3,313.738c-.372,15.548,7.783,23.551,7.239,34.658-.025.508-.01.98,0,1.455,7.158-.484,6.717-13.433,10.285-25.062,4.033-13.144,4.437-32.512,4.437-32.512l-22.043,13.169C337.313,308.288,337.359,311.087,337.3,313.738Z" transform="translate(-278.253 -205.305)"/><path class="by" d="M325.187,325s16.786-38.186,20.915-45.794c3.312-6.105,13.156-7.273,18.406-2.957s8.6,13.226,2.563,28.077-23.3,38.8-33.884,43.627-22.276-3.385-33.973-25.826c0,0-1.949-8.147,6.4-9.167Z" transform="translate(-287.139 -209.634)"/><path class="bz" d="M320.264,316.163a10.571,10.571,0,0,0,1.071,6.135" transform="translate(-282.216 -199.748)"/><path class="bz" d="M352.739,276.287s9.041,9.057,2.65,25.294" transform="translate(-274.642 -209.025)"/><path class="ca" d="M363.536,239.868s-1.238,6.065,1.856,9.654c2.723-3.837,4.349-3.445,4.456-.867.171,4.154-2.124,4.1-2.124,4.1s2.786,3.091,6.455,3.077c1.113-4.95,5.692-8.663,5.692-11.263s-3.094-4.7-3.094-4.7,3.719-5.356,1.055-7.875-6.129-3.387-9.1-4.253c-3.713-5.694-6.76-8.111-11.8-3.869S353.759,237.889,363.536,239.868Z" transform="translate(-274.295 -221.72)"/></g><g transform="translate(91.45 80.294)"><path class="k" d="M405.851,287.134l0,.009a2.361,2.361,0,0,0-2.524.19L367.041,308.5a7.76,7.76,0,0,0-3.47,6.041v28.788a2.356,2.356,0,0,0,1.118,2.279l-.006.01,3.614,1.862,2.967-4.622,32.06-18.7a7.765,7.765,0,0,0,3.47-6.041V298.191l2.785-9.127Z" transform="translate(-363.571 -286.86)"/><path class="o" d="M409.866,319.709a7.76,7.76,0,0,1-3.47,6.041l-36.283,21.167c-1.908,1.113-3.47.217-3.47-1.993V316.135a7.767,7.767,0,0,1,3.47-6.041L406.4,288.928c1.909-1.113,3.47-.217,3.47,1.993Z" transform="translate(-362.856 -286.49)"/><path class="au" d="M376.727,406.944V313.975a4.74,4.74,0,0,1,2.37-4.106l14.983-8.651a2.181,2.181,0,0,1,3.273,1.89v91.927" transform="translate(-360.51 -283.588)"/></g></g><path class="y" d="M546.113,124.357c-6.065,4-8.478,7.237-11.455,15.38-2.978-8.143-5.39-11.382-11.456-15.38,6.066-4,8.478-7.237,11.456-15.38C537.635,117.12,540.049,120.359,546.113,124.357Z" transform="translate(92.41 17.253)"/><path class="y" d="M438.377,91.944c-3.032,2-4.239,3.619-5.728,7.689-1.488-4.07-2.695-5.691-5.727-7.689,3.032-2,4.239-3.619,5.727-7.689C434.138,88.325,435.345,89.946,438.377,91.944Z" transform="translate(70.012 11.501)"/><path class="y" d="M582.626,310.691c-3.032,2-4.239,3.619-5.728,7.689-1.489-4.07-2.7-5.69-5.728-7.689,3.032-2,4.239-3.619,5.728-7.689C578.387,307.072,579.594,308.693,582.626,310.691Z" transform="translate(103.57 62.391)"/><path class="y" d="M179.7,394.963c-3.032,2-4.239,3.619-5.727,7.69-1.489-4.071-2.7-5.691-5.728-7.69,3.032-2,4.239-3.619,5.728-7.689C175.46,391.344,176.667,392.965,179.7,394.963Z" transform="translate(9.832 81.996)"/><path class="y" d="M205.1,129.922c-4.908,3.234-6.862,5.857-9.272,12.447-2.409-6.59-4.362-9.213-9.271-12.447,4.908-3.236,6.862-5.858,9.271-12.447C198.237,124.065,200.19,126.687,205.1,129.922Z" transform="translate(14.093 19.23)"/></g></svg>