<svg xmlns="http://www.w3.org/2000/svg" xmlns:xlink="http://www.w3.org/1999/xlink" width="514.22" height="536.539" viewBox="0 0 514.22 536.539"><defs><style>.a{fill:#a5bce3;}.a,.ay,.b,.ba,.bt,.l{mix-blend-mode:multiply;}.a,.ay,.b,.ba,.bn,.bo,.bt,.c,.l{isolation:isolate;}.b{fill:#93afdd;}.d{fill:#332a43;}.e{fill:#2d243e;}.f{fill:#211833;}.g{fill:#3385ff;}.h{fill:#06f;}.i{fill:url(#a);}.j{fill:url(#b);}.k{fill:#fff;}.l{fill:#91b8f2;}.m{fill:#888b90;}.n{fill:#1f79ff;}.o{fill:#adadb4;}.p{fill:#babcbf;}.q{fill:url(#c);}.r{fill:#818489;}.s{fill:url(#d);}.t{fill:url(#e);}.u{fill:url(#f);}.v{fill:url(#g);}.w{fill:url(#h);}.x{fill:#52586c;}.y{fill:url(#i);}.z{fill:#e4e7ed;}.aa{fill:#0e4ab6;}.ab{fill:#6ba2d6;}.ac{fill:#93bbe1;}.ad{fill:#5493d2;}.ae{fill:#cee0f2;}.af{fill:#ebf2f9;}.ag{fill:#3d4359;}.ah{fill:#464d62;}.ai{fill:#464c61;}.aj{fill:#626779;}.ak{fill:url(#j);}.al{fill:#90a09e;}.am{fill:url(#k);}.an{fill:url(#l);}.ao{fill:url(#m);}.ap{fill:url(#n);}.aq{fill:url(#o);}.ar{fill:#8fbcff;}.as{fill:#62a1ff;}.at{fill:#7fb3ff;}.au{fill:url(#p);}.av{fill:#3b4157;}.aw{fill:#f0f4ef;}.ax{fill:url(#q);}.ay{fill:#fcf4f0;}.az{fill:url(#r);}.ba{fill:#f2c7b5;}.bb{fill:#ffb9a0;}.bc{fill:url(#s);}.bd{fill:url(#t);}.be{fill:url(#u);}.bf{fill:#dce1e0;}.bg{fill:#a1bdff;}.bh{fill:#b7ccff;}.bi{fill:#00d158;}.bj{fill:#c6c0d0;}.bk{fill:#d3e1fc;}.bl{fill:#3689f5;}.bm{fill:#8cd1ff;}.bn{opacity:0.76;}.bo{opacity:0.52;}.bp{opacity:0.28;}.bq{fill:#6aaede;}.br{fill:#ff7200;}.bs{fill:#e06800;}.bt{fill:#c4d3ed;}.bu{fill:#ffa100;}.bv{fill:#ffae00;}.bw{fill:#cfd8db;}.bx{fill:#00a658;}</style><linearGradient id="a" y1="0.5" x2="1" y2="0.5" gradientUnits="objectBoundingBox"><stop offset="0" stop-color="#3385ff"/><stop offset="1" stop-color="#7baefa"/></linearGradient><linearGradient id="b" x1="0.406" y1="0.782" x2="0.594" y2="0.218" gradientUnits="objectBoundingBox"><stop offset="0.451" stop-color="#1f79ff"/><stop offset="1" stop-color="#7baefa"/></linearGradient><linearGradient id="c" x1="0.36" y1="0.923" x2="0.619" y2="0.158" gradientUnits="objectBoundingBox"><stop offset="0.134" stop-color="#e8e8e9"/><stop offset="0.58" stop-color="#d1d1d4"/><stop offset="1" stop-color="#c9c9cd"/></linearGradient><linearGradient id="d" x1="-4.567" y1="0.884" x2="5.567" y2="0.116" gradientUnits="objectBoundingBox"><stop offset="0.165" stop-color="#818489"/><stop offset="1" stop-color="#b7b9bd"/></linearGradient><linearGradient id="e" x1="0.082" y1="0.675" x2="0.918" y2="0.325" gradientUnits="objectBoundingBox"><stop offset="0.064" stop-color="#bbbdbf"/><stop offset="0.74" stop-color="#c7c9cb"/></linearGradient><linearGradient id="f" x1="0.399" y1="0.542" x2="0.917" y2="0.325" gradientUnits="objectBoundingBox"><stop offset="0.214" stop-color="#989a9f"/><stop offset="1" stop-color="#b7b9bd"/></linearGradient><linearGradient id="g" x1="0.254" y1="0.726" x2="0.76" y2="0.268" gradientUnits="objectBoundingBox"><stop offset="0" stop-color="#818489"/><stop offset="0.433" stop-color="#b7b9bd"/></linearGradient><linearGradient id="h" x1="0.103" y1="0.678" x2="0.897" y2="0.322" gradientUnits="objectBoundingBox"><stop offset="0.276" stop-color="#06f"/><stop offset="1" stop-color="#7baefa"/></linearGradient><linearGradient id="i" x1="0.312" y1="0.725" x2="0.688" y2="0.275" gradientUnits="objectBoundingBox"><stop offset="0" stop-color="#eaecef"/><stop offset="0.668" stop-color="#f2f2f2"/></linearGradient><linearGradient id="j" x1="-0.009" y1="0.478" x2="0.946" y2="0.563" gradientUnits="objectBoundingBox"><stop offset="0" stop-color="#4e5468"/><stop offset="0.111" stop-color="#4e5468"/><stop offset="0.265" stop-color="#797e8d"/><stop offset="0.348" stop-color="#707585"/><stop offset="0.48" stop-color="#585e70"/><stop offset="0.528" stop-color="#4e5468"/></linearGradient><linearGradient id="k" x1="0.248" y1="0.486" x2="0.725" y2="0.531" gradientUnits="objectBoundingBox"><stop offset="0.023" stop-color="#bcc6c4"/><stop offset="0.235" stop-color="#dce1e0"/><stop offset="0.348" stop-color="#dde2e1"/><stop offset="0.4" stop-color="#d5dbda"/><stop offset="0.792" stop-color="#9daca9"/><stop offset="0.982" stop-color="#889a97"/></linearGradient><linearGradient id="l" x1="-0.006" y1="0.595" x2="0.739" y2="0.4" gradientUnits="objectBoundingBox"><stop offset="0.312" stop-color="#dce1e0"/><stop offset="0.977" stop-color="#b3bfbc"/></linearGradient><linearGradient id="m" x1="0.155" y1="0.877" x2="0.849" y2="0.33" gradientUnits="objectBoundingBox"><stop offset="0.023" stop-color="#bec8c6"/><stop offset="0.688" stop-color="#dce1e0"/></linearGradient><linearGradient id="n" x1="0.354" y1="0.952" x2="0.646" y2="0.049" gradientUnits="objectBoundingBox"><stop offset="0.023" stop-color="#bec8c6"/><stop offset="0.905" stop-color="#d6dcdb"/></linearGradient><linearGradient id="o" x1="0.025" y1="0.419" x2="0.925" y2="0.685" xlink:href="#k"/><linearGradient id="p" x1="5.011" y1="0.825" x2="4.54" y2="0.073" gradientUnits="objectBoundingBox"><stop offset="0.209" stop-color="#31374e"/><stop offset="0.59" stop-color="#4b5264"/><stop offset="0.941" stop-color="#454b60"/></linearGradient><linearGradient id="q" x1="3.135" y1="0.782" x2="2.739" y2="0.182" gradientUnits="objectBoundingBox"><stop offset="0" stop-color="#ff7d50"/><stop offset="0.374" stop-color="#ff9874"/><stop offset="0.817" stop-color="#ffbba3"/></linearGradient><linearGradient id="r" x1="4.594" y1="0.974" x2="5.488" y2="-0.015" gradientUnits="objectBoundingBox"><stop offset="0.183" stop-color="#ffa98a"/><stop offset="0.688" stop-color="#ffa484"/></linearGradient><linearGradient id="s" x1="5.676" y1="0.821" x2="4.918" y2="0.118" gradientUnits="objectBoundingBox"><stop offset="0.173" stop-color="#ff9c78"/><stop offset="0.817" stop-color="#ffbba3"/></linearGradient><linearGradient id="t" x1="0.162" y1="0.492" x2="0.715" y2="0.542" xlink:href="#k"/><linearGradient id="u" x1="0.343" y1="0.233" x2="0.836" y2="1.147" gradientUnits="objectBoundingBox"><stop offset="0" stop-color="#dce1e0"/><stop offset="0.523" stop-color="#bec8c6"/><stop offset="1" stop-color="#8c9d9a"/></linearGradient></defs><g transform="translate(-40.595 -31.759)"><path class="a" d="M473.314,317.493,315.354,226.3a17.768,17.768,0,0,0-8.872-2.15,21.568,21.568,0,0,0-10.644,2.707l-17.616,10.169c-4.017,2.32-6.322,5.842-6.322,9.663a9.959,9.959,0,0,0,5.359,8.638l16.887,9.75-95.519,55.148c-12.365,7.14-13.709,17.938-3,24.122l15.783,9.111c10.708,6.183,29.413,5.408,41.779-1.731l95.521-55.148,86.51,49.946a17.765,17.765,0,0,0,8.872,2.151,21.586,21.586,0,0,0,10.644-2.707L472.349,335.8c4.017-2.32,6.322-5.84,6.322-9.661A9.961,9.961,0,0,0,473.314,317.493Z" transform="translate(54.975 71.558)"/><path class="b" d="M304.013,337.508,161.531,255.246l-29.755.272L66.091,293.689c-8.325,4.837-8.494,12.555-.379,17.24L208.2,393.191c8.114,4.685,21.435,4.563,29.76-.274l65.686-38.173C311.961,349.911,312.128,342.193,304.013,337.508Z" transform="translate(7.119 83.126)"/><path class="b" d="M227.9,372.5l39.306-22.693,39.112,22.581-39.306,22.694Z" transform="translate(69.668 118.298)"/><path class="b" d="M133.686,412.531l39.306-22.694L212.1,412.418,172.8,435.111Z" transform="translate(34.625 133.187)"/><path class="b" d="M290.541,410.731l39.306-22.693,39.112,22.581-39.306,22.693Z" transform="translate(92.967 132.518)"/><path class="b" d="M58.234,368.968,97.54,346.275l39.112,22.581L97.345,391.549Z" transform="translate(6.561 116.984)"/><path class="b" d="M358.247,373.883l39.306-22.693,39.112,22.581-39.306,22.693Z" transform="translate(118.151 118.812)"/><path class="b" d="M290.541,334.267l39.306-22.693,39.112,22.581-39.306,22.693Z" transform="translate(92.967 104.077)"/><g transform="translate(40.595 31.759)"><g transform="translate(33.163 294.067)"><g transform="translate(0 2.278)"><g class="c"><g transform="translate(68.433)"><path class="d" d="M118.117,251.594l-3.47-.313c7.9-4.591,20.549-4.707,28.255-.258l-3.438.313C133.723,248.013,124.152,248.09,118.117,251.594Z" transform="translate(-114.647 -247.761)"/></g><g transform="translate(6.056 3.52)"><path class="e" d="M72.652,286.889l-3.47-.314,62.376-36.249,3.47.313Z" transform="translate(-69.181 -250.327)"/></g><g transform="translate(0 48.138)"><path class="f" d="M64.767,290.2l.021-7.356c-.008,2.918,1.88,5.81,5.677,8l-.021,7.356C66.647,296.015,64.759,293.123,64.767,290.2Z" transform="translate(-64.767 -282.848)"/></g><g transform="translate(0.021 39.769)"><path class="e" d="M73.905,289.432l-3.446,3.688c-7.706-4.449-7.547-11.778.358-16.371l3.471.314C68.25,280.573,68.151,286.117,73.905,289.432Z" transform="translate(-64.782 -276.748)"/></g><g transform="translate(93.25 3.262)"><path class="e" d="M132.736,250.452l3.438-.313,135.3,78.118-3.438.313Z" transform="translate(-132.736 -250.139)"/></g><g transform="translate(228.179 81.38)"><path class="e" d="M231.459,307.391l3.438-.313c7.706,4.448,7.546,11.777-.353,16.367l-3.46-3.688C237.114,316.25,237.214,310.705,231.459,307.391Z" transform="translate(-231.084 -307.078)"/></g><g transform="translate(231.618 89.384)"><path class="f" d="M239.641,312.912l-.021,7.356c-.01,3-2.025,6.035-6.03,8.363l.021-7.356C237.618,318.947,239.633,315.915,239.641,312.912Z" transform="translate(-233.591 -312.912)"/></g><g transform="translate(165.802 94.059)"><path class="e" d="M247.994,316.319l3.461,3.688-62.376,36.249-3.461-3.688Z" transform="translate(-185.618 -316.319)"/></g><g transform="translate(169.241 97.747)"><path class="f" d="M250.522,319.008l-.021,7.357-62.376,36.249.021-7.357Z" transform="translate(-188.125 -319.008)"/></g><g transform="translate(5.697 52.452)"><path class="e" d="M207.671,364.11l-3.448,3.688L68.92,289.68l3.447-3.688Z" transform="translate(-68.92 -285.992)"/></g><g transform="translate(5.676 56.14)"><path class="f" d="M204.229,366.8l-.021,7.357L68.9,296.037l.021-7.357Z" transform="translate(-68.905 -288.681)"/></g><g transform="translate(4.912 1.143)"><path class="d" d="M291.989,329.144c5.755,3.315,5.655,8.859-.375,12.367l-62.377,36.248c-6.042,3.508-15.611,3.584-21.353.262L72.579,299.9c-5.754-3.315-5.655-8.859.383-12.37l62.376-36.25c6.035-3.5,15.606-3.581,21.348-.258Z" transform="translate(-68.347 -248.594)"/></g><g transform="translate(141.001 130.308)"><path class="e" d="M192.342,342.741l3.461,3.688c-7.905,4.595-20.556,4.711-28.262.262L170.989,343C176.73,346.325,186.3,346.249,192.342,342.741Z" transform="translate(-167.541 -342.741)"/></g><g transform="translate(140.98 133.995)"><path class="f" d="M195.809,345.429l-.022,7.356c-7.905,4.595-20.555,4.711-28.261.262l.021-7.356C175.253,350.14,187.9,350.024,195.809,345.429Z" transform="translate(-167.526 -345.429)"/></g></g></g><g transform="translate(6.487)"><g class="c"><g transform="translate(50.255 12.878)"><path class="g" d="M107.308,256.606l-1.182-1.119,5.805.894-.7-.663Z" transform="translate(-106.125 -255.487)"/></g><g transform="translate(51.437 11.856)"><path class="h" d="M108.024,256.876l-.007,2.139a2.941,2.941,0,0,0-1.03-2.132l.005-2.14A2.951,2.951,0,0,1,108.024,256.876Z" transform="translate(-106.987 -254.743)"/></g><g transform="translate(17.992 31.369)"><path class="g" d="M83.053,268.966l1.935.681-2.378,2.764,1.157.407Z" transform="translate(-82.609 -268.966)"/></g><g transform="translate(4.604 2.182)"><path class="i" d="M284.148,324.763c5.566,3.212,5.591,8.422.064,11.633l-57.767,33.57c-5.522,3.212-14.525,3.212-20.083,0L77.041,295.3c-5.562-3.209-5.591-8.424-.064-11.633L87.4,277.61l-1.157-.407c4.615,1.612,10.489,1.2,14.264-.995l21.42-12.448c3.782-2.2,4.475-5.6,1.682-8.263l.7.663,10.428-6.06c5.521-3.212,14.525-3.212,20.083,0Z" transform="translate(-72.851 -247.691)"/></g><g transform="translate(50.255 10.738)"><path class="h" d="M107.314,255.046l-.006,2.14-1.182-1.119.006-2.139Z" transform="translate(-106.125 -253.928)"/></g><g transform="translate(0 44.414)"><path class="h" d="M69.5,280.613l.005-2.139c-.007,2.8,1.843,5.613,5.55,7.753l-.007,2.139C71.338,286.227,69.487,283.417,69.5,280.613Z" transform="translate(-69.495 -278.474)"/></g><g transform="translate(219.218 85.614)"><path class="h" d="M234.751,308.5l-.005,2.139c-.008,2.769-1.829,5.533-5.464,7.646l.007-2.14C232.922,314.036,234.743,311.273,234.751,308.5Z" transform="translate(-229.281 -308.504)"/></g><g transform="translate(161.45 93.259)"><path class="h" d="M244.949,314.076l-.006,2.139-57.769,33.572.006-2.14Z" transform="translate(-187.174 -314.076)"/></g><g transform="translate(5.548 52.167)"><path class="h" d="M202.866,358.788l-.006,2.14L73.539,286.264l.006-2.139Z" transform="translate(-73.539 -284.125)"/></g><path class="j" d="M288.618,323.954l-.1-.063-129.2-74.6c-7.387-4.248-19.276-4.248-26.6,0l-12.966,7.547,1.173,1.109c1.712,1.618,1.268,3.678-1.015,5.01l-21.4,12.46a11.126,11.126,0,0,1-8.654.6l-1.934-.7-12.968,7.544c-7.323,4.249-7.26,11.161.095,15.408l129.326,74.666c7.356,4.249,19.246,4.249,26.571,0l57.766-33.576a14.435,14.435,0,0,0,2.157-1.522C295.942,333.623,295.18,327.727,288.618,323.954Zm-3.171,13.031L227.68,370.56c-5.517,3.2-14.521,3.2-20.07,0L78.284,295.895c-5.548-3.2-5.578-8.435-.063-11.636L88.652,278.2l-.03-.095c4.407,1.2,9.67.7,13.125-1.3l21.433-12.461c3.488-2.028,4.344-5.039,2.282-7.609h.1l10.431-6.056c5.517-3.2,14.522-3.2,20.07,0l128.6,74.255.73.412c5.135,2.95,5.58,7.609,1.3,10.842C286.3,336.445,285.89,336.731,285.447,336.984Z" transform="translate(-69.494 -246.101)"/><g transform="translate(134.87 126.83)"><path class="h" d="M194.387,338.546l-.007,2.14c-7.315,4.25-19.217,4.25-26.58,0l.005-2.14C175.169,342.8,187.07,342.8,194.387,338.546Z" transform="translate(-167.8 -338.546)"/></g></g></g><g transform="translate(156.78 76.238)"><path class="k" d="M188.529,328.5c-2.555,0-4.971-1-6.076-2.519-.8-1.109-.74-2.461.182-4.025,1.725-2.926,5.418-4.508,9.15-5.78.5-.173.995-.317,1.479-.44-.262.021-.532.045-.814.073l-.845.088c-2.745.289-5.582.589-8.132-.148a6.13,6.13,0,0,1-4-3.064,4.2,4.2,0,0,1-.095-3.485,5.961,5.961,0,0,1,2.716-2.791,11.737,11.737,0,0,1,3.813-1.617,6.6,6.6,0,0,1,4.8.682l-1.128,1.548a4.881,4.881,0,0,0-3.3-.353,9.831,9.831,0,0,0-3.2,1.382,4.082,4.082,0,0,0-1.941,1.893,2.277,2.277,0,0,0,.058,1.915A4.275,4.275,0,0,0,184,313.909c2.188.632,4.839.354,7.4.082l.853-.088c3.42-.351,5.982-.167,7.772.556.08-.018.159-.037.24-.058a3.737,3.737,0,0,1-.617-1.581,6.163,6.163,0,0,1,.056-2.493c.425-1.58,2.175-3.327,4.256-4.249,2.773-1.229,5.854-.593,7.018,1.45a2.856,2.856,0,0,1,.18,2.42c-.637,1.841-2.859,3.581-6.423,5.031-.086.033-.17.067-.252.1a10.6,10.6,0,0,0,5.386.32c3.943-.8,5.082-2.271,7.142-4.938a9.389,9.389,0,0,1-4.938-2.747c-.845-.992-1.895-3.134-1.12-4.654.369-.72,1.261-1.534,3.412-1.372a6.9,6.9,0,0,1,4.6,2.32,5.621,5.621,0,0,1,.907,4.9,13.63,13.63,0,0,0,7.023-1.731l.96,1.657a15.826,15.826,0,0,1-8.757,1.951,7.672,7.672,0,0,1-.565.841c-2.19,2.836-3.637,4.71-8.281,5.652a11.919,11.919,0,0,1-7.944-1.08,4.356,4.356,0,0,1,.665,2.86c-.277,3.416-2.994,6.454-7.269,8.126A20.784,20.784,0,0,1,188.8,328.5C188.707,328.5,188.619,328.5,188.529,328.5ZM199.8,316.467c-.947.2-1.836.339-2.681.473a27.673,27.673,0,0,0-4.718,1.047c-3.383,1.155-6.71,2.553-8.121,4.942-.663,1.124-.513,1.607-.279,1.929.654.905,2.5,1.738,4.74,1.726a19.1,19.1,0,0,0,6.267-1.183c3.522-1.379,5.845-3.868,6.057-6.5a2.273,2.273,0,0,0-1.017-2.288C199.975,316.565,199.894,316.516,199.8,316.467Zm7.075-9.1a5.334,5.334,0,0,0-2.137.465,5.76,5.76,0,0,0-3.182,3,4.366,4.366,0,0,0-.011,1.731,2.267,2.267,0,0,0,.742,1.281c.553-.18,1.128-.387,1.727-.632,4.311-1.752,5.175-3.415,5.337-3.883a.984.984,0,0,0-.033-.846A2.716,2.716,0,0,0,206.877,307.364Zm6.926-3.783c-.609,0-1.025.125-1.14.351-.261.51.261,1.826.873,2.542a7.844,7.844,0,0,0,4.409,2.229,3.767,3.767,0,0,0-.517-3.555,5.119,5.119,0,0,0-3.208-1.552C214.073,303.588,213.933,303.581,213.8,303.581Z" transform="translate(-179.042 -301.67)"/></g><g transform="translate(48.004 22.534)"><path class="k" d="M142.263,265.87l-36.713,21.2a5.486,5.486,0,0,1-4.938.2h0c-1.266-.73-1.107-2.007.354-2.851l36.713-21.2a5.493,5.493,0,0,1,4.939-.2h0C143.883,263.75,143.725,265.026,142.263,265.87Z" transform="translate(-99.757 -262.526)"/><path class="k" d="M163.581,269.124l-52.393,30.25a5.486,5.486,0,0,1-4.938.2h0c-1.266-.731-1.107-2.007.354-2.851L159,266.479a5.491,5.491,0,0,1,4.938-.206h0C165.2,267,165.042,268.282,163.581,269.124Z" transform="translate(-97.66 -261.315)"/><path class="k" d="M171.449,273.668l-52.392,30.249a5.494,5.494,0,0,1-4.939.206h0c-1.266-.731-1.107-2.007.354-2.852l52.393-30.249a5.489,5.489,0,0,1,4.939-.2h0C173.069,271.548,172.91,272.824,171.449,273.668Z" transform="translate(-94.733 -259.625)"/><path class="k" d="M179.317,278.211,126.923,308.46a5.486,5.486,0,0,1-4.938.2h0c-1.266-.731-1.107-2.007.354-2.851l52.393-30.249a5.486,5.486,0,0,1,4.938-.2h0C180.937,276.09,180.778,277.367,179.317,278.211Z" transform="translate(-91.807 -257.936)"/><path class="k" d="M175.951,287.481l-41.16,23.762a5.487,5.487,0,0,1-4.938.206h0c-1.266-.731-1.107-2.007.354-2.852l41.16-23.762a5.49,5.49,0,0,1,4.939-.206h0C177.572,285.36,177.414,286.636,175.951,287.481Z" transform="translate(-88.88 -254.488)"/><path class="k" d="M195.053,287.3l-52.393,30.249a5.486,5.486,0,0,1-4.938.2h0c-1.266-.73-1.107-2.007.354-2.851l52.393-30.249a5.486,5.486,0,0,1,4.938-.2h0C196.673,285.176,196.514,286.452,195.053,287.3Z" transform="translate(-85.954 -254.556)"/><path class="k" d="M232.765,306.286l-43.8,25.286a.655.655,0,0,1-.587.025h0c-.151-.086-.132-.239.043-.339l43.8-25.286a.65.65,0,0,1,.587-.023h0C232.957,306.035,232.939,306.185,232.765,306.286Z" transform="translate(-66.831 -246.397)"/><path class="l" d="M236.758,316.751l-4.186-1.649-17.6-6.974s7.451-2.157,15.568-4.28c.064-.033.159-.033.222-.064,1.2-.317,2.441-.634,3.645-.982l.1.063C241.069,306.637,241.832,312.534,236.758,316.751Z" transform="translate(-56.901 -247.545)"/><path class="k" d="M165.594,307.546l-15.067,8.7a5.49,5.49,0,0,1-4.938.2h0c-1.266-.731-1.107-2.007.354-2.851l15.067-8.7a5.489,5.489,0,0,1,4.939-.2h0C167.214,305.426,167.057,306.7,165.594,307.546Z" transform="translate(-83.027 -247.024)"/></g></g><g transform="translate(265.567)"><g transform="translate(61.907 201.137)"><g class="c"><g transform="translate(50.787 79.201)"><path class="m" d="M320.1,236.455l53.893,31.319a3.167,3.167,0,0,0-2.563-.176,5.982,5.982,0,0,0-1.227.545L316.3,236.824a5.942,5.942,0,0,1,1.227-.545A3.164,3.164,0,0,1,320.1,236.455Z" transform="translate(-316.305 -236.094)"/></g><g transform="translate(49.403 80.573)"><path class="n" d="M369.19,268.78,315.3,237.461l.132-.366,53.893,31.32Z" transform="translate(-315.297 -237.094)"/></g><g transform="translate(99.378 110.52)"><path class="m" d="M357.026,259.652a5.985,5.985,0,0,1,1.226-.545c2.35-.719,4.109.7,4.117,3.59a11.708,11.708,0,0,1-5.309,9.2c-1.854,1.07-3.487.922-4.444-.181a3.916,3.916,0,0,1-.852-2.15,6.634,6.634,0,0,1-.041-.719,11.863,11.863,0,0,1,3.918-8.182A8.615,8.615,0,0,1,357.026,259.652Z" transform="translate(-351.723 -258.922)"/></g><g transform="translate(17.197 2.164)"><path class="o" d="M378.053,289.671l-53.893-31.32-32.338-78.408,53.893,31.319Z" transform="translate(-291.822 -179.943)"/></g><g transform="translate(45.485 79.93)"><path class="p" d="M367.89,280.556,314,249.237a2.6,2.6,0,0,1-.661-.552,3.9,3.9,0,0,1-.852-2.148,6.321,6.321,0,0,1-.041-.719,11.867,11.867,0,0,1,3.918-8.184,8.455,8.455,0,0,1,1.383-1.008l53.894,31.319a8.617,8.617,0,0,0-1.384,1.01,11.863,11.863,0,0,0-3.918,8.182,6.641,6.641,0,0,0,.041.719,3.916,3.916,0,0,0,.852,2.15A2.582,2.582,0,0,0,367.89,280.556Z" transform="translate(-312.441 -236.626)"/></g><path class="m" d="M378.706,274.316l-53.893-28.172-42.588,24.589a5.813,5.813,0,0,0-2.128,2.11l-.809-.182v3.16h0a5.819,5.819,0,0,0,2.924,5.083l36.733,21.346a16.744,16.744,0,0,0,16.79.023l44.174-25.495Z" transform="translate(-279.287 -153.156)"/><path class="q" d="M324.814,243.85l-42.588,24.589a5.877,5.877,0,0,0-.014,10.172l36.731,21.346a16.75,16.75,0,0,0,16.791.023l42.972-24.812Z" transform="translate(-279.287 -154.009)"/><g transform="translate(71.09 31.319)"><path class="m" d="M333.24,201.194l32.714,79.292c-.427.214-.838.4-1.259.638a8.532,8.532,0,0,0-1.384,1.01l.132-.366L331.1,203.358Z" transform="translate(-331.104 -201.194)"/></g><g transform="translate(17.197)"><path class="n" d="M345.715,211.849,291.822,180.53l2.136-2.164,53.893,31.319Z" transform="translate(-291.822 -178.366)"/></g></g></g><g transform="translate(0.24)"><g class="c"><g transform="translate(22.848 2.133)"><path class="n" d="M250.993,33.314l1.546.854L449.118,147.663l-1.547-.854Z" transform="translate(-250.993 -33.314)"/></g><g transform="translate(22.507 1.94)"><path class="n" d="M250.744,33.173l1.579.873.309.174-1.546-.853Q250.915,33.268,250.744,33.173Z" transform="translate(-250.744 -33.173)"/></g><g transform="translate(223.17 303.39)"><path class="r" d="M403.77,262.87l-6.765,3.932c2.793-1.623,4.525-5.072,4.538-9.973l6.765-3.932C408.295,257.8,406.563,261.248,403.77,262.87Z" transform="translate(-397.005 -252.897)"/></g><g transform="translate(234.474 140.696)"><path class="n" d="M405.7,136.095l.023-1.784-.456,160.91-.023,1.784Z" transform="translate(-405.244 -134.311)"/></g><g transform="translate(227.708 142.48)"><path class="s" d="M400.77,139.542l6.765-3.931-.456,160.911-6.765,3.931Z" transform="translate(-400.313 -135.611)"/></g><g transform="translate(219.427 115.628)"><path class="r" d="M394.277,116.039l1.546.855c7.741,4.467,14.006,15.312,13.98,24.214l-.023,1.784C409.807,133.017,402.863,121,394.277,116.039Z" transform="translate(-394.277 -116.039)"/></g><g transform="translate(0 6.799)"><path class="t" d="M445.445,152.132c7.739,4.468,14,15.312,13.979,24.215l-.456,160.91c-.025,8.894-6.332,12.489-14.071,8.019l-196.58-113.5c-7.739-4.467-14.006-15.321-13.979-24.214l.455-160.911c.025-8.9,6.332-12.489,14.071-8.019Z" transform="translate(-234.339 -36.714)"/></g><path class="u" d="M446.877,150.253,250.3,36.757c-8.586-4.957-15.577-.982-15.6,8.893l-.023,1.784c.023-8.9,6.33-12.489,14.071-8.019l196.58,113.495c7.739,4.468,14.006,15.312,13.979,24.214l-.455,160.912c-.023,8.775-6.164,12.391-13.762,8.193l1.579.873c8.428,4.656,15.234.649,15.263-9.085l.456-160.911C462.409,167.23,455.463,155.209,446.877,150.253Z" transform="translate(-234.215 -30.693)"/><path class="v" d="M452.406,147.387,255.828,33.892c-4.322-2.5-8.239-2.727-11.068-1.084L238,36.741c2.829-1.644,6.746-1.412,11.068,1.082l196.579,113.5c8.586,4.955,15.532,16.977,15.5,26.852l6.765-3.932C467.937,164.365,460.992,152.344,452.406,147.387Z" transform="translate(-232.979 -31.759)"/></g></g><g transform="translate(0 10.897)"><g class="c"><g transform="translate(0 146.422)"><path class="n" d="M249.2,171.952l.472,1.327c-8.586-4.957-15.532-16.976-15.5-26.852l.919,1.084C235.057,156.5,241.382,167.441,249.2,171.952Z" transform="translate(-234.164 -146.427)"/></g><g transform="translate(0 12.23)"><path class="n" d="M235.084,183.891l-.92-1.083.38-134.192.92,1.083Z" transform="translate(-234.164 -48.616)"/></g><g transform="translate(4.919)"><path class="h" d="M237.749,41.959l2.077-1.207c2.829-1.644,6.745-1.413,11.065,1.081l-2.076,1.207C244.495,40.546,240.578,40.315,237.749,41.959Z" transform="translate(-237.749 -39.701)"/></g><g transform="translate(0.38 1.207)"><path class="n" d="M235.362,52.688l-.921-1.084c.027-9.866,7.019-13.848,15.6-8.892l-.482,1.881C241.752,40.082,235.385,43.71,235.362,52.688Z" transform="translate(-234.441 -40.581)"/></g><g transform="translate(15.031 171.947)"><path class="n" d="M434.031,274.1l.472,1.328L245.591,166.359l-.472-1.327Z" transform="translate(-245.12 -165.032)"/></g><g transform="translate(215.481 272.242)"><path class="h" d="M393.3,248.116l-2.077,1.206c2.792-1.622,4.523-5.072,4.537-9.978l2.076-1.207C397.825,243.042,396.1,246.493,393.3,248.116Z" transform="translate(-391.226 -238.136)"/></g><g transform="translate(203.942 272.92)"><path class="n" d="M397.019,238.63l1.873.53c-.029,9.874-7.011,13.854-15.6,8.893l-.472-1.328C390.636,251.241,396.993,247.618,397.019,238.63Z" transform="translate(-382.815 -238.63)"/></g><g transform="translate(220.018 138.051)"><path class="h" d="M394.913,141.532l2.077-1.207-.381,134.192-2.077,1.207Z" transform="translate(-394.533 -140.326)"/></g><g transform="translate(218.145 138.729)"><path class="n" d="M393.548,140.819l1.873.529-.38,134.192-1.873-.529Z" transform="translate(-393.168 -140.819)"/></g><g transform="translate(15.503 3.338)"><path class="n" d="M245.464,44.016l.481-1.881L434.856,151.2l-.481,1.882Z" transform="translate(-245.464 -42.135)"/></g><g transform="translate(15.984 2.132)"><path class="h" d="M245.815,42.462l2.077-1.207L436.8,150.323l-2.077,1.207Z" transform="translate(-245.815 -41.255)"/></g><path class="w" d="M438.33,153.1,249.418,44.032c-7.812-4.512-14.179-.885-14.2,8.094l-.381,134.192c-.026,8.985,6.3,19.932,14.112,24.44L437.857,319.827c7.821,4.516,14.179.893,14.2-8.094l.38-134.192C452.466,168.564,446.15,157.613,438.33,153.1Z" transform="translate(-233.915 -38.812)"/><path class="n" d="M393.78,137.1l-141.2-82.056.445,157.061,162.437,93.782-.321-113.212C420.329,195.055,394.484,136.4,393.78,137.1Z" transform="translate(-227.313 -33.993)"/><g transform="translate(204.415 112.406)"><path class="n" d="M383.16,123.515l.48-1.882c8.594,4.961,15.53,16.987,15.5,26.852l-1.873-.53C397.3,138.979,390.98,128.029,383.16,123.515Z" transform="translate(-383.16 -121.633)"/></g><g transform="translate(204.896 111.2)"><path class="h" d="M383.51,121.96l2.077-1.206c8.594,4.961,15.531,16.986,15.5,26.852l-2.077,1.206C399.04,138.947,392.1,126.921,383.51,121.96Z" transform="translate(-383.51 -120.754)"/></g></g></g><g transform="translate(52.82 192.872)"><path class="x" d="M272.664,175a6.529,6.529,0,0,0,.853-2.656Z" transform="translate(-272.664 -172.341)"/></g><g transform="translate(18.31 34.646)"><g class="c"><g transform="translate(0 1.325)"><path class="y" d="M410.472,293.619l-162.439-94.4L247.51,57.977l162.439,94.4Z" transform="translate(-247.51 -57.977)"/></g><path class="z" d="M409.949,152.736,247.51,58.336l2.294-1.325,162.439,94.4Z" transform="translate(-247.51 -57.012)"/><g transform="translate(162.439 94.399)"><path class="z" d="M368.2,125.818l.524,141.243-2.294,1.324-.523-141.242Z" transform="translate(-365.91 -125.818)"/></g></g></g><g transform="translate(100.32 313.461)"><path class="aa" d="M307.8,267.7a.747.747,0,0,0-.008,1.413l7.012,4.075a2.689,2.689,0,0,0,2.438,0l12.422-7.173a.746.746,0,0,0,.008-1.412l-7.012-4.075a2.68,2.68,0,0,0-2.438,0Z" transform="translate(-307.286 -260.237)"/></g><path class="m" d="M307.787,269.115l1.5.873,10.928-6.311a2.7,2.7,0,0,1,2.438,0l5.51,3.2,1.494-.863a.746.746,0,0,0,.008-1.412l-7.012-4.075a2.68,2.68,0,0,0-2.438,0L307.8,267.7A.747.747,0,0,0,307.787,269.115Z" transform="translate(-206.966 53.224)"/></g><g transform="translate(265.205 413.112)"><g transform="translate(0 14.176)"><path class="ab" d="M264.781,386.367,233.9,368.538V356.281l30.88,17.829Z" transform="translate(-233.9 -338.341)"/><path class="ac" d="M256.409,374.141V386.4l31.074-17.941V356.2Z" transform="translate(-225.529 -338.371)"/><path class="ad" d="M233.9,361.145l30.88,17.829,31.074-17.941L264.975,343.2Z" transform="translate(-233.9 -343.205)"/></g><path class="ab" d="M264.781,376.034,233.9,358.2V345.949l30.88,17.829Z" transform="translate(-233.9 -328.008)"/><path class="ac" d="M256.409,363.808v12.256l31.074-17.941V345.867Z" transform="translate(-225.529 -328.038)"/><path class="ae" d="M233.9,350.813l30.88,17.829L295.855,350.7l-30.88-17.829Z" transform="translate(-233.9 -332.872)"/><path class="af" d="M247.219,347.92l12.666,7.313,12.745-7.358-12.666-7.313Z" transform="translate(-228.947 -330.012)"/></g><g transform="translate(198.279 104.486)"><g transform="translate(36.158 111.241)"><path class="ag" d="M225.252,297.516q-5.373,6.4-10.748,12.8l9.6-11.932A3.581,3.581,0,0,0,225.252,297.516Z" transform="translate(-210.347 -148.638)"/><path class="ah" d="M215.611,311.239l-4.082-16.2a5.676,5.676,0,0,0,2.836,3.128c3.337,1.976,8.193,2.489,10.848,1.144Z" transform="translate(-211.453 -149.561)"/><path class="ai" d="M232.647,279.888q-4.809,11.782-9.62,23.566a3.025,3.025,0,0,1-1.524,1.487l8.824-22.787A4.6,4.6,0,0,0,232.647,279.888Z" transform="translate(-207.743 -155.195)"/><path class="aj" d="M229.805,276.514l.066.243.034.121.066.241.066.243.033.121c.021.073.047.169.067.241l.066.243.033.121.067.241.066.241.033.121c.021.074.047.17.067.243.482,1.755-.295,3.4-2.422,4.475l-.416-2.881C229.54,279.564,230.237,278.089,229.805,276.514Z" transform="translate(-205.464 -156.45)"/><path class="ak" d="M211.478,301.39q.815-12.7,1.629-25.406c-.122,1.9,1.4,4.084,4.429,5.879,5.08,3.009,12.477,3.791,16.522,1.744l-8.824,22.787c-2.655,1.345-7.511.831-10.848-1.144C212.4,304.071,211.4,302.638,211.478,301.39Z" transform="translate(-211.474 -156.647)"/><path class="aj" d="M213.53,275.024l1.655-1.888c-1.73,1.976-.557,4.862,3.2,7.085,4.558,2.7,11.194,3.4,14.821,1.564l.416,2.881c-4.046,2.047-11.442,1.265-16.522-1.744C212.91,280.443,211.6,277.224,213.53,275.024Z" transform="translate(-211.033 -157.706)"/><path class="al" d="M246.441,202.453q.14.648.281,1.3c.325,1.5-.39,2.895-2.22,3.822l-.162-1.5C246.072,205.193,246.75,203.874,246.441,202.453Z" transform="translate(-199.249 -183.997)"/><path class="al" d="M231.413,200.272l.082-.1.041-.052.081-.1.082-.1.041-.052.082-.1.081-.1.041-.052.082-.1.081-.1.041-.052.082-.1c-1.461,1.862-.32,4.508,3.142,6.559,4.311,2.555,10.589,3.217,14.02,1.48l.162,1.5c-3.627,1.836-10.264,1.135-14.821-1.565C231.076,205.038,229.868,202.24,231.413,200.272Z" transform="translate(-204.302 -185.196)"/><path class="am" d="M255.814,208.163c-3.627,1.836-10.264,1.135-14.821-1.565-2.966-1.756-4.32-3.927-3.9-5.735L214,301.368c-.414,1.808.94,3.979,3.9,5.735,4.558,2.7,11.194,3.4,14.823,1.565a3.863,3.863,0,0,0,2.223-2.478l23.084-100.5A3.855,3.855,0,0,1,255.814,208.163Z" transform="translate(-210.56 -184.588)"/><path class="an" d="M245.153,191.2l2.941,4.89c1.125,1.87.646,3.736-1.586,4.866l-2.251-7.008A1.8,1.8,0,0,0,245.153,191.2Z" transform="translate(-199.28 -188.181)"/><path class="ao" d="M234.555,192.649l4.785-3.12c-1.574,1.026-1.085,2.85,1.21,4.209,2.435,1.442,5.98,1.816,7.918.836l2.251,7.008c-3.433,1.737-9.711,1.074-14.021-1.48C232.635,197.695,231.769,194.465,234.555,192.649Z" transform="translate(-203.491 -188.804)"/><path class="ap" d="M246.98,194.77c-1.937.981-5.482.606-7.918-.836s-2.837-3.407-.9-4.387,5.482-.606,7.918.835S248.918,193.789,246.98,194.77Z" transform="translate(-202.003 -189)"/><path class="aq" d="M251.3,200.186c-3.433,1.736-9.709,1.074-14.021-1.48-2.806-1.661-4.087-3.715-3.695-5.426l-2.135,9.3c-.392,1.709.889,3.763,3.695,5.425,4.312,2.555,10.589,3.217,14.021,1.48a3.645,3.645,0,0,0,2.1-2.343l2.135-9.3A3.644,3.644,0,0,1,251.3,200.186Z" transform="translate(-204.07 -187.409)"/></g><g transform="translate(0 0)"><g transform="translate(111.483)"><path class="ar" d="M286.713,191.146c18.639,32.146,48.857,49.593,67.494,38.966s18.638-45.3,0-77.448-48.855-49.595-67.494-38.968S268.075,159,286.713,191.146Zm2.166-73.712c17.443-9.945,45.72,6.381,63.162,36.465s17.442,62.532,0,72.476-45.719-6.381-63.162-36.466S271.439,127.377,288.879,117.434Z" transform="translate(-264.013 -106.927)"/><ellipse class="as" cx="32.488" cy="56.273" rx="32.488" ry="56.273" transform="translate(0 32.793) rotate(-30.311)"/><path class="at" d="M338.124,154.05c12.589,21.714,12.589,45.134,0,52.312s-33-4.607-45.589-26.321-12.589-45.134,0-52.312S325.535,132.336,338.124,154.05Z" transform="translate(-260.16 -101.331)"/></g><g transform="translate(0 34.234)"><path class="au" d="M337.446,156.906c-10.645-18.362-27.905-28.327-38.55-22.257l-35.059,20.242,16.945,29.227a23.17,23.17,0,0,0,4.541,7.832l17.066,29.435,35.057-20.242C348.091,195.075,348.091,175.27,337.446,156.906Z" transform="translate(-155.839 -132.87)"/><ellipse class="av" cx="22.188" cy="38.431" rx="22.188" ry="38.431" transform="matrix(0.863, -0.505, 0.505, 0.863, 88.723, 33.287)"/><path class="aw" d="M302.343,171.785c9.764,16.841,9.764,35.005,0,40.571s-25.592-3.573-35.356-20.413-9.763-35.005,0-40.571S292.58,154.944,302.343,171.785Z" transform="translate(-157.391 -126.596)"/><path class="aw" d="M262.082,153.241l4-2.312,39.946,45.661-4.59,15.324-4,2.312Z" transform="translate(-156.492 -126.154)"/><path class="aw" d="M299.425,173.47c9.763,16.841,9.763,35.005,0,40.571s-25.594-3.573-35.358-20.413-9.763-35.005,0-40.571S289.661,156.629,299.425,173.47Z" transform="translate(-158.477 -125.969)"/><g transform="translate(0 32.067)"><path class="ax" d="M326.02,195.243c-.6-13.457-10.056-29.345-21.637-36.027-6.868-3.973-12.979-3.821-16.949-.387l-.014,0-27.454,24.9s-58.754,16.577-61.673,18.749c-2.919,2.2-3.065,7.141-3.065,7.141s-4.655-.579-5.958,7.119c-1.3,7.72-5.093,59.91-3.933,64.424,1.183,4.512,17.276,23.043,18.627,24.2.724.6,5.96,3.885,10.738,6.8,4.223,2.607,8.082,4.923,8.082,4.923s8.325-10.472,1.158-25.214a41.673,41.673,0,0,1-3.305-12.186,124.174,124.174,0,0,1-.892-19.762c.217-9.364,1.085-16.721,1.085-16.721s3.594-1.231,7.865-2.63c2.8-.941,5.887-1.954,8.422-2.726.313-.121.626-.193.916-.291,1.012-.313,1.881-.554,2.582-.748a1.342,1.342,0,0,1,1.037.145c2.653,1.351,6.056,9.6,8.735,17.276.988,2.895,1.906,5.718,2.629,8.059.362,1.183.7,2.269.941,3.161.169.508.289.966.41,1.351.266.918.41,1.424.41,1.424s.385-.169,1.11-.506c.675-.314,1.666-.748,2.895-1.328a232.457,232.457,0,0,0,23.068-12.232h.025v-.025c6.926-4.3,12.813-8.879,14.212-12.644a1.515,1.515,0,0,0,.1-.313,1.258,1.258,0,0,0,.1-.289,4.018,4.018,0,0,1,.121-.508c.048-.217.1-.435.145-.628.1-.385.169-.748.266-1.132a1.935,1.935,0,0,1,.1-.362c.8-3.523,2.6-6.728,4.136-10.078a60.981,60.981,0,0,1,4.956-9.2l.1-.154c2.162-3.138,2.356-3.626,4-4.349a73.811,73.811,0,0,1,7.092-2.961,10.559,10.559,0,0,0,1.556-.536l.224-.106a.1.1,0,0,0,.038-.014c4.333-2.047,7.038-7.011,7.038-14.271C326.047,196.135,326.034,195.689,326.02,195.243Z" transform="translate(-185.118 -156.244)"/><path class="ay" d="M212.059,195.474c-2.4,6.971,1.834,6.521-7.038,29.5s-9.453,26.18-9.889,29.815-8.582,5.672-8.145-2.327S212.059,195.474,212.059,195.474Z" transform="translate(-184.43 -141.652)"/><path class="ay" d="M191.434,238.174c-2.566,9.169.2,12.224,8.634,24.294s12.711,19.27,12.711,19.27l3.182,1.948s-3.772-28.344-5.469-30.526S191.434,238.174,191.434,238.174Z" transform="translate(-183.112 -125.77)"/><path class="az" d="M293.6,202.52l-.007.005a58.28,58.28,0,0,0-9.283,19.808c-.088.373-.176.739-.262,1.111-.047.2-.1.413-.151.628-.093.35-.2.722-.314,1.111-4.021,13.84-22.445,53.388-25.5,59.508-3.2,6.4-8.244,8.919-17.354,13.672a88.918,88.918,0,0,1-10.786,15.061c-1.908,2.077-3.648,3.567-4.829,3.847-2.914-.612-5.108-4.073-5.98-8.174a17.976,17.976,0,0,1-.029-7.535c1.454-6.5,10.28-26.37,15.707-30.153l7.063-20.9,2.537-7.51s1.366-5.248,3.722-11.984a108.4,108.4,0,0,1,8.472-19.03c2.7-4.5,5.729-8.056,8.941-9.32a42.408,42.408,0,0,1,16.715-2.577c4.643.163,11.233,2.383,11.338,2.432Z" transform="translate(-172.622 -139.947)"/><path class="ba" d="M256.6,212.315c-1.3-2.187-4.4-2.548-5.5-13.147l-4.864,21.67c-2.559-9.01-6.329-11.535-6.329-11.535s-4.37,9.645-5.1,9.645c-.488,0-1.548-1.722-2.013-3.961a9.8,9.8,0,0,1-.14-3.456,17.109,17.109,0,0,0,0-5.963s-4.393,9.575-5.747,12.8c-.158.366-.693,1.652-1.368,3.221a65.071,65.071,0,0,1-3.63,7.686c3.677-4.27,5.853-6.609,7.244-8.278,2.657,1.35,6.05,9.589,8.726,17.267,1.03,2.969,1.956,5.855,2.688,8.229.225.734.434,1.416.62,2.039.1.332.195.649.281.943.152.512.285.971.4,1.366l-7.063,20.9c-4.5,3.131-11.321,17.3-14.357,25.767a38.491,38.491,0,0,0-1.35,4.386,15.88,15.88,0,0,0-.366,2.851,18.552,18.552,0,0,0,.4,4.684c5.835-10.251,21.357-38.537,27.145-59a61.922,61.922,0,0,0,1.985-9.416c2.78-5.975,7.155-16.02,8.509-22.791C257.439,214.881,257.236,213.381,256.6,212.315Z" transform="translate(-172.621 -140.278)"/><path class="ba" d="M194.55,195.139c-3.346,8.289-7.58,48.286-7.58,48.286S195.423,200.084,194.55,195.139Z" transform="translate(-184.43 -141.777)"/><path class="ay" d="M310.507,186.016c0,7.263-2.7,12.21-7.046,14.26l-.025.025a1.289,1.289,0,0,0-.24.1c-.025,0-.048.023-.073.023-.772.265-1.353.317-8.566,3.478-1.641.723-1.834,1.211-4,4.35l-.1.152c-.3.583-1.46,2.777-3.04,5.947-1.773,3.553-4.748,7.859-6.052,13.335a2.044,2.044,0,0,0-.1.361c-.1.386-.169.749-.265,1.135-.048.193-.1.41-.145.627-.048.169-.1.339-.144.484a1.557,1.557,0,0,1-.073.313,1.6,1.6,0,0,1-.1.313c-4.031,13.851-22.464,53.374-25.5,59.5-3.21,6.393-8.252,8.9-17.373,13.655a89.01,89.01,0,0,1-10.762,15.082v-14.43c5.55-9.844,8.59-9.626,12.715-6.754,4.127,2.895,8.518,0,8.325-5.816s5.55-24.83,13.392-37.618a41.763,41.763,0,0,0,5-10.954v-.025c1.085-3.836,1.3-6.176,6.056-10.93,6.395-6.395,2-15.587,6.828-26.807a33.3,33.3,0,0,1,5.381-8.494c5.235-6.08,10.417-4.241,12.252-5.111,4.994-2.412,2.92-2.076,6.032-3.669,2.726-1.375,5.067-2.559,7.6-3.885C310.482,185.123,310.507,185.558,310.507,186.016Z" transform="translate(-169.576 -145.673)"/><path class="bb" d="M239.131,272.13c-2.133-2.909-10.3-1.114-10.785.631s-4.751,7.466-5.235,11.054.7,6.614,2.2,6.24C227.689,290.7,239.131,273.464,239.131,272.13Z" transform="translate(-171.028 -113.712)"/><path class="bc" d="M264.709,182.312,258.74,202.37l-.407,1.368s-11.443,12.664-15.294,18.1a10.127,10.127,0,0,0-1.187,1.971,11.967,11.967,0,0,1-2.454,4.038c-1.391,1.67-3.567,4.009-7.244,8.278C229.924,249.016,222,261.5,222,261.5s3.124,5.165,6.975,21.165q.733,3.035,1.163,5.8a59.1,59.1,0,0,1,.553,15.889,24.182,24.182,0,0,1-1.716,7.237c-1.239,2.467-2.833,5.9-7.488,6.557s-7.271,0-7.952-4.072c-.449-2.7-.641-7.1-1.088-11.036a35.067,35.067,0,0,0-.948-5.353c-1.258-4.363-10.664-19.006-13.672-23.851s-7.174-10.472-6.592-15.126,12.991-37.041,15.707-46.733,4.463-16.68,12.217-20.56c0,0,27.052-9.982,33.26-10.564A34.057,34.057,0,0,1,264.709,182.312Z" transform="translate(-182.863 -147.128)"/><path class="ba" d="M244.907,198.51c-2.526,7.149-14.935,4.061-19.978,18.982-1.192,3.531-2.8,7.487-4.555,11.513-2.979,6.83-6.388,13.851-8.953,19.349-2.316,4.957-3.944,8.663-3.944,9.856,0,1.442,2.223,5.183,4.846,9.907,3.368,6.05,7.406,13.718,8.32,20.28.3,2.147,1.571.973,3.438-2.368q-.436-2.766-1.163-5.8c-3.851-16-6.975-21.165-6.975-21.165s7.923-12.485,10.151-25.377c3.677-4.27,5.853-6.609,7.244-8.278a11.967,11.967,0,0,0,2.454-4.038,10.129,10.129,0,0,1,1.187-1.971c3.851-5.434,15.294-18.1,15.294-18.1l.407-1.368V187.5C246.844,186.27,247.426,191.36,244.907,198.51Z" transform="translate(-176.803 -144.687)"/><path class="ba" d="M231.79,203.833s-4.393,9.575-5.747,12.8c-.158.366-.693,1.652-1.368,3.221a65.073,65.073,0,0,1-3.63,7.686c3.677-4.27,5.853-6.609,7.244-8.278a11.967,11.967,0,0,0,2.454-4.038,10.128,10.128,0,0,1,1.187-1.971,9.8,9.8,0,0,1-.14-3.456A17.109,17.109,0,0,0,231.79,203.833Z" transform="translate(-171.756 -138.543)"/><g transform="translate(46.113 157.231)"><path class="ba" d="M219.1,275.234a15.88,15.88,0,0,0-.366,2.851,24.181,24.181,0,0,0,1.716-7.237A38.491,38.491,0,0,0,219.1,275.234Z" transform="translate(-218.73 -270.848)"/></g><path class="bb" d="M216.113,275.364c-1.7-6.4-5.7-6.4-7.078-6.762s-1.939-.455-2.314,2.172,1.782,13.175,2.605,14.991,2.7,1.649,4.9.653,2.424-1.309,2.763-3.636S216.113,275.364,216.113,275.364Z" transform="translate(-177.1 -114.522)"/></g></g></g><g transform="translate(45.642 111.241)"><path class="al" d="M246.441,202.453q.14.648.281,1.3c.325,1.5-.39,2.895-2.22,3.822l-.162-1.5C246.072,205.193,246.75,203.874,246.441,202.453Z" transform="translate(-208.732 -183.997)"/><path class="al" d="M231.413,200.272l.082-.1.041-.052.081-.1.082-.1.041-.052.082-.1.081-.1.041-.052.082-.1.081-.1.041-.052.082-.1c-1.461,1.862-.32,4.508,3.142,6.559,4.311,2.555,10.589,3.217,14.02,1.48l.162,1.5c-3.627,1.836-10.264,1.135-14.821-1.565C231.076,205.038,229.868,202.24,231.413,200.272Z" transform="translate(-213.785 -185.196)"/><path class="bd" d="M254.157,208.163c-3.627,1.836-10.264,1.135-14.821-1.565-2.966-1.756-4.32-3.927-3.9-5.735L218.7,273.7c-.414,1.81-.874,13.285,1.874,23.179,4.143-11.369,8-11.806,10.014-15.334,4.416-7.717,10.984-14.8,13.935-24.242l11.856-51.617A3.855,3.855,0,0,1,254.157,208.163Z" transform="translate(-218.386 -184.588)"/><path class="be" d="M252.306,196.715l-2.941-4.89a1.8,1.8,0,0,1-.9,2.748c-1.939.981-5.482.606-7.918-.836-2.3-1.36-2.784-3.183-1.21-4.209l-4.784,3.12c-2.788,1.816-1.922,5.046,2.142,7.452,4.312,2.555,10.589,3.217,14.021,1.48C252.952,200.451,253.431,198.585,252.306,196.715Z" transform="translate(-212.975 -188.804)"/><path class="bf" d="M246.98,194.77c-1.937.981-5.482.606-7.918-.836s-2.837-3.407-.9-4.387,5.482-.606,7.918.835S248.918,193.789,246.98,194.77Z" transform="translate(-211.487 -189)"/><path class="aq" d="M251.3,200.186c-3.433,1.736-9.709,1.074-14.021-1.48-2.806-1.661-4.087-3.715-3.695-5.426l-2.135,9.3c-.392,1.709.889,3.763,3.695,5.425,4.312,2.555,10.589,3.217,14.021,1.48a3.645,3.645,0,0,0,2.1-2.343l2.135-9.3A3.644,3.644,0,0,1,251.3,200.186Z" transform="translate(-213.554 -187.409)"/></g></g><g transform="translate(135.948 468.032)"><g transform="translate(0 14.176)"><path class="ac" d="M162.194,426.428l31.074-17.941V396.231l-31.074,17.941Z" transform="translate(-131.314 -378.402)"/><path class="ab" d="M170.566,426.4l-30.88-17.829V396.312l30.88,17.829Z" transform="translate(-139.686 -378.372)"/><path class="ab" d="M170.566,426.4l-30.88-17.829V396.313l30.88,17.829Z" transform="translate(-139.686 -378.372)"/><path class="ad" d="M170.566,419.005l31.074-17.941L170.76,383.236l-31.074,17.941Z" transform="translate(-139.686 -383.236)"/></g><path class="ac" d="M162.194,416.1l31.074-17.941V385.9l-31.074,17.941Z" transform="translate(-131.314 -368.069)"/><path class="ab" d="M170.566,416.065l-30.88-17.829V385.98l30.88,17.828Z" transform="translate(-139.686 -368.039)"/><path class="ab" d="M170.566,416.065l-30.88-17.829V385.98l30.88,17.828Z" transform="translate(-139.686 -368.039)"/><path class="ae" d="M170.566,408.672l31.074-17.941L170.76,372.9l-31.074,17.941Z" transform="translate(-139.686 -372.903)"/><g transform="translate(18.272 10.549)"><path class="af" d="M153,387.95l12.666,7.313,12.745-7.358-12.666-7.312Z" transform="translate(-153.004 -380.592)"/></g></g><g transform="translate(405.44 67.372)"><path class="bg" d="M336.116,85.5l8.034-4.639h0c15.207,11.579,24.448,13.881,31.272,15.721,6.824,6.041,16.066,14.41,31.272,20.389h0v32.991c0,13.309-5.252,19.989-11.452,23.241l-8.031,4.636.445-2.181a35.954,35.954,0,0,1-12.232-.2c-.007-.005-31.275-29.129-31.275-61.6V94.472Z" transform="translate(-336.116 -80.866)"/><path class="bh" d="M398.218,112.714l-8.034,4.64-17.212-4.7L358.91,96.964l8.035-4.639c6.824,6.041,16.066,14.41,31.272,20.389Z" transform="translate(-327.638 -76.604)"/><path class="bg" d="M336.989,85l7.162-4.135h0c15.207,11.579,24.448,13.881,31.272,15.721h0l-8.035,4.639-17.212-.032L336.116,85.5Z" transform="translate(-336.116 -80.866)"/><path class="k" d="M367.388,99.968c6.825,6.041,16.066,14.41,31.274,20.39v32.99c0,32.475-31.27,25.494-31.27,25.494s-31.276-29.128-31.276-61.6V84.247C351.323,95.826,360.564,98.128,367.388,99.968Z" transform="translate(-336.116 -79.608)"/><path class="bg" d="M365.855,169.072a30.987,30.987,0,0,0,12.33-.842c8.818-2.66,13.29-9.731,13.29-21.016V121.546c-2.077-1-4.113-2.08-6.091-3.223a117.918,117.918,0,0,1-19.528-14.508,75.894,75.894,0,0,1-19.527-8.04q-2.97-1.714-6.091-3.813v25.669c0,11.284,4.471,23.518,13.29,36.361A118.579,118.579,0,0,0,365.855,169.072Z" transform="translate(-334.583 -76.738)"/><path class="bi" d="M367.319,167.557a118.82,118.82,0,0,1-12.328-15.08c-8.819-12.844-13.29-25.076-13.29-36.361V92.923c1.383.888,2.747,1.725,4.083,2.5a75.894,75.894,0,0,0,19.527,8.04,118,118,0,0,0,19.528,14.508c1.978,1.143,4.014,2.22,6.091,3.223v25.668c0,8.839-2.758,15.08-8.185,18.654a20.8,20.8,0,0,1-3.1,1.2A31.067,31.067,0,0,1,367.319,167.557Z" transform="translate(-334.039 -76.381)"/><g transform="translate(10.949 44.972)"><g class="c"><g transform="translate(20.735 30.256)"><path class="bj" d="M362.455,135.987l-3.245,1.886a3.533,3.533,0,0,0,.417-.288l3.245-1.886A3.138,3.138,0,0,1,362.455,135.987Z" transform="translate(-359.21 -135.699)"/></g><g transform="translate(1.661)"><path class="bk" d="M345.307,115.915l3.246-1.886a4.046,4.046,0,0,1,4.053.4,11.369,11.369,0,0,1,3.8,3.869l-3.245,1.885a11.4,11.4,0,0,0-3.8-3.868A4.048,4.048,0,0,0,345.307,115.915Z" transform="translate(-345.307 -113.645)"/></g><g transform="translate(9.513 4.651)"><path class="bk" d="M351.031,118.922l3.245-1.886,5.992,9.678-3.245,1.885Z" transform="translate(-351.031 -117.036)"/></g><g transform="translate(21.152 16.8)"><path class="bk" d="M376.027,127.776l3.245-1.886-16.514,13.457-3.245,1.886Z" transform="translate(-359.514 -125.891)"/></g><g transform="translate(29.246 2.782)"><path class="bk" d="M365.414,117.942l3.245-1.885a4.059,4.059,0,0,1,4.062.4l-3.245,1.886A4.059,4.059,0,0,0,365.414,117.942Z" transform="translate(-365.414 -115.673)"/></g><g transform="translate(33.309 3.567)"><path class="bk" d="M368.375,118.131l3.245-1.886a11.189,11.189,0,0,1,3.608,3.575c2.427,3.711,2.763,8.033.749,9.659l-3.246,1.885c2.014-1.626,1.679-5.946-.748-9.657A11.175,11.175,0,0,0,368.375,118.131Z" transform="translate(-368.375 -116.245)"/></g><g transform="translate(0 1.886)"><path class="k" d="M377.405,118.587a11.174,11.174,0,0,1,3.608,3.575c2.427,3.711,2.762,8.031.748,9.657l-16.513,13.457c-1.339,1.087-3.261.93-5.191-.184a13.318,13.318,0,0,1-4.466-4.558l-9.617-15.522c-2.336-3.76-2.513-8.012-.41-9.486,1.13-.79,2.686-.626,4.248.276a11.4,11.4,0,0,1,3.8,3.868l5.993,9.678,13.392-10.925C374.129,117.509,375.763,117.638,377.405,118.587Z" transform="translate(-344.097 -115.02)"/></g></g></g></g><g transform="translate(131.599 106.209)"><g class="c" transform="translate(0 121.468)"><g transform="translate(7.276 34.864)"><path class="bl" d="M142.153,223.352l2.6,1.509a2.68,2.68,0,0,1-.333-.23l-2.6-1.509A2.579,2.579,0,0,0,142.153,223.352Z" transform="translate(-141.82 -223.122)"/></g><g transform="translate(23.18)"><path class="bl" d="M162.3,199.528l-2.6-1.511a3.24,3.24,0,0,0-3.245.32,9.133,9.133,0,0,0-3.043,3.1l2.6,1.509a9.137,9.137,0,0,1,3.042-3.1A3.243,3.243,0,0,1,162.3,199.528Z" transform="translate(-153.412 -197.71)"/></g><g transform="translate(11.796 3.724)"><path class="bl" d="M159.1,201.935l-2.6-1.51-11.384,18.387,2.6,1.51Z" transform="translate(-145.114 -200.425)"/></g><g transform="translate(1.053 29.795)"><path class="bl" d="M139.882,220.938l-2.6-1.51,6.222,5.068,2.6,1.51Z" transform="translate(-137.284 -219.428)"/></g><g transform="translate(4.542 18.572)"><path class="bl" d="M145.677,213.063l-2.6-1.509a3.251,3.251,0,0,0-3.253.321l2.6,1.511A3.252,3.252,0,0,1,145.677,213.063Z" transform="translate(-139.827 -211.247)"/></g><g transform="translate(0 19.2)"><path class="bl" d="M143.657,213.216l-2.6-1.511a8.935,8.935,0,0,0-2.889,2.863c-1.943,2.97-2.212,6.43-.6,7.732l2.6,1.509c-1.613-1.3-1.344-4.761.6-7.732A8.931,8.931,0,0,1,143.657,213.216Z" transform="translate(-136.516 -211.705)"/></g><g transform="translate(2.597 1.51)"><path class="bm" d="M142.953,218.011a8.931,8.931,0,0,0-2.889,2.862c-1.944,2.972-2.213,6.432-.6,7.732l6.223,5.068c1.07.871,2.611.745,4.156-.147a10.667,10.667,0,0,0,3.575-3.649L167.7,206.812c1.871-3.011,2.014-6.415.329-7.6a3.141,3.141,0,0,0-3.4.221,9.138,9.138,0,0,0-3.042,3.1l-11.384,18.387-3.723-3.04C145.574,217.147,144.267,217.251,142.953,218.011Z" transform="translate(-138.41 -198.811)"/></g></g><g class="bn" transform="translate(0 80.979)"><path class="bl" d="M142.153,193.841l2.6,1.509a2.684,2.684,0,0,1-.333-.23l-2.6-1.511A2.459,2.459,0,0,0,142.153,193.841Z" transform="translate(-134.544 -158.747)"/><path class="bl" d="M162.3,170.016l-2.6-1.51a3.24,3.24,0,0,0-3.245.32,9.108,9.108,0,0,0-3.043,3.1l2.6,1.509a9.143,9.143,0,0,1,3.042-3.1A3.242,3.242,0,0,1,162.3,170.016Z" transform="translate(-130.232 -168.198)"/><path class="bl" d="M159.1,172.422l-2.6-1.51L145.114,189.3l2.6,1.51Z" transform="translate(-133.318 -167.189)"/><path class="bl" d="M139.882,191.426l-2.6-1.51,6.222,5.068,2.6,1.51Z" transform="translate(-136.231 -160.121)"/><path class="bl" d="M145.677,183.551l-2.6-1.511a3.255,3.255,0,0,0-3.253.322l2.6,1.511A3.249,3.249,0,0,1,145.677,183.551Z" transform="translate(-135.285 -163.163)"/><path class="bl" d="M143.657,183.7l-2.6-1.511a8.936,8.936,0,0,0-2.889,2.863c-1.943,2.97-2.212,6.43-.6,7.731l2.6,1.511c-1.613-1.3-1.344-4.761.6-7.732A8.917,8.917,0,0,1,143.657,183.7Z" transform="translate(-136.516 -162.993)"/><path class="bm" d="M142.953,188.5a8.916,8.916,0,0,0-2.889,2.862c-1.944,2.972-2.213,6.432-.6,7.732l6.223,5.068c1.07.87,2.611.745,4.156-.147a10.667,10.667,0,0,0,3.575-3.649L167.7,177.3c1.871-3.011,2.014-6.417.329-7.6a3.14,3.14,0,0,0-3.4.22,9.143,9.143,0,0,0-3.042,3.1l-11.384,18.387-3.723-3.04C145.574,187.635,144.267,187.74,142.953,188.5Z" transform="translate(-135.812 -167.789)"/></g><g class="bo" transform="translate(0 40.49)"><path class="bl" d="M142.153,164.327l2.6,1.511a2.679,2.679,0,0,1-.333-.23l-2.6-1.511A2.579,2.579,0,0,0,142.153,164.327Z" transform="translate(-134.544 -129.235)"/><path class="bl" d="M162.3,140.5l-2.6-1.511a3.24,3.24,0,0,0-3.245.32,9.115,9.115,0,0,0-3.043,3.1l2.6,1.511a9.143,9.143,0,0,1,3.042-3.1A3.239,3.239,0,0,1,162.3,140.5Z" transform="translate(-130.232 -138.686)"/><path class="bl" d="M159.1,142.91l-2.6-1.51-11.384,18.387,2.6,1.51Z" transform="translate(-133.318 -137.677)"/><path class="bl" d="M139.882,161.913l-2.6-1.51,6.222,5.068,2.6,1.51Z" transform="translate(-136.231 -130.609)"/><path class="bl" d="M145.677,154.04l-2.6-1.51a3.251,3.251,0,0,0-3.253.322l2.6,1.509A3.248,3.248,0,0,1,145.677,154.04Z" transform="translate(-135.285 -133.651)"/><path class="bl" d="M143.657,154.19l-2.6-1.509a8.944,8.944,0,0,0-2.889,2.862c-1.943,2.972-2.212,6.43-.6,7.732l2.6,1.511c-1.613-1.3-1.344-4.761.6-7.732A8.922,8.922,0,0,1,143.657,154.19Z" transform="translate(-136.516 -133.481)"/><path class="bm" d="M142.953,158.986a8.922,8.922,0,0,0-2.889,2.863c-1.944,2.972-2.213,6.43-.6,7.732l6.223,5.068c1.07.87,2.611.745,4.156-.147a10.672,10.672,0,0,0,3.575-3.651L167.7,147.788c1.871-3.013,2.014-6.417.329-7.6a3.14,3.14,0,0,0-3.4.22,9.143,9.143,0,0,0-3.042,3.1L150.206,161.9l-3.723-3.04C145.574,158.123,144.267,158.228,142.953,158.986Z" transform="translate(-135.812 -138.277)"/></g><g class="bp"><g class="c"><g transform="translate(7.276 34.864)"><path class="bl" d="M142.153,134.816l2.6,1.51a2.553,2.553,0,0,1-.333-.232l-2.6-1.509A2.587,2.587,0,0,0,142.153,134.816Z" transform="translate(-141.82 -134.585)"/></g><g transform="translate(23.18)"><path class="bl" d="M162.3,110.991l-2.6-1.511a3.24,3.24,0,0,0-3.245.32,9.133,9.133,0,0,0-3.043,3.1l2.6,1.511a9.13,9.13,0,0,1,3.042-3.1A3.243,3.243,0,0,1,162.3,110.991Z" transform="translate(-153.412 -109.173)"/></g><g transform="translate(11.796 3.724)"><path class="bl" d="M159.1,113.4l-2.6-1.51-11.384,18.387,2.6,1.51Z" transform="translate(-145.114 -111.888)"/></g><g transform="translate(1.053 29.795)"><path class="bl" d="M139.882,132.4l-2.6-1.51,6.222,5.068,2.6,1.51Z" transform="translate(-137.284 -130.891)"/></g><g transform="translate(4.542 18.572)"><path class="bl" d="M145.677,124.528l-2.6-1.511a3.251,3.251,0,0,0-3.253.321l2.6,1.511A3.248,3.248,0,0,1,145.677,124.528Z" transform="translate(-139.827 -122.71)"/></g><g transform="translate(0 19.2)"><path class="bl" d="M143.657,124.679l-2.6-1.511a8.95,8.95,0,0,0-2.889,2.863c-1.943,2.972-2.212,6.43-.6,7.732l2.6,1.511c-1.613-1.3-1.344-4.762.6-7.732A8.922,8.922,0,0,1,143.657,124.679Z" transform="translate(-136.516 -123.168)"/></g><g transform="translate(2.597 1.51)"><path class="bm" d="M142.953,129.474a8.922,8.922,0,0,0-2.889,2.863c-1.944,2.97-2.213,6.43-.6,7.732l6.223,5.067c1.07.871,2.611.746,4.156-.145a10.684,10.684,0,0,0,3.575-3.651L167.7,118.277c1.871-3.013,2.014-6.417.329-7.6a3.141,3.141,0,0,0-3.4.221,9.13,9.13,0,0,0-3.042,3.1l-11.384,18.387-3.723-3.042C145.574,128.61,144.267,128.716,142.953,129.474Z" transform="translate(-138.41 -110.274)"/></g></g></g></g><g transform="translate(351.145 465.565)"><g transform="translate(0 14.176)"><path class="ac" d="M319.05,424.629l31.074-17.941V394.432L319.05,412.373Z" transform="translate(-288.169 -376.603)"/><path class="ab" d="M327.422,424.6,296.541,406.77V394.514l30.881,17.829Z" transform="translate(-296.541 -376.573)"/><path class="ab" d="M327.422,424.6,296.541,406.77V394.514l30.881,17.829Z" transform="translate(-296.541 -376.573)"/><path class="ad" d="M327.422,417.206,358.5,399.266l-30.88-17.829-31.074,17.941Z" transform="translate(-296.541 -381.437)"/></g><path class="ac" d="M319.05,414.3l31.074-17.941V384.1L319.05,402.04Z" transform="translate(-288.169 -366.271)"/><path class="ab" d="M327.422,414.266l-30.881-17.829V384.181l30.881,17.828Z" transform="translate(-296.541 -366.241)"/><path class="ab" d="M327.422,414.266l-30.881-17.829V384.181l30.881,17.828Z" transform="translate(-296.541 -366.241)"/><path class="ae" d="M327.422,406.874,358.5,388.933,327.615,371.1l-31.074,17.941Z" transform="translate(-296.541 -371.104)"/><g transform="translate(18.272 10.549)"><path class="af" d="M309.859,386.152l12.666,7.312,12.745-7.358L322.6,378.794Z" transform="translate(-309.859 -378.794)"/></g></g><g transform="translate(32.431 394.091)"><g transform="translate(0 28.352)"><path class="ac" d="M86.742,382.865l31.074-17.941V352.669L86.742,370.609Z" transform="translate(-55.862 -334.84)"/><path class="ab" d="M95.114,382.835l-30.88-17.829V352.75l30.88,17.829Z" transform="translate(-64.234 -334.809)"/><path class="ad" d="M95.114,375.443,126.188,357.5,95.308,339.673,64.234,357.614Z" transform="translate(-64.234 -339.673)"/></g><g transform="translate(0 14.176)"><path class="ac" d="M86.742,372.533l31.074-17.941V342.336L86.742,360.276Z" transform="translate(-55.862 -324.507)"/><path class="ab" d="M95.114,372.5l-30.88-17.829V342.417l30.88,17.829Z" transform="translate(-64.234 -324.477)"/><path class="ae" d="M95.114,365.11l31.074-17.941L95.308,329.34,64.234,347.281Z" transform="translate(-64.234 -329.34)"/><path class="ad" d="M93.388,360.39,118,346.18,93.541,332.059l-24.612,14.21Z" transform="translate(-62.487 -328.329)"/></g><g transform="translate(6.442)"><path class="ac" d="M86.757,355.766l24.612-14.21V329.3L86.757,343.51Z" transform="translate(-62.298 -315.179)"/><path class="ab" d="M93.388,355.742,68.929,341.621V329.365l24.458,14.121Z" transform="translate(-68.929 -315.155)"/><path class="ae" d="M93.388,347.338,118,333.129,93.541,319.008l-24.612,14.21Z" transform="translate(-68.929 -319.008)"/></g><path class="af" d="M79.478,330.958l10.032,5.792L99.6,330.922,89.572,325.13Z" transform="translate(-58.564 -316.73)"/></g><g transform="translate(82.982 347.064)"><g transform="translate(0 116.072)"><path class="bq" d="M110.486,376.164l-8.093-4.673c-.953-.55-1.515-1.382-1.246-1.848s1.269-.4,2.223.155l8.095,4.673c.954.55,1.515,1.382,1.246,1.848S111.44,376.715,110.486,376.164Z" transform="translate(-101.08 -369.334)"/><path class="bq" d="M124.465,384.235l-8.093-4.673c-.955-.55-1.515-1.383-1.246-1.848s1.269-.4,2.224.155l8.093,4.672c.954.551,1.515,1.383,1.246,1.848S125.419,384.786,124.465,384.235Z" transform="translate(-95.88 -366.332)"/><path class="bq" d="M138.444,392.306l-8.093-4.673c-.955-.552-1.515-1.383-1.246-1.848s1.269-.4,2.224.154l8.093,4.673c.954.552,1.515,1.383,1.246,1.848S139.4,392.856,138.444,392.306Z" transform="translate(-90.681 -363.33)"/></g><g transform="translate(210.631)"><path class="bq" d="M264.013,291.559l-8.094-4.673c-.954-.55-1.513-1.382-1.244-1.848s1.269-.4,2.223.155l8.093,4.673c.955.55,1.515,1.383,1.246,1.848S264.967,292.111,264.013,291.559Z" transform="translate(-254.607 -284.73)"/><path class="bq" d="M277.991,299.63l-8.093-4.673c-.954-.55-1.513-1.382-1.246-1.848s1.27-.4,2.224.155l8.093,4.673c.955.55,1.515,1.382,1.246,1.848S278.946,300.182,277.991,299.63Z" transform="translate(-249.408 -281.728)"/><path class="bq" d="M291.97,307.7l-8.093-4.673c-.954-.552-1.513-1.383-1.246-1.848s1.27-.4,2.224.154l8.093,4.673c.955.552,1.515,1.383,1.246,1.849S292.925,308.252,291.97,307.7Z" transform="translate(-244.208 -278.726)"/><path class="bq" d="M347.886,339.985l-8.093-4.673c-.955-.552-1.515-1.383-1.246-1.848s1.269-.4,2.223.154l8.095,4.673c.953.552,1.513,1.383,1.246,1.848S348.84,340.535,347.886,339.985Z" transform="translate(-223.41 -266.719)"/><path class="bq" d="M361.865,348.054l-8.093-4.671c-.955-.552-1.515-1.383-1.246-1.849s1.269-.4,2.223.155l8.095,4.673c.953.55,1.513,1.382,1.246,1.848S362.819,348.606,361.865,348.054Z" transform="translate(-218.211 -263.717)"/></g><g transform="translate(233.658 124.559)"><path class="bq" d="M280.8,382.349l-8.095-4.673c-.953-.55-1.513-1.382-1.244-1.848s1.269-.4,2.223.155l8.095,4.673c.953.55,1.513,1.382,1.244,1.848S281.751,382.9,280.8,382.349Z" transform="translate(-271.391 -375.52)"/><path class="bq" d="M294.776,390.421l-8.095-4.673c-.953-.552-1.515-1.383-1.244-1.848s1.269-.4,2.223.154l8.095,4.673c.952.552,1.513,1.383,1.244,1.848S295.73,390.971,294.776,390.421Z" transform="translate(-266.191 -372.518)"/></g><g transform="translate(149.279 75.843)"><path class="bq" d="M219.294,346.84l-8.093-4.673c-.955-.55-1.515-1.382-1.246-1.848s1.269-.4,2.223.155l8.094,4.673c.953.55,1.513,1.382,1.246,1.848S220.248,347.392,219.294,346.84Z" transform="translate(-209.888 -340.011)"/><path class="bq" d="M233.273,354.911l-8.093-4.673c-.955-.55-1.515-1.383-1.246-1.848s1.269-.4,2.223.155l8.095,4.673c.954.55,1.513,1.382,1.246,1.848S234.227,355.463,233.273,354.911Z" transform="translate(-204.688 -337.009)"/></g><g transform="translate(11.833 57.837)"><path class="bq" d="M111.018,332.024l8.093-4.674c.954-.55,1.955-.619,2.224-.154s-.292,1.3-1.246,1.848l-8.095,4.673c-.954.55-1.954.62-2.223.155S110.064,332.574,111.018,332.024Z" transform="translate(-109.705 -326.887)"/></g><g transform="translate(116.915 119.734)"><path class="bq" d="M229.547,377.14l8.095-4.673c.954-.552,1.954-.62,2.223-.155s-.291,1.3-1.244,1.848l-8.095,4.673c-.953.552-1.954.62-2.223.155S228.593,377.69,229.547,377.14Z" transform="translate(-170.7 -372.003)"/><path class="bq" d="M215.568,385.211l8.095-4.673c.954-.551,1.955-.621,2.223-.155s-.291,1.3-1.244,1.848l-8.094,4.673c-.954.55-1.954.62-2.223.154S214.614,385.761,215.568,385.211Z" transform="translate(-175.899 -369.001)"/><path class="bq" d="M201.59,393.28l8.093-4.673c.955-.55,1.955-.62,2.223-.154s-.291,1.3-1.244,1.848l-8.095,4.673c-.953.55-1.954.62-2.223.154S200.636,393.83,201.59,393.28Z" transform="translate(-181.098 -365.999)"/><path class="bq" d="M187.611,401.352l8.093-4.673c.955-.552,1.955-.62,2.224-.155s-.292,1.3-1.246,1.849l-8.093,4.673c-.955.55-1.955.619-2.224.154S186.657,401.9,187.611,401.352Z" transform="translate(-186.298 -362.998)"/></g><g transform="translate(117.945 162.679)"><path class="bq" d="M198.394,405.292l-9.346-.03c-1.1,0-2-.447-2-.985s.9-.974,2-.971l9.346.032c1.1,0,2,.446,2,.984S199.494,405.3,198.394,405.292Z" transform="translate(-187.049 -403.305)"/><path class="bq" d="M214.535,405.345l-9.346-.03c-1.1,0-2-.447-2-.985s.9-.974,2-.971l9.347.032c1.1,0,2,.446,2,.984S215.636,405.349,214.535,405.345Z" transform="translate(-181.045 -403.285)"/><path class="bq" d="M230.676,405.4l-9.346-.032c-1.1,0-2-.447-2-.984s.9-.975,2.006-.971l9.346.03c1.1,0,2,.446,2,.984S231.777,405.4,230.676,405.4Z" transform="translate(-175.042 -403.265)"/><path class="bq" d="M246.818,405.451l-9.347-.03c-1.1,0-2-.446-2-.985s.905-.974,2.006-.971l9.346.032c1.1,0,2,.447,2,.984S247.92,405.455,246.818,405.451Z" transform="translate(-169.038 -403.246)"/><path class="bq" d="M262.959,405.5l-9.346-.032c-1.1,0-2-.446-2-.984s.9-.975,2.006-.971l9.346.03c1.1,0,2,.447,2,.985S264.06,405.507,262.959,405.5Z" transform="translate(-163.034 -403.226)"/><path class="bq" d="M279.1,405.558l-9.347-.032c-1.1,0-2-.446-2-.984s.9-.975,2.006-.971l9.346.03c1.1,0,2,.447,2,.985S280.2,405.56,279.1,405.558Z" transform="translate(-157.03 -403.206)"/><path class="bq" d="M295.242,405.611l-9.346-.032c-1.1,0-2-.446-2-.984s.9-.975,2.006-.971l9.347.03c1.1,0,2,.447,2,.985S296.342,405.615,295.242,405.611Z" transform="translate(-151.027 -403.186)"/></g><g transform="translate(254.557 109.9)"><path class="bq" d="M297.97,366.822l-9.346-.03c-1.1,0-2-.447-2-.985s.9-.974,2.006-.971l9.346.032c1.1,0,2,.446,2,.984S299.07,366.826,297.97,366.822Z" transform="translate(-286.624 -364.835)"/><path class="bq" d="M314.111,366.874l-9.346-.03c-1.1,0-2-.447-2-.985s.9-.974,2.006-.97l9.346.03c1.1,0,2,.447,2,.984S315.212,366.878,314.111,366.874Z" transform="translate(-280.62 -364.815)"/><path class="bq" d="M330.252,366.929l-9.346-.032c-1.1,0-2-.446-2-.984s.9-.975,2.006-.971l9.346.03c1.1,0,2,.447,2,.985S331.353,366.931,330.252,366.929Z" transform="translate(-274.616 -364.795)"/><path class="bq" d="M346.394,366.982l-9.346-.032c-1.1,0-2-.446-2-.984s.9-.975,2-.971l9.346.03c1.1,0,2,.447,2,.985S347.494,366.984,346.394,366.982Z" transform="translate(-268.612 -364.775)"/><path class="bq" d="M362.535,367.035,353.189,367c-1.1,0-2-.446-2-.984s.9-.975,2-.971l9.347.03c1.1,0,2,.447,2,.985S363.636,367.039,362.535,367.035Z" transform="translate(-262.609 -364.756)"/></g><g transform="translate(6.518 109.367)"><path class="bq" d="M117.177,366.434l-9.346-.032c-1.1,0-2-.446-2-.984s.905-.975,2.006-.971l9.346.03c1.1,0,2,.447,2,.985S118.279,366.438,117.177,366.434Z" transform="translate(-105.831 -364.447)"/><path class="bq" d="M133.318,366.487l-9.346-.03c-1.1,0-2-.447-2-.985s.9-.975,2.006-.971l9.346.032c1.1,0,2,.446,2,.984S134.419,366.491,133.318,366.487Z" transform="translate(-99.827 -364.427)"/><path class="bq" d="M149.46,366.54l-9.346-.03c-1.1,0-2-.447-2-.985s.9-.975,2.006-.971l9.346.032c1.1,0,2,.446,2,.984S150.56,366.544,149.46,366.54Z" transform="translate(-93.823 -364.408)"/><path class="bq" d="M165.6,366.593l-9.346-.03c-1.1,0-2-.447-2-.985s.9-.974,2.006-.971l9.346.032c1.1,0,2,.446,2,.984S166.7,366.6,165.6,366.593Z" transform="translate(-87.819 -364.388)"/><path class="bq" d="M181.742,366.646l-9.346-.03c-1.1,0-2-.447-2-.985s.9-.974,2.006-.971l9.346.032c1.1,0,2,.446,2,.984S182.843,366.65,181.742,366.646Z" transform="translate(-81.816 -364.368)"/><path class="bq" d="M197.884,366.7l-9.346-.03c-1.1,0-2-.447-2-.984s.9-.975,2-.971l9.346.03c1.1,0,2,.446,2,.984S198.984,366.7,197.884,366.7Z" transform="translate(-75.812 -364.348)"/><path class="bq" d="M214.025,366.751l-9.346-.03c-1.1,0-2-.446-2-.984s.9-.975,2.006-.971l9.346.03c1.1,0,2,.447,2,.985S215.126,366.755,214.025,366.751Z" transform="translate(-69.808 -364.328)"/><path class="bq" d="M230.166,366.806l-9.346-.032c-1.1,0-2-.446-2-.984s.9-.975,2.006-.971l9.346.03c1.1,0,2,.447,2,.985S231.267,366.808,230.166,366.806Z" transform="translate(-63.804 -364.309)"/></g><g transform="translate(335.754 126.179)"><path class="bq" d="M361.1,381.838l8.095-4.673c.954-.552,1.954-.622,2.223-.155s-.291,1.3-1.246,1.848l-8.093,4.673c-.954.552-1.954.62-2.223.155S360.145,382.388,361.1,381.838Z" transform="translate(-340.608 -376.701)"/><path class="bq" d="M347.12,389.907l8.094-4.673c.953-.55,1.954-.62,2.223-.154s-.291,1.3-1.244,1.848L348.1,391.6c-.953.55-1.954.62-2.223.154S346.166,390.459,347.12,389.907Z" transform="translate(-345.808 -373.699)"/></g><g transform="translate(248.728 70.771)"><path class="bq" d="M297.667,341.45l8.094-4.673c.952-.55,1.954-.62,2.223-.154s-.292,1.3-1.246,1.848l-8.093,4.673c-.955.55-1.955.62-2.223.154S296.713,342,297.667,341.45Z" transform="translate(-277.176 -336.315)"/><path class="bq" d="M283.688,349.521l8.095-4.673c.954-.551,1.954-.62,2.223-.154s-.292,1.3-1.244,1.847l-8.095,4.673c-.954.552-1.955.621-2.223.155S282.734,350.072,283.688,349.521Z" transform="translate(-282.375 -333.313)"/></g></g><g transform="translate(444.034 400.834)"><g transform="translate(0 28.352)"><path class="ac" d="M386.755,387.781l31.074-17.941V357.584l-31.074,17.941Z" transform="translate(-355.875 -339.755)"/><path class="ab" d="M395.127,387.75l-30.881-17.829V357.665l30.881,17.829Z" transform="translate(-364.247 -339.725)"/><path class="ad" d="M395.127,380.358,426.2,362.417l-30.88-17.829-31.074,17.941Z" transform="translate(-364.247 -344.589)"/></g><g transform="translate(0 14.176)"><path class="ac" d="M386.755,377.448l31.074-17.941V347.251l-31.074,17.941Z" transform="translate(-355.875 -329.422)"/><path class="ab" d="M395.127,377.418l-30.881-17.829V347.333l30.881,17.829Z" transform="translate(-364.247 -329.392)"/><path class="ae" d="M395.127,370.025,426.2,352.085l-30.88-17.829L364.247,352.2Z" transform="translate(-364.247 -334.256)"/><path class="ad" d="M393.4,365.305l24.612-14.21-24.458-14.121-24.612,14.21Z" transform="translate(-362.5 -333.245)"/></g><g transform="translate(6.442)"><path class="ac" d="M386.77,360.682l24.612-14.21V334.216l-24.612,14.21Z" transform="translate(-362.311 -320.095)"/><path class="ab" d="M393.4,360.658l-24.458-14.121V334.28L393.4,348.4Z" transform="translate(-368.942 -320.07)"/><path class="ae" d="M393.4,352.254l24.612-14.21-24.458-14.121-24.612,14.21Z" transform="translate(-368.942 -323.923)"/></g><path class="af" d="M379.491,335.874l10.032,5.792,10.095-5.828-10.032-5.792Z" transform="translate(-358.577 -321.646)"/></g><g transform="translate(351.145 360.659)"><g transform="translate(0 14.176)"><path class="ab" d="M327.421,348.134l-30.88-17.829V318.049l30.88,17.829Z" transform="translate(-296.541 -300.108)"/><path class="ac" d="M319.049,335.908v12.256l31.074-17.941V317.968Z" transform="translate(-288.169 -300.139)"/><path class="ad" d="M296.541,322.913l30.88,17.829L358.5,322.8l-30.88-17.829Z" transform="translate(-296.541 -304.972)"/></g><path class="ab" d="M327.421,337.8l-30.88-17.829V307.716l30.88,17.829Z" transform="translate(-296.541 -289.776)"/><path class="ac" d="M319.049,325.576v12.256l31.074-17.941V307.635Z" transform="translate(-288.169 -289.806)"/><path class="ae" d="M296.541,312.58l30.88,17.829L358.5,312.468l-30.88-17.829Z" transform="translate(-296.541 -294.64)"/><path class="af" d="M309.859,309.687,322.525,317l12.745-7.358L322.6,302.329Z" transform="translate(-291.588 -291.78)"/></g><g transform="translate(0 133.612)"><g transform="translate(0 3.35)"><g transform="translate(5.005)"><path class="br" d="M146.686,144.613,44.243,203.758h0l2.479,4.351,44.159,4.458,9.168-5.293,44.159-55.448,2.479-7.212Z" transform="translate(-44.243 -126.744)"/><path class="ac" d="M52.042,193.8v15.8l18.711-10.05-4.435-16.811Z" transform="translate(-41.342 -112.564)"/><path class="bs" d="M89.056,136.882l9.168-5.293,48.462,17.868L44.243,208.6Z" transform="translate(-44.243 -131.589)"/></g><path class="bt" d="M86.566,265.218a5.306,5.306,0,0,0,2.648-.642l47.14-27.217a2.971,2.971,0,0,0,1.6-2.577,3.391,3.391,0,0,0-1.886-2.884l-3.036-1.753a6.439,6.439,0,0,0-3.177-.808,5.309,5.309,0,0,0-2.648.642L80.064,257.2a2.971,2.971,0,0,0-1.6,2.578,3.391,3.391,0,0,0,1.886,2.882l3.036,1.753A6.439,6.439,0,0,0,86.566,265.218Z" transform="translate(-26.509 -95.231)"/><path class="bt" d="M48.695,265.864a5.3,5.3,0,0,0,2.646-.642l47.142-27.215a2.974,2.974,0,0,0,1.6-2.578,3.393,3.393,0,0,0-1.886-2.884l-3.036-1.753a6.439,6.439,0,0,0-3.177-.808,5.309,5.309,0,0,0-2.648.642l-47.14,27.217a2.971,2.971,0,0,0-1.6,2.578,3.4,3.4,0,0,0,1.886,2.884l3.036,1.752A6.439,6.439,0,0,0,48.695,265.864Z" transform="translate(-40.595 -94.991)"/><g transform="translate(5.005 17.868)"><path class="bu" d="M144.208,151.825l-44.158,55.448h0l-9.168,5.293h0l-44.159-4.458-2.479-4.35h0v68.857L146.686,213.47V144.613Z" transform="translate(-44.243 -144.613)"/><path class="bv" d="M90.881,195.579l9.168-5.293,46.638,6.2L44.243,255.628Z" transform="translate(-44.243 -127.625)"/></g></g><g transform="translate(15.705)"><path class="ac" d="M87.821,251.538,143.6,219.328l.446-.258a4.8,4.8,0,0,0,2.229-4.084l-7.3,4.226L90.052,247.453A4.8,4.8,0,0,1,87.821,251.538Z" transform="translate(-38.734 -97.219)"/><path class="ac" d="M68.794,219.037l15.423-8.92.023-47.485a7.014,7.014,0,0,0-.07-.986v-.023a9.909,9.909,0,0,0-1.855-4.953,8.157,8.157,0,0,0-1.174-1.386,10.3,10.3,0,0,0-2.041-1.572l-.516-.235a4.744,4.744,0,0,0-4.438-.211l-.822.469a4.738,4.738,0,0,0-2.041,3.944v56.756A5.417,5.417,0,0,1,68.794,219.037Z" transform="translate(-45.811 -120.344)"/><path class="ac" d="M52.042,189.778v3.216l9.79-5.658a10.014,10.014,0,0,0-1.95-1.456l-.539-.329a4.849,4.849,0,0,0-4.695-.093l-.166.093A4.819,4.819,0,0,0,52.042,189.778Z" transform="translate(-52.042 -108.411)"/><path class="af" d="M72.7,162.068a4.744,4.744,0,0,1,4.438.211l.516.235a10.3,10.3,0,0,1,2.041,1.572,8.157,8.157,0,0,1,1.174,1.386,9.909,9.909,0,0,1,1.855,4.953v.023a7.015,7.015,0,0,1,.07.986l-.023,47.485-.093,55.438a10.229,10.229,0,0,0,5.116,8.9l.587.353a4.782,4.782,0,0,0,4.789.023l.281-.165a4.8,4.8,0,0,0,2.231-4.084L144.6,251.139l-.587-.353a10.28,10.28,0,0,1-5.117-8.9l.118-102.922a10.227,10.227,0,0,0-5.142-8.9l-.517-.258a4.713,4.713,0,0,0-4.9.047l-.166.095Z" transform="translate(-44.36 -129.147)"/><path class="ae" d="M53.942,188.883a4.849,4.849,0,0,1,4.695.093l.539.329a10.014,10.014,0,0,1,1.95,1.456,10.189,10.189,0,0,1,3.193,7.418v5.094a8.578,8.578,0,0,0,4.178,7.371,5.493,5.493,0,0,0,2.818.775,5.4,5.4,0,0,0,2.77-.752v-.023a1.1,1.1,0,0,0,.235-.117,5.417,5.417,0,0,0,2.489-4.6V175.69Z" transform="translate(-51.335 -111.835)"/></g><g transform="translate(62.619 37.829)"><path class="bw" d="M91.759,176.476l27.409-15.824a3.379,3.379,0,0,0,1.41-2.7h0c0-1.039-.631-1.516-1.41-1.066L91.759,172.714a3.377,3.377,0,0,0-1.41,2.7h0C90.349,176.448,90.98,176.926,91.759,176.476Z" transform="translate(-84.708 -156.721)"/><path class="bw" d="M87.647,194.572l38.692-22.339a3.375,3.375,0,0,0,1.41-2.695h0c0-1.039-.631-1.516-1.41-1.066L87.647,190.81a3.379,3.379,0,0,0-1.41,2.7h0C86.237,194.544,86.868,195.022,87.647,194.572Z" transform="translate(-86.237 -152.413)"/><path class="bw" d="M87.647,207.486l38.692-22.339a3.377,3.377,0,0,0,1.41-2.695h0c0-1.039-.631-1.516-1.41-1.066L87.647,203.724a3.377,3.377,0,0,0-1.41,2.7h0C86.237,207.458,86.868,207.936,87.647,207.486Z" transform="translate(-86.237 -147.609)"/><path class="bw" d="M87.647,199.764l30.608-17.672a3.377,3.377,0,0,0,1.41-2.694h0c0-1.039-.631-1.516-1.41-1.067L87.647,196a3.379,3.379,0,0,0-1.41,2.7h0C86.237,199.736,86.868,200.214,87.647,199.764Z" transform="translate(-86.237 -148.746)"/><path class="bw" d="M87.647,209.739l11.83-6.831a3.377,3.377,0,0,0,1.41-2.694h0c0-1.039-.631-1.516-1.41-1.067l-11.83,6.831a3.379,3.379,0,0,0-1.41,2.7h0C86.237,209.711,86.868,210.189,87.647,209.739Z" transform="translate(-86.237 -141.003)"/></g><g transform="translate(80.78 93.34)"><path class="bx" d="M118.724,205.43a25.73,25.73,0,0,1-9.483,16.494l-3.162,5.5-3.321-1.917c-4.377-2.559-4.377-10.8,0-18.414s11.471-11.708,15.847-9.15l3.321,1.918Z" transform="translate(-99.475 -197.182)"/><path class="bi" d="M105.178,208.491c-4.377,7.612-4.377,15.856,0,18.414s11.471-1.538,15.847-9.15,4.377-15.857,0-18.414S109.554,200.879,105.178,208.491Z" transform="translate(-98.574 -196.662)"/><g transform="translate(7.842 8.568)"><g class="c"><g transform="translate(3.625 15.533)"><path class="bj" d="M107.976,214.848l1.115.648a1.219,1.219,0,0,1-.144-.1l-1.114-.648A1.1,1.1,0,0,0,107.976,214.848Z" transform="translate(-107.833 -214.749)"/></g><g transform="translate(10.806)"><path class="bk" d="M116.878,204.206l-1.114-.648a1.392,1.392,0,0,0-1.393.136,3.917,3.917,0,0,0-1.3,1.329l1.115.648a3.892,3.892,0,0,1,1.3-1.329A1.39,1.39,0,0,1,116.878,204.206Z" transform="translate(-113.067 -203.427)"/></g><g transform="translate(5.564 1.597)"><path class="bk" d="M115.6,205.238l-1.114-.648-5.243,8.467,1.114.648Z" transform="translate(-109.246 -204.591)"/></g><g transform="translate(0.452 12.949)"><path class="bk" d="M106.634,213.513l-1.114-.648,3.173,2.584,1.115.648Z" transform="translate(-105.52 -212.865)"/></g><g transform="translate(1.947 8.136)"><path class="bk" d="M109.119,210.136l-1.114-.648a1.4,1.4,0,0,0-1.4.137l1.115.648A1.393,1.393,0,0,1,109.119,210.136Z" transform="translate(-106.61 -209.357)"/></g><g transform="translate(0 8.405)"><path class="bk" d="M108.253,210.2l-1.115-.648a3.838,3.838,0,0,0-1.239,1.228c-.833,1.275-.948,2.758-.257,3.316l1.114.648c-.691-.557-.576-2.041.258-3.316A3.824,3.824,0,0,1,108.253,210.2Z" transform="translate(-105.191 -209.553)"/></g><g transform="translate(1.114 0.647)"><path class="k" d="M107.951,212.3a3.825,3.825,0,0,0-1.239,1.228c-.834,1.275-.949,2.759-.258,3.316l3.173,2.585a1.546,1.546,0,0,0,1.782-.063,4.568,4.568,0,0,0,1.534-1.565l6.488-10.473c.8-1.292.863-2.752.141-3.257a1.347,1.347,0,0,0-1.458.093,3.892,3.892,0,0,0-1.3,1.329l-5.244,8.468-2.1-1.715A1.315,1.315,0,0,0,107.951,212.3Z" transform="translate(-106.003 -203.899)"/></g></g></g></g><path class="af" d="M68.623,201.2v.023l.235-.14A1.1,1.1,0,0,1,68.623,201.2Z" transform="translate(-30.17 -102.391)"/></g></g></g></svg>